M48
; DRILL file {KiCad 9.0.4} date 2026-06-04T01:30:43-0500
; FORMAT={-:-/ absolute / inch / decimal}
; #@! TF.CreationDate,2026-06-04T01:30:43-05:00
; #@! TF.GenerationSoftware,Kicad,Pcbnew,9.0.4
; #@! TF.FileFunction,Plated,1,2,PTH
FMAT,2
INCH
; #@! TA.AperFunction,Plated,PTH,ViaDrill
T1C0.0118
; #@! TA.AperFunction,Plated,PTH,ViaDrill
T2C0.0157
; #@! TA.AperFunction,Plated,PTH,ComponentDrill
T3C0.0394
; #@! TA.AperFunction,Plated,PTH,ComponentDrill
T4C0.0591
; #@! TA.AperFunction,Plated,PTH,ComponentDrill
T5C0.0630
; #@! TA.AperFunction,Plated,PTH,ComponentDrill
T6C0.1181
; #@! TA.AperFunction,Plated,PTH,ComponentDrill
T7C0.2130
%
G90
G05
T1
X6.2244Y-2.9764
X6.2244Y-3.0197
X6.248Y-2.9409
X6.248Y-3.0551
X6.2677Y-2.9764
X6.2677Y-3.0197
X6.3031Y-3.0551
X6.3071Y-2.9409
X6.3898Y-2.8976
X6.4173Y-2.8622
X6.4331Y-2.8976
X6.4409Y-2.8228
X6.4567Y-2.8622
X6.4803Y-2.8228
X6.4803Y-2.8976
X6.4961Y-2.8622
X6.6654Y-3.1614
X6.6835Y-2.7346
X6.6855Y-2.8794
X6.7Y-2.7642
X6.7008Y-3.4449
X6.7181Y-2.7957
X6.7197Y-2.7346
X6.7291Y-3.0181
X6.7311Y-2.7634
X6.7618Y-3.6004
X6.7772Y-3.0551
X6.7933Y-3.6319
X6.8071Y-3.2362
X6.8189Y-3.6004
X6.8504Y-3.4921
X6.8524Y-3.6299
X6.8543Y-2.748
X6.8543Y-2.811
X6.878Y-2.7795
X6.8799Y-3.6004
X6.8976Y-2.748
X6.8976Y-2.811
X6.9094Y-3.6299
X6.9213Y-2.7795
X6.939Y-3.5984
X6.9449Y-2.748
X6.9449Y-2.811
X6.9685Y-2.7795
X6.9921Y-2.748
X6.9921Y-2.811
X7.0079Y-2.7795
X7.0591Y-3.252
X7.063Y-3.5984
X7.063Y-3.6299
X7.1024Y-3.5984
X7.1024Y-3.6299
X7.1087Y-3.0429
X7.1969Y-3.7717
X7.2244Y-3.0236
X7.2323Y-3.4966
X7.2421Y-3.8327
X7.2441Y-2.9882
X7.2618Y-3.7913
X7.2657Y-3.872
X7.2677Y-2.9528
X7.2677Y-3.0236
X7.2677Y-3.0906
X7.2835Y-3.0591
X7.2874Y-2.9882
X7.2874Y-3.1181
X7.2894Y-3.8327
X7.2913Y-2.9173
X7.3051Y-3.7913
X7.3071Y-3.0236
X7.3071Y-3.0906
X7.315Y-2.9528
X7.3169Y-3.8701
X7.3307Y-3.0591
X7.3307Y-3.1142
X7.3346Y-2.9882
X7.3386Y-3.8346
X7.3465Y-3.7913
X7.3504Y-3.0236
X7.3504Y-3.0906
X7.3661Y-3.8701
X7.3898Y-3.8346
X7.4252Y-3.8701
X7.4488Y-3.8346
X7.5472Y-3.7598
X7.5846Y-3.7362
X7.8701Y-3.6024
X7.9016Y-3.6378
X7.9016Y-3.8307
X7.9055Y-3.752
X7.9291Y-3.874
X7.9331Y-3.7205
X7.9331Y-3.7913
X7.937Y-3.6024
X7.9606Y-3.752
X7.9606Y-3.8307
X7.9803Y-3.6378
X7.9882Y-3.7205
X7.9882Y-3.7913
X7.9882Y-3.874
X8.0079Y-3.6024
X8.0157Y-3.752
X8.0157Y-3.8307
X8.0394Y-3.6378
X8.0433Y-3.7205
X8.0433Y-3.7874
X8.0472Y-3.8701
T2
X6.6201Y-2.9301
X6.6236Y-3.0984
X6.8898Y-3.126
X7.0439Y-2.9478
X7.4951Y-3.7559
X8.0758Y-4.4764
T3
X6.3583Y-3.378
X6.3583Y-3.478
X6.7205Y-4.0772
X6.7205Y-4.1772
X7.1575Y-3.9817
X7.1575Y-4.0817
X7.3803Y-3.3864
X7.3803Y-3.4864
X7.4843Y-4.4226
X7.4843Y-4.5226
X7.6323Y-3.3837
X7.6323Y-3.4837
X7.6535Y-4.4226
X7.6535Y-4.5226
X7.8504Y-3.1024
X7.8504Y-3.2024
X7.8602Y-4.2008
X7.9602Y-4.2008
X8.5354Y-4.185
X8.5354Y-4.285
X9.1352Y-4.2795
X9.2352Y-4.2795
T4
X6.1043Y-3.7343
X6.1043Y-3.9508
X6.1043Y-4.4587
X6.1047Y-4.1858
X6.1929Y-2.622
X6.3415Y-2.8012
X6.3457Y-4.7815
X6.4803Y-2.6211
X6.6102Y-2.8041
X6.7409Y-2.6201
X6.974Y-2.6224
X7.1447Y-2.8071
X7.252Y-2.6142
X7.3602Y-2.8073
X7.7559Y-4.7795
X8.1339Y-3.3346
X8.1535Y-3.7874
X8.1535Y-4.0118
X8.311Y-4.7795
X8.4075Y-3.3386
X8.431Y-3.7854
X8.4311Y-4.0236
X8.4921Y-4.6181
T5
X5.5655Y-3.2153
X5.5655Y-3.3491
X6.0958Y-3.2153
X6.0958Y-3.3491
T6
X5.5045Y-2.6457
X5.5045Y-4.7229
X9.2562Y-2.6457
X9.2562Y-4.7229
T7
X5.8622Y-2.8169
X6.7008Y-4.5571
X7.185Y-4.5571
X7.7559Y-2.8169
X8.2799Y-2.8169
X8.8386Y-3.4646
X8.8386Y-4.0177
X8.8386Y-4.5571
M30
