%TF.GenerationSoftware,KiCad,Pcbnew,9.0.4*%
%TF.CreationDate,2026-05-31T00:20:50-05:00*%
%TF.ProjectId,PowerPath,506f7765-7250-4617-9468-2e6b69636164,rev?*%
%TF.SameCoordinates,Original*%
%TF.FileFunction,Soldermask,Top*%
%TF.FilePolarity,Negative*%
%FSLAX46Y46*%
G04 Gerber Fmt 4.6, Leading zero omitted, Abs format (unit mm)*
G04 Created by KiCad (PCBNEW 9.0.4) date 2026-05-31 00:20:50*
%MOMM*%
%LPD*%
G01*
G04 APERTURE LIST*
G04 Aperture macros list*
%AMRoundRect*
0 Rectangle with rounded corners*
0 $1 Rounding radius*
0 $2 $3 $4 $5 $6 $7 $8 $9 X,Y pos of 4 corners*
0 Add a 4 corners polygon primitive as box body*
4,1,4,$2,$3,$4,$5,$6,$7,$8,$9,$2,$3,0*
0 Add four circle primitives for the rounded corners*
1,1,$1+$1,$2,$3*
1,1,$1+$1,$4,$5*
1,1,$1+$1,$6,$7*
1,1,$1+$1,$8,$9*
0 Add four rect primitives between the rounded corners*
20,1,$1+$1,$2,$3,$4,$5,0*
20,1,$1+$1,$4,$5,$6,$7,0*
20,1,$1+$1,$6,$7,$8,$9,0*
20,1,$1+$1,$8,$9,$2,$3,0*%
G04 Aperture macros list end*
%ADD10C,0.000000*%
%ADD11C,3.000000*%
%ADD12RoundRect,0.218750X-0.256250X0.218750X-0.256250X-0.218750X0.256250X-0.218750X0.256250X0.218750X0*%
%ADD13RoundRect,0.200000X-0.200000X-0.275000X0.200000X-0.275000X0.200000X0.275000X-0.200000X0.275000X0*%
%ADD14R,1.700000X1.700000*%
%ADD15C,1.700000*%
%ADD16RoundRect,0.200000X0.275000X-0.200000X0.275000X0.200000X-0.275000X0.200000X-0.275000X-0.200000X0*%
%ADD17C,2.400000*%
%ADD18C,8.115000*%
%ADD19RoundRect,0.237500X-0.237500X0.300000X-0.237500X-0.300000X0.237500X-0.300000X0.237500X0.300000X0*%
%ADD20RoundRect,0.218750X-0.218750X-0.256250X0.218750X-0.256250X0.218750X0.256250X-0.218750X0.256250X0*%
%ADD21RoundRect,0.237500X-0.300000X-0.237500X0.300000X-0.237500X0.300000X0.237500X-0.300000X0.237500X0*%
%ADD22C,3.400000*%
%ADD23C,6.000000*%
%ADD24RoundRect,0.218750X0.218750X0.256250X-0.218750X0.256250X-0.218750X-0.256250X0.218750X-0.256250X0*%
%ADD25RoundRect,0.237500X-0.237500X0.250000X-0.237500X-0.250000X0.237500X-0.250000X0.237500X0.250000X0*%
%ADD26RoundRect,0.200000X0.200000X0.275000X-0.200000X0.275000X-0.200000X-0.275000X0.200000X-0.275000X0*%
%ADD27RoundRect,0.225000X0.225000X0.250000X-0.225000X0.250000X-0.225000X-0.250000X0.225000X-0.250000X0*%
%ADD28RoundRect,0.102000X-0.810000X0.300000X-0.810000X-0.300000X0.810000X-0.300000X0.810000X0.300000X0*%
%ADD29RoundRect,0.102000X-2.290000X2.400000X-2.290000X-2.400000X2.290000X-2.400000X2.290000X2.400000X0*%
%ADD30RoundRect,0.375000X-0.375000X0.625000X-0.375000X-0.625000X0.375000X-0.625000X0.375000X0.625000X0*%
%ADD31RoundRect,0.500000X-1.400000X0.500000X-1.400000X-0.500000X1.400000X-0.500000X1.400000X0.500000X0*%
%ADD32RoundRect,0.250000X0.475000X-0.337500X0.475000X0.337500X-0.475000X0.337500X-0.475000X-0.337500X0*%
%ADD33R,1.200000X0.450000*%
%ADD34RoundRect,0.102000X0.810000X-0.300000X0.810000X0.300000X-0.810000X0.300000X-0.810000X-0.300000X0*%
%ADD35RoundRect,0.102000X2.290000X-2.400000X2.290000X2.400000X-2.290000X2.400000X-2.290000X-2.400000X0*%
%ADD36RoundRect,0.200000X-0.275000X0.200000X-0.275000X-0.200000X0.275000X-0.200000X0.275000X0.200000X0*%
%ADD37R,8.200000X3.300000*%
%ADD38RoundRect,0.237500X0.237500X-0.250000X0.237500X0.250000X-0.237500X0.250000X-0.237500X-0.250000X0*%
%ADD39RoundRect,0.250000X-0.475000X0.337500X-0.475000X-0.337500X0.475000X-0.337500X0.475000X0.337500X0*%
%ADD40R,1.670000X1.970000*%
%ADD41R,1.100000X0.599999*%
%ADD42RoundRect,0.237500X0.237500X-0.300000X0.237500X0.300000X-0.237500X0.300000X-0.237500X-0.300000X0*%
%ADD43RoundRect,0.250000X-0.412500X-1.100000X0.412500X-1.100000X0.412500X1.100000X-0.412500X1.100000X0*%
%ADD44RoundRect,0.237500X0.250000X0.237500X-0.250000X0.237500X-0.250000X-0.237500X0.250000X-0.237500X0*%
%ADD45R,3.300000X8.200000*%
%ADD46RoundRect,0.250000X0.250000X-0.250000X0.250000X0.250000X-0.250000X0.250000X-0.250000X-0.250000X0*%
%ADD47R,0.599999X1.100000*%
%ADD48RoundRect,0.250000X-1.100000X0.412500X-1.100000X-0.412500X1.100000X-0.412500X1.100000X0.412500X0*%
%ADD49RoundRect,0.225000X0.250000X-0.225000X0.250000X0.225000X-0.250000X0.225000X-0.250000X-0.225000X0*%
G04 APERTURE END LIST*
D10*
%TO.C,G\u002A\u002A\u002A*%
G36*
X218250794Y-73946905D02*
G01*
X218275993Y-75080833D01*
X219296528Y-75094476D01*
X220317064Y-75108119D01*
X220317064Y-75359059D01*
X220317064Y-75610000D01*
X218980751Y-75610000D01*
X217644438Y-75610000D01*
X217657834Y-74211488D01*
X217671231Y-72812976D01*
X217948413Y-72812976D01*
X218225596Y-72812976D01*
X218250794Y-73946905D01*
G37*
G36*
X231115873Y-73460198D02*
G01*
X231115873Y-73686984D01*
X230334722Y-73686984D01*
X229553571Y-73686984D01*
X229553571Y-73938968D01*
X229553571Y-74190952D01*
X230334722Y-74190952D01*
X231115873Y-74190952D01*
X231115873Y-74896508D01*
X231115873Y-75602063D01*
X230107936Y-75602063D01*
X229100000Y-75602063D01*
X229100000Y-75375278D01*
X229100000Y-75148492D01*
X229881151Y-75148492D01*
X230662301Y-75148492D01*
X230662301Y-74896508D01*
X230662301Y-74644524D01*
X229881151Y-74644524D01*
X229100000Y-74644524D01*
X229100000Y-73938968D01*
X229100000Y-73233413D01*
X230107936Y-73233413D01*
X231115873Y-73233413D01*
X231115873Y-73460198D01*
G37*
G36*
X224126828Y-72796870D02*
G01*
X224323612Y-72812976D01*
X224337008Y-74211488D01*
X224350404Y-75610000D01*
X224023678Y-75610000D01*
X223696952Y-75610000D01*
X223682703Y-75043036D01*
X223668453Y-74476071D01*
X222573982Y-74462494D01*
X221479510Y-74448916D01*
X221465251Y-75016859D01*
X221450993Y-75584801D01*
X221135211Y-75599826D01*
X220819429Y-75614851D01*
X220832830Y-74213914D01*
X220846231Y-72812976D01*
X221102691Y-72798025D01*
X221301790Y-72802861D01*
X221410363Y-72845420D01*
X221415728Y-72851244D01*
X221441275Y-72928573D01*
X221464051Y-73081243D01*
X221480876Y-73283801D01*
X221486847Y-73420561D01*
X221501389Y-73921706D01*
X222584921Y-73921706D01*
X223668453Y-73921706D01*
X223682752Y-73380474D01*
X223692061Y-73122555D01*
X223711771Y-72949779D01*
X223753781Y-72846509D01*
X223829990Y-72797105D01*
X223952298Y-72785930D01*
X224126828Y-72796870D01*
G37*
G36*
X226356389Y-72792880D02*
G01*
X226679517Y-72796724D01*
X227147725Y-72805193D01*
X227525655Y-72817869D01*
X227823823Y-72838856D01*
X228052744Y-72872257D01*
X228222934Y-72922178D01*
X228344908Y-72992721D01*
X228429182Y-73087992D01*
X228486272Y-73212094D01*
X228526693Y-73369132D01*
X228555352Y-73528856D01*
X228565781Y-73731314D01*
X228542188Y-73953805D01*
X228491695Y-74162348D01*
X228421422Y-74322966D01*
X228377371Y-74378160D01*
X228313130Y-74444076D01*
X228313297Y-74496382D01*
X228380288Y-74576572D01*
X228389499Y-74586385D01*
X228445563Y-74661351D01*
X228482230Y-74758775D01*
X228505316Y-74903634D01*
X228520634Y-75120905D01*
X228522438Y-75157429D01*
X228544076Y-75610000D01*
X228210332Y-75610000D01*
X227876588Y-75610000D01*
X227876588Y-75314415D01*
X227864342Y-75107713D01*
X227821898Y-74964351D01*
X227772136Y-74886042D01*
X227667685Y-74753254D01*
X226713803Y-74753254D01*
X225759921Y-74753254D01*
X225759921Y-75181627D01*
X225759921Y-75610000D01*
X225432342Y-75610000D01*
X225104762Y-75610000D01*
X225104762Y-74225047D01*
X225104762Y-73762116D01*
X225104762Y-73342143D01*
X225759921Y-73342143D01*
X225759921Y-73762116D01*
X225764188Y-73959653D01*
X225775542Y-74117374D01*
X225791816Y-74209012D01*
X225797719Y-74220099D01*
X225857819Y-74231199D01*
X226002244Y-74239204D01*
X226214564Y-74243761D01*
X226478345Y-74244519D01*
X226777158Y-74241126D01*
X226778719Y-74241098D01*
X227115482Y-74234007D01*
X227365965Y-74225610D01*
X227544681Y-74214404D01*
X227666141Y-74198885D01*
X227744859Y-74177551D01*
X227795349Y-74148897D01*
X227811853Y-74134093D01*
X227877195Y-74015962D01*
X227901407Y-73824497D01*
X227901786Y-73789462D01*
X227891791Y-73620129D01*
X227853410Y-73513196D01*
X227782810Y-73438484D01*
X227732720Y-73404546D01*
X227668423Y-73379601D01*
X227574814Y-73362287D01*
X227436788Y-73351247D01*
X227239240Y-73345123D01*
X226967064Y-73342554D01*
X226711878Y-73342143D01*
X225759921Y-73342143D01*
X225104762Y-73342143D01*
X225104762Y-72840095D01*
X225230608Y-72808509D01*
X225313764Y-72800726D01*
X225482805Y-72795150D01*
X225722847Y-72791903D01*
X226019004Y-72791106D01*
X226356389Y-72792880D01*
G37*
%TD*%
D11*
%TO.C,TP_3.3V1*%
X197000000Y-121400000D03*
%TD*%
D12*
%TO.C,D4*%
X184600000Y-88812500D03*
X184600000Y-90387500D03*
%TD*%
D13*
%TO.C,R6*%
X200250000Y-103600000D03*
X201900000Y-103600000D03*
%TD*%
D12*
%TO.C,D3*%
X182800000Y-88812500D03*
X182800000Y-90387500D03*
%TD*%
D14*
%TO.C,JP1*%
X199400000Y-78800000D03*
D15*
X199400000Y-81340000D03*
%TD*%
D11*
%TO.C,TP11*%
X214148031Y-96147927D03*
%TD*%
%TO.C,TP19*%
X177200000Y-66600000D03*
%TD*%
D16*
%TO.C,R1*%
X162200000Y-80625000D03*
X162200000Y-78975000D03*
%TD*%
D17*
%TO.C,F1*%
X144280000Y-82000000D03*
X144280000Y-85400000D03*
X157750000Y-82000000D03*
X157750000Y-85400000D03*
%TD*%
D13*
%TO.C,R19*%
X195575000Y-91550000D03*
X197225000Y-91550000D03*
%TD*%
D14*
%TO.C,JP7*%
X199650000Y-106700000D03*
D15*
X202190000Y-106700000D03*
%TD*%
D16*
%TO.C,R3*%
X181800000Y-93750000D03*
X181800000Y-92100000D03*
%TD*%
D11*
%TO.C,TP7*%
X213550000Y-84800000D03*
%TD*%
%TO.C,TP4*%
X187200000Y-66600000D03*
%TD*%
D12*
%TO.C,D6*%
X203384319Y-101204810D03*
X203384319Y-102779810D03*
%TD*%
D18*
%TO.C,J2*%
X148900000Y-71550000D03*
%TD*%
D19*
%TO.C,C3*%
X162400000Y-86187500D03*
X162400000Y-87912500D03*
%TD*%
D20*
%TO.C,D1*%
X160612500Y-76200000D03*
X162187500Y-76200000D03*
%TD*%
D21*
%TO.C,C5*%
X173537500Y-78600000D03*
X175262500Y-78600000D03*
%TD*%
D18*
%TO.C,J8*%
X197000000Y-71550000D03*
%TD*%
D14*
%TO.C,JP2*%
X181800000Y-103675000D03*
D15*
X181800000Y-101135000D03*
%TD*%
D22*
%TO.C,H1*%
X139813774Y-67200000D03*
D23*
X139813774Y-67200000D03*
%TD*%
D24*
%TO.C,D8*%
X199375000Y-116400000D03*
X197800000Y-116400000D03*
%TD*%
D25*
%TO.C,R9*%
X167700000Y-78787500D03*
X167700000Y-80612500D03*
%TD*%
D18*
%TO.C,J6*%
X184550000Y-115750000D03*
%TD*%
D11*
%TO.C,TP13*%
X214150000Y-102200000D03*
%TD*%
D26*
%TO.C,R18*%
X193962500Y-91800000D03*
X192312500Y-91800000D03*
%TD*%
D27*
%TO.C,C13*%
X192200000Y-98150000D03*
X190650000Y-98150000D03*
%TD*%
D28*
%TO.C,Q2*%
X175400000Y-84900000D03*
X175400000Y-86170000D03*
X175400000Y-87440000D03*
X175400000Y-88710000D03*
D29*
X179110000Y-86805000D03*
%TD*%
D11*
%TO.C,TP18*%
X161131933Y-71204807D03*
%TD*%
D16*
%TO.C,R16*%
X178100000Y-97375000D03*
X178100000Y-95725000D03*
%TD*%
D30*
%TO.C,U1*%
X207400000Y-112100000D03*
X205100000Y-112100000D03*
D31*
X205100000Y-118400000D03*
D30*
X202800000Y-112100000D03*
%TD*%
D16*
%TO.C,R4*%
X184700000Y-93750000D03*
X184700000Y-92100000D03*
%TD*%
D11*
%TO.C,TP12*%
X207100000Y-96200000D03*
%TD*%
D32*
%TO.C,C8*%
X177800000Y-93737500D03*
X177800000Y-91662500D03*
%TD*%
D33*
%TO.C,IC1*%
X178650000Y-83275000D03*
X178650000Y-82625000D03*
X178650000Y-81975000D03*
X178650000Y-81325000D03*
X176150000Y-81325000D03*
X176150000Y-81975000D03*
X176150000Y-82625000D03*
X176150000Y-83275000D03*
%TD*%
D11*
%TO.C,TP5*%
X207100000Y-101900000D03*
%TD*%
D32*
%TO.C,C1*%
X211900000Y-114137500D03*
X211900000Y-112062500D03*
%TD*%
D22*
%TO.C,H5*%
X235103085Y-119961400D03*
D23*
X235103085Y-119961400D03*
%TD*%
D34*
%TO.C,Q1*%
X171710000Y-86066376D03*
X171710000Y-84796376D03*
X171710000Y-83526376D03*
X171710000Y-82256376D03*
D35*
X168000000Y-84161376D03*
%TD*%
D36*
%TO.C,R7*%
X213800000Y-109750000D03*
X213800000Y-111400000D03*
%TD*%
D20*
%TO.C,D5*%
X168640421Y-103429385D03*
X170215421Y-103429385D03*
%TD*%
D11*
%TO.C,TP10*%
X155050000Y-94850000D03*
%TD*%
D24*
%TO.C,D2*%
X193387500Y-79000000D03*
X191812500Y-79000000D03*
%TD*%
D18*
%TO.C,J5*%
X224500000Y-102050000D03*
%TD*%
D11*
%TO.C,TP14*%
X171200000Y-66600000D03*
%TD*%
%TO.C,TP21*%
X211100000Y-121400000D03*
%TD*%
D22*
%TO.C,H2*%
X139813774Y-119961400D03*
D23*
X139813774Y-119961400D03*
%TD*%
D11*
%TO.C,TP16*%
X181300000Y-71204807D03*
%TD*%
D13*
%TO.C,R17*%
X179800000Y-95800000D03*
X181450000Y-95800000D03*
%TD*%
D37*
%TO.C,L1*%
X166100000Y-94150000D03*
X166100000Y-98850000D03*
%TD*%
D38*
%TO.C,R12*%
X165900000Y-80512500D03*
X165900000Y-78687500D03*
%TD*%
D39*
%TO.C,C12*%
X188350000Y-94012500D03*
X188350000Y-96087500D03*
%TD*%
D40*
%TO.C,D10*%
X174100000Y-76425000D03*
X174100000Y-72375000D03*
%TD*%
D41*
%TO.C,U2*%
X175849992Y-95350001D03*
X175849992Y-94400000D03*
X175849992Y-93449999D03*
X173150008Y-93449999D03*
X173150008Y-94400000D03*
X173150008Y-95350001D03*
%TD*%
D42*
%TO.C,C6*%
X171500000Y-78400000D03*
X171500000Y-76675000D03*
%TD*%
D11*
%TO.C,TP15*%
X164400000Y-66600000D03*
%TD*%
D25*
%TO.C,R10*%
X169800000Y-78675000D03*
X169800000Y-80500000D03*
%TD*%
D11*
%TO.C,TP9*%
X155058412Y-106320502D03*
%TD*%
D14*
%TO.C,JP6*%
X193860000Y-85945000D03*
D15*
X193860000Y-88485000D03*
%TD*%
D11*
%TO.C,TP2*%
X187700000Y-71204807D03*
%TD*%
D43*
%TO.C,C15*%
X195925000Y-94050000D03*
X199050000Y-94050000D03*
%TD*%
D18*
%TO.C,J9*%
X224500000Y-115750000D03*
%TD*%
D44*
%TO.C,R15*%
X165900000Y-75000000D03*
X164075000Y-75000000D03*
%TD*%
D32*
%TO.C,C7*%
X182500000Y-80537500D03*
X182500000Y-78462500D03*
%TD*%
D45*
%TO.C,L2*%
X189850000Y-103700000D03*
X194550000Y-103700000D03*
%TD*%
D46*
%TO.C,D9*%
X209800000Y-112050000D03*
X209800000Y-109550000D03*
%TD*%
D11*
%TO.C,TP3*%
X155050000Y-113250000D03*
%TD*%
D14*
%TO.C,JP5*%
X187460000Y-86015000D03*
D15*
X187460000Y-88555000D03*
%TD*%
D18*
%TO.C,J4*%
X170200000Y-115750000D03*
%TD*%
D14*
%TO.C,JP4*%
X193900000Y-114600000D03*
D15*
X193900000Y-112060000D03*
%TD*%
D47*
%TO.C,U3*%
X192287501Y-93850008D03*
X191337500Y-93850008D03*
X190387499Y-93850008D03*
X190387499Y-96549992D03*
X191337500Y-96549992D03*
X192287501Y-96549992D03*
%TD*%
D48*
%TO.C,C11*%
X174300000Y-100987500D03*
X174300000Y-104112500D03*
%TD*%
D32*
%TO.C,C2*%
X200100000Y-114637500D03*
X200100000Y-112562500D03*
%TD*%
D19*
%TO.C,C4*%
X176900000Y-74737500D03*
X176900000Y-76462500D03*
%TD*%
D49*
%TO.C,C9*%
X171500000Y-95975000D03*
X171500000Y-94425000D03*
%TD*%
D18*
%TO.C,J1*%
X210310444Y-71550000D03*
%TD*%
D48*
%TO.C,C10*%
X178200000Y-100987500D03*
X178200000Y-104112500D03*
%TD*%
D24*
%TO.C,D7*%
X215325000Y-112850000D03*
X213750000Y-112850000D03*
%TD*%
D38*
%TO.C,R11*%
X173900000Y-81900000D03*
X173900000Y-80075000D03*
%TD*%
D22*
%TO.C,H3*%
X235106971Y-67200000D03*
D23*
X235106971Y-67200000D03*
%TD*%
D38*
%TO.C,R14*%
X164300000Y-87971128D03*
X164300000Y-86146128D03*
%TD*%
D11*
%TO.C,TP1*%
X157300000Y-66600000D03*
%TD*%
%TO.C,TP20*%
X161180154Y-121450774D03*
%TD*%
%TO.C,TP6*%
X215700000Y-117300000D03*
%TD*%
%TO.C,TP8*%
X155050000Y-100350000D03*
%TD*%
D43*
%TO.C,C14*%
X195975000Y-97500000D03*
X199100000Y-97500000D03*
%TD*%
D18*
%TO.C,J7*%
X224500000Y-88000000D03*
%TD*%
D14*
%TO.C,JP3*%
X216800000Y-106300000D03*
D15*
X216800000Y-108840000D03*
%TD*%
D25*
%TO.C,R13*%
X164000000Y-78787500D03*
X164000000Y-80612500D03*
%TD*%
D11*
%TO.C,TP17*%
X167700000Y-71204807D03*
%TD*%
D36*
%TO.C,R5*%
X171800000Y-101725000D03*
X171800000Y-103375000D03*
%TD*%
%TO.C,R8*%
X197200000Y-112775000D03*
X197200000Y-114425000D03*
%TD*%
D16*
%TO.C,R2*%
X190200000Y-80825000D03*
X190200000Y-79175000D03*
%TD*%
M02*
