%TF.GenerationSoftware,KiCad,Pcbnew,9.0.4*%
%TF.CreationDate,2026-05-31T00:20:50-05:00*%
%TF.ProjectId,PowerPath,506f7765-7250-4617-9468-2e6b69636164,rev?*%
%TF.SameCoordinates,Original*%
%TF.FileFunction,Legend,Bot*%
%TF.FilePolarity,Positive*%
%FSLAX46Y46*%
G04 Gerber Fmt 4.6, Leading zero omitted, Abs format (unit mm)*
G04 Created by KiCad (PCBNEW 9.0.4) date 2026-05-31 00:20:50*
%MOMM*%
%LPD*%
G01*
G04 APERTURE LIST*
%ADD10C,0.000000*%
G04 APERTURE END LIST*
D10*
%TO.C,G\u002A\u002A\u002A*%
G36*
X225124051Y-71886135D02*
G01*
X225088276Y-71921910D01*
X225052501Y-71886135D01*
X225088276Y-71850361D01*
X225124051Y-71886135D01*
G37*
G36*
X225410248Y-72029234D02*
G01*
X225374473Y-72065009D01*
X225338699Y-72029234D01*
X225374473Y-71993459D01*
X225410248Y-72029234D01*
G37*
G36*
X226125741Y-78110924D02*
G01*
X226089966Y-78146699D01*
X226054192Y-78110924D01*
X226089966Y-78075150D01*
X226125741Y-78110924D01*
G37*
G36*
X226555037Y-72315431D02*
G01*
X226519262Y-72351206D01*
X226483487Y-72315431D01*
X226519262Y-72279657D01*
X226555037Y-72315431D01*
G37*
G36*
X226626586Y-76035995D02*
G01*
X226590811Y-76071769D01*
X226555037Y-76035995D01*
X226590811Y-76000220D01*
X226626586Y-76035995D01*
G37*
G36*
X228343769Y-72386981D02*
G01*
X228307994Y-72422755D01*
X228272220Y-72386981D01*
X228307994Y-72351206D01*
X228343769Y-72386981D01*
G37*
G36*
X228415318Y-72172333D02*
G01*
X228379544Y-72208107D01*
X228343769Y-72172333D01*
X228379544Y-72136558D01*
X228415318Y-72172333D01*
G37*
G36*
X228486868Y-72386981D02*
G01*
X228451093Y-72422755D01*
X228415318Y-72386981D01*
X228451093Y-72351206D01*
X228486868Y-72386981D01*
G37*
G36*
X228773065Y-72744727D02*
G01*
X228737290Y-72780502D01*
X228701515Y-72744727D01*
X228737290Y-72708952D01*
X228773065Y-72744727D01*
G37*
G36*
X228773065Y-73245572D02*
G01*
X228737290Y-73281347D01*
X228701515Y-73245572D01*
X228737290Y-73209797D01*
X228773065Y-73245572D01*
G37*
G36*
X230347149Y-73531769D02*
G01*
X230311375Y-73567544D01*
X230275600Y-73531769D01*
X230311375Y-73495995D01*
X230347149Y-73531769D01*
G37*
G36*
X223778030Y-72874724D02*
G01*
X223811147Y-72900478D01*
X223734802Y-72917952D01*
X223662232Y-72912893D01*
X223640893Y-72880373D01*
X223666207Y-72866194D01*
X223778030Y-72874724D01*
G37*
G36*
X224135776Y-72803175D02*
G01*
X224168894Y-72828929D01*
X224092548Y-72846402D01*
X224019979Y-72841343D01*
X223998640Y-72808823D01*
X224023953Y-72794645D01*
X224135776Y-72803175D01*
G37*
G36*
X224565072Y-72230780D02*
G01*
X224598190Y-72256534D01*
X224521844Y-72274008D01*
X224449274Y-72268949D01*
X224427936Y-72236429D01*
X224453249Y-72222251D01*
X224565072Y-72230780D01*
G37*
G36*
X224766304Y-72065009D02*
G01*
X224761141Y-72102887D01*
X224718605Y-72112708D01*
X224710042Y-72102221D01*
X224718605Y-72017309D01*
X224740125Y-72006116D01*
X224766304Y-72065009D01*
G37*
G36*
X224998839Y-74092553D02*
G01*
X225010976Y-74117397D01*
X224909403Y-74128641D01*
X224810978Y-74118667D01*
X224819966Y-74092553D01*
X224852353Y-74083102D01*
X224998839Y-74092553D01*
G37*
G36*
X225195600Y-72422755D02*
G01*
X225190436Y-72460633D01*
X225147900Y-72470455D01*
X225139337Y-72459968D01*
X225147900Y-72375056D01*
X225169421Y-72363862D01*
X225195600Y-72422755D01*
G37*
G36*
X225672595Y-76310267D02*
G01*
X225683789Y-76331788D01*
X225624896Y-76357966D01*
X225587018Y-76352803D01*
X225577196Y-76310267D01*
X225587683Y-76301704D01*
X225672595Y-76310267D01*
G37*
G36*
X225996058Y-72588527D02*
G01*
X226029176Y-72614281D01*
X225952830Y-72631754D01*
X225880260Y-72626695D01*
X225858922Y-72594175D01*
X225884235Y-72579997D01*
X225996058Y-72588527D01*
G37*
G36*
X226388088Y-73949140D02*
G01*
X226399282Y-73970661D01*
X226340389Y-73996840D01*
X226302511Y-73991676D01*
X226292689Y-73949140D01*
X226303176Y-73940577D01*
X226388088Y-73949140D01*
G37*
G36*
X227175131Y-73877591D02*
G01*
X227186324Y-73899112D01*
X227127431Y-73925290D01*
X227089553Y-73920127D01*
X227079731Y-73877591D01*
X227090218Y-73869028D01*
X227175131Y-73877591D01*
G37*
G36*
X227283945Y-72874724D02*
G01*
X227317063Y-72900478D01*
X227240717Y-72917952D01*
X227168148Y-72912893D01*
X227146809Y-72880373D01*
X227172122Y-72866194D01*
X227283945Y-72874724D01*
G37*
G36*
X227427044Y-73304020D02*
G01*
X227460161Y-73329774D01*
X227383816Y-73347247D01*
X227311246Y-73342188D01*
X227289908Y-73309668D01*
X227315221Y-73295490D01*
X227427044Y-73304020D01*
G37*
G36*
X229001128Y-72946273D02*
G01*
X229034246Y-72972027D01*
X228957900Y-72989501D01*
X228885331Y-72984442D01*
X228863992Y-72951922D01*
X228889305Y-72937744D01*
X229001128Y-72946273D01*
G37*
G36*
X228963863Y-74807732D02*
G01*
X228975057Y-74829252D01*
X228916163Y-74855431D01*
X228878285Y-74850268D01*
X228868464Y-74807732D01*
X228878951Y-74799169D01*
X228963863Y-74807732D01*
G37*
G36*
X229506445Y-73019313D02*
G01*
X229518582Y-73044158D01*
X229417008Y-73055402D01*
X229318584Y-73045428D01*
X229327572Y-73019313D01*
X229359959Y-73009863D01*
X229506445Y-73019313D01*
G37*
G36*
X230503663Y-73089372D02*
G01*
X230536781Y-73115126D01*
X230460436Y-73132600D01*
X230387866Y-73127540D01*
X230366527Y-73095020D01*
X230391840Y-73080842D01*
X230503663Y-73089372D01*
G37*
G36*
X224676868Y-73446674D02*
G01*
X224697168Y-73453363D01*
X224681827Y-73471935D01*
X224551656Y-73479395D01*
X224503111Y-73478703D01*
X224404177Y-73467412D01*
X224426445Y-73446674D01*
X224495402Y-73435547D01*
X224676868Y-73446674D01*
G37*
G36*
X224734664Y-72211327D02*
G01*
X224802079Y-72279657D01*
X224815406Y-72304989D01*
X224810524Y-72351206D01*
X224797944Y-72347986D01*
X224730530Y-72279657D01*
X224717203Y-72254324D01*
X224722084Y-72208107D01*
X224734664Y-72211327D01*
G37*
G36*
X225356586Y-73517049D02*
G01*
X225392831Y-73528205D01*
X225350350Y-73542475D01*
X225195600Y-73548056D01*
X225090601Y-73545969D01*
X225000708Y-73534743D01*
X225034614Y-73517049D01*
X225148092Y-73505212D01*
X225356586Y-73517049D01*
G37*
G36*
X226072079Y-73588599D02*
G01*
X226108324Y-73599754D01*
X226065843Y-73614024D01*
X225911093Y-73619606D01*
X225806094Y-73617519D01*
X225716201Y-73606292D01*
X225750107Y-73588599D01*
X225863585Y-73576761D01*
X226072079Y-73588599D01*
G37*
G36*
X226966445Y-72301885D02*
G01*
X226986746Y-72308574D01*
X226971405Y-72327147D01*
X226841234Y-72334606D01*
X226792689Y-72333914D01*
X226693755Y-72322624D01*
X226716023Y-72301885D01*
X226784980Y-72290758D01*
X226966445Y-72301885D01*
G37*
G36*
X227681938Y-72444984D02*
G01*
X227702239Y-72451673D01*
X227686898Y-72470245D01*
X227556727Y-72477705D01*
X227508182Y-72477013D01*
X227409247Y-72465722D01*
X227431515Y-72444984D01*
X227500473Y-72433856D01*
X227681938Y-72444984D01*
G37*
G36*
X228038701Y-72228314D02*
G01*
X228088522Y-72241017D01*
X228041039Y-72253838D01*
X227878699Y-72259192D01*
X227745907Y-72256850D01*
X227652163Y-72246049D01*
X227680954Y-72229291D01*
X227827102Y-72216544D01*
X228038701Y-72228314D01*
G37*
G36*
X228768021Y-71781211D02*
G01*
X228842490Y-71841035D01*
X228796915Y-71945760D01*
X228772503Y-71966915D01*
X228673549Y-71984678D01*
X228629966Y-71886135D01*
X228642432Y-71836084D01*
X228737290Y-71778812D01*
X228768021Y-71781211D01*
G37*
G36*
X231849684Y-68845290D02*
G01*
X231849684Y-69059938D01*
X231205741Y-69059938D01*
X230561797Y-69059938D01*
X230561797Y-68845290D01*
X230561797Y-68630643D01*
X231205741Y-68630643D01*
X231849684Y-68630643D01*
X231849684Y-68845290D01*
G37*
G36*
X230936646Y-72711032D02*
G01*
X230991093Y-72780502D01*
X230989014Y-72797604D01*
X230919544Y-72852051D01*
X230902442Y-72849972D01*
X230847994Y-72780502D01*
X230850074Y-72763400D01*
X230919544Y-72708952D01*
X230936646Y-72711032D01*
G37*
G36*
X231258041Y-72516271D02*
G01*
X231270343Y-72519811D01*
X231280936Y-72541588D01*
X231169966Y-72551905D01*
X231153022Y-72552004D01*
X231041015Y-72542411D01*
X231043393Y-72518922D01*
X231102185Y-72505796D01*
X231258041Y-72516271D01*
G37*
G36*
X230176375Y-73079174D02*
G01*
X230231549Y-73099106D01*
X230168276Y-73138248D01*
X230037989Y-73189628D01*
X229947068Y-73193304D01*
X229846304Y-73138248D01*
X229812145Y-73107618D01*
X229853661Y-73079138D01*
X230025177Y-73072823D01*
X230176375Y-73079174D01*
G37*
G36*
X228790952Y-73730433D02*
G01*
X228804948Y-73732289D01*
X228842508Y-73745963D01*
X228754985Y-73755627D01*
X228558417Y-73759291D01*
X228528988Y-73759231D01*
X228344928Y-73754725D01*
X228271880Y-73744462D01*
X228325882Y-73730433D01*
X228540063Y-73718592D01*
X228790952Y-73730433D01*
G37*
G36*
X227358075Y-73658161D02*
G01*
X227411246Y-73664204D01*
X227423707Y-73675295D01*
X227312738Y-73683065D01*
X227091656Y-73686115D01*
X226977300Y-73685588D01*
X226796366Y-73680456D01*
X226727287Y-73671003D01*
X226785681Y-73658634D01*
X226821608Y-73655336D01*
X227087847Y-73647013D01*
X227358075Y-73658161D01*
G37*
G36*
X226341128Y-77300217D02*
G01*
X226404047Y-77404067D01*
X226474301Y-77571349D01*
X226531446Y-77749683D01*
X226555037Y-77886690D01*
X226543102Y-77907416D01*
X226447713Y-77932051D01*
X226373136Y-77889350D01*
X226340389Y-77723255D01*
X226329322Y-77555548D01*
X226296959Y-77401283D01*
X226284328Y-77341037D01*
X226321408Y-77288107D01*
X226341128Y-77300217D01*
G37*
G36*
X229937106Y-71603499D02*
G01*
X229993433Y-71643649D01*
X230052984Y-71775336D01*
X230047573Y-71922796D01*
X229971515Y-72017623D01*
X229881024Y-72049671D01*
X229800918Y-72037069D01*
X229690952Y-71946596D01*
X229595460Y-71841894D01*
X229569332Y-71743511D01*
X229661469Y-71707262D01*
X229704686Y-71700744D01*
X229788045Y-71631618D01*
X229822999Y-71597684D01*
X229937106Y-71603499D01*
G37*
G36*
X218367108Y-68632444D02*
G01*
X218489662Y-68655341D01*
X218534967Y-68728467D01*
X218541515Y-68881065D01*
X218540876Y-68954959D01*
X218519994Y-69077096D01*
X218438560Y-69123906D01*
X218255318Y-69131488D01*
X218098222Y-69124236D01*
X217995305Y-69084474D01*
X217969121Y-68994241D01*
X217963822Y-68914934D01*
X217925691Y-68743818D01*
X217924118Y-68739610D01*
X217924912Y-68671578D01*
X218011360Y-68639003D01*
X218211889Y-68630643D01*
X218367108Y-68632444D01*
G37*
G36*
X227076367Y-77043461D02*
G01*
X227137056Y-77220469D01*
X227144282Y-77244789D01*
X227185943Y-77423129D01*
X227168721Y-77526757D01*
X227085517Y-77609213D01*
X227079283Y-77613912D01*
X226932981Y-77702451D01*
X226860657Y-77677925D01*
X226841234Y-77533826D01*
X226826877Y-77394969D01*
X226772602Y-77222010D01*
X226758196Y-77192289D01*
X226758541Y-77094151D01*
X226877803Y-77014567D01*
X226921457Y-76995477D01*
X227016061Y-76977645D01*
X227076367Y-77043461D01*
G37*
G36*
X231812011Y-72743155D02*
G01*
X231849684Y-72887826D01*
X231847261Y-72955092D01*
X231821013Y-73018505D01*
X231741122Y-73051761D01*
X231577770Y-73064585D01*
X231301140Y-73066699D01*
X231236136Y-73066490D01*
X230995351Y-73061467D01*
X230833399Y-73051106D01*
X230782408Y-73037232D01*
X230817046Y-73014807D01*
X230964379Y-72949293D01*
X231176753Y-72869242D01*
X231406203Y-72791366D01*
X231604765Y-72732378D01*
X231724473Y-72708988D01*
X231812011Y-72743155D01*
G37*
G36*
X230490248Y-68840044D02*
G01*
X230465569Y-68991830D01*
X230365037Y-69073947D01*
X230341972Y-69075725D01*
X230191896Y-69079974D01*
X229914556Y-69084542D01*
X229520886Y-69089339D01*
X229021821Y-69094278D01*
X228428294Y-69099270D01*
X227751241Y-69104228D01*
X227001595Y-69109061D01*
X226190291Y-69113683D01*
X225328263Y-69118005D01*
X224426445Y-69121938D01*
X218613065Y-69145427D01*
X218613065Y-68888035D01*
X218613065Y-68630643D01*
X224551656Y-68630643D01*
X230490248Y-68630643D01*
X230490248Y-68840044D01*
G37*
G36*
X226757235Y-72516581D02*
G01*
X227006398Y-72551563D01*
X227324002Y-72602696D01*
X227675722Y-72663839D01*
X228027236Y-72728852D01*
X228344217Y-72791593D01*
X228592344Y-72845924D01*
X228737290Y-72885702D01*
X228775284Y-72902130D01*
X228765789Y-72919536D01*
X228635462Y-72911145D01*
X228397774Y-72878665D01*
X228066195Y-72823806D01*
X227654197Y-72748278D01*
X227612528Y-72740344D01*
X227253458Y-72672347D01*
X226935402Y-72612729D01*
X226691537Y-72567677D01*
X226555037Y-72543374D01*
X226467380Y-72526576D01*
X226467665Y-72513152D01*
X226603966Y-72504048D01*
X226610837Y-72503891D01*
X226757235Y-72516581D01*
G37*
G36*
X231849684Y-73737055D02*
G01*
X231849684Y-74354586D01*
X231581375Y-74358710D01*
X231559409Y-74359216D01*
X231293311Y-74380692D01*
X231026868Y-74422031D01*
X230819818Y-74460306D01*
X230493326Y-74489708D01*
X230274438Y-74454828D01*
X230149106Y-74354586D01*
X230071617Y-74266737D01*
X229953022Y-74211488D01*
X229904227Y-74203620D01*
X229846304Y-74140842D01*
X229846867Y-74137098D01*
X229926997Y-74106627D01*
X230131987Y-74097732D01*
X230446479Y-74111171D01*
X230474128Y-74113003D01*
X230784413Y-74124153D01*
X230997302Y-74113122D01*
X231090654Y-74080949D01*
X231109990Y-73951396D01*
X231019632Y-73818318D01*
X230839016Y-73728336D01*
X230630647Y-73674342D01*
X230993167Y-73437016D01*
X231157554Y-73339457D01*
X231404641Y-73221863D01*
X231602686Y-73159607D01*
X231849684Y-73119525D01*
X231849684Y-73737055D01*
G37*
G36*
X224220545Y-72414291D02*
G01*
X224175918Y-72438231D01*
X224017703Y-72494983D01*
X223801142Y-72556136D01*
X223615983Y-72606067D01*
X223314926Y-72713011D01*
X223134820Y-72825796D01*
X223060627Y-72952472D01*
X223058721Y-72962813D01*
X223068458Y-73050243D01*
X223167076Y-73033246D01*
X223213370Y-73015062D01*
X223356768Y-72968149D01*
X223459241Y-72945904D01*
X223488592Y-72953301D01*
X223412626Y-72995312D01*
X223393776Y-73003903D01*
X223294869Y-73082320D01*
X223332353Y-73153938D01*
X223500177Y-73214541D01*
X223792294Y-73259916D01*
X223965195Y-73283035D01*
X224149363Y-73322895D01*
X224236005Y-73363122D01*
X224237450Y-73365587D01*
X224210951Y-73408424D01*
X224081572Y-73413244D01*
X223881070Y-73386765D01*
X223641199Y-73335706D01*
X223393718Y-73266786D01*
X223170382Y-73186725D01*
X223002948Y-73102239D01*
X222808168Y-72974615D01*
X223001335Y-72808459D01*
X223147946Y-72705596D01*
X223353074Y-72611572D01*
X223641198Y-72519614D01*
X224041672Y-72418725D01*
X224081296Y-72409994D01*
X224203171Y-72394151D01*
X224220545Y-72414291D01*
G37*
G36*
X229157026Y-76264266D02*
G01*
X229076856Y-76396310D01*
X228961338Y-76515702D01*
X228844614Y-76572542D01*
X228782196Y-76583470D01*
X228799127Y-76618330D01*
X228919044Y-76668381D01*
X229120297Y-76725235D01*
X229381234Y-76780500D01*
X229405385Y-76784966D01*
X229672490Y-76851048D01*
X229854470Y-76944191D01*
X230005365Y-77091307D01*
X230031613Y-77123649D01*
X230113699Y-77271001D01*
X230174091Y-77379409D01*
X230180354Y-77606436D01*
X230050004Y-77798447D01*
X229986559Y-77844344D01*
X229846295Y-77898063D01*
X229634896Y-77926539D01*
X229316624Y-77936501D01*
X229279726Y-77936831D01*
X228960214Y-77943023D01*
X228664043Y-77953838D01*
X228451093Y-77967154D01*
X228234953Y-77985661D01*
X227938705Y-78009382D01*
X227628276Y-78033023D01*
X227323172Y-78070013D01*
X226994068Y-78135660D01*
X226733910Y-78213670D01*
X226591081Y-78270108D01*
X226434097Y-78330383D01*
X226361012Y-78350002D01*
X226340288Y-78335285D01*
X226340389Y-78292555D01*
X226346641Y-78276303D01*
X226441933Y-78211945D01*
X226615559Y-78149668D01*
X226702511Y-78121032D01*
X226951345Y-78005839D01*
X227188872Y-77859599D01*
X227320449Y-77761558D01*
X227421148Y-77664110D01*
X227435942Y-77583854D01*
X227384066Y-77483753D01*
X227380623Y-77478344D01*
X227284864Y-77244880D01*
X228005400Y-77244880D01*
X228006508Y-77269304D01*
X228099309Y-77282459D01*
X228169638Y-77271001D01*
X228142537Y-77239231D01*
X228101161Y-77227800D01*
X228005400Y-77244880D01*
X227284864Y-77244880D01*
X227267135Y-77201655D01*
X227213484Y-76862549D01*
X227231015Y-76531610D01*
X227244254Y-76470622D01*
X227330694Y-76292640D01*
X227504121Y-76181291D01*
X227729267Y-76086625D01*
X227446236Y-76008047D01*
X227404841Y-75997060D01*
X227169492Y-75948854D01*
X226976052Y-75929070D01*
X226918191Y-75928003D01*
X226833980Y-75904601D01*
X226814757Y-75820006D01*
X226842642Y-75634773D01*
X226910225Y-75392872D01*
X227054881Y-75183697D01*
X227286483Y-75065757D01*
X227627312Y-75021642D01*
X227836938Y-75018887D01*
X228003448Y-75039428D01*
X228119011Y-75101999D01*
X228234030Y-75223356D01*
X228267984Y-75264775D01*
X228373011Y-75410183D01*
X228415318Y-75499013D01*
X228418814Y-75532792D01*
X228454904Y-75662378D01*
X228458893Y-75691257D01*
X228414115Y-75827727D01*
X228302902Y-75993224D01*
X228256498Y-76050471D01*
X228164224Y-76183847D01*
X228142129Y-76251725D01*
X228184830Y-76267814D01*
X228231902Y-76260238D01*
X229000369Y-76260238D01*
X229059262Y-76286417D01*
X229097140Y-76281254D01*
X229106961Y-76238718D01*
X229096475Y-76230155D01*
X229011562Y-76238718D01*
X229000369Y-76260238D01*
X228231902Y-76260238D01*
X228331626Y-76244188D01*
X228528806Y-76165956D01*
X228733298Y-76051880D01*
X228902029Y-75920721D01*
X228989263Y-75839835D01*
X229096704Y-75769530D01*
X229130811Y-75808634D01*
X229123614Y-75861542D01*
X229058713Y-75964785D01*
X229032660Y-76010587D01*
X229094194Y-76116923D01*
X229145663Y-76176544D01*
X229153717Y-76238718D01*
X229157026Y-76264266D01*
G37*
G36*
X218058875Y-69243963D02*
G01*
X218265423Y-69251814D01*
X218536850Y-69257552D01*
X218881846Y-69261299D01*
X219309102Y-69263174D01*
X219827308Y-69263298D01*
X220445156Y-69261793D01*
X221171335Y-69258778D01*
X222014537Y-69254375D01*
X222983453Y-69248705D01*
X224086773Y-69241887D01*
X230490248Y-69201773D01*
X230494119Y-69525009D01*
X230495083Y-69605525D01*
X230496689Y-69739657D01*
X230497324Y-69792687D01*
X230497688Y-69818936D01*
X230498656Y-69846981D01*
X230509595Y-70163750D01*
X230524068Y-70383600D01*
X230532170Y-70506679D01*
X230560857Y-70777121D01*
X230579767Y-70884445D01*
X230581743Y-70895662D01*
X230597151Y-70908787D01*
X230606208Y-70799609D01*
X230609456Y-70561221D01*
X230607443Y-70186719D01*
X230600072Y-69452021D01*
X230934830Y-69452021D01*
X230943393Y-69536934D01*
X230964914Y-69548127D01*
X230991093Y-69489234D01*
X230985929Y-69451356D01*
X230943393Y-69441535D01*
X230934830Y-69452021D01*
X230600072Y-69452021D01*
X230597572Y-69202796D01*
X231223628Y-69202916D01*
X231849684Y-69203037D01*
X231849684Y-69489234D01*
X231849684Y-70598248D01*
X231849684Y-71134868D01*
X231849684Y-71425288D01*
X231849684Y-71846138D01*
X231849684Y-71993459D01*
X231545600Y-71995995D01*
X231430264Y-71997400D01*
X231314202Y-72006847D01*
X231316332Y-72036597D01*
X231420389Y-72100185D01*
X231470638Y-72119452D01*
X231572677Y-72158577D01*
X231724473Y-72164377D01*
X231761839Y-72156478D01*
X231843209Y-72187388D01*
X231848268Y-72279843D01*
X231785045Y-72392871D01*
X231661565Y-72485499D01*
X231636050Y-72496745D01*
X231477127Y-72537718D01*
X231422034Y-72486479D01*
X231477365Y-72347952D01*
X231505848Y-72299791D01*
X231519017Y-72224575D01*
X231420995Y-72208107D01*
X231337287Y-72220648D01*
X231277290Y-72274662D01*
X231277285Y-72275222D01*
X231215764Y-72305679D01*
X231052456Y-72276735D01*
X231042832Y-72274025D01*
X230871631Y-72241975D01*
X230766258Y-72250178D01*
X230747563Y-72258399D01*
X230704896Y-72218292D01*
X230711781Y-72188231D01*
X230794332Y-72105952D01*
X230806980Y-72093330D01*
X230938922Y-72093330D01*
X230940030Y-72117755D01*
X231032830Y-72130909D01*
X231103159Y-72119452D01*
X231076058Y-72087682D01*
X231034682Y-72076250D01*
X230938922Y-72093330D01*
X230806980Y-72093330D01*
X230815359Y-72084969D01*
X230730703Y-72091220D01*
X230547410Y-72087014D01*
X230431110Y-71977351D01*
X230415213Y-71890358D01*
X230561797Y-71890358D01*
X230563657Y-71897499D01*
X230633346Y-71921910D01*
X230652957Y-71918998D01*
X230704896Y-71846138D01*
X230699278Y-71820259D01*
X230633346Y-71814586D01*
X230611934Y-71829271D01*
X230561797Y-71890358D01*
X230415213Y-71890358D01*
X230389508Y-71749693D01*
X230388372Y-71690832D01*
X230380204Y-71586524D01*
X230341705Y-71524637D01*
X230244746Y-71492445D01*
X230061198Y-71477223D01*
X229762931Y-71466248D01*
X229728215Y-71464575D01*
X229549041Y-71441681D01*
X229448867Y-71405123D01*
X229428165Y-71390850D01*
X229323733Y-71398718D01*
X229268899Y-71415179D01*
X229097375Y-71433649D01*
X228868642Y-71438525D01*
X228650141Y-71443725D01*
X228523233Y-71474602D01*
X228486868Y-71538589D01*
X228477628Y-71584887D01*
X228416138Y-71600445D01*
X228381563Y-71596117D01*
X228392522Y-71679509D01*
X228409324Y-71753479D01*
X228356748Y-71751058D01*
X228311537Y-71736432D01*
X228314906Y-71806797D01*
X228348033Y-71860522D01*
X228475072Y-71945312D01*
X228479076Y-71946404D01*
X228503962Y-71970623D01*
X228401654Y-71985160D01*
X228262734Y-72008787D01*
X228164896Y-72065009D01*
X228155693Y-72075265D01*
X228040731Y-72114963D01*
X227856589Y-72125107D01*
X227592501Y-72113657D01*
X227842924Y-72084232D01*
X227863649Y-72081590D01*
X228049473Y-72040125D01*
X228164896Y-71984696D01*
X228177017Y-71968636D01*
X228129959Y-71940313D01*
X227950248Y-71952181D01*
X227922317Y-71955773D01*
X227718862Y-71980361D01*
X227417051Y-72015374D01*
X227052884Y-72056676D01*
X226662361Y-72100131D01*
X226576220Y-72109645D01*
X226188394Y-72153048D01*
X225834827Y-72193466D01*
X225551520Y-72226746D01*
X225374473Y-72248733D01*
X225298092Y-72257657D01*
X225163103Y-72256617D01*
X225160941Y-72214232D01*
X225235411Y-72179577D01*
X225420456Y-72138972D01*
X225661786Y-72111332D01*
X225782777Y-72102362D01*
X226152568Y-72070491D01*
X226537622Y-72031900D01*
X226911641Y-71989828D01*
X227248325Y-71947514D01*
X227521375Y-71908198D01*
X227704492Y-71875118D01*
X227771375Y-71851514D01*
X227769325Y-71847659D01*
X227681284Y-71825573D01*
X227484733Y-71805092D01*
X227209229Y-71787126D01*
X226884329Y-71772586D01*
X226539588Y-71762383D01*
X226204563Y-71757427D01*
X225908811Y-71758631D01*
X225681886Y-71766904D01*
X225553346Y-71783157D01*
X225469355Y-71789897D01*
X225282629Y-71797451D01*
X225033785Y-71804160D01*
X224846681Y-71805840D01*
X224656317Y-71793611D01*
X224554976Y-71757160D01*
X224510231Y-71689375D01*
X224495048Y-71653977D01*
X224406827Y-71575815D01*
X224310633Y-71578221D01*
X224265459Y-71666666D01*
X224258319Y-71714593D01*
X224220008Y-71760456D01*
X224131676Y-71795257D01*
X223974717Y-71821957D01*
X223730526Y-71843519D01*
X223380496Y-71862904D01*
X222906023Y-71883075D01*
X222767402Y-71888690D01*
X222325870Y-71907874D01*
X221899004Y-71928149D01*
X221529583Y-71947423D01*
X221260389Y-71963602D01*
X221254349Y-71964013D01*
X221008285Y-71980715D01*
X220653417Y-72004760D01*
X220222604Y-72033922D01*
X219748703Y-72065978D01*
X219264571Y-72098702D01*
X218936245Y-72122147D01*
X218442566Y-72164010D01*
X218077627Y-72204978D01*
X217849657Y-72243882D01*
X217846206Y-72244471D01*
X217753081Y-72281909D01*
X217690697Y-72325344D01*
X217530871Y-72316827D01*
X217475232Y-72302113D01*
X217439487Y-72303017D01*
X217451148Y-72337005D01*
X217521784Y-72416851D01*
X217662963Y-72555330D01*
X217886252Y-72765216D01*
X218203220Y-73059283D01*
X218252470Y-73104754D01*
X218422300Y-73253291D01*
X218535042Y-73321056D01*
X218628341Y-73323159D01*
X218739840Y-73274713D01*
X218902778Y-73177322D01*
X219073739Y-73048812D01*
X219141555Y-72999831D01*
X219374415Y-72929839D01*
X219625277Y-72952639D01*
X219829403Y-73066699D01*
X219926319Y-73182640D01*
X219972501Y-73281347D01*
X219984780Y-73314409D01*
X220080299Y-73352896D01*
X220086993Y-73353220D01*
X220208612Y-73410497D01*
X220347718Y-73536478D01*
X220370434Y-73557551D01*
X220499451Y-73677237D01*
X220715078Y-73814413D01*
X220724135Y-73817966D01*
X220924235Y-73896465D01*
X220983449Y-73897825D01*
X221079889Y-73900040D01*
X221111201Y-73889088D01*
X221150603Y-73899602D01*
X221099032Y-73999487D01*
X221018578Y-74083816D01*
X220873506Y-74139938D01*
X220828816Y-74141308D01*
X220764995Y-74162440D01*
X220814446Y-74201203D01*
X220956606Y-74247262D01*
X220956875Y-74247349D01*
X221171987Y-74290633D01*
X221241588Y-74301612D01*
X221545380Y-74350204D01*
X221825849Y-74395887D01*
X221965533Y-74415271D01*
X222082802Y-74411887D01*
X222089936Y-74365476D01*
X222075572Y-74327981D01*
X222118980Y-74283037D01*
X222145285Y-74278652D01*
X222159388Y-74218985D01*
X222153553Y-74182188D01*
X222160361Y-74175713D01*
X222262079Y-74175713D01*
X222297854Y-74211488D01*
X222333628Y-74175713D01*
X222297854Y-74139938D01*
X222262079Y-74175713D01*
X222160361Y-74175713D01*
X222224424Y-74114786D01*
X222333394Y-74109875D01*
X222366708Y-74175713D01*
X222376504Y-74195073D01*
X222324707Y-74342284D01*
X222314205Y-74357363D01*
X222246896Y-74412835D01*
X222125169Y-74460342D01*
X221927002Y-74505142D01*
X221630375Y-74552493D01*
X221213269Y-74607652D01*
X221057239Y-74627767D01*
X220714141Y-74676147D01*
X220438064Y-74720917D01*
X220254052Y-74757809D01*
X220191315Y-74781014D01*
X220187149Y-74782555D01*
X220230442Y-74841757D01*
X220356626Y-74967000D01*
X220536674Y-75127611D01*
X220628072Y-75212621D01*
X220668093Y-75249845D01*
X220853794Y-75496354D01*
X220959697Y-75788861D01*
X221006425Y-76173271D01*
X221005775Y-76180135D01*
X220991134Y-76197762D01*
X220938957Y-76260579D01*
X220795318Y-76357934D01*
X220787196Y-76362499D01*
X220756916Y-76387779D01*
X220614417Y-76506749D01*
X220598808Y-76544943D01*
X220549750Y-76664982D01*
X220598745Y-76786786D01*
X220606414Y-76805851D01*
X220630862Y-76823037D01*
X220630967Y-76823111D01*
X220767915Y-76829264D01*
X221005476Y-76757005D01*
X221109103Y-76721224D01*
X221316634Y-76671040D01*
X221455981Y-76666167D01*
X221481135Y-76673022D01*
X221521933Y-76695740D01*
X221425597Y-76707413D01*
X221330683Y-76725430D01*
X221236258Y-76778010D01*
X221213844Y-76833231D01*
X221291941Y-76858812D01*
X221356178Y-76867971D01*
X221398056Y-76937166D01*
X221317628Y-77059150D01*
X221311911Y-77068801D01*
X221277114Y-77127542D01*
X221343155Y-77142630D01*
X221504404Y-77100636D01*
X221743346Y-77003837D01*
X221779158Y-76987099D01*
X221981374Y-76857363D01*
X222047431Y-76726866D01*
X222056970Y-76678091D01*
X222148452Y-76563329D01*
X222295090Y-76478994D01*
X222445051Y-76448951D01*
X222546504Y-76497068D01*
X222614882Y-76514871D01*
X222799668Y-76523062D01*
X223069931Y-76518876D01*
X223395607Y-76502132D01*
X223673670Y-76487475D01*
X224009237Y-76480288D01*
X224284741Y-76485945D01*
X224458947Y-76504361D01*
X224485992Y-76510976D01*
X224790971Y-76659638D01*
X225043293Y-76914971D01*
X225209775Y-77244275D01*
X225222505Y-77283807D01*
X225292655Y-77450913D01*
X225381601Y-77522878D01*
X225531357Y-77538083D01*
X225585846Y-77538845D01*
X225707967Y-77564115D01*
X225779127Y-77653685D01*
X225837396Y-77845838D01*
X225856522Y-77930272D01*
X225882427Y-78116190D01*
X225873050Y-78221918D01*
X225795914Y-78289844D01*
X225724895Y-78245375D01*
X225693644Y-78093037D01*
X225690844Y-77896276D01*
X225589775Y-78128812D01*
X225542668Y-78224613D01*
X225436413Y-78333829D01*
X225270603Y-78361347D01*
X225265060Y-78361370D01*
X225114748Y-78383381D01*
X225052501Y-78434259D01*
X225101177Y-78472869D01*
X225249262Y-78458166D01*
X225359179Y-78434083D01*
X225402298Y-78448957D01*
X225344091Y-78532851D01*
X225290468Y-78606079D01*
X225312692Y-78634045D01*
X225451415Y-78609105D01*
X225653643Y-78536175D01*
X225862340Y-78419961D01*
X226038213Y-78332143D01*
X226184312Y-78325298D01*
X226204555Y-78337407D01*
X226185845Y-78390342D01*
X226047934Y-78475334D01*
X225782283Y-78598179D01*
X225703575Y-78632823D01*
X225489956Y-78734568D01*
X225356241Y-78810730D01*
X225328666Y-78846923D01*
X225335743Y-78848252D01*
X225400614Y-78845400D01*
X225532136Y-78828659D01*
X225739547Y-78796409D01*
X226032086Y-78747030D01*
X226418991Y-78678904D01*
X226909500Y-78590409D01*
X227512852Y-78479926D01*
X228238285Y-78345834D01*
X229095037Y-78186516D01*
X229708339Y-78072909D01*
X230365450Y-77953365D01*
X230892714Y-77860417D01*
X231295958Y-77793098D01*
X231581011Y-77750444D01*
X231753699Y-77731489D01*
X231819851Y-77735269D01*
X231815957Y-77743560D01*
X231720371Y-77778458D01*
X231525581Y-77826731D01*
X231261679Y-77880547D01*
X231041392Y-77921998D01*
X230683833Y-77989690D01*
X230252173Y-78071704D01*
X229782196Y-78161240D01*
X229309684Y-78251498D01*
X229039122Y-78303110D01*
X228435042Y-78417603D01*
X227785153Y-78539998D01*
X227151559Y-78658614D01*
X226596363Y-78761773D01*
X226575990Y-78765543D01*
X226148745Y-78846977D01*
X225766511Y-78924110D01*
X225453261Y-78991772D01*
X225232967Y-79044796D01*
X225129826Y-79077940D01*
X225129602Y-79078012D01*
X225131096Y-79085198D01*
X225234835Y-79100106D01*
X225472179Y-79113176D01*
X225836563Y-79124272D01*
X226321422Y-79133260D01*
X226920192Y-79140003D01*
X227626308Y-79144366D01*
X228433206Y-79146213D01*
X231849684Y-79148389D01*
X231849684Y-79470361D01*
X231849684Y-79792333D01*
X224343456Y-79792333D01*
X216837227Y-79792333D01*
X216835926Y-79132710D01*
X217289403Y-79132710D01*
X217679346Y-79140550D01*
X217828621Y-79140036D01*
X217982644Y-79120522D01*
X217998841Y-79077940D01*
X217989204Y-79070008D01*
X217849596Y-79042532D01*
X217608897Y-79070101D01*
X217289403Y-79132710D01*
X216835926Y-79132710D01*
X216831447Y-76861499D01*
X217701165Y-76861499D01*
X217718789Y-76933267D01*
X217843362Y-76983544D01*
X217875716Y-76985629D01*
X217950086Y-76976738D01*
X217904090Y-76935019D01*
X218129762Y-76935019D01*
X218147994Y-77001910D01*
X218162694Y-77023090D01*
X218227989Y-77073459D01*
X218237776Y-77068801D01*
X218219544Y-77001910D01*
X218204844Y-76980730D01*
X218139549Y-76930361D01*
X218129762Y-76935019D01*
X217904090Y-76935019D01*
X217896670Y-76928289D01*
X217882781Y-76919370D01*
X217835934Y-76871806D01*
X217923114Y-76859907D01*
X218002454Y-76841359D01*
X218014796Y-76751488D01*
X218002084Y-76673305D01*
X218057316Y-76651126D01*
X218169459Y-76730023D01*
X218227670Y-76775322D01*
X218255318Y-76734844D01*
X218254282Y-76716346D01*
X218190757Y-76622983D01*
X218059944Y-76600814D01*
X217905581Y-76639841D01*
X217771409Y-76730069D01*
X217701165Y-76861499D01*
X216831447Y-76861499D01*
X216830882Y-76574899D01*
X216830725Y-76480219D01*
X218074297Y-76480219D01*
X218161030Y-76555098D01*
X218273418Y-76694432D01*
X218288289Y-76734844D01*
X218347070Y-76894586D01*
X218350330Y-76917748D01*
X218368482Y-77021549D01*
X218379218Y-76996984D01*
X218387697Y-76836702D01*
X218391500Y-76779715D01*
X218393188Y-76771657D01*
X218541515Y-76771657D01*
X218587802Y-76812593D01*
X218724317Y-76842730D01*
X218838800Y-76835077D01*
X218844882Y-76823037D01*
X218970811Y-76823037D01*
X219006586Y-76858812D01*
X219042361Y-76823037D01*
X219006586Y-76787262D01*
X218970811Y-76823037D01*
X218844882Y-76823037D01*
X218863193Y-76786786D01*
X218831987Y-76757107D01*
X218717668Y-76720404D01*
X218597317Y-76724148D01*
X218541515Y-76771657D01*
X218393188Y-76771657D01*
X218420599Y-76640807D01*
X218465022Y-76605333D01*
X218491594Y-76615100D01*
X218577290Y-76572614D01*
X218603695Y-76546474D01*
X218707445Y-76547144D01*
X218741677Y-76562862D01*
X218734332Y-76532442D01*
X218701457Y-76512580D01*
X218696283Y-76511239D01*
X219005647Y-76511239D01*
X219015727Y-76557972D01*
X219069673Y-76562862D01*
X219153262Y-76570439D01*
X219263684Y-76566413D01*
X219306628Y-76544943D01*
X219232226Y-76491475D01*
X219133890Y-76452252D01*
X219021155Y-76493651D01*
X219005647Y-76511239D01*
X218696283Y-76511239D01*
X218552350Y-76473937D01*
X218340811Y-76449793D01*
X218185995Y-76441767D01*
X218075919Y-76446367D01*
X218074297Y-76480219D01*
X216830725Y-76480219D01*
X216830568Y-76385926D01*
X218838954Y-76385926D01*
X218856034Y-76481687D01*
X218880459Y-76480579D01*
X218893613Y-76387779D01*
X218882156Y-76317449D01*
X218850386Y-76344551D01*
X218838954Y-76385926D01*
X216830568Y-76385926D01*
X216830224Y-76179093D01*
X218040670Y-76179093D01*
X218076445Y-76214868D01*
X218112220Y-76179093D01*
X218104767Y-76171640D01*
X218203147Y-76171640D01*
X218203485Y-76179093D01*
X218204255Y-76196064D01*
X218297055Y-76209219D01*
X218367385Y-76197762D01*
X218340283Y-76165992D01*
X218298908Y-76154560D01*
X218203147Y-76171640D01*
X218104767Y-76171640D01*
X218076445Y-76143319D01*
X218040670Y-76179093D01*
X216830224Y-76179093D01*
X216829684Y-75854177D01*
X216829570Y-75543494D01*
X218183769Y-75543494D01*
X218183934Y-75548334D01*
X218229202Y-75603613D01*
X218370542Y-75632002D01*
X218630952Y-75638384D01*
X218808025Y-75633914D01*
X219007753Y-75608535D01*
X219149682Y-75546188D01*
X219286124Y-75430253D01*
X219296731Y-75420059D01*
X219562480Y-75252696D01*
X219872605Y-75182110D01*
X220169262Y-75221945D01*
X220284924Y-75249142D01*
X220324710Y-75212621D01*
X220260817Y-75115376D01*
X220097713Y-74972956D01*
X219997498Y-74903103D01*
X219776899Y-74803228D01*
X219578424Y-74781496D01*
X219371091Y-74961321D01*
X219325793Y-75002637D01*
X219243835Y-75103247D01*
X219263767Y-75142069D01*
X219275237Y-75143059D01*
X219269569Y-75178658D01*
X219159393Y-75249393D01*
X218963035Y-75321492D01*
X218730097Y-75357253D01*
X218723307Y-75357293D01*
X218437502Y-75381962D01*
X218250687Y-75446405D01*
X218183769Y-75543494D01*
X216829570Y-75543494D01*
X216829449Y-75215086D01*
X216829580Y-75161970D01*
X218434639Y-75161970D01*
X218484027Y-75196669D01*
X218636481Y-75173911D01*
X218825305Y-75114891D01*
X218970811Y-75036473D01*
X218980559Y-75028798D01*
X219130106Y-74944293D01*
X219328558Y-74864129D01*
X219577748Y-74781422D01*
X219578424Y-74781496D01*
X219578980Y-74781014D01*
X219577748Y-74781422D01*
X219522666Y-74775392D01*
X219185459Y-74810825D01*
X219183407Y-74811158D01*
X218862993Y-74865432D01*
X218656610Y-74909356D01*
X218536793Y-74952891D01*
X218476077Y-75005998D01*
X218446997Y-75078636D01*
X218434639Y-75161970D01*
X216829580Y-75161970D01*
X216830729Y-74695705D01*
X216833974Y-74283979D01*
X216834632Y-74247262D01*
X220616445Y-74247262D01*
X220652220Y-74283037D01*
X220687994Y-74247262D01*
X220652220Y-74211488D01*
X220616445Y-74247262D01*
X216834632Y-74247262D01*
X216839635Y-73967853D01*
X216840689Y-73939109D01*
X217072862Y-73939109D01*
X217073491Y-73971333D01*
X217161106Y-74028014D01*
X217174680Y-74033108D01*
X217246374Y-74048120D01*
X217242092Y-74042423D01*
X217458709Y-74042423D01*
X217529716Y-74044647D01*
X217730348Y-74025251D01*
X217792977Y-74019489D01*
X218067597Y-74021494D01*
X218172669Y-74048120D01*
X218257714Y-74069671D01*
X218298183Y-74090749D01*
X218376912Y-74117793D01*
X218360643Y-74065153D01*
X218351218Y-74047849D01*
X218369256Y-74002463D01*
X218503998Y-74014018D01*
X218614142Y-74025050D01*
X218811996Y-74011419D01*
X218994103Y-73968386D01*
X219025924Y-73952756D01*
X220569208Y-73952756D01*
X220608000Y-73996840D01*
X220628987Y-73994168D01*
X220723769Y-73925290D01*
X220735231Y-73897825D01*
X220696440Y-73853741D01*
X220675453Y-73856412D01*
X220580670Y-73925290D01*
X220569208Y-73952756D01*
X219025924Y-73952756D01*
X219118045Y-73907508D01*
X219141404Y-73840343D01*
X219112908Y-73820002D01*
X219100395Y-73817966D01*
X219257008Y-73817966D01*
X219279385Y-73840343D01*
X219292783Y-73853741D01*
X219328558Y-73817966D01*
X219292783Y-73782192D01*
X219257008Y-73817966D01*
X219100395Y-73817966D01*
X218964697Y-73795887D01*
X218727078Y-73797162D01*
X218434706Y-73820516D01*
X218122234Y-73862638D01*
X217824314Y-73920218D01*
X217575600Y-73989945D01*
X217505099Y-74015790D01*
X217458709Y-74042423D01*
X217242092Y-74042423D01*
X217201159Y-73987961D01*
X217148551Y-73947134D01*
X217072862Y-73939109D01*
X216840689Y-73939109D01*
X216848166Y-73735272D01*
X216856452Y-73622626D01*
X219069035Y-73622626D01*
X219124920Y-73631509D01*
X219253592Y-73571169D01*
X219313638Y-73544300D01*
X219425633Y-73547545D01*
X219452050Y-73557551D01*
X219442714Y-73507050D01*
X219395710Y-73450041D01*
X219298470Y-73436960D01*
X219145472Y-73529494D01*
X219113847Y-73555280D01*
X219069035Y-73622626D01*
X216856452Y-73622626D01*
X216860016Y-73574182D01*
X216875638Y-73472527D01*
X216895483Y-73418252D01*
X216920002Y-73399303D01*
X216949646Y-73403624D01*
X217018855Y-73436042D01*
X217119587Y-73516486D01*
X217146755Y-73533991D01*
X217293492Y-73541383D01*
X217534517Y-73503817D01*
X217663196Y-73478581D01*
X217920165Y-73439745D01*
X218115741Y-73424445D01*
X218115771Y-73424445D01*
X218264103Y-73408680D01*
X218324294Y-73370783D01*
X218294667Y-73328238D01*
X218177087Y-73205459D01*
X217990927Y-73027444D01*
X217758711Y-72816276D01*
X217753462Y-72811607D01*
X217501730Y-72583247D01*
X217340888Y-72421333D01*
X217252482Y-72300810D01*
X217233673Y-72243882D01*
X217611375Y-72243882D01*
X217647149Y-72279657D01*
X217682924Y-72243882D01*
X217647149Y-72208107D01*
X217611375Y-72243882D01*
X217233673Y-72243882D01*
X217218060Y-72196625D01*
X217219167Y-72083721D01*
X217220283Y-72071801D01*
X217215596Y-71903496D01*
X217176581Y-71811189D01*
X217141634Y-71769060D01*
X217110530Y-71635713D01*
X217102190Y-71558687D01*
X217056868Y-71467895D01*
X217032638Y-71498341D01*
X217011387Y-71637048D01*
X217003206Y-71853616D01*
X216996760Y-72022768D01*
X216964921Y-72240324D01*
X216913769Y-72361938D01*
X216886563Y-72364126D01*
X216864926Y-72300521D01*
X216848634Y-72157901D01*
X216837058Y-71923454D01*
X216829569Y-71584365D01*
X216827130Y-71308197D01*
X224872932Y-71308197D01*
X224945588Y-71375548D01*
X225005022Y-71383707D01*
X225006757Y-71381068D01*
X230490248Y-71381068D01*
X230499005Y-71434376D01*
X230561797Y-71492614D01*
X230578773Y-71490687D01*
X230633346Y-71425288D01*
X230630617Y-71405214D01*
X230561797Y-71313741D01*
X230524934Y-71307010D01*
X230522833Y-71311496D01*
X230490248Y-71381068D01*
X225006757Y-71381068D01*
X225052501Y-71311496D01*
X225042187Y-71257018D01*
X224968430Y-71207835D01*
X224878262Y-71270469D01*
X224872932Y-71308197D01*
X216827130Y-71308197D01*
X216825537Y-71127821D01*
X216825475Y-71097655D01*
X216911168Y-71097655D01*
X216919731Y-71182567D01*
X216941252Y-71193761D01*
X216967431Y-71134868D01*
X216962267Y-71096990D01*
X216919731Y-71087168D01*
X216911168Y-71097655D01*
X216825475Y-71097655D01*
X216825037Y-70884445D01*
X217110530Y-70884445D01*
X217146304Y-70920220D01*
X217182079Y-70884445D01*
X217146304Y-70848671D01*
X217110530Y-70884445D01*
X216825037Y-70884445D01*
X216824332Y-70541009D01*
X216824332Y-70373599D01*
X224560718Y-70373599D01*
X224574046Y-70545420D01*
X224583189Y-70568861D01*
X224599403Y-70530855D01*
X224605162Y-70383600D01*
X224603306Y-70305567D01*
X224591450Y-70219568D01*
X224572602Y-70259223D01*
X224560718Y-70373599D01*
X216824332Y-70373599D01*
X216824332Y-69789931D01*
X224781018Y-69789931D01*
X224790468Y-69936417D01*
X224815312Y-69948554D01*
X224826556Y-69846981D01*
X224816583Y-69748556D01*
X224790468Y-69757544D01*
X224781018Y-69789931D01*
X216824332Y-69789931D01*
X216824332Y-69739657D01*
X229488558Y-69739657D01*
X229524332Y-69775431D01*
X229560107Y-69739657D01*
X229524332Y-69703882D01*
X229488558Y-69739657D01*
X216824332Y-69739657D01*
X216824332Y-69588252D01*
X224740676Y-69588252D01*
X224751435Y-69610650D01*
X224873628Y-69618384D01*
X224895847Y-69617912D01*
X224990881Y-69605525D01*
X224961703Y-69582750D01*
X224889094Y-69571247D01*
X224747055Y-69585401D01*
X224740676Y-69588252D01*
X216824332Y-69588252D01*
X216824332Y-69525009D01*
X225195600Y-69525009D01*
X225231375Y-69560783D01*
X225267149Y-69525009D01*
X225231375Y-69489234D01*
X225195600Y-69525009D01*
X216824332Y-69525009D01*
X216824332Y-69236823D01*
X217057699Y-69236823D01*
X217119722Y-69249575D01*
X217289403Y-69254122D01*
X217421725Y-69250903D01*
X217499057Y-69239637D01*
X217449405Y-69223244D01*
X217287948Y-69211337D01*
X217091658Y-69224220D01*
X217057699Y-69236823D01*
X216824332Y-69236823D01*
X216824332Y-68630643D01*
X217253628Y-68630643D01*
X217291027Y-68630663D01*
X217513345Y-68635500D01*
X217631581Y-68659598D01*
X217680349Y-68718413D01*
X217694260Y-68827403D01*
X217698911Y-68982614D01*
X217694447Y-69153083D01*
X217695128Y-69168788D01*
X217707647Y-69189014D01*
X217741590Y-69206524D01*
X217805649Y-69221439D01*
X217908513Y-69233878D01*
X217994377Y-69239637D01*
X218058875Y-69243963D01*
G37*
%TD*%
M02*
