%TF.GenerationSoftware,KiCad,Pcbnew,9.0.4*%
%TF.CreationDate,2026-06-01T17:32:04-05:00*%
%TF.ProjectId,PowerPath,506f7765-7250-4617-9468-2e6b69636164,rev?*%
%TF.SameCoordinates,Original*%
%TF.FileFunction,Paste,Top*%
%TF.FilePolarity,Positive*%
%FSLAX46Y46*%
G04 Gerber Fmt 4.6, Leading zero omitted, Abs format (unit mm)*
G04 Created by KiCad (PCBNEW 9.0.4) date 2026-06-01 17:32:04*
%MOMM*%
%LPD*%
G01*
G04 APERTURE LIST*
G04 Aperture macros list*
%AMRoundRect*
0 Rectangle with rounded corners*
0 $1 Rounding radius*
0 $2 $3 $4 $5 $6 $7 $8 $9 X,Y pos of 4 corners*
0 Add a 4 corners polygon primitive as box body*
4,1,4,$2,$3,$4,$5,$6,$7,$8,$9,$2,$3,0*
0 Add four circle primitives for the rounded corners*
1,1,$1+$1,$2,$3*
1,1,$1+$1,$4,$5*
1,1,$1+$1,$6,$7*
1,1,$1+$1,$8,$9*
0 Add four rect primitives between the rounded corners*
20,1,$1+$1,$2,$3,$4,$5,0*
20,1,$1+$1,$4,$5,$6,$7,0*
20,1,$1+$1,$6,$7,$8,$9,0*
20,1,$1+$1,$8,$9,$2,$3,0*%
G04 Aperture macros list end*
%ADD10R,1.670000X1.970000*%
%ADD11RoundRect,0.060000X0.625000X0.180000X-0.625000X0.180000X-0.625000X-0.180000X0.625000X-0.180000X0*%
%ADD12R,2.150000X2.200000*%
%ADD13R,0.600000X0.900000*%
%ADD14R,0.900000X0.600000*%
%ADD15R,1.050000X0.600000*%
%ADD16RoundRect,0.237500X-0.250000X-0.237500X0.250000X-0.237500X0.250000X0.237500X-0.250000X0.237500X0*%
%ADD17RoundRect,0.237500X-0.237500X0.250000X-0.237500X-0.250000X0.237500X-0.250000X0.237500X0.250000X0*%
%ADD18RoundRect,0.237500X0.237500X-0.250000X0.237500X0.250000X-0.237500X0.250000X-0.237500X-0.250000X0*%
%ADD19RoundRect,0.237500X0.237500X-0.300000X0.237500X0.300000X-0.237500X0.300000X-0.237500X-0.300000X0*%
%ADD20RoundRect,0.237500X0.300000X0.237500X-0.300000X0.237500X-0.300000X-0.237500X0.300000X-0.237500X0*%
%ADD21RoundRect,0.237500X-0.300000X-0.237500X0.300000X-0.237500X0.300000X0.237500X-0.300000X0.237500X0*%
%ADD22RoundRect,0.237500X-0.237500X0.300000X-0.237500X-0.300000X0.237500X-0.300000X0.237500X0.300000X0*%
%ADD23RoundRect,0.218750X-0.256250X0.218750X-0.256250X-0.218750X0.256250X-0.218750X0.256250X0.218750X0*%
%ADD24RoundRect,0.200000X-0.200000X-0.275000X0.200000X-0.275000X0.200000X0.275000X-0.200000X0.275000X0*%
%ADD25RoundRect,0.200000X0.200000X0.275000X-0.200000X0.275000X-0.200000X-0.275000X0.200000X-0.275000X0*%
%ADD26RoundRect,0.200000X0.275000X-0.200000X0.275000X0.200000X-0.275000X0.200000X-0.275000X-0.200000X0*%
%ADD27RoundRect,0.218750X0.218750X0.256250X-0.218750X0.256250X-0.218750X-0.256250X0.218750X-0.256250X0*%
%ADD28RoundRect,0.225000X0.225000X0.250000X-0.225000X0.250000X-0.225000X-0.250000X0.225000X-0.250000X0*%
%ADD29RoundRect,0.375000X-0.375000X0.625000X-0.375000X-0.625000X0.375000X-0.625000X0.375000X0.625000X0*%
%ADD30RoundRect,0.500000X-1.400000X0.500000X-1.400000X-0.500000X1.400000X-0.500000X1.400000X0.500000X0*%
%ADD31RoundRect,0.250000X0.475000X-0.337500X0.475000X0.337500X-0.475000X0.337500X-0.475000X-0.337500X0*%
%ADD32RoundRect,0.200000X-0.275000X0.200000X-0.275000X-0.200000X0.275000X-0.200000X0.275000X0.200000X0*%
%ADD33RoundRect,0.218750X-0.218750X-0.256250X0.218750X-0.256250X0.218750X0.256250X-0.218750X0.256250X0*%
%ADD34R,8.200000X3.300000*%
%ADD35RoundRect,0.250000X-0.475000X0.337500X-0.475000X-0.337500X0.475000X-0.337500X0.475000X0.337500X0*%
%ADD36R,1.100000X0.599999*%
%ADD37RoundRect,0.250000X-0.412500X-1.100000X0.412500X-1.100000X0.412500X1.100000X-0.412500X1.100000X0*%
%ADD38R,3.300000X8.200000*%
%ADD39RoundRect,0.250000X0.250000X-0.250000X0.250000X0.250000X-0.250000X0.250000X-0.250000X-0.250000X0*%
%ADD40R,0.599999X1.100000*%
%ADD41RoundRect,0.250000X-1.100000X0.412500X-1.100000X-0.412500X1.100000X-0.412500X1.100000X0.412500X0*%
%ADD42RoundRect,0.225000X0.250000X-0.225000X0.250000X0.225000X-0.250000X0.225000X-0.250000X-0.225000X0*%
G04 APERTURE END LIST*
D10*
%TO.C,D11*%
X176390000Y-73630000D03*
X176390000Y-77680000D03*
%TD*%
D11*
%TO.C,IC1*%
X175950000Y-83250000D03*
X175950000Y-82600000D03*
X175950000Y-81950000D03*
X175950000Y-81300000D03*
X178250000Y-81300000D03*
X178250000Y-81950000D03*
X178250000Y-82600000D03*
X178250000Y-83250000D03*
%TD*%
D12*
%TO.C,D10*%
X162640000Y-76380000D03*
X162640000Y-80780000D03*
%TD*%
D13*
%TO.C,Q2*%
X177300000Y-85600000D03*
X177300000Y-86750000D03*
X177300000Y-87900000D03*
X178150000Y-85600000D03*
X178150000Y-86750000D03*
X178150000Y-87900000D03*
X179000000Y-85600000D03*
X179000000Y-86750000D03*
X179000000Y-87900000D03*
D14*
X180850000Y-84870000D03*
X180850000Y-86150000D03*
X180850000Y-87350000D03*
X180850000Y-88630000D03*
D15*
X175130000Y-84840000D03*
X175130000Y-86110000D03*
X175130000Y-87390000D03*
X175130000Y-88660000D03*
%TD*%
D13*
%TO.C,Q1*%
X169730000Y-85260000D03*
X169730000Y-84110000D03*
X169730000Y-82960000D03*
X168880000Y-85260000D03*
X168880000Y-84110000D03*
X168880000Y-82960000D03*
X168030000Y-85260000D03*
X168030000Y-84110000D03*
X168030000Y-82960000D03*
D14*
X166180000Y-85990000D03*
X166180000Y-84710000D03*
X166180000Y-83510000D03*
X166180000Y-82230000D03*
D15*
X171900000Y-86020000D03*
X171900000Y-84750000D03*
X171900000Y-83470000D03*
X171900000Y-82200000D03*
%TD*%
D16*
%TO.C,R14*%
X181267500Y-75740000D03*
X183092500Y-75740000D03*
%TD*%
D17*
%TO.C,R13*%
X171600000Y-77545000D03*
X171600000Y-75720000D03*
%TD*%
D18*
%TO.C,R12*%
X181310000Y-79120000D03*
X181310000Y-77295000D03*
%TD*%
%TO.C,R11*%
X169940000Y-77562500D03*
X169940000Y-75737500D03*
%TD*%
D16*
%TO.C,R10*%
X171817500Y-79060000D03*
X173642500Y-79060000D03*
%TD*%
D17*
%TO.C,R9*%
X167030000Y-78725000D03*
X167030000Y-80550000D03*
%TD*%
D19*
%TO.C,C7*%
X183250000Y-80512500D03*
X183250000Y-78787500D03*
%TD*%
D20*
%TO.C,C6*%
X171810000Y-80560000D03*
X170085000Y-80560000D03*
%TD*%
D21*
%TO.C,C5*%
X176337500Y-79740000D03*
X178062500Y-79740000D03*
%TD*%
D22*
%TO.C,C4*%
X178925000Y-77462500D03*
X178925000Y-75737500D03*
%TD*%
D19*
%TO.C,C3*%
X159240000Y-80662500D03*
X159240000Y-78937500D03*
%TD*%
D23*
%TO.C,D4*%
X184600000Y-88812500D03*
X184600000Y-90387500D03*
%TD*%
D24*
%TO.C,R6*%
X199815681Y-103632690D03*
X201465681Y-103632690D03*
%TD*%
D23*
%TO.C,D3*%
X182800000Y-88812500D03*
X182800000Y-90387500D03*
%TD*%
D25*
%TO.C,R1*%
X168145000Y-77210000D03*
X166495000Y-77210000D03*
%TD*%
D24*
%TO.C,R18*%
X195575000Y-91550000D03*
X197225000Y-91550000D03*
%TD*%
D26*
%TO.C,R3*%
X181800000Y-93750000D03*
X181800000Y-92100000D03*
%TD*%
D23*
%TO.C,D6*%
X202950000Y-101237500D03*
X202950000Y-102812500D03*
%TD*%
D27*
%TO.C,D1*%
X168067500Y-75690000D03*
X166492500Y-75690000D03*
%TD*%
%TO.C,D8*%
X199375000Y-116400000D03*
X197800000Y-116400000D03*
%TD*%
D25*
%TO.C,R17*%
X193962500Y-91800000D03*
X192312500Y-91800000D03*
%TD*%
D28*
%TO.C,C13*%
X192200000Y-98150000D03*
X190650000Y-98150000D03*
%TD*%
D26*
%TO.C,R15*%
X178100000Y-97375000D03*
X178100000Y-95725000D03*
%TD*%
D29*
%TO.C,U1*%
X207400000Y-112100000D03*
X205100000Y-112100000D03*
D30*
X205100000Y-118400000D03*
D29*
X202800000Y-112100000D03*
%TD*%
D26*
%TO.C,R4*%
X184700000Y-93750000D03*
X184700000Y-92100000D03*
%TD*%
D31*
%TO.C,C8*%
X177800000Y-93737500D03*
X177800000Y-91662500D03*
%TD*%
%TO.C,C1*%
X211900000Y-114137500D03*
X211900000Y-112062500D03*
%TD*%
D32*
%TO.C,R7*%
X213800000Y-109750000D03*
X213800000Y-111400000D03*
%TD*%
D33*
%TO.C,D5*%
X164825000Y-106100000D03*
X166400000Y-106100000D03*
%TD*%
D27*
%TO.C,D2*%
X193387500Y-79000000D03*
X191812500Y-79000000D03*
%TD*%
D24*
%TO.C,R16*%
X179800000Y-95800000D03*
X181450000Y-95800000D03*
%TD*%
D34*
%TO.C,L1*%
X166100000Y-94150000D03*
X166100000Y-98850000D03*
%TD*%
D35*
%TO.C,C12*%
X188350000Y-94012500D03*
X188350000Y-96087500D03*
%TD*%
D36*
%TO.C,U2*%
X175849992Y-95350001D03*
X175849992Y-94400000D03*
X175849992Y-93449999D03*
X173150008Y-93449999D03*
X173150008Y-94400000D03*
X173150008Y-95350001D03*
%TD*%
D37*
%TO.C,C15*%
X195925000Y-94050000D03*
X199050000Y-94050000D03*
%TD*%
D38*
%TO.C,L2*%
X189850000Y-103700000D03*
X194550000Y-103700000D03*
%TD*%
D39*
%TO.C,D9*%
X209800000Y-112050000D03*
X209800000Y-109550000D03*
%TD*%
D40*
%TO.C,U3*%
X192287501Y-93850008D03*
X191337500Y-93850008D03*
X190387499Y-93850008D03*
X190387499Y-96549992D03*
X191337500Y-96549992D03*
X192287501Y-96549992D03*
%TD*%
D41*
%TO.C,C11*%
X174300000Y-100987500D03*
X174300000Y-104112500D03*
%TD*%
D31*
%TO.C,C2*%
X200100000Y-114637500D03*
X200100000Y-112562500D03*
%TD*%
D42*
%TO.C,C9*%
X171500000Y-95975000D03*
X171500000Y-94425000D03*
%TD*%
D41*
%TO.C,C10*%
X178200000Y-100987500D03*
X178200000Y-104112500D03*
%TD*%
D27*
%TO.C,D7*%
X215325000Y-112850000D03*
X213750000Y-112850000D03*
%TD*%
D37*
%TO.C,C14*%
X195975000Y-97500000D03*
X199100000Y-97500000D03*
%TD*%
D32*
%TO.C,R5*%
X168063146Y-104385879D03*
X168063146Y-106035879D03*
%TD*%
%TO.C,R8*%
X197200000Y-112775000D03*
X197200000Y-114425000D03*
%TD*%
D26*
%TO.C,R2*%
X190200000Y-80825000D03*
X190200000Y-79175000D03*
%TD*%
M02*
