M48
; DRILL file {KiCad 9.0.4} date 2026-06-01T17:32:11-0500
; FORMAT={-:-/ absolute / metric / decimal}
; #@! TF.CreationDate,2026-06-01T17:32:11-05:00
; #@! TF.GenerationSoftware,Kicad,Pcbnew,9.0.4
; #@! TF.FileFunction,Plated,1,2,PTH
FMAT,2
METRIC
; #@! TA.AperFunction,Plated,PTH,ViaDrill
T1C0.300
; #@! TA.AperFunction,Plated,PTH,ViaDrill
T2C0.400
; #@! TA.AperFunction,Plated,PTH,ComponentDrill
T3C1.000
; #@! TA.AperFunction,Plated,PTH,ComponentDrill
T4C1.500
; #@! TA.AperFunction,Plated,PTH,ComponentDrill
T5C1.600
; #@! TA.AperFunction,Plated,PTH,ComponentDrill
T6C3.000
; #@! TA.AperFunction,Plated,PTH,ComponentDrill
T7C5.410
%
G90
G05
T1
X158.1Y-75.6
X158.1Y-76.7
X158.7Y-74.7
X158.7Y-77.6
X159.2Y-75.6
X159.2Y-76.7
X160.1Y-77.6
X160.2Y-74.7
X162.3Y-73.6
X163.0Y-72.7
X163.4Y-73.6
X163.6Y-71.7
X164.0Y-72.7
X164.6Y-71.7
X164.6Y-73.6
X165.0Y-72.7
X169.3Y-80.3
X169.76Y-69.46
X169.812Y-73.138
X170.18Y-70.21
X170.2Y-87.5
X170.64Y-71.01
X170.68Y-69.46
X170.92Y-76.66
X170.97Y-70.19
X171.75Y-91.45
X172.14Y-77.6
X172.55Y-92.25
X172.9Y-82.2
X173.2Y-91.45
X174.0Y-88.7
X174.05Y-92.2
X174.1Y-69.8
X174.1Y-71.4
X174.7Y-70.6
X174.75Y-91.45
X175.2Y-69.8
X175.2Y-71.4
X175.5Y-92.2
X175.8Y-70.6
X176.25Y-91.4
X176.4Y-69.8
X176.4Y-71.4
X177.0Y-70.6
X177.6Y-69.8
X177.6Y-71.4
X178.0Y-70.6
X179.3Y-82.6
X179.4Y-91.4
X179.4Y-92.2
X180.4Y-91.4
X180.4Y-92.2
X180.56Y-77.29
X182.8Y-95.8
X183.5Y-76.8
X183.7Y-88.812
X183.95Y-97.35
X184.0Y-75.9
X184.45Y-96.3
X184.55Y-98.35
X184.6Y-75.0
X184.6Y-76.8
X184.6Y-78.5
X185.0Y-77.7
X185.1Y-75.9
X185.1Y-79.2
X185.15Y-97.35
X185.2Y-74.1
X185.55Y-96.3
X185.6Y-76.8
X185.6Y-78.5
X185.8Y-75.0
X185.85Y-98.3
X186.2Y-77.7
X186.2Y-79.1
X186.3Y-75.9
X186.4Y-97.4
X186.6Y-96.3
X186.7Y-76.8
X186.7Y-78.5
X187.1Y-98.3
X187.7Y-97.4
X188.6Y-98.3
X189.2Y-97.4
X191.7Y-95.5
X192.65Y-94.9
X199.9Y-91.5
X200.7Y-92.4
X200.7Y-97.3
X200.8Y-95.3
X201.4Y-98.4
X201.5Y-94.5
X201.5Y-96.3
X201.6Y-91.5
X202.2Y-95.3
X202.2Y-97.3
X202.7Y-92.4
X202.9Y-94.5
X202.9Y-96.3
X202.9Y-98.4
X203.4Y-91.5
X203.6Y-95.3
X203.6Y-97.3
X204.2Y-92.4
X204.3Y-94.5
X204.3Y-96.2
X204.4Y-98.3
T2
X168.24Y-78.7
X175.0Y-79.4
X178.915Y-74.875
T3
X161.5Y-85.8
X161.5Y-88.34
X170.7Y-103.56
X170.7Y-106.1
X181.8Y-101.135
X181.8Y-103.675
X187.46Y-86.015
X187.46Y-88.555
X190.1Y-112.335
X190.1Y-114.875
X193.86Y-85.945
X193.86Y-88.485
X194.4Y-112.335
X194.4Y-114.875
X199.4Y-78.8
X199.4Y-81.34
X199.65Y-106.7
X202.19Y-106.7
X216.8Y-106.3
X216.8Y-108.84
X232.035Y-108.7
X234.575Y-108.7
T4
X155.05Y-94.85
X155.05Y-100.35
X155.05Y-113.25
X155.058Y-106.321
X157.3Y-66.6
X161.075Y-71.15
X161.18Y-121.451
X164.6Y-66.575
X167.9Y-71.225
X171.22Y-66.55
X177.14Y-66.61
X181.475Y-71.3
X184.2Y-66.4
X186.95Y-71.305
X197.0Y-121.4
X206.6Y-84.7
X207.1Y-96.2
X207.1Y-101.9
X211.1Y-121.4
X213.55Y-84.8
X214.148Y-96.148
X214.15Y-102.2
X215.7Y-117.3
T5
X141.363Y-81.668
X141.363Y-85.068
X154.833Y-81.668
X154.833Y-85.068
T6
X139.814Y-67.2
X139.814Y-119.961
X235.103Y-119.961
X235.107Y-67.2
T7
X148.9Y-71.55
X170.2Y-115.75
X182.5Y-115.75
X197.0Y-71.55
X210.31Y-71.55
X224.5Y-88.0
X224.5Y-102.05
X224.5Y-115.75
M30
