%TF.GenerationSoftware,KiCad,Pcbnew,9.0.5*%
%TF.CreationDate,2026-05-29T23:24:00-05:00*%
%TF.ProjectId,USB_PD_Boost_TestBoard,5553425f-5044-45f4-926f-6f73745f5465,rev?*%
%TF.SameCoordinates,Original*%
%TF.FileFunction,Copper,L2,Bot*%
%TF.FilePolarity,Positive*%
%FSLAX46Y46*%
G04 Gerber Fmt 4.6, Leading zero omitted, Abs format (unit mm)*
G04 Created by KiCad (PCBNEW 9.0.5) date 2026-05-29 23:24:00*
%MOMM*%
%LPD*%
G01*
G04 APERTURE LIST*
%TA.AperFunction,ComponentPad*%
%ADD10R,1.700000X1.700000*%
%TD*%
%TA.AperFunction,ComponentPad*%
%ADD11C,8.115000*%
%TD*%
%TA.AperFunction,ComponentPad*%
%ADD12C,1.700000*%
%TD*%
%TA.AperFunction,ComponentPad*%
%ADD13C,3.600000*%
%TD*%
%TA.AperFunction,ConnectorPad*%
%ADD14C,5.600000*%
%TD*%
%TA.AperFunction,ComponentPad*%
%ADD15C,3.000000*%
%TD*%
%TA.AperFunction,ComponentPad*%
%ADD16C,2.400000*%
%TD*%
%TA.AperFunction,HeatsinkPad*%
%ADD17O,1.000000X2.100000*%
%TD*%
%TA.AperFunction,HeatsinkPad*%
%ADD18O,1.000000X1.800000*%
%TD*%
%TA.AperFunction,ViaPad*%
%ADD19C,0.600000*%
%TD*%
%TA.AperFunction,Conductor*%
%ADD20C,0.250000*%
%TD*%
%TA.AperFunction,Conductor*%
%ADD21C,0.200000*%
%TD*%
G04 APERTURE END LIST*
D10*
%TO.P,TP8,1,1*%
%TO.N,/USB_PD/PD_3V3*%
X97715646Y-118754136D03*
%TD*%
D11*
%TO.P,J6,1,Pin_1*%
%TO.N,GND*%
X169580849Y-93683330D03*
%TD*%
D10*
%TO.P,J2,1,Pin_1*%
%TO.N,/USB_PD/PD_SCL*%
X142789946Y-126257315D03*
D12*
%TO.P,J2,2,Pin_2*%
%TO.N,/USB_PD/PD_SDA*%
X142789946Y-128797315D03*
%TO.P,J2,3,Pin_3*%
%TO.N,GND*%
X142789946Y-131337315D03*
%TD*%
D13*
%TO.P,H2,1*%
%TO.N,N/C*%
X175945773Y-80856585D03*
D14*
X175945773Y-80856585D03*
%TD*%
D15*
%TO.P,TP26,1,1*%
%TO.N,/BOOST_24V_OUT*%
X157761024Y-83388200D03*
%TD*%
D10*
%TO.P,TP10,1,1*%
%TO.N,/USB_PD/ISINK_COARSE*%
X97715646Y-129781496D03*
%TD*%
%TO.P,TP11,1,1*%
%TO.N,GND*%
X97715646Y-135295176D03*
%TD*%
D15*
%TO.P,TP23,1,1*%
%TO.N,Net-(IC2-COMP)*%
X140133871Y-83388200D03*
%TD*%
D10*
%TO.P,TP18,1,1*%
%TO.N,/USB_PD/PD_3V3*%
X142803274Y-119835541D03*
%TD*%
%TO.P,TP19,1,1*%
%TO.N,/USB_PD/PD_FAULT*%
X129032000Y-135102600D03*
%TD*%
%TO.P,TP17,1,1*%
%TO.N,/USB_PD/PD_1V8*%
X135284874Y-119835541D03*
%TD*%
D15*
%TO.P,TP25,1,1*%
%TO.N,Net-(IC2-FB)*%
X148947447Y-83388200D03*
%TD*%
D13*
%TO.P,H4,1*%
%TO.N,N/C*%
X175769314Y-146599009D03*
D14*
X175769314Y-146599009D03*
%TD*%
D10*
%TO.P,TP14,1,1*%
%TO.N,/VBUS_IN*%
X133985166Y-145178808D03*
%TD*%
D13*
%TO.P,H3,1*%
%TO.N,N/C*%
X97283981Y-146627253D03*
D14*
X97283981Y-146627253D03*
%TD*%
D16*
%TO.P,F1,1*%
%TO.N,/BOOST_VIN*%
X103014400Y-102645000D03*
X103014400Y-106045000D03*
%TO.P,F1,2*%
%TO.N,/USB_PD_Boost/+USB_PD*%
X116484400Y-102645000D03*
X116484400Y-106045000D03*
%TD*%
D13*
%TO.P,H1,1*%
%TO.N,N/C*%
X97573552Y-80884829D03*
D14*
X97573552Y-80884829D03*
%TD*%
D10*
%TO.P,TP3,1,1*%
%TO.N,GND*%
X105109566Y-83388200D03*
%TD*%
D15*
%TO.P,TP24,1,1*%
%TO.N,Net-(D9-A)*%
X142290800Y-90627200D03*
%TD*%
%TO.P,TP22,1,1*%
%TO.N,Net-(IC2-SS)*%
X131320295Y-83388200D03*
%TD*%
D11*
%TO.P,J5,1,Pin_1*%
%TO.N,/BOOST_24V_OUT*%
X157880849Y-93683330D03*
%TD*%
D17*
%TO.P,J1,S1,SHIELD*%
%TO.N,GND*%
X120169874Y-144057041D03*
%TO.P,J1,S2,Shield*%
X128809874Y-144057041D03*
D18*
%TO.P,J1,S3,Shield*%
X128809874Y-148237041D03*
%TO.P,J1,S4,Shield*%
X120169874Y-148237041D03*
%TD*%
D10*
%TO.P,TP13,1,1*%
%TO.N,/USB_PD/PD_HPI_INT*%
X109114151Y-145173044D03*
%TD*%
%TO.P,TP16,1,1*%
%TO.N,/PD_5V_OUT*%
X104593401Y-137822210D03*
%TD*%
%TO.P,TP1,1,1*%
%TO.N,GND*%
X102886735Y-145178808D03*
%TD*%
D15*
%TO.P,TP21,1,1*%
%TO.N,Net-(IC2-EN)*%
X122506719Y-83388200D03*
%TD*%
D10*
%TO.P,TP5,1,1*%
%TO.N,/CC1*%
X148391274Y-126287141D03*
%TD*%
%TO.P,TP7,1,1*%
%TO.N,/USB_PD/VBUS_FET_EN*%
X104593401Y-124663200D03*
%TD*%
%TO.P,TP4,1,1*%
%TO.N,/CC2*%
X148340474Y-131087741D03*
%TD*%
%TO.P,TP2,1,1*%
%TO.N,GND*%
X148340474Y-145178808D03*
%TD*%
%TO.P,TP15,1,1*%
%TO.N,/PD_VOUT*%
X104593401Y-115648099D03*
%TD*%
D11*
%TO.P,J4,1,Pin_1*%
%TO.N,GND*%
X113837249Y-93683330D03*
%TD*%
D10*
%TO.P,TP12,1,1*%
%TO.N,/USB_PD/PD_GPIO_1*%
X115341566Y-145178808D03*
%TD*%
%TO.P,JP1,1,A*%
%TO.N,/PD_VOUT*%
X110936849Y-111680161D03*
D12*
%TO.P,JP1,2,B*%
%TO.N,/BOOST_VIN*%
X108396849Y-111680161D03*
%TD*%
D10*
%TO.P,TP6,1,1*%
%TO.N,/USB_PD/SAFE_PWR_EN*%
X104593401Y-128727200D03*
%TD*%
D15*
%TO.P,TP20,1,1*%
%TO.N,/USB_PD_Boost/+USB_PD*%
X113693142Y-83388200D03*
%TD*%
D10*
%TO.P,TP9,1,1*%
%TO.N,/USB_PD/VBUS_MIN*%
X97715646Y-124267816D03*
%TD*%
D11*
%TO.P,J3,1,Pin_1*%
%TO.N,/BOOST_VIN*%
X102229449Y-93683330D03*
%TD*%
D19*
%TO.N,/VBUS_IN*%
X131703474Y-124714000D03*
X114964874Y-126693541D03*
X132109874Y-132078341D03*
%TO.N,GND*%
X177359418Y-128718736D03*
X122227600Y-112880400D03*
X149251800Y-91871800D03*
X119227600Y-112880400D03*
X124459303Y-133678198D03*
X132283874Y-116431941D03*
X95256743Y-122249838D03*
X125890642Y-148613662D03*
X119227600Y-111380400D03*
X98616867Y-141043312D03*
X139091800Y-130733800D03*
X126036921Y-133671664D03*
X151081890Y-79311499D03*
X131800600Y-123113800D03*
X177435618Y-86685759D03*
X139920341Y-148385141D03*
X142283874Y-116431941D03*
X133273800Y-122351800D03*
X146918074Y-118490741D03*
X158521400Y-125806200D03*
X158521400Y-114617851D03*
X136694333Y-122351800D03*
X137591800Y-129233800D03*
X128040000Y-126163200D03*
X145902007Y-148385141D03*
X139091800Y-127733800D03*
X158521400Y-127195454D03*
X147751800Y-91871800D03*
X149655378Y-139183741D03*
X161493200Y-127195454D03*
X134599074Y-137183741D03*
X95256743Y-128254549D03*
X144636610Y-139183741D03*
X139617842Y-139183741D03*
X133457874Y-109144636D03*
X146918074Y-116990741D03*
X177359418Y-122714025D03*
X126036921Y-135273436D03*
X177435618Y-92690470D03*
X95332943Y-86221572D03*
X145509988Y-107811079D03*
X127283874Y-116431941D03*
X149251800Y-93371800D03*
X120727600Y-112880400D03*
X160007300Y-125806200D03*
X147751800Y-94871800D03*
X147751800Y-93371800D03*
X161493200Y-107543600D03*
X130585874Y-120978541D03*
X101625400Y-133540656D03*
X158521400Y-113228597D03*
X177435618Y-104699892D03*
X161493200Y-125806200D03*
X134901115Y-109141911D03*
X124459303Y-135279970D03*
X151883674Y-148385141D03*
X97116867Y-139543312D03*
X138858363Y-79311499D03*
X129540000Y-124663200D03*
X163938146Y-143821120D03*
X149471191Y-107811079D03*
X161493200Y-114617851D03*
X158521400Y-120142000D03*
X146918074Y-119990741D03*
X101625400Y-130747005D03*
X151903087Y-145089461D03*
X97116867Y-111730312D03*
X126634836Y-79311499D03*
X118546274Y-137310741D03*
X98616867Y-113230312D03*
X163918733Y-148385141D03*
X122890642Y-148613662D03*
X161493200Y-120142000D03*
X147490589Y-107811079D03*
X160007300Y-107543600D03*
X120727600Y-111380400D03*
X141548784Y-107811079D03*
X120523072Y-79311499D03*
X149655378Y-137183741D03*
X149251800Y-94871800D03*
X125806200Y-122191850D03*
X177359418Y-140728158D03*
X177435618Y-98695181D03*
X160007300Y-120142000D03*
X95256743Y-140263971D03*
X101625400Y-121843102D03*
X123084838Y-122191850D03*
X134896938Y-107692596D03*
X177359418Y-134723447D03*
X130585874Y-119073541D03*
X149918074Y-116990741D03*
X98616867Y-139543312D03*
X122227600Y-111380400D03*
X97116867Y-113230312D03*
X132746599Y-79311499D03*
X160007300Y-113228597D03*
X102566916Y-148613662D03*
X144636610Y-137183741D03*
X95256743Y-116245127D03*
X128040000Y-124663200D03*
X177435618Y-110704603D03*
X134599074Y-139183741D03*
X144970126Y-79311499D03*
X133453697Y-107695321D03*
X108566916Y-148613662D03*
X134984067Y-122351800D03*
X108299545Y-79311499D03*
X148418074Y-116990741D03*
X114566916Y-148613662D03*
X177359418Y-116709314D03*
X169900400Y-148385141D03*
X158521400Y-107543600D03*
X163305417Y-79311499D03*
X123092874Y-128928741D03*
X120727600Y-109880400D03*
X119227600Y-109880400D03*
X148418074Y-119990741D03*
X169417181Y-79311499D03*
X114411308Y-79311499D03*
X118157238Y-122191850D03*
X137283874Y-116431941D03*
X118561737Y-135977667D03*
X134156646Y-108424229D03*
X149918074Y-118490741D03*
X151451793Y-107811079D03*
X101625400Y-116255800D03*
X101625400Y-119049451D03*
X160007300Y-127195454D03*
X135585200Y-106451400D03*
X101625400Y-125433425D03*
X139617842Y-137183741D03*
X133938674Y-148385141D03*
X124459303Y-136881741D03*
X125759874Y-128877941D03*
X148418074Y-118490741D03*
X122227600Y-109880400D03*
X98616867Y-111730312D03*
X95256743Y-134259260D03*
X95332943Y-104235705D03*
X157956480Y-143821120D03*
X137160000Y-105638600D03*
X97116867Y-141043312D03*
X101625400Y-136334307D03*
X169919813Y-143821120D03*
X138404600Y-122351800D03*
X161493200Y-113228597D03*
X126036921Y-136875207D03*
X95332943Y-92226283D03*
X143529386Y-107811079D03*
X137591800Y-130733800D03*
X95332943Y-98230994D03*
X137591800Y-127733800D03*
X157937067Y-148385141D03*
X160007300Y-114617851D03*
X118165274Y-128928741D03*
X129540000Y-126163200D03*
X149918074Y-119990741D03*
X102187781Y-79311499D03*
X157193654Y-79311499D03*
X95332943Y-110240416D03*
X139091800Y-129233800D03*
%TO.N,/PD_VOUT*%
X110875474Y-117905141D03*
X113034474Y-126379141D03*
X130842827Y-128348529D03*
X113034474Y-122807341D03*
%TO.N,/PD_5V_OUT*%
X114219338Y-129360541D03*
%TO.N,/USB_PD/PD_1V8*%
X127762000Y-120954800D03*
%TO.N,Net-(IC2-SS)*%
X129679434Y-110195717D03*
%TO.N,Net-(IC2-COMP)*%
X137094646Y-111596754D03*
%TO.N,/BOOST_24V_OUT*%
X140499896Y-110518473D03*
X140716000Y-99314000D03*
%TO.N,/CC1*%
X123408450Y-144414251D03*
X133887175Y-124072923D03*
%TO.N,/USB_PD/VBUS_MIN*%
X125963074Y-123747141D03*
X121107200Y-123747141D03*
%TO.N,/USB_PD/VBUS_FET_EN*%
X124700537Y-124480804D03*
%TO.N,/CC2*%
X133938674Y-125118741D03*
X126049875Y-144426857D03*
%TO.N,/USB_PD/ISINK_COARSE*%
X125836074Y-126464871D03*
X122711874Y-124788541D03*
%TO.N,/USB_PD/SAFE_PWR_EN*%
X124883574Y-126465871D03*
%TO.N,/USB_PD/PD_3V3*%
X132328474Y-130478141D03*
X120883074Y-126591941D03*
X127995074Y-122781941D03*
X125531274Y-124585341D03*
%TO.N,/USB_PD/PD_HPI_INT*%
X127004474Y-128823835D03*
%TO.N,/USB_PD/PD_GPIO_1*%
X127908523Y-128877941D03*
%TO.N,/USB_PD_Boost/+USB_PD*%
X126301143Y-109535377D03*
X129895600Y-107518200D03*
%TO.N,/USB_PD/PD_FAULT*%
X130194474Y-133907141D03*
X129671474Y-130554341D03*
%TO.N,Net-(IC2-EN)*%
X127201143Y-110439200D03*
X129971800Y-108432600D03*
%TO.N,Net-(IC2-FB)*%
X138455400Y-110159800D03*
%TO.N,/USB_PD/PD_SCL*%
X134038841Y-126821703D03*
%TO.N,/USB_PD/PD_SDA*%
X134015000Y-128599057D03*
%TO.N,/DISSIPATION*%
X172186600Y-106042200D03*
X169161200Y-117089800D03*
X169186600Y-104542200D03*
X167661200Y-123089800D03*
X166186600Y-110542200D03*
X166186600Y-107542200D03*
X166186600Y-109042200D03*
X170661200Y-121589800D03*
X169476100Y-134112000D03*
X170976100Y-134112000D03*
X167976100Y-129612000D03*
X170686600Y-106042200D03*
X169186600Y-110542200D03*
X172186600Y-107542200D03*
X167976100Y-131112000D03*
X169161200Y-120089800D03*
X166186600Y-106042200D03*
X169476100Y-135612000D03*
X166161200Y-123089800D03*
X167661200Y-121589800D03*
X172186600Y-109042200D03*
X170976100Y-135612000D03*
X169186600Y-107542200D03*
X166161200Y-118589800D03*
X172186600Y-110542200D03*
X172161200Y-120089800D03*
X170976100Y-132612000D03*
X167686600Y-110542200D03*
X170976100Y-131112000D03*
X167976100Y-135612000D03*
X167686600Y-106042200D03*
X170686600Y-107542200D03*
X172161200Y-117089800D03*
X166476100Y-131112000D03*
X170976100Y-129612000D03*
X172476100Y-135612000D03*
X166476100Y-134112000D03*
X172476100Y-131112000D03*
X170686600Y-110542200D03*
X167686600Y-109042200D03*
X169476100Y-131112000D03*
X170686600Y-104542200D03*
X169161200Y-121589800D03*
X167686600Y-107542200D03*
X167661200Y-118589800D03*
X167686600Y-104542200D03*
X170661200Y-118589800D03*
X172476100Y-134112000D03*
X169186600Y-109042200D03*
X172161200Y-121589800D03*
X167661200Y-120089800D03*
X166161200Y-120089800D03*
X169186600Y-106042200D03*
X169476100Y-129612000D03*
X166161200Y-117089800D03*
X167976100Y-132612000D03*
X170661200Y-120089800D03*
X166476100Y-135612000D03*
X172186600Y-104542200D03*
X170661200Y-117089800D03*
X172161200Y-118589800D03*
X172476100Y-132612000D03*
X167976100Y-134112000D03*
X167661200Y-117089800D03*
X166161200Y-121589800D03*
X166476100Y-132612000D03*
X172161200Y-123089800D03*
X169476100Y-132612000D03*
X170661200Y-123089800D03*
X170686600Y-109042200D03*
X172476100Y-129612000D03*
X169161200Y-123089800D03*
X166476100Y-129612000D03*
X169161200Y-118589800D03*
X166186600Y-104542200D03*
%TD*%
D20*
%TO.N,/VBUS_IN*%
X132109874Y-132078341D02*
X131703474Y-131671941D01*
X131703474Y-131671941D02*
X131703474Y-128192141D01*
X131157129Y-127541871D02*
X131053204Y-127541871D01*
X131053204Y-127541871D02*
X131703474Y-128192141D01*
X131703474Y-126995526D02*
X131157129Y-127541871D01*
X131053204Y-127541871D02*
X115813204Y-127541871D01*
X131703474Y-124714000D02*
X131703474Y-126995526D01*
X115813204Y-127541871D02*
X114964874Y-126693541D01*
%TO.N,/PD_VOUT*%
X108618432Y-115648099D02*
X110875474Y-117905141D01*
X113034474Y-120064141D02*
X110875474Y-117905141D01*
X113034474Y-122807341D02*
X113034474Y-120064141D01*
X130692133Y-128197835D02*
X130842827Y-128348529D01*
X113034474Y-126379141D02*
X114853168Y-128197835D01*
X104593401Y-115648099D02*
X108618432Y-115648099D01*
X114853168Y-128197835D02*
X130692133Y-128197835D01*
%TO.N,/PD_5V_OUT*%
X105757669Y-137822210D02*
X114219338Y-129360541D01*
X104593401Y-137822210D02*
X105757669Y-137822210D01*
D21*
%TO.N,/USB_PD/PD_1V8*%
X128881259Y-119835541D02*
X135284874Y-119835541D01*
X127762000Y-120954800D02*
X128881259Y-119835541D01*
%TO.N,Net-(IC2-SS)*%
X138925000Y-89191800D02*
X138925000Y-107963000D01*
X129679434Y-110195717D02*
X129968316Y-110484600D01*
X131320295Y-83388200D02*
X133121400Y-83388200D01*
X133121400Y-83388200D02*
X138925000Y-89191800D01*
X129968316Y-110484600D02*
X136403400Y-110484600D01*
X138925000Y-107963000D02*
X136403400Y-110484600D01*
%TO.N,Net-(IC2-COMP)*%
X139376000Y-89271990D02*
X140385800Y-88262190D01*
X137094646Y-110529954D02*
X139376000Y-108248600D01*
X137094646Y-111596754D02*
X137094646Y-110529954D01*
X139376000Y-108248600D02*
X139376000Y-89271990D01*
X140385800Y-88262190D02*
X140385800Y-83640129D01*
X140385800Y-83640129D02*
X140133871Y-83388200D01*
D20*
%TO.N,/BOOST_24V_OUT*%
X140278000Y-99752000D02*
X140278000Y-110296577D01*
X140716000Y-99314000D02*
X140278000Y-99752000D01*
X140278000Y-110296577D02*
X140499896Y-110518473D01*
D21*
%TO.N,/CC1*%
X131613574Y-133590641D02*
X132929474Y-132274741D01*
X145688872Y-126287141D02*
X143474806Y-124073075D01*
X131613574Y-136579541D02*
X131613574Y-133590641D01*
X132929474Y-132274741D02*
X132929474Y-125030775D01*
X148391274Y-126287141D02*
X145688872Y-126287141D01*
X123408450Y-144414251D02*
X123778863Y-144414251D01*
X133887175Y-124073074D02*
X133887175Y-124072923D01*
X123778863Y-144414251D02*
X131613574Y-136579541D01*
X143474806Y-124073075D02*
X133887327Y-124073075D01*
X133887327Y-124073075D02*
X133887175Y-124072923D01*
X132929474Y-125030775D02*
X133887175Y-124073074D01*
%TO.N,/USB_PD/VBUS_MIN*%
X120648341Y-124206000D02*
X107188000Y-124206000D01*
X107188000Y-124206000D02*
X106494200Y-123512200D01*
X106494200Y-123512200D02*
X98471262Y-123512200D01*
X121107200Y-123747141D02*
X120648341Y-124206000D01*
X121107200Y-123747141D02*
X125963074Y-123747141D01*
X98471262Y-123512200D02*
X97715646Y-124267816D01*
%TO.N,/USB_PD/VBUS_FET_EN*%
X121041084Y-124663200D02*
X104593401Y-124663200D01*
X121516743Y-124187541D02*
X121041084Y-124663200D01*
X124700537Y-124480804D02*
X124407274Y-124187541D01*
X124407274Y-124187541D02*
X121516743Y-124187541D01*
%TO.N,/CC2*%
X134292615Y-124764800D02*
X143599431Y-124764800D01*
X148340474Y-129505843D02*
X148340474Y-131087741D01*
X126049875Y-144426857D02*
X126049874Y-144426856D01*
X133938674Y-125118741D02*
X134292615Y-124764800D01*
X143599431Y-124764800D02*
X148340474Y-129505843D01*
X132014574Y-133983341D02*
X133405274Y-132592641D01*
X126049874Y-142710340D02*
X132014574Y-136745641D01*
X133405274Y-125652141D02*
X133938674Y-125118741D01*
X132014574Y-136745641D02*
X132014574Y-133983341D01*
X133405274Y-132592641D02*
X133405274Y-125652141D01*
X126049874Y-144426856D02*
X126049874Y-142710340D01*
%TO.N,/USB_PD/ISINK_COARSE*%
X122303815Y-125196600D02*
X109719700Y-125196600D01*
X125836074Y-126464871D02*
X124159744Y-124788541D01*
X107340100Y-127576200D02*
X109719700Y-125196600D01*
X99920942Y-127576200D02*
X107340100Y-127576200D01*
X99920942Y-127576200D02*
X97715646Y-129781496D01*
X124159744Y-124788541D02*
X122711874Y-124788541D01*
X122711874Y-124788541D02*
X122303815Y-125196600D01*
%TO.N,/USB_PD/SAFE_PWR_EN*%
X109705259Y-125778141D02*
X106756200Y-128727200D01*
X124883574Y-126465871D02*
X124195844Y-125778141D01*
X106756200Y-128727200D02*
X104593401Y-128727200D01*
X124195844Y-125778141D02*
X109705259Y-125778141D01*
D20*
%TO.N,/USB_PD/PD_3V3*%
X119729800Y-123780000D02*
X120388659Y-123121141D01*
X132328474Y-130478141D02*
X132486400Y-130320215D01*
X127655874Y-123121141D02*
X127995074Y-122781941D01*
X132486400Y-130320215D02*
X132486400Y-124611628D01*
X133683014Y-123393200D02*
X139245615Y-123393200D01*
X126191674Y-124585341D02*
X125531274Y-124585341D01*
X106670655Y-123086200D02*
X107364454Y-123780000D01*
X126111000Y-127090871D02*
X130134929Y-127090871D01*
X97715646Y-118754136D02*
X97715646Y-119854136D01*
X107364454Y-123780000D02*
X119729800Y-123780000D01*
X126111000Y-127090871D02*
X121382004Y-127090871D01*
X131444176Y-124088000D02*
X131962772Y-124088000D01*
X139245615Y-123393200D02*
X142803274Y-119835541D01*
X130784600Y-126441200D02*
X130784600Y-124747576D01*
X125531274Y-124585341D02*
X126462074Y-125516141D01*
X132486400Y-124589814D02*
X133683014Y-123393200D01*
X127636407Y-123140607D02*
X126191674Y-124585341D01*
X130134929Y-127090871D02*
X130784600Y-126441200D01*
X132486400Y-124611628D02*
X132486400Y-124589814D01*
X121382004Y-127090871D02*
X120883074Y-126591941D01*
X126462074Y-125516141D02*
X126462074Y-126739797D01*
X100947710Y-123086200D02*
X106670655Y-123086200D01*
X97715646Y-119854136D02*
X100947710Y-123086200D01*
X120388659Y-123121141D02*
X127655874Y-123121141D01*
X131962772Y-124088000D02*
X132486400Y-124611628D01*
X130784600Y-124747576D02*
X131444176Y-124088000D01*
X126462074Y-126739797D02*
X126111000Y-127090871D01*
X127995074Y-122781941D02*
X127636407Y-123140607D01*
D21*
%TO.N,/USB_PD/PD_HPI_INT*%
X125423115Y-141635800D02*
X130794474Y-136264441D01*
X116582574Y-141635800D02*
X125423115Y-141635800D01*
X130794474Y-136264441D02*
X130794474Y-129930874D01*
X127668180Y-129487541D02*
X127004474Y-128823835D01*
X130351141Y-129487541D02*
X127668180Y-129487541D01*
X109114151Y-145173044D02*
X113045330Y-145173044D01*
X130794474Y-129930874D02*
X130351141Y-129487541D01*
X113045330Y-145173044D02*
X116582574Y-141635800D01*
%TO.N,/USB_PD/PD_GPIO_1*%
X125589215Y-142036800D02*
X116748674Y-142036800D01*
X115341566Y-143443908D02*
X115341566Y-145178808D01*
X116748674Y-142036800D02*
X115341566Y-143443908D01*
X131195474Y-136396341D02*
X131212574Y-136413441D01*
X131195474Y-129764774D02*
X131195474Y-136396341D01*
X130308641Y-128877941D02*
X131195474Y-129764774D01*
X127908523Y-128877941D02*
X130308641Y-128877941D01*
X131212574Y-136413441D02*
X125589215Y-142036800D01*
%TO.N,/USB_PD_Boost/+USB_PD*%
X129895600Y-107518200D02*
X127878423Y-109535377D01*
X127878423Y-109535377D02*
X126301143Y-109535377D01*
%TO.N,/USB_PD/PD_FAULT*%
X130194474Y-133907141D02*
X130194474Y-131077341D01*
X130194474Y-131077341D02*
X129671474Y-130554341D01*
%TO.N,Net-(IC2-EN)*%
X138499000Y-89509600D02*
X134663600Y-85674200D01*
X136201946Y-110083600D02*
X138499000Y-107786546D01*
X127201143Y-110439200D02*
X127965200Y-110439200D01*
X129667000Y-85674200D02*
X127381000Y-83388200D01*
X129971800Y-108432600D02*
X131622800Y-110083600D01*
X127381000Y-83388200D02*
X122506719Y-83388200D01*
X131622800Y-110083600D02*
X136201946Y-110083600D01*
X138499000Y-107786546D02*
X138499000Y-89509600D01*
X127965200Y-110439200D02*
X129971800Y-108432600D01*
X134663600Y-85674200D02*
X129667000Y-85674200D01*
%TO.N,Net-(IC2-FB)*%
X139827000Y-89458800D02*
X145897600Y-83388200D01*
X145897600Y-83388200D02*
X148947447Y-83388200D01*
X139827000Y-108788200D02*
X139827000Y-89458800D01*
X138455400Y-110159800D02*
X139827000Y-108788200D01*
%TO.N,/USB_PD/PD_SCL*%
X134038841Y-126821703D02*
X134077756Y-126821703D01*
X134077756Y-126821703D02*
X135626659Y-125272800D01*
X141805431Y-125272800D02*
X142789946Y-126257315D01*
X135626659Y-125272800D02*
X141805431Y-125272800D01*
%TO.N,/USB_PD/PD_SDA*%
X134015000Y-128599057D02*
X134015000Y-127887215D01*
X139900946Y-125908315D02*
X142789946Y-128797315D01*
X134015000Y-127887215D02*
X135993900Y-125908315D01*
X135993900Y-125908315D02*
X139900946Y-125908315D01*
%TD*%
%TA.AperFunction,Conductor*%
%TO.N,GND*%
G36*
X174522242Y-77900477D02*
G01*
X174529918Y-77899214D01*
X174555294Y-77910183D01*
X174581817Y-77917971D01*
X174586910Y-77923849D01*
X174594052Y-77926936D01*
X174609472Y-77949887D01*
X174627572Y-77970775D01*
X174628678Y-77978472D01*
X174633018Y-77984931D01*
X174633581Y-78012571D01*
X174637516Y-78039933D01*
X174634284Y-78047009D01*
X174634443Y-78054787D01*
X174619975Y-78078341D01*
X174608491Y-78103489D01*
X174601021Y-78109200D01*
X174597875Y-78114323D01*
X174568580Y-78134006D01*
X174467865Y-78182507D01*
X174177756Y-78364795D01*
X173909880Y-78578418D01*
X173667606Y-78820692D01*
X173453983Y-79088568D01*
X173271695Y-79378677D01*
X173123037Y-79687368D01*
X173009876Y-80010766D01*
X173009875Y-80010768D01*
X172933634Y-80344802D01*
X172933631Y-80344816D01*
X172895273Y-80685266D01*
X172895273Y-81027903D01*
X172933631Y-81368353D01*
X172933633Y-81368365D01*
X172933634Y-81368368D01*
X172940081Y-81396612D01*
X173009875Y-81702401D01*
X173009876Y-81702403D01*
X173123037Y-82025801D01*
X173271695Y-82334492D01*
X173271697Y-82334495D01*
X173453984Y-82624603D01*
X173667607Y-82892478D01*
X173909880Y-83134751D01*
X174177755Y-83348374D01*
X174467863Y-83530661D01*
X174776558Y-83679321D01*
X175099956Y-83792482D01*
X175433990Y-83868724D01*
X175433999Y-83868725D01*
X175434004Y-83868726D01*
X175660970Y-83894298D01*
X175774455Y-83907084D01*
X175774458Y-83907085D01*
X175774461Y-83907085D01*
X176117088Y-83907085D01*
X176117089Y-83907084D01*
X176291084Y-83887480D01*
X176457541Y-83868726D01*
X176457544Y-83868725D01*
X176457556Y-83868724D01*
X176791590Y-83792482D01*
X177114988Y-83679321D01*
X177423683Y-83530661D01*
X177713791Y-83348374D01*
X177981666Y-83134751D01*
X178223939Y-82892478D01*
X178437562Y-82624603D01*
X178565389Y-82421166D01*
X178617724Y-82374876D01*
X178686777Y-82364228D01*
X178750626Y-82392603D01*
X178788998Y-82450992D01*
X178794383Y-82487139D01*
X178794383Y-145306662D01*
X178774698Y-145373701D01*
X178721894Y-145419456D01*
X178652736Y-145429400D01*
X178589180Y-145400375D01*
X178558663Y-145360464D01*
X178443391Y-145121101D01*
X178443390Y-145121099D01*
X178261103Y-144830991D01*
X178047480Y-144563116D01*
X177805207Y-144320843D01*
X177777020Y-144298365D01*
X177737175Y-144266590D01*
X177537332Y-144107220D01*
X177247224Y-143924933D01*
X177247221Y-143924931D01*
X176938530Y-143776273D01*
X176615132Y-143663112D01*
X176615130Y-143663111D01*
X176357338Y-143604271D01*
X176281097Y-143586870D01*
X176281094Y-143586869D01*
X176281082Y-143586867D01*
X175940632Y-143548509D01*
X175940626Y-143548509D01*
X175598002Y-143548509D01*
X175597995Y-143548509D01*
X175257545Y-143586867D01*
X175257531Y-143586870D01*
X174923497Y-143663111D01*
X174923495Y-143663112D01*
X174600097Y-143776273D01*
X174291406Y-143924931D01*
X174001297Y-144107219D01*
X173733421Y-144320842D01*
X173491147Y-144563116D01*
X173277524Y-144830992D01*
X173095236Y-145121101D01*
X172946578Y-145429792D01*
X172833417Y-145753190D01*
X172833416Y-145753192D01*
X172757175Y-146087226D01*
X172757172Y-146087240D01*
X172718814Y-146427690D01*
X172718814Y-146770327D01*
X172757172Y-147110777D01*
X172757174Y-147110789D01*
X172757175Y-147110792D01*
X172763622Y-147139036D01*
X172833416Y-147444825D01*
X172833417Y-147444827D01*
X172946578Y-147768225D01*
X173095236Y-148076916D01*
X173095238Y-148076919D01*
X173277525Y-148367027D01*
X173491148Y-148634902D01*
X173733421Y-148877175D01*
X174001296Y-149090798D01*
X174291404Y-149273085D01*
X174291406Y-149273086D01*
X174600099Y-149421745D01*
X174603314Y-149423077D01*
X174602700Y-149424558D01*
X174654296Y-149461565D01*
X174680042Y-149526518D01*
X174666585Y-149595080D01*
X174618197Y-149645482D01*
X174556564Y-149661884D01*
X129484815Y-149661884D01*
X129417776Y-149642199D01*
X129372021Y-149589395D01*
X129362077Y-149520237D01*
X129391102Y-149456681D01*
X129415924Y-149434782D01*
X129447336Y-149413792D01*
X129447340Y-149413789D01*
X129586622Y-149274507D01*
X129586625Y-149274503D01*
X129696059Y-149110725D01*
X129696066Y-149110712D01*
X129771443Y-148928734D01*
X129771446Y-148928722D01*
X129809873Y-148735536D01*
X129809874Y-148735533D01*
X129809874Y-148487041D01*
X129109874Y-148487041D01*
X129109874Y-147987041D01*
X129809874Y-147987041D01*
X129809874Y-147738549D01*
X129809873Y-147738545D01*
X129771446Y-147545359D01*
X129771443Y-147545347D01*
X129696066Y-147363369D01*
X129696059Y-147363356D01*
X129586625Y-147199578D01*
X129586622Y-147199574D01*
X129447340Y-147060292D01*
X129447336Y-147060289D01*
X129283558Y-146950855D01*
X129283545Y-146950848D01*
X129101565Y-146875470D01*
X129101557Y-146875468D01*
X129059874Y-146867176D01*
X129059874Y-147670052D01*
X129049934Y-147652836D01*
X128994079Y-147596981D01*
X128925670Y-147557485D01*
X128849370Y-147537041D01*
X128770378Y-147537041D01*
X128694078Y-147557485D01*
X128625669Y-147596981D01*
X128569814Y-147652836D01*
X128559874Y-147670052D01*
X128559874Y-146867177D01*
X128559873Y-146867176D01*
X128518190Y-146875468D01*
X128518182Y-146875470D01*
X128336202Y-146950848D01*
X128336189Y-146950855D01*
X128172411Y-147060289D01*
X128172407Y-147060292D01*
X128033125Y-147199574D01*
X128033122Y-147199578D01*
X127923688Y-147363356D01*
X127923681Y-147363369D01*
X127848304Y-147545347D01*
X127848301Y-147545359D01*
X127809874Y-147738545D01*
X127809874Y-147987041D01*
X128509874Y-147987041D01*
X128509874Y-148487041D01*
X127809874Y-148487041D01*
X127809874Y-148735536D01*
X127848301Y-148928722D01*
X127848304Y-148928734D01*
X127923681Y-149110712D01*
X127923688Y-149110725D01*
X128033122Y-149274503D01*
X128033125Y-149274507D01*
X128172407Y-149413789D01*
X128172411Y-149413792D01*
X128203824Y-149434782D01*
X128248629Y-149488394D01*
X128257336Y-149557719D01*
X128227181Y-149620747D01*
X128167738Y-149657466D01*
X128134933Y-149661884D01*
X120844815Y-149661884D01*
X120777776Y-149642199D01*
X120732021Y-149589395D01*
X120722077Y-149520237D01*
X120751102Y-149456681D01*
X120775924Y-149434782D01*
X120807336Y-149413792D01*
X120807340Y-149413789D01*
X120946622Y-149274507D01*
X120946625Y-149274503D01*
X121056059Y-149110725D01*
X121056066Y-149110712D01*
X121131443Y-148928734D01*
X121131446Y-148928722D01*
X121169873Y-148735536D01*
X121169874Y-148735533D01*
X121169874Y-148487041D01*
X120469874Y-148487041D01*
X120469874Y-147987041D01*
X121169874Y-147987041D01*
X121169874Y-147738549D01*
X121169873Y-147738545D01*
X121131446Y-147545359D01*
X121131443Y-147545347D01*
X121056066Y-147363369D01*
X121056059Y-147363356D01*
X120946625Y-147199578D01*
X120946622Y-147199574D01*
X120807340Y-147060292D01*
X120807336Y-147060289D01*
X120643558Y-146950855D01*
X120643545Y-146950848D01*
X120461565Y-146875470D01*
X120461557Y-146875468D01*
X120419874Y-146867176D01*
X120419874Y-147670052D01*
X120409934Y-147652836D01*
X120354079Y-147596981D01*
X120285670Y-147557485D01*
X120209370Y-147537041D01*
X120130378Y-147537041D01*
X120054078Y-147557485D01*
X119985669Y-147596981D01*
X119929814Y-147652836D01*
X119919874Y-147670052D01*
X119919874Y-146867177D01*
X119919873Y-146867176D01*
X119878190Y-146875468D01*
X119878182Y-146875470D01*
X119696202Y-146950848D01*
X119696189Y-146950855D01*
X119532411Y-147060289D01*
X119532407Y-147060292D01*
X119393125Y-147199574D01*
X119393122Y-147199578D01*
X119283688Y-147363356D01*
X119283681Y-147363369D01*
X119208304Y-147545347D01*
X119208301Y-147545359D01*
X119169874Y-147738545D01*
X119169874Y-147987041D01*
X119869874Y-147987041D01*
X119869874Y-148487041D01*
X119169874Y-148487041D01*
X119169874Y-148735536D01*
X119208301Y-148928722D01*
X119208304Y-148928734D01*
X119283681Y-149110712D01*
X119283688Y-149110725D01*
X119393122Y-149274503D01*
X119393125Y-149274507D01*
X119532407Y-149413789D01*
X119532411Y-149413792D01*
X119563824Y-149434782D01*
X119608629Y-149488394D01*
X119617336Y-149557719D01*
X119587181Y-149620747D01*
X119527738Y-149657466D01*
X119494933Y-149661884D01*
X98556472Y-149661884D01*
X98489433Y-149642199D01*
X98443678Y-149589395D01*
X98433734Y-149520237D01*
X98462759Y-149456681D01*
X98502670Y-149426164D01*
X98636472Y-149361727D01*
X98761891Y-149301329D01*
X99051999Y-149119042D01*
X99319874Y-148905419D01*
X99562147Y-148663146D01*
X99775770Y-148395271D01*
X99958057Y-148105163D01*
X100106717Y-147796468D01*
X100219878Y-147473070D01*
X100296120Y-147139036D01*
X100299303Y-147110792D01*
X100326750Y-146867177D01*
X100334481Y-146798565D01*
X100334481Y-146455941D01*
X100313930Y-146273543D01*
X100296122Y-146115484D01*
X100296121Y-146115479D01*
X100296120Y-146115470D01*
X100219878Y-145781436D01*
X100116367Y-145485616D01*
X100106716Y-145458035D01*
X100106714Y-145458031D01*
X100093816Y-145431247D01*
X99958058Y-145149345D01*
X99914941Y-145080725D01*
X99775770Y-144859235D01*
X99562147Y-144591360D01*
X99319874Y-144349087D01*
X99310706Y-144341776D01*
X99241446Y-144286543D01*
X99234449Y-144280963D01*
X101536735Y-144280963D01*
X101536735Y-144928808D01*
X102453723Y-144928808D01*
X102420810Y-144985815D01*
X102386735Y-145112982D01*
X102386735Y-145244634D01*
X102420810Y-145371801D01*
X102453723Y-145428808D01*
X101536735Y-145428808D01*
X101536735Y-146076652D01*
X101543136Y-146136180D01*
X101543138Y-146136187D01*
X101593380Y-146270894D01*
X101593384Y-146270901D01*
X101679544Y-146385995D01*
X101679547Y-146385998D01*
X101794641Y-146472158D01*
X101794648Y-146472162D01*
X101929355Y-146522404D01*
X101929362Y-146522406D01*
X101988890Y-146528807D01*
X101988907Y-146528808D01*
X102636735Y-146528808D01*
X102636735Y-145611820D01*
X102693742Y-145644733D01*
X102820909Y-145678808D01*
X102952561Y-145678808D01*
X103079728Y-145644733D01*
X103136735Y-145611820D01*
X103136735Y-146528808D01*
X103784563Y-146528808D01*
X103784579Y-146528807D01*
X103844107Y-146522406D01*
X103844114Y-146522404D01*
X103978821Y-146472162D01*
X103978828Y-146472158D01*
X104093922Y-146385998D01*
X104093925Y-146385995D01*
X104180085Y-146270901D01*
X104180089Y-146270894D01*
X104230331Y-146136187D01*
X104230333Y-146136180D01*
X104236734Y-146076652D01*
X104236735Y-146076635D01*
X104236735Y-145428808D01*
X103319747Y-145428808D01*
X103352660Y-145371801D01*
X103386735Y-145244634D01*
X103386735Y-145112982D01*
X103352660Y-144985815D01*
X103319747Y-144928808D01*
X104236735Y-144928808D01*
X104236735Y-144280980D01*
X104236734Y-144280963D01*
X104230333Y-144221435D01*
X104230331Y-144221428D01*
X104180089Y-144086721D01*
X104180085Y-144086714D01*
X104093925Y-143971620D01*
X104093922Y-143971617D01*
X103978828Y-143885457D01*
X103978821Y-143885453D01*
X103844114Y-143835211D01*
X103844107Y-143835209D01*
X103784579Y-143828808D01*
X103136735Y-143828808D01*
X103136735Y-144745796D01*
X103079728Y-144712883D01*
X102952561Y-144678808D01*
X102820909Y-144678808D01*
X102693742Y-144712883D01*
X102636735Y-144745796D01*
X102636735Y-143828808D01*
X101988890Y-143828808D01*
X101929362Y-143835209D01*
X101929355Y-143835211D01*
X101794648Y-143885453D01*
X101794641Y-143885457D01*
X101679547Y-143971617D01*
X101679544Y-143971620D01*
X101593384Y-144086714D01*
X101593380Y-144086721D01*
X101543138Y-144221428D01*
X101543136Y-144221435D01*
X101536735Y-144280963D01*
X99234449Y-144280963D01*
X99051999Y-144135464D01*
X98761891Y-143953177D01*
X98761888Y-143953175D01*
X98453197Y-143804517D01*
X98129799Y-143691356D01*
X98129797Y-143691355D01*
X97872005Y-143632515D01*
X97795764Y-143615114D01*
X97795761Y-143615113D01*
X97795749Y-143615111D01*
X97455299Y-143576753D01*
X97455293Y-143576753D01*
X97112669Y-143576753D01*
X97112662Y-143576753D01*
X96772212Y-143615111D01*
X96772198Y-143615114D01*
X96438164Y-143691355D01*
X96438162Y-143691356D01*
X96114764Y-143804517D01*
X95806073Y-143953175D01*
X95515964Y-144135463D01*
X95248088Y-144349086D01*
X95005814Y-144591360D01*
X94792191Y-144859236D01*
X94609903Y-145149345D01*
X94461245Y-145458036D01*
X94394025Y-145650142D01*
X94353303Y-145706919D01*
X94288350Y-145732666D01*
X94219789Y-145719210D01*
X94169386Y-145670823D01*
X94152983Y-145609188D01*
X94152983Y-136947531D01*
X103492901Y-136947531D01*
X103492901Y-138696888D01*
X103507433Y-138769945D01*
X103507434Y-138769949D01*
X103507435Y-138769950D01*
X103562800Y-138852811D01*
X103645661Y-138908176D01*
X103645665Y-138908177D01*
X103718722Y-138922709D01*
X103718725Y-138922710D01*
X103718727Y-138922710D01*
X105468077Y-138922710D01*
X105468078Y-138922709D01*
X105541141Y-138908176D01*
X105624002Y-138852811D01*
X105679367Y-138769950D01*
X105693901Y-138696884D01*
X105693901Y-138321358D01*
X105702069Y-138293538D01*
X105707432Y-138265031D01*
X105711796Y-138260412D01*
X105713586Y-138254319D01*
X105735498Y-138235331D01*
X105755422Y-138214249D01*
X105762701Y-138211759D01*
X105766390Y-138208564D01*
X105788128Y-138200985D01*
X105801368Y-138197710D01*
X105807105Y-138197710D01*
X105874691Y-138179600D01*
X105902607Y-138172120D01*
X105988231Y-138122685D01*
X106058144Y-138052772D01*
X114012099Y-130098815D01*
X114042582Y-130076478D01*
X114056144Y-130069428D01*
X114235794Y-129976035D01*
X114492299Y-129842689D01*
X114492312Y-129842682D01*
X114504310Y-129836029D01*
X114505381Y-129835397D01*
X114516767Y-129828268D01*
X114516768Y-129828266D01*
X114522175Y-129823977D01*
X114522516Y-129824407D01*
X114539822Y-129811171D01*
X114557353Y-129801050D01*
X114659847Y-129698556D01*
X114732322Y-129573026D01*
X114769838Y-129433016D01*
X114769838Y-129288066D01*
X114732322Y-129148056D01*
X114726734Y-129138378D01*
X114659849Y-129022529D01*
X114659844Y-129022523D01*
X114557355Y-128920034D01*
X114557349Y-128920029D01*
X114431826Y-128847558D01*
X114431827Y-128847558D01*
X114380332Y-128833760D01*
X114291813Y-128810041D01*
X114146863Y-128810041D01*
X114058344Y-128833760D01*
X114006849Y-128847558D01*
X113881326Y-128920029D01*
X113881324Y-128920031D01*
X113778828Y-129022526D01*
X113756504Y-129061191D01*
X113745873Y-129076741D01*
X113737200Y-129087560D01*
X113737195Y-129087568D01*
X113503397Y-129537298D01*
X113481057Y-129567783D01*
X105905582Y-137143259D01*
X105844259Y-137176744D01*
X105774567Y-137171760D01*
X105718634Y-137129888D01*
X105694217Y-137064424D01*
X105693901Y-137055578D01*
X105693901Y-136947533D01*
X105693900Y-136947531D01*
X105679368Y-136874474D01*
X105679367Y-136874470D01*
X105669705Y-136860010D01*
X105624002Y-136791609D01*
X105541141Y-136736244D01*
X105541140Y-136736243D01*
X105541136Y-136736242D01*
X105468078Y-136721710D01*
X105468075Y-136721710D01*
X103718727Y-136721710D01*
X103718724Y-136721710D01*
X103645665Y-136736242D01*
X103645661Y-136736243D01*
X103562800Y-136791609D01*
X103507434Y-136874470D01*
X103507433Y-136874474D01*
X103492901Y-136947531D01*
X94152983Y-136947531D01*
X94152983Y-134397331D01*
X96365646Y-134397331D01*
X96365646Y-135045176D01*
X97282634Y-135045176D01*
X97249721Y-135102183D01*
X97215646Y-135229350D01*
X97215646Y-135361002D01*
X97249721Y-135488169D01*
X97282634Y-135545176D01*
X96365646Y-135545176D01*
X96365646Y-136193020D01*
X96372047Y-136252548D01*
X96372049Y-136252555D01*
X96422291Y-136387262D01*
X96422295Y-136387269D01*
X96508455Y-136502363D01*
X96508458Y-136502366D01*
X96623552Y-136588526D01*
X96623559Y-136588530D01*
X96758266Y-136638772D01*
X96758273Y-136638774D01*
X96817801Y-136645175D01*
X96817818Y-136645176D01*
X97465646Y-136645176D01*
X97465646Y-135728188D01*
X97522653Y-135761101D01*
X97649820Y-135795176D01*
X97781472Y-135795176D01*
X97908639Y-135761101D01*
X97965646Y-135728188D01*
X97965646Y-136645176D01*
X98613474Y-136645176D01*
X98613490Y-136645175D01*
X98673018Y-136638774D01*
X98673025Y-136638772D01*
X98807732Y-136588530D01*
X98807739Y-136588526D01*
X98922833Y-136502366D01*
X98922836Y-136502363D01*
X99008996Y-136387269D01*
X99009000Y-136387262D01*
X99059242Y-136252555D01*
X99059244Y-136252548D01*
X99065645Y-136193020D01*
X99065646Y-136193003D01*
X99065646Y-135545176D01*
X98148658Y-135545176D01*
X98181571Y-135488169D01*
X98215646Y-135361002D01*
X98215646Y-135229350D01*
X98181571Y-135102183D01*
X98148658Y-135045176D01*
X99065646Y-135045176D01*
X99065646Y-134397348D01*
X99065645Y-134397331D01*
X99059244Y-134337803D01*
X99059242Y-134337796D01*
X99009000Y-134203089D01*
X99008996Y-134203082D01*
X98922836Y-134087988D01*
X98922833Y-134087985D01*
X98807739Y-134001825D01*
X98807732Y-134001821D01*
X98673025Y-133951579D01*
X98673018Y-133951577D01*
X98613490Y-133945176D01*
X97965646Y-133945176D01*
X97965646Y-134862164D01*
X97908639Y-134829251D01*
X97781472Y-134795176D01*
X97649820Y-134795176D01*
X97522653Y-134829251D01*
X97465646Y-134862164D01*
X97465646Y-133945176D01*
X96817801Y-133945176D01*
X96758273Y-133951577D01*
X96758266Y-133951579D01*
X96623559Y-134001821D01*
X96623552Y-134001825D01*
X96508458Y-134087985D01*
X96508455Y-134087988D01*
X96422295Y-134203082D01*
X96422291Y-134203089D01*
X96372049Y-134337796D01*
X96372047Y-134337803D01*
X96365646Y-134397331D01*
X94152983Y-134397331D01*
X94152983Y-117879457D01*
X96615146Y-117879457D01*
X96615146Y-119628814D01*
X96629678Y-119701871D01*
X96629679Y-119701875D01*
X96629680Y-119701876D01*
X96685045Y-119784737D01*
X96767906Y-119840102D01*
X96767910Y-119840103D01*
X96840967Y-119854635D01*
X96840970Y-119854636D01*
X96840972Y-119854636D01*
X97231886Y-119854636D01*
X97298925Y-119874321D01*
X97343084Y-119923764D01*
X97348495Y-119934729D01*
X97365736Y-119999074D01*
X97415171Y-120084698D01*
X97415172Y-120084699D01*
X97429636Y-120099163D01*
X100280491Y-122950019D01*
X100313976Y-123011342D01*
X100308992Y-123081034D01*
X100267120Y-123136967D01*
X100201656Y-123161384D01*
X100192810Y-123161700D01*
X98425118Y-123161700D01*
X98419921Y-123163092D01*
X98387834Y-123167316D01*
X96840969Y-123167316D01*
X96767910Y-123181848D01*
X96767906Y-123181849D01*
X96685045Y-123237215D01*
X96629679Y-123320076D01*
X96629678Y-123320080D01*
X96615146Y-123393137D01*
X96615146Y-125142494D01*
X96629678Y-125215551D01*
X96629679Y-125215555D01*
X96629680Y-125215556D01*
X96685045Y-125298417D01*
X96765336Y-125352065D01*
X96767906Y-125353782D01*
X96767910Y-125353783D01*
X96840967Y-125368315D01*
X96840970Y-125368316D01*
X96840972Y-125368316D01*
X98590322Y-125368316D01*
X98590323Y-125368315D01*
X98663386Y-125353782D01*
X98746247Y-125298417D01*
X98801612Y-125215556D01*
X98816146Y-125142490D01*
X98816146Y-123986700D01*
X98835831Y-123919661D01*
X98888635Y-123873906D01*
X98940146Y-123862700D01*
X103368901Y-123862700D01*
X103435940Y-123882385D01*
X103481695Y-123935189D01*
X103492901Y-123986700D01*
X103492901Y-125537878D01*
X103507433Y-125610935D01*
X103507434Y-125610939D01*
X103515905Y-125623616D01*
X103562800Y-125693801D01*
X103631856Y-125739942D01*
X103645661Y-125749166D01*
X103645665Y-125749167D01*
X103718722Y-125763699D01*
X103718725Y-125763700D01*
X103718727Y-125763700D01*
X105468077Y-125763700D01*
X105468078Y-125763699D01*
X105541141Y-125749166D01*
X105624002Y-125693801D01*
X105679367Y-125610940D01*
X105693901Y-125537874D01*
X105693901Y-125137700D01*
X105713586Y-125070661D01*
X105766390Y-125024906D01*
X105817901Y-125013700D01*
X109107556Y-125013700D01*
X109174595Y-125033385D01*
X109220350Y-125086189D01*
X109230294Y-125155347D01*
X109201269Y-125218903D01*
X109195237Y-125225381D01*
X107231237Y-127189381D01*
X107169914Y-127222866D01*
X107143556Y-127225700D01*
X99874798Y-127225700D01*
X99785654Y-127249586D01*
X99785651Y-127249587D01*
X99705733Y-127295727D01*
X99705728Y-127295731D01*
X98356783Y-128644677D01*
X98295460Y-128678162D01*
X98269102Y-128680996D01*
X96840969Y-128680996D01*
X96767910Y-128695528D01*
X96767906Y-128695529D01*
X96685045Y-128750895D01*
X96629679Y-128833756D01*
X96629678Y-128833760D01*
X96615146Y-128906817D01*
X96615146Y-130656174D01*
X96629678Y-130729231D01*
X96629679Y-130729235D01*
X96629680Y-130729236D01*
X96685045Y-130812097D01*
X96767906Y-130867462D01*
X96767910Y-130867463D01*
X96840967Y-130881995D01*
X96840970Y-130881996D01*
X96840972Y-130881996D01*
X98590322Y-130881996D01*
X98590323Y-130881995D01*
X98663386Y-130867462D01*
X98746247Y-130812097D01*
X98801612Y-130729236D01*
X98816146Y-130656170D01*
X98816146Y-129228040D01*
X98835831Y-129161001D01*
X98852465Y-129140359D01*
X100029805Y-127963019D01*
X100091128Y-127929534D01*
X100117486Y-127926700D01*
X103368901Y-127926700D01*
X103435940Y-127946385D01*
X103481695Y-127999189D01*
X103492901Y-128050700D01*
X103492901Y-129601878D01*
X103507433Y-129674935D01*
X103507434Y-129674939D01*
X103507435Y-129674940D01*
X103562800Y-129757801D01*
X103627528Y-129801050D01*
X103645661Y-129813166D01*
X103645665Y-129813167D01*
X103718722Y-129827699D01*
X103718725Y-129827700D01*
X103718727Y-129827700D01*
X105468077Y-129827700D01*
X105468078Y-129827699D01*
X105541141Y-129813166D01*
X105624002Y-129757801D01*
X105679367Y-129674940D01*
X105693901Y-129601874D01*
X105693901Y-129201700D01*
X105713586Y-129134661D01*
X105766390Y-129088906D01*
X105817901Y-129077700D01*
X106802342Y-129077700D01*
X106802344Y-129077700D01*
X106891488Y-129053814D01*
X106917065Y-129039047D01*
X106971412Y-129007670D01*
X109814121Y-126164959D01*
X109875444Y-126131475D01*
X109901802Y-126128641D01*
X112370076Y-126128641D01*
X112437115Y-126148326D01*
X112482870Y-126201130D01*
X112492814Y-126270288D01*
X112489851Y-126284729D01*
X112483974Y-126306666D01*
X112483974Y-126451616D01*
X112521422Y-126591371D01*
X112521491Y-126591629D01*
X112593962Y-126717152D01*
X112593964Y-126717154D01*
X112593965Y-126717156D01*
X112696459Y-126819650D01*
X112731687Y-126839989D01*
X112735119Y-126841970D01*
X112750679Y-126852608D01*
X112761499Y-126861282D01*
X113170840Y-127074082D01*
X113211230Y-127095079D01*
X113241714Y-127117418D01*
X114622605Y-128498310D01*
X114708231Y-128547746D01*
X114803732Y-128573335D01*
X114803733Y-128573335D01*
X126340076Y-128573335D01*
X126407115Y-128593020D01*
X126452870Y-128645824D01*
X126462814Y-128714982D01*
X126459851Y-128729423D01*
X126453974Y-128751360D01*
X126453974Y-128896310D01*
X126464897Y-128937074D01*
X126491491Y-129036323D01*
X126563962Y-129161846D01*
X126563964Y-129161848D01*
X126563965Y-129161850D01*
X126666459Y-129264344D01*
X126725395Y-129298371D01*
X126741836Y-129310457D01*
X126765513Y-129321533D01*
X126770134Y-129324201D01*
X126770135Y-129324202D01*
X126791984Y-129336817D01*
X126791986Y-129336817D01*
X126791989Y-129336819D01*
X126795944Y-129337878D01*
X126816389Y-129345333D01*
X127177459Y-129514244D01*
X127198581Y-129524125D01*
X127233719Y-129548762D01*
X127452968Y-129768011D01*
X127527284Y-129810917D01*
X127532892Y-129814155D01*
X127622036Y-129838041D01*
X129348368Y-129838041D01*
X129415407Y-129857726D01*
X129461162Y-129910530D01*
X129471106Y-129979688D01*
X129442081Y-130043244D01*
X129410369Y-130069428D01*
X129333459Y-130113832D01*
X129333456Y-130113834D01*
X129230967Y-130216323D01*
X129230962Y-130216329D01*
X129158491Y-130341852D01*
X129158490Y-130341856D01*
X129120974Y-130481866D01*
X129120974Y-130626816D01*
X129148418Y-130729236D01*
X129158491Y-130766829D01*
X129230962Y-130892352D01*
X129230964Y-130892354D01*
X129230965Y-130892356D01*
X129333459Y-130994850D01*
X129392395Y-131028877D01*
X129408836Y-131040963D01*
X129432513Y-131052039D01*
X129437134Y-131054707D01*
X129437135Y-131054708D01*
X129458986Y-131067324D01*
X129458988Y-131067324D01*
X129458989Y-131067325D01*
X129462936Y-131068382D01*
X129483385Y-131075837D01*
X129772519Y-131211096D01*
X129824899Y-131257331D01*
X129843974Y-131323412D01*
X129843974Y-133232438D01*
X129836548Y-133274705D01*
X129692720Y-133671383D01*
X129692720Y-133671384D01*
X129688995Y-133681655D01*
X129681490Y-133694656D01*
X129673585Y-133724154D01*
X129671766Y-133729172D01*
X129671766Y-133729175D01*
X129664658Y-133748781D01*
X129658863Y-133766828D01*
X129658402Y-133768473D01*
X129653963Y-133786880D01*
X129653099Y-133794063D01*
X129652307Y-133793967D01*
X129649759Y-133813075D01*
X129643974Y-133834666D01*
X129643974Y-133878100D01*
X129624289Y-133945139D01*
X129571485Y-133990894D01*
X129519974Y-134002100D01*
X128157323Y-134002100D01*
X128084264Y-134016632D01*
X128084260Y-134016633D01*
X128001399Y-134071999D01*
X127946033Y-134154860D01*
X127946032Y-134154864D01*
X127931500Y-134227921D01*
X127931500Y-135977278D01*
X127946032Y-136050335D01*
X127946033Y-136050339D01*
X127946034Y-136050340D01*
X128001399Y-136133201D01*
X128084260Y-136188566D01*
X128084264Y-136188567D01*
X128157321Y-136203099D01*
X128157324Y-136203100D01*
X128157326Y-136203100D01*
X129906676Y-136203100D01*
X129906677Y-136203099D01*
X129979740Y-136188566D01*
X130062601Y-136133201D01*
X130117966Y-136050340D01*
X130132500Y-135977274D01*
X130132500Y-134581641D01*
X130152185Y-134514602D01*
X130204989Y-134468847D01*
X130237513Y-134459103D01*
X130246949Y-134457641D01*
X130266949Y-134457641D01*
X130294371Y-134450292D01*
X130300987Y-134449268D01*
X130329237Y-134453015D01*
X130357727Y-134453693D01*
X130363427Y-134457550D01*
X130370250Y-134458456D01*
X130391988Y-134476880D01*
X130415591Y-134492854D01*
X130418300Y-134499181D01*
X130423551Y-134503631D01*
X130431877Y-134530882D01*
X130443097Y-134557081D01*
X130443875Y-134570152D01*
X130443967Y-134570452D01*
X130443906Y-134570667D01*
X130443974Y-134571806D01*
X130443974Y-136067897D01*
X130424289Y-136134936D01*
X130407655Y-136155578D01*
X125314252Y-141248981D01*
X125252929Y-141282466D01*
X125226571Y-141285300D01*
X116536430Y-141285300D01*
X116447285Y-141309186D01*
X116367361Y-141355331D01*
X116367358Y-141355333D01*
X112936467Y-144786225D01*
X112875144Y-144819710D01*
X112848786Y-144822544D01*
X110338651Y-144822544D01*
X110271612Y-144802859D01*
X110225857Y-144750055D01*
X110214651Y-144698544D01*
X110214651Y-144298367D01*
X110214650Y-144298365D01*
X110200118Y-144225308D01*
X110200117Y-144225304D01*
X110192814Y-144214374D01*
X110144752Y-144142443D01*
X110071242Y-144093326D01*
X110061890Y-144087077D01*
X110061886Y-144087076D01*
X109988828Y-144072544D01*
X109988825Y-144072544D01*
X108239477Y-144072544D01*
X108239474Y-144072544D01*
X108166415Y-144087076D01*
X108166411Y-144087077D01*
X108083550Y-144142443D01*
X108028184Y-144225304D01*
X108028183Y-144225308D01*
X108013651Y-144298365D01*
X108013651Y-146047722D01*
X108028183Y-146120779D01*
X108028184Y-146120783D01*
X108032036Y-146126548D01*
X108083550Y-146203645D01*
X108166411Y-146259010D01*
X108166415Y-146259011D01*
X108239472Y-146273543D01*
X108239475Y-146273544D01*
X108239477Y-146273544D01*
X109988827Y-146273544D01*
X109988828Y-146273543D01*
X110061891Y-146259010D01*
X110144752Y-146203645D01*
X110200117Y-146120784D01*
X110214651Y-146047718D01*
X110214651Y-145647544D01*
X110234336Y-145580505D01*
X110287140Y-145534750D01*
X110338651Y-145523544D01*
X113091472Y-145523544D01*
X113091474Y-145523544D01*
X113180618Y-145499658D01*
X113204946Y-145485612D01*
X113260542Y-145453514D01*
X114029385Y-144684671D01*
X114090708Y-144651186D01*
X114160400Y-144656170D01*
X114216333Y-144698042D01*
X114240750Y-144763506D01*
X114241066Y-144772352D01*
X114241066Y-146053486D01*
X114255598Y-146126543D01*
X114255599Y-146126547D01*
X114255600Y-146126548D01*
X114310965Y-146209409D01*
X114385201Y-146259011D01*
X114393826Y-146264774D01*
X114393830Y-146264775D01*
X114466887Y-146279307D01*
X114466890Y-146279308D01*
X114466892Y-146279308D01*
X116216242Y-146279308D01*
X116216243Y-146279307D01*
X116289306Y-146264774D01*
X116372167Y-146209409D01*
X116427532Y-146126548D01*
X116442066Y-146053482D01*
X116442066Y-144304134D01*
X116442066Y-144304132D01*
X116442066Y-144304131D01*
X116437240Y-144279871D01*
X116437240Y-144279870D01*
X116427533Y-144231072D01*
X116427532Y-144231068D01*
X116423681Y-144225304D01*
X116372167Y-144148207D01*
X116310823Y-144107219D01*
X116289305Y-144092841D01*
X116289301Y-144092840D01*
X116216243Y-144078308D01*
X116216240Y-144078308D01*
X115816066Y-144078308D01*
X115749027Y-144058623D01*
X115703272Y-144005819D01*
X115692066Y-143954308D01*
X115692066Y-143640452D01*
X115711751Y-143573413D01*
X115728385Y-143552771D01*
X116857537Y-142423619D01*
X116918860Y-142390134D01*
X116945218Y-142387300D01*
X119638105Y-142387300D01*
X119705144Y-142406985D01*
X119750899Y-142459789D01*
X119760843Y-142528947D01*
X119731818Y-142592503D01*
X119701014Y-142617098D01*
X119701261Y-142617467D01*
X119696924Y-142620364D01*
X119696552Y-142620662D01*
X119696189Y-142620855D01*
X119532411Y-142730289D01*
X119532407Y-142730292D01*
X119393125Y-142869574D01*
X119393122Y-142869578D01*
X119283688Y-143033356D01*
X119283681Y-143033369D01*
X119208304Y-143215347D01*
X119208301Y-143215359D01*
X119169874Y-143408545D01*
X119169874Y-143807041D01*
X119869874Y-143807041D01*
X119869874Y-144307041D01*
X119169874Y-144307041D01*
X119169874Y-144705536D01*
X119208301Y-144898722D01*
X119208304Y-144898734D01*
X119283681Y-145080712D01*
X119283688Y-145080725D01*
X119393122Y-145244503D01*
X119393125Y-145244507D01*
X119532407Y-145383789D01*
X119532411Y-145383792D01*
X119696189Y-145493226D01*
X119696202Y-145493233D01*
X119878182Y-145568610D01*
X119919874Y-145576903D01*
X119919874Y-144774029D01*
X119929814Y-144791246D01*
X119985669Y-144847101D01*
X120054078Y-144886597D01*
X120130378Y-144907041D01*
X120209370Y-144907041D01*
X120285670Y-144886597D01*
X120354079Y-144847101D01*
X120409934Y-144791246D01*
X120419874Y-144774029D01*
X120419874Y-145576903D01*
X120461564Y-145568610D01*
X120461566Y-145568610D01*
X120643545Y-145493233D01*
X120643558Y-145493226D01*
X120807336Y-145383792D01*
X120807340Y-145383789D01*
X120946622Y-145244507D01*
X120946625Y-145244503D01*
X121056059Y-145080724D01*
X121058406Y-145075060D01*
X121102245Y-145020655D01*
X121168539Y-144998588D01*
X121236239Y-145015865D01*
X121240048Y-145018444D01*
X121376192Y-145097047D01*
X121376193Y-145097047D01*
X121376196Y-145097049D01*
X121523581Y-145136541D01*
X121523584Y-145136541D01*
X121676164Y-145136541D01*
X121676167Y-145136541D01*
X121823552Y-145097049D01*
X121955695Y-145020756D01*
X122063589Y-144912862D01*
X122139882Y-144780719D01*
X122179374Y-144633334D01*
X122179374Y-144480748D01*
X122139882Y-144333363D01*
X122130562Y-144317221D01*
X122063591Y-144201223D01*
X122063586Y-144201217D01*
X121955697Y-144093328D01*
X121955691Y-144093323D01*
X121823555Y-144017034D01*
X121823556Y-144017034D01*
X121811469Y-144013795D01*
X121676167Y-143977541D01*
X121523581Y-143977541D01*
X121388278Y-144013795D01*
X121376192Y-144017034D01*
X121244056Y-144093323D01*
X121244050Y-144093328D01*
X121136161Y-144201217D01*
X121136157Y-144201223D01*
X121124492Y-144221428D01*
X121111528Y-144243883D01*
X121110859Y-144245041D01*
X121060292Y-144293257D01*
X121003472Y-144307041D01*
X120469874Y-144307041D01*
X120469874Y-143807041D01*
X121169874Y-143807041D01*
X121169874Y-143408549D01*
X121169873Y-143408545D01*
X121131446Y-143215359D01*
X121131443Y-143215347D01*
X121056066Y-143033369D01*
X121056059Y-143033356D01*
X120946625Y-142869578D01*
X120946622Y-142869574D01*
X120807340Y-142730292D01*
X120807336Y-142730289D01*
X120643558Y-142620855D01*
X120643196Y-142620662D01*
X120643041Y-142620510D01*
X120638487Y-142617467D01*
X120639063Y-142616603D01*
X120593349Y-142571702D01*
X120577884Y-142503565D01*
X120601712Y-142437884D01*
X120657268Y-142395512D01*
X120701643Y-142387300D01*
X125010770Y-142387300D01*
X125077809Y-142406985D01*
X125123564Y-142459789D01*
X125133508Y-142528947D01*
X125104483Y-142592503D01*
X125098451Y-142598981D01*
X123829384Y-143868047D01*
X123824706Y-143870601D01*
X123821771Y-143875050D01*
X123794362Y-143887170D01*
X123768061Y-143901532D01*
X123761440Y-143901728D01*
X123757871Y-143903307D01*
X123725329Y-143902800D01*
X123722579Y-143902882D01*
X123721946Y-143902783D01*
X123519307Y-143869677D01*
X123511174Y-143869883D01*
X123500102Y-143868155D01*
X123496702Y-143866552D01*
X123487139Y-143865416D01*
X123486253Y-143865178D01*
X123480925Y-143863751D01*
X123335975Y-143863751D01*
X123207443Y-143898191D01*
X123195961Y-143901268D01*
X123070438Y-143973739D01*
X123070432Y-143973744D01*
X122967943Y-144076233D01*
X122967938Y-144076239D01*
X122895467Y-144201762D01*
X122895466Y-144201766D01*
X122857950Y-144341776D01*
X122857950Y-144486726D01*
X122878419Y-144563116D01*
X122895467Y-144626739D01*
X122967938Y-144752262D01*
X122967940Y-144752264D01*
X122967941Y-144752266D01*
X123070435Y-144854760D01*
X123070436Y-144854761D01*
X123070438Y-144854762D01*
X123195961Y-144927233D01*
X123195962Y-144927233D01*
X123195965Y-144927235D01*
X123335975Y-144964751D01*
X123335978Y-144964751D01*
X123480922Y-144964751D01*
X123480925Y-144964751D01*
X123620935Y-144927235D01*
X123620937Y-144927233D01*
X123620939Y-144927233D01*
X123620940Y-144927232D01*
X123645830Y-144912862D01*
X123738928Y-144859111D01*
X123742004Y-144857567D01*
X123743152Y-144856672D01*
X123746465Y-144854760D01*
X123746471Y-144854753D01*
X123748900Y-144852890D01*
X123755537Y-144847026D01*
X123860334Y-144765411D01*
X123904430Y-144743469D01*
X123914151Y-144740865D01*
X123919233Y-144737931D01*
X123994075Y-144694721D01*
X124145351Y-144543444D01*
X124154379Y-144536414D01*
X124166586Y-144526283D01*
X124167670Y-144525325D01*
X124179136Y-144514545D01*
X124188973Y-144499822D01*
X125487694Y-143201100D01*
X125549016Y-143167617D01*
X125618708Y-143172601D01*
X125674641Y-143214473D01*
X125699058Y-143279937D01*
X125699374Y-143288783D01*
X125699374Y-143752154D01*
X125691948Y-143794422D01*
X125548119Y-144191102D01*
X125548118Y-144191101D01*
X125544391Y-144201377D01*
X125536891Y-144214372D01*
X125528989Y-144243857D01*
X125527167Y-144248885D01*
X125527167Y-144248888D01*
X125520065Y-144268479D01*
X125514264Y-144286544D01*
X125513803Y-144288189D01*
X125513800Y-144288200D01*
X125512686Y-144292819D01*
X125509364Y-144306596D01*
X125508500Y-144313779D01*
X125507708Y-144313683D01*
X125505160Y-144332791D01*
X125499375Y-144354382D01*
X125499375Y-144499332D01*
X125535281Y-144633334D01*
X125536892Y-144639345D01*
X125609363Y-144764868D01*
X125609365Y-144764870D01*
X125609366Y-144764872D01*
X125711860Y-144867366D01*
X125711861Y-144867367D01*
X125711863Y-144867368D01*
X125837386Y-144939839D01*
X125837387Y-144939839D01*
X125837390Y-144939841D01*
X125977400Y-144977357D01*
X125977403Y-144977357D01*
X126122347Y-144977357D01*
X126122350Y-144977357D01*
X126262360Y-144939841D01*
X126387890Y-144867366D01*
X126490384Y-144764872D01*
X126562859Y-144639342D01*
X126562860Y-144639336D01*
X126565967Y-144631838D01*
X126567354Y-144632412D01*
X126599002Y-144580480D01*
X126661846Y-144549945D01*
X126731223Y-144558233D01*
X126785105Y-144602713D01*
X126802194Y-144640129D01*
X126839866Y-144780719D01*
X126839867Y-144780722D01*
X126916156Y-144912858D01*
X126916158Y-144912860D01*
X126916159Y-144912862D01*
X127024053Y-145020756D01*
X127024054Y-145020757D01*
X127024056Y-145020758D01*
X127156192Y-145097047D01*
X127156193Y-145097047D01*
X127156196Y-145097049D01*
X127303581Y-145136541D01*
X127303584Y-145136541D01*
X127456164Y-145136541D01*
X127456167Y-145136541D01*
X127603552Y-145097049D01*
X127735695Y-145020756D01*
X127735695Y-145020755D01*
X127742734Y-145016692D01*
X127744160Y-145019163D01*
X127796439Y-144998942D01*
X127864886Y-145012968D01*
X127914884Y-145061773D01*
X127921337Y-145075053D01*
X127923680Y-145080710D01*
X127923688Y-145080725D01*
X128033122Y-145244503D01*
X128033125Y-145244507D01*
X128172407Y-145383789D01*
X128172411Y-145383792D01*
X128336189Y-145493226D01*
X128336202Y-145493233D01*
X128518182Y-145568610D01*
X128559874Y-145576903D01*
X128559874Y-144774029D01*
X128569814Y-144791246D01*
X128625669Y-144847101D01*
X128694078Y-144886597D01*
X128770378Y-144907041D01*
X128849370Y-144907041D01*
X128925670Y-144886597D01*
X128994079Y-144847101D01*
X129049934Y-144791246D01*
X129059874Y-144774029D01*
X129059874Y-145576903D01*
X129101564Y-145568610D01*
X129101566Y-145568610D01*
X129283545Y-145493233D01*
X129283558Y-145493226D01*
X129447336Y-145383792D01*
X129447340Y-145383789D01*
X129586622Y-145244507D01*
X129586625Y-145244503D01*
X129696059Y-145080725D01*
X129696066Y-145080712D01*
X129771443Y-144898734D01*
X129771446Y-144898722D01*
X129809873Y-144705536D01*
X129809874Y-144705533D01*
X129809874Y-144307041D01*
X129109874Y-144307041D01*
X129109874Y-144304129D01*
X132884666Y-144304129D01*
X132884666Y-146053486D01*
X132899198Y-146126543D01*
X132899199Y-146126547D01*
X132899200Y-146126548D01*
X132954565Y-146209409D01*
X133028801Y-146259011D01*
X133037426Y-146264774D01*
X133037430Y-146264775D01*
X133110487Y-146279307D01*
X133110490Y-146279308D01*
X133110492Y-146279308D01*
X134859842Y-146279308D01*
X134859843Y-146279307D01*
X134932906Y-146264774D01*
X135015767Y-146209409D01*
X135071132Y-146126548D01*
X135085666Y-146053482D01*
X135085666Y-144304134D01*
X135085665Y-144304131D01*
X135085213Y-144301856D01*
X135085213Y-144301853D01*
X135085212Y-144301850D01*
X135081057Y-144280963D01*
X146990474Y-144280963D01*
X146990474Y-144928808D01*
X147907462Y-144928808D01*
X147874549Y-144985815D01*
X147840474Y-145112982D01*
X147840474Y-145244634D01*
X147874549Y-145371801D01*
X147907462Y-145428808D01*
X146990474Y-145428808D01*
X146990474Y-146076652D01*
X146996875Y-146136180D01*
X146996877Y-146136187D01*
X147047119Y-146270894D01*
X147047123Y-146270901D01*
X147133283Y-146385995D01*
X147133286Y-146385998D01*
X147248380Y-146472158D01*
X147248387Y-146472162D01*
X147383094Y-146522404D01*
X147383101Y-146522406D01*
X147442629Y-146528807D01*
X147442646Y-146528808D01*
X148090474Y-146528808D01*
X148090474Y-145611820D01*
X148147481Y-145644733D01*
X148274648Y-145678808D01*
X148406300Y-145678808D01*
X148533467Y-145644733D01*
X148590474Y-145611820D01*
X148590474Y-146528808D01*
X149238302Y-146528808D01*
X149238318Y-146528807D01*
X149297846Y-146522406D01*
X149297853Y-146522404D01*
X149432560Y-146472162D01*
X149432567Y-146472158D01*
X149547661Y-146385998D01*
X149547664Y-146385995D01*
X149633824Y-146270901D01*
X149633828Y-146270894D01*
X149684070Y-146136187D01*
X149684072Y-146136180D01*
X149690473Y-146076652D01*
X149690474Y-146076635D01*
X149690474Y-145428808D01*
X148773486Y-145428808D01*
X148806399Y-145371801D01*
X148840474Y-145244634D01*
X148840474Y-145112982D01*
X148806399Y-144985815D01*
X148773486Y-144928808D01*
X149690474Y-144928808D01*
X149690474Y-144280980D01*
X149690473Y-144280963D01*
X149684072Y-144221435D01*
X149684070Y-144221428D01*
X149633828Y-144086721D01*
X149633824Y-144086714D01*
X149547664Y-143971620D01*
X149547661Y-143971617D01*
X149432567Y-143885457D01*
X149432560Y-143885453D01*
X149297853Y-143835211D01*
X149297846Y-143835209D01*
X149238318Y-143828808D01*
X148590474Y-143828808D01*
X148590474Y-144745796D01*
X148533467Y-144712883D01*
X148406300Y-144678808D01*
X148274648Y-144678808D01*
X148147481Y-144712883D01*
X148090474Y-144745796D01*
X148090474Y-143828808D01*
X147442629Y-143828808D01*
X147383101Y-143835209D01*
X147383094Y-143835211D01*
X147248387Y-143885453D01*
X147248380Y-143885457D01*
X147133286Y-143971617D01*
X147133283Y-143971620D01*
X147047123Y-144086714D01*
X147047119Y-144086721D01*
X146996877Y-144221428D01*
X146996875Y-144221435D01*
X146990474Y-144280963D01*
X135081057Y-144280963D01*
X135071133Y-144231072D01*
X135071132Y-144231068D01*
X135067281Y-144225304D01*
X135015767Y-144148207D01*
X134954423Y-144107219D01*
X134932905Y-144092841D01*
X134932901Y-144092840D01*
X134859843Y-144078308D01*
X134859840Y-144078308D01*
X133110492Y-144078308D01*
X133110489Y-144078308D01*
X133037430Y-144092840D01*
X133037426Y-144092841D01*
X132954565Y-144148207D01*
X132899199Y-144231068D01*
X132899198Y-144231072D01*
X132884666Y-144304129D01*
X129109874Y-144304129D01*
X129109874Y-143807041D01*
X129809874Y-143807041D01*
X129809874Y-143408549D01*
X129809873Y-143408545D01*
X129771446Y-143215359D01*
X129771443Y-143215347D01*
X129696066Y-143033369D01*
X129696059Y-143033356D01*
X129586625Y-142869578D01*
X129586622Y-142869574D01*
X129447340Y-142730292D01*
X129447336Y-142730289D01*
X129283558Y-142620855D01*
X129283545Y-142620848D01*
X129101565Y-142545470D01*
X129101557Y-142545468D01*
X129059874Y-142537176D01*
X129059874Y-143340052D01*
X129049934Y-143322836D01*
X128994079Y-143266981D01*
X128925670Y-143227485D01*
X128849370Y-143207041D01*
X128770378Y-143207041D01*
X128694078Y-143227485D01*
X128625669Y-143266981D01*
X128569814Y-143322836D01*
X128559874Y-143340052D01*
X128559874Y-142537177D01*
X128559873Y-142537176D01*
X128518190Y-142545468D01*
X128518182Y-142545470D01*
X128336202Y-142620848D01*
X128336189Y-142620855D01*
X128172411Y-142730289D01*
X128172407Y-142730292D01*
X128033125Y-142869574D01*
X128033122Y-142869578D01*
X127923688Y-143033356D01*
X127923681Y-143033369D01*
X127848304Y-143215347D01*
X127848301Y-143215359D01*
X127809874Y-143408545D01*
X127809874Y-143807041D01*
X128509874Y-143807041D01*
X128509874Y-144307041D01*
X127976276Y-144307041D01*
X127909237Y-144287356D01*
X127868889Y-144245041D01*
X127868227Y-144243894D01*
X127843589Y-144201220D01*
X127735695Y-144093326D01*
X127735693Y-144093325D01*
X127735691Y-144093323D01*
X127603555Y-144017034D01*
X127603556Y-144017034D01*
X127591469Y-144013795D01*
X127456167Y-143977541D01*
X127303581Y-143977541D01*
X127168278Y-144013795D01*
X127156192Y-144017034D01*
X127024056Y-144093323D01*
X127024050Y-144093328D01*
X126916161Y-144201217D01*
X126916156Y-144201223D01*
X126839867Y-144333359D01*
X126837078Y-144343768D01*
X126835488Y-144346375D01*
X126835416Y-144349426D01*
X126817427Y-144376004D01*
X126800711Y-144403427D01*
X126797964Y-144404761D01*
X126796254Y-144407288D01*
X126766749Y-144419922D01*
X126737863Y-144433954D01*
X126734831Y-144433591D01*
X126732026Y-144434793D01*
X126700368Y-144429469D01*
X126668488Y-144425657D01*
X126666134Y-144423713D01*
X126663123Y-144423207D01*
X126639358Y-144401603D01*
X126614611Y-144381169D01*
X126613000Y-144377643D01*
X126611423Y-144376209D01*
X126597531Y-144343768D01*
X126584531Y-144295254D01*
X126581730Y-144281895D01*
X126579682Y-144268475D01*
X126572587Y-144248910D01*
X126569386Y-144238734D01*
X126562859Y-144214372D01*
X126560806Y-144210817D01*
X126551625Y-144191093D01*
X126407800Y-143794421D01*
X126400374Y-143752154D01*
X126400374Y-142906884D01*
X126420059Y-142839845D01*
X126436693Y-142819203D01*
X129343514Y-139912382D01*
X132295044Y-136960853D01*
X132341188Y-136880929D01*
X132346793Y-136860010D01*
X132365074Y-136791785D01*
X132365074Y-134179885D01*
X132384759Y-134112846D01*
X132401393Y-134092204D01*
X132822214Y-133671383D01*
X133685744Y-132807853D01*
X133731888Y-132727929D01*
X133755774Y-132638785D01*
X133755774Y-132546497D01*
X133755774Y-129261116D01*
X133775459Y-129194077D01*
X133828263Y-129148322D01*
X133897421Y-129138378D01*
X133911855Y-129141338D01*
X133942525Y-129149557D01*
X133942527Y-129149557D01*
X134087472Y-129149557D01*
X134087475Y-129149557D01*
X134227485Y-129112041D01*
X134353015Y-129039566D01*
X134455509Y-128937072D01*
X134527984Y-128811542D01*
X134565500Y-128671532D01*
X134565500Y-128526582D01*
X134547888Y-128460855D01*
X134544807Y-128440675D01*
X134535894Y-128416094D01*
X134527984Y-128386572D01*
X134525934Y-128383021D01*
X134516751Y-128363299D01*
X134415341Y-128083607D01*
X134410996Y-128013873D01*
X134444233Y-127953662D01*
X136102763Y-126295134D01*
X136164086Y-126261649D01*
X136190444Y-126258815D01*
X139704402Y-126258815D01*
X139771441Y-126278500D01*
X139792083Y-126295134D01*
X141741293Y-128244344D01*
X141774778Y-128305667D01*
X141771543Y-128370343D01*
X141716543Y-128539616D01*
X141691850Y-128695528D01*
X141689446Y-128710704D01*
X141689446Y-128883926D01*
X141695165Y-128920032D01*
X141716353Y-129053814D01*
X141716544Y-129055016D01*
X141770073Y-129219760D01*
X141848714Y-129374103D01*
X141950532Y-129514243D01*
X142073018Y-129636729D01*
X142213158Y-129738547D01*
X142367501Y-129817188D01*
X142370654Y-129818212D01*
X142371698Y-129818926D01*
X142371994Y-129819049D01*
X142371968Y-129819110D01*
X142428329Y-129857645D01*
X142455531Y-129922003D01*
X142443620Y-129990850D01*
X142396379Y-130042328D01*
X142370658Y-130054075D01*
X142271729Y-130086219D01*
X142082385Y-130182695D01*
X142028228Y-130222042D01*
X142028228Y-130222043D01*
X142660537Y-130854352D01*
X142596953Y-130871390D01*
X142482939Y-130937216D01*
X142389847Y-131030308D01*
X142324021Y-131144322D01*
X142306983Y-131207906D01*
X141674674Y-130575597D01*
X141674673Y-130575597D01*
X141635326Y-130629754D01*
X141538850Y-130819097D01*
X141473188Y-131021184D01*
X141473188Y-131021187D01*
X141439946Y-131231068D01*
X141439946Y-131443561D01*
X141473188Y-131653442D01*
X141473188Y-131653445D01*
X141538850Y-131855532D01*
X141635321Y-132044865D01*
X141674674Y-132099031D01*
X142306983Y-131466723D01*
X142324021Y-131530308D01*
X142389847Y-131644322D01*
X142482939Y-131737414D01*
X142596953Y-131803240D01*
X142660536Y-131820277D01*
X142028228Y-132452584D01*
X142028228Y-132452585D01*
X142082395Y-132491939D01*
X142271728Y-132588410D01*
X142473816Y-132654072D01*
X142683700Y-132687315D01*
X142896192Y-132687315D01*
X143106073Y-132654072D01*
X143106076Y-132654072D01*
X143308163Y-132588410D01*
X143497500Y-132491937D01*
X143551662Y-132452585D01*
X143551663Y-132452585D01*
X142919354Y-131820277D01*
X142982939Y-131803240D01*
X143096953Y-131737414D01*
X143190045Y-131644322D01*
X143255871Y-131530308D01*
X143272908Y-131466724D01*
X143905216Y-132099032D01*
X143905216Y-132099031D01*
X143944568Y-132044869D01*
X144041041Y-131855532D01*
X144106703Y-131653445D01*
X144106703Y-131653442D01*
X144139946Y-131443561D01*
X144139946Y-131231068D01*
X144106703Y-131021187D01*
X144106703Y-131021184D01*
X144041041Y-130819097D01*
X143944570Y-130629764D01*
X143905216Y-130575597D01*
X143905215Y-130575597D01*
X143272908Y-131207905D01*
X143255871Y-131144322D01*
X143190045Y-131030308D01*
X143096953Y-130937216D01*
X142982939Y-130871390D01*
X142919355Y-130854352D01*
X143551662Y-130222043D01*
X143497496Y-130182690D01*
X143308163Y-130086219D01*
X143209233Y-130054075D01*
X143151557Y-130014638D01*
X143124359Y-129950279D01*
X143136274Y-129881433D01*
X143183518Y-129829957D01*
X143209236Y-129818212D01*
X143212391Y-129817188D01*
X143366734Y-129738547D01*
X143506874Y-129636729D01*
X143629360Y-129514243D01*
X143731178Y-129374103D01*
X143809819Y-129219760D01*
X143863348Y-129055016D01*
X143890446Y-128883926D01*
X143890446Y-128710704D01*
X143863348Y-128539614D01*
X143809819Y-128374870D01*
X143731178Y-128220527D01*
X143629360Y-128080387D01*
X143506874Y-127957901D01*
X143366734Y-127856083D01*
X143212391Y-127777442D01*
X143047647Y-127723913D01*
X143047645Y-127723912D01*
X143047644Y-127723912D01*
X142916217Y-127703096D01*
X142876557Y-127696815D01*
X142703335Y-127696815D01*
X142671138Y-127701914D01*
X142532247Y-127723912D01*
X142362974Y-127778912D01*
X142293132Y-127780907D01*
X142236975Y-127748662D01*
X142057809Y-127569496D01*
X142024324Y-127508173D01*
X142029308Y-127438481D01*
X142071180Y-127382548D01*
X142136644Y-127358131D01*
X142145490Y-127357815D01*
X143664622Y-127357815D01*
X143664623Y-127357814D01*
X143737686Y-127343281D01*
X143820547Y-127287916D01*
X143875912Y-127205055D01*
X143890446Y-127131989D01*
X143890446Y-125850858D01*
X143910131Y-125783819D01*
X143962935Y-125738064D01*
X144032093Y-125728120D01*
X144095649Y-125757145D01*
X144102127Y-125763177D01*
X147953655Y-129614705D01*
X147968358Y-129641632D01*
X147984951Y-129667451D01*
X147985842Y-129673651D01*
X147987140Y-129676028D01*
X147989974Y-129702386D01*
X147989974Y-129863241D01*
X147970289Y-129930280D01*
X147917485Y-129976035D01*
X147865974Y-129987241D01*
X147465797Y-129987241D01*
X147392738Y-130001773D01*
X147392734Y-130001774D01*
X147309873Y-130057140D01*
X147254507Y-130140001D01*
X147254506Y-130140005D01*
X147239974Y-130213062D01*
X147239974Y-131962419D01*
X147254506Y-132035476D01*
X147254507Y-132035480D01*
X147254508Y-132035481D01*
X147309873Y-132118342D01*
X147392734Y-132173707D01*
X147392738Y-132173708D01*
X147465795Y-132188240D01*
X147465798Y-132188241D01*
X147465800Y-132188241D01*
X149215150Y-132188241D01*
X149215151Y-132188240D01*
X149288214Y-132173707D01*
X149371075Y-132118342D01*
X149426440Y-132035481D01*
X149440974Y-131962415D01*
X149440974Y-130213067D01*
X149440974Y-130213064D01*
X149440973Y-130213062D01*
X149426441Y-130140005D01*
X149426440Y-130140001D01*
X149408956Y-130113834D01*
X149371075Y-130057140D01*
X149288214Y-130001775D01*
X149288213Y-130001774D01*
X149288209Y-130001773D01*
X149215151Y-129987241D01*
X149215148Y-129987241D01*
X148814974Y-129987241D01*
X148747935Y-129967556D01*
X148702180Y-129914752D01*
X148690974Y-129863241D01*
X148690974Y-129459701D01*
X148690974Y-129459699D01*
X148667088Y-129370555D01*
X148648220Y-129337875D01*
X148620947Y-129290637D01*
X148620944Y-129290634D01*
X148620943Y-129290631D01*
X148555686Y-129225374D01*
X147377516Y-128047204D01*
X146179635Y-126849322D01*
X146146150Y-126787999D01*
X146151134Y-126718307D01*
X146193006Y-126662374D01*
X146258470Y-126637957D01*
X146267316Y-126637641D01*
X147166774Y-126637641D01*
X147233813Y-126657326D01*
X147279568Y-126710130D01*
X147290774Y-126761641D01*
X147290774Y-127161819D01*
X147305306Y-127234876D01*
X147305307Y-127234880D01*
X147315133Y-127249586D01*
X147360673Y-127317742D01*
X147442181Y-127372203D01*
X147443534Y-127373107D01*
X147443538Y-127373108D01*
X147516595Y-127387640D01*
X147516598Y-127387641D01*
X147516600Y-127387641D01*
X149265950Y-127387641D01*
X149265951Y-127387640D01*
X149339014Y-127373107D01*
X149421875Y-127317742D01*
X149477240Y-127234881D01*
X149491774Y-127161815D01*
X149491774Y-125412467D01*
X149491774Y-125412464D01*
X149491773Y-125412462D01*
X149477241Y-125339405D01*
X149477240Y-125339401D01*
X149462939Y-125317998D01*
X149421875Y-125256540D01*
X149339014Y-125201175D01*
X149339013Y-125201174D01*
X149339009Y-125201173D01*
X149265951Y-125186641D01*
X149265948Y-125186641D01*
X147516600Y-125186641D01*
X147516597Y-125186641D01*
X147443538Y-125201173D01*
X147443534Y-125201174D01*
X147360673Y-125256540D01*
X147305307Y-125339401D01*
X147305306Y-125339405D01*
X147290774Y-125412462D01*
X147290774Y-125812641D01*
X147271089Y-125879680D01*
X147218285Y-125925435D01*
X147166774Y-125936641D01*
X145885416Y-125936641D01*
X145818377Y-125916956D01*
X145797735Y-125900322D01*
X143690019Y-123792606D01*
X143690014Y-123792602D01*
X143610092Y-123746460D01*
X143610094Y-123746460D01*
X143603974Y-123744821D01*
X143562461Y-123733698D01*
X143520950Y-123722575D01*
X143520949Y-123722575D01*
X139746639Y-123722575D01*
X139679600Y-123702890D01*
X139633845Y-123650086D01*
X139623901Y-123580928D01*
X139652926Y-123517372D01*
X139658958Y-123510894D01*
X142197492Y-120972360D01*
X142258815Y-120938875D01*
X142285173Y-120936041D01*
X143677950Y-120936041D01*
X143677951Y-120936040D01*
X143751014Y-120921507D01*
X143833875Y-120866142D01*
X143889240Y-120783281D01*
X143903774Y-120710215D01*
X143903774Y-118960867D01*
X143903774Y-118960864D01*
X143903773Y-118960862D01*
X143889241Y-118887805D01*
X143889240Y-118887801D01*
X143833875Y-118804940D01*
X143751014Y-118749575D01*
X143751013Y-118749574D01*
X143751009Y-118749573D01*
X143677951Y-118735041D01*
X143677948Y-118735041D01*
X141928600Y-118735041D01*
X141928597Y-118735041D01*
X141855538Y-118749573D01*
X141855534Y-118749574D01*
X141772673Y-118804940D01*
X141717307Y-118887801D01*
X141717306Y-118887805D01*
X141702774Y-118960862D01*
X141702774Y-120353642D01*
X141683089Y-120420681D01*
X141666455Y-120441323D01*
X139126397Y-122981381D01*
X139065074Y-123014866D01*
X139038716Y-123017700D01*
X133633578Y-123017700D01*
X133538077Y-123043289D01*
X133538074Y-123043290D01*
X133452454Y-123092722D01*
X133452449Y-123092726D01*
X132563173Y-123982002D01*
X132501850Y-124015487D01*
X132432158Y-124010503D01*
X132387812Y-123982003D01*
X132193335Y-123787526D01*
X132193334Y-123787525D01*
X132122207Y-123746460D01*
X132107712Y-123738091D01*
X132107711Y-123738090D01*
X132107710Y-123738090D01*
X132059958Y-123725295D01*
X132059956Y-123725294D01*
X132059954Y-123725293D01*
X132012208Y-123712500D01*
X132012207Y-123712500D01*
X131493612Y-123712500D01*
X131394740Y-123712500D01*
X131346988Y-123725295D01*
X131346987Y-123725294D01*
X131299239Y-123738089D01*
X131299238Y-123738089D01*
X131213611Y-123787527D01*
X130484127Y-124517011D01*
X130434689Y-124602638D01*
X130434689Y-124602639D01*
X130429664Y-124621393D01*
X130421048Y-124653551D01*
X130409475Y-124696743D01*
X130409100Y-124698141D01*
X130409100Y-124698142D01*
X130409100Y-126234301D01*
X130389415Y-126301340D01*
X130372781Y-126321982D01*
X130015711Y-126679052D01*
X129954388Y-126712537D01*
X129928030Y-126715371D01*
X126961574Y-126715371D01*
X126894535Y-126695686D01*
X126848780Y-126642882D01*
X126837574Y-126591371D01*
X126837574Y-125466708D01*
X126837574Y-125466706D01*
X126811984Y-125371203D01*
X126762549Y-125285579D01*
X126692636Y-125215666D01*
X126480192Y-125003222D01*
X126475855Y-124995279D01*
X126468608Y-124989855D01*
X126459370Y-124965090D01*
X126446707Y-124941899D01*
X126447352Y-124932872D01*
X126444189Y-124924391D01*
X126449805Y-124898567D01*
X126451691Y-124872207D01*
X126457508Y-124863154D01*
X126459039Y-124856118D01*
X126480184Y-124827870D01*
X126480189Y-124827863D01*
X126481637Y-124826415D01*
X126492149Y-124815903D01*
X126492149Y-124815902D01*
X127787837Y-123520212D01*
X127818317Y-123497877D01*
X128268047Y-123264082D01*
X128280046Y-123257429D01*
X128281117Y-123256797D01*
X128292503Y-123249668D01*
X128292504Y-123249666D01*
X128297911Y-123245377D01*
X128298252Y-123245807D01*
X128315558Y-123232571D01*
X128333089Y-123222450D01*
X128435583Y-123119956D01*
X128508058Y-122994426D01*
X128545574Y-122854416D01*
X128545574Y-122709466D01*
X128508058Y-122569456D01*
X128435585Y-122443930D01*
X128435585Y-122443929D01*
X128435580Y-122443923D01*
X128333091Y-122341434D01*
X128333085Y-122341429D01*
X128207562Y-122268958D01*
X128207563Y-122268958D01*
X128196080Y-122265881D01*
X128067549Y-122231441D01*
X127922599Y-122231441D01*
X127794067Y-122265881D01*
X127782585Y-122268958D01*
X127657062Y-122341429D01*
X127657060Y-122341431D01*
X127554564Y-122443926D01*
X127554561Y-122443930D01*
X127534685Y-122478354D01*
X127534594Y-122478514D01*
X127529216Y-122487830D01*
X127514396Y-122505836D01*
X127420218Y-122681415D01*
X127419589Y-122682532D01*
X127395444Y-122706032D01*
X127371807Y-122730026D01*
X127370426Y-122730383D01*
X127369520Y-122731266D01*
X127357921Y-122733625D01*
X127311569Y-122745641D01*
X120339220Y-122745641D01*
X120316291Y-122751785D01*
X120316290Y-122751784D01*
X120243725Y-122771229D01*
X120243718Y-122771232D01*
X120158095Y-122820667D01*
X119610582Y-123368181D01*
X119549259Y-123401666D01*
X119522901Y-123404500D01*
X113515201Y-123404500D01*
X113448162Y-123384815D01*
X113402407Y-123332011D01*
X113392463Y-123262853D01*
X113421488Y-123199297D01*
X113427520Y-123192819D01*
X113438491Y-123181848D01*
X113474983Y-123145356D01*
X113547458Y-123019826D01*
X113584974Y-122879816D01*
X113584974Y-122734866D01*
X113573415Y-122691731D01*
X113569937Y-122673218D01*
X113568421Y-122659437D01*
X113568420Y-122659434D01*
X113568420Y-122659432D01*
X113415734Y-122176111D01*
X113409974Y-122138758D01*
X113409974Y-120882325D01*
X127211500Y-120882325D01*
X127211500Y-121027275D01*
X127249016Y-121167285D01*
X127249017Y-121167288D01*
X127321488Y-121292811D01*
X127321490Y-121292813D01*
X127321491Y-121292815D01*
X127423985Y-121395309D01*
X127423986Y-121395310D01*
X127423988Y-121395311D01*
X127549511Y-121467782D01*
X127549512Y-121467782D01*
X127549515Y-121467784D01*
X127689525Y-121505300D01*
X127689528Y-121505300D01*
X127834472Y-121505300D01*
X127834475Y-121505300D01*
X127974485Y-121467784D01*
X128100015Y-121395309D01*
X128202509Y-121292815D01*
X128236538Y-121233873D01*
X128248622Y-121217437D01*
X128259696Y-121193762D01*
X128274984Y-121167285D01*
X128276043Y-121163329D01*
X128283499Y-121142878D01*
X128462291Y-120760689D01*
X128486922Y-120725558D01*
X128990121Y-120222360D01*
X129051444Y-120188875D01*
X129077802Y-120186041D01*
X134060374Y-120186041D01*
X134127413Y-120205726D01*
X134173168Y-120258530D01*
X134184374Y-120310041D01*
X134184374Y-120710219D01*
X134198906Y-120783276D01*
X134198907Y-120783280D01*
X134198908Y-120783281D01*
X134254273Y-120866142D01*
X134337134Y-120921507D01*
X134337138Y-120921508D01*
X134410195Y-120936040D01*
X134410198Y-120936041D01*
X134410200Y-120936041D01*
X136159550Y-120936041D01*
X136159551Y-120936040D01*
X136232614Y-120921507D01*
X136315475Y-120866142D01*
X136370840Y-120783281D01*
X136385374Y-120710215D01*
X136385374Y-118960867D01*
X136385374Y-118960864D01*
X136385373Y-118960862D01*
X136370841Y-118887805D01*
X136370840Y-118887801D01*
X136315475Y-118804940D01*
X136232614Y-118749575D01*
X136232613Y-118749574D01*
X136232609Y-118749573D01*
X136159551Y-118735041D01*
X136159548Y-118735041D01*
X134410200Y-118735041D01*
X134410197Y-118735041D01*
X134337138Y-118749573D01*
X134337134Y-118749574D01*
X134254273Y-118804940D01*
X134198907Y-118887801D01*
X134198906Y-118887805D01*
X134184374Y-118960862D01*
X134184374Y-119361041D01*
X134164689Y-119428080D01*
X134111885Y-119473835D01*
X134060374Y-119485041D01*
X128835115Y-119485041D01*
X128747060Y-119508634D01*
X128747061Y-119508635D01*
X128745972Y-119508926D01*
X128745971Y-119508927D01*
X128666050Y-119555069D01*
X128666044Y-119555074D01*
X127991248Y-120229868D01*
X127956110Y-120254504D01*
X127573909Y-120433301D01*
X127573909Y-120433302D01*
X127564017Y-120437929D01*
X127549515Y-120441816D01*
X127523055Y-120457091D01*
X127518215Y-120459356D01*
X127518212Y-120459356D01*
X127499373Y-120468171D01*
X127482304Y-120476951D01*
X127480816Y-120477788D01*
X127464881Y-120487540D01*
X127459197Y-120492003D01*
X127458705Y-120491376D01*
X127443379Y-120503093D01*
X127423986Y-120514289D01*
X127321490Y-120616786D01*
X127321488Y-120616788D01*
X127249017Y-120742311D01*
X127249016Y-120742315D01*
X127211500Y-120882325D01*
X113409974Y-120882325D01*
X113409974Y-120014705D01*
X113405785Y-119999073D01*
X113405784Y-119999071D01*
X113384384Y-119919205D01*
X113384383Y-119919201D01*
X113375359Y-119903572D01*
X113334949Y-119833579D01*
X113265036Y-119763666D01*
X111613752Y-118112382D01*
X111591412Y-118081897D01*
X111486174Y-117879462D01*
X111357615Y-117632166D01*
X111350962Y-117620168D01*
X111350330Y-117619097D01*
X111343201Y-117607711D01*
X111343200Y-117607709D01*
X111338910Y-117602303D01*
X111339338Y-117601962D01*
X111326101Y-117584652D01*
X111315983Y-117567126D01*
X111213489Y-117464632D01*
X111213486Y-117464630D01*
X111213485Y-117464629D01*
X111174823Y-117442307D01*
X111159267Y-117431672D01*
X111148449Y-117423000D01*
X110698716Y-117189201D01*
X110668231Y-117166861D01*
X108848995Y-115347625D01*
X108848994Y-115347624D01*
X108763370Y-115298189D01*
X108715618Y-115285394D01*
X108715616Y-115285393D01*
X108715614Y-115285392D01*
X108667868Y-115272599D01*
X108667867Y-115272599D01*
X105817901Y-115272599D01*
X105750862Y-115252914D01*
X105705107Y-115200110D01*
X105693901Y-115148599D01*
X105693901Y-114773422D01*
X105693900Y-114773420D01*
X105679368Y-114700363D01*
X105679367Y-114700359D01*
X105624002Y-114617498D01*
X105541141Y-114562133D01*
X105541140Y-114562132D01*
X105541136Y-114562131D01*
X105468078Y-114547599D01*
X105468075Y-114547599D01*
X103718727Y-114547599D01*
X103718724Y-114547599D01*
X103645665Y-114562131D01*
X103645661Y-114562132D01*
X103562800Y-114617498D01*
X103507434Y-114700359D01*
X103507433Y-114700363D01*
X103492901Y-114773420D01*
X103492901Y-116522777D01*
X103507433Y-116595834D01*
X103507434Y-116595838D01*
X103507435Y-116595839D01*
X103562800Y-116678700D01*
X103645661Y-116734065D01*
X103645665Y-116734066D01*
X103718722Y-116748598D01*
X103718725Y-116748599D01*
X103718727Y-116748599D01*
X105468077Y-116748599D01*
X105468078Y-116748598D01*
X105541141Y-116734065D01*
X105624002Y-116678700D01*
X105679367Y-116595839D01*
X105693901Y-116522773D01*
X105693901Y-116147599D01*
X105713586Y-116080560D01*
X105766390Y-116034805D01*
X105817901Y-116023599D01*
X108411533Y-116023599D01*
X108478572Y-116043284D01*
X108499214Y-116059918D01*
X110137193Y-117697897D01*
X110159533Y-117728382D01*
X110393333Y-118178118D01*
X110400026Y-118190184D01*
X110400640Y-118191225D01*
X110404163Y-118196849D01*
X110407746Y-118202570D01*
X110407749Y-118202573D01*
X110412042Y-118207983D01*
X110411612Y-118208323D01*
X110424845Y-118225628D01*
X110434965Y-118243156D01*
X110537459Y-118345650D01*
X110537460Y-118345651D01*
X110537462Y-118345652D01*
X110576119Y-118367970D01*
X110591679Y-118378608D01*
X110602499Y-118387282D01*
X111052230Y-118621079D01*
X111082715Y-118643419D01*
X112622655Y-120183359D01*
X112656140Y-120244682D01*
X112658974Y-120271040D01*
X112658974Y-122138757D01*
X112653214Y-122176110D01*
X112500523Y-122659445D01*
X112496741Y-122672640D01*
X112496425Y-122673864D01*
X112493416Y-122686958D01*
X112492627Y-122693825D01*
X112492080Y-122693762D01*
X112489203Y-122715349D01*
X112483974Y-122734864D01*
X112483974Y-122734866D01*
X112483974Y-122879816D01*
X112521490Y-123019826D01*
X112521491Y-123019829D01*
X112593962Y-123145352D01*
X112593967Y-123145358D01*
X112641428Y-123192819D01*
X112674913Y-123254142D01*
X112669929Y-123323834D01*
X112628057Y-123379767D01*
X112562593Y-123404184D01*
X112553747Y-123404500D01*
X107571353Y-123404500D01*
X107504314Y-123384815D01*
X107483672Y-123368181D01*
X107208217Y-123092726D01*
X106901218Y-122785726D01*
X106901217Y-122785725D01*
X106815595Y-122736291D01*
X106815594Y-122736290D01*
X106728174Y-122712866D01*
X106728174Y-122712865D01*
X106728171Y-122712865D01*
X106720092Y-122710700D01*
X106720091Y-122710700D01*
X106720090Y-122710700D01*
X101154610Y-122710700D01*
X101087571Y-122691015D01*
X101066929Y-122674381D01*
X99787854Y-121395306D01*
X98458863Y-120066316D01*
X98425379Y-120004994D01*
X98430363Y-119935302D01*
X98472235Y-119879369D01*
X98537699Y-119854952D01*
X98546545Y-119854636D01*
X98590322Y-119854636D01*
X98590323Y-119854635D01*
X98663386Y-119840102D01*
X98746247Y-119784737D01*
X98801612Y-119701876D01*
X98816146Y-119628810D01*
X98816146Y-117879462D01*
X98816146Y-117879459D01*
X98816145Y-117879457D01*
X98801613Y-117806400D01*
X98801612Y-117806396D01*
X98746247Y-117723535D01*
X98663386Y-117668170D01*
X98663385Y-117668169D01*
X98663381Y-117668168D01*
X98590323Y-117653636D01*
X98590320Y-117653636D01*
X96840972Y-117653636D01*
X96840969Y-117653636D01*
X96767910Y-117668168D01*
X96767906Y-117668169D01*
X96685045Y-117723535D01*
X96629679Y-117806396D01*
X96629678Y-117806400D01*
X96615146Y-117879457D01*
X94152983Y-117879457D01*
X94152983Y-111593550D01*
X107296349Y-111593550D01*
X107296349Y-111766772D01*
X107323447Y-111937862D01*
X107376976Y-112102606D01*
X107455617Y-112256949D01*
X107557435Y-112397089D01*
X107679921Y-112519575D01*
X107820061Y-112621393D01*
X107974404Y-112700034D01*
X108139148Y-112753563D01*
X108310238Y-112780661D01*
X108310239Y-112780661D01*
X108483459Y-112780661D01*
X108483460Y-112780661D01*
X108654550Y-112753563D01*
X108819294Y-112700034D01*
X108973637Y-112621393D01*
X109113777Y-112519575D01*
X109236263Y-112397089D01*
X109338081Y-112256949D01*
X109416722Y-112102606D01*
X109470251Y-111937862D01*
X109497349Y-111766772D01*
X109497349Y-111593550D01*
X109470251Y-111422460D01*
X109416722Y-111257716D01*
X109338081Y-111103373D01*
X109236263Y-110963233D01*
X109113777Y-110840747D01*
X109065240Y-110805483D01*
X109836349Y-110805483D01*
X109836349Y-112554839D01*
X109850881Y-112627896D01*
X109850882Y-112627900D01*
X109850883Y-112627901D01*
X109906248Y-112710762D01*
X109989109Y-112766127D01*
X109989113Y-112766128D01*
X110062170Y-112780660D01*
X110062173Y-112780661D01*
X110062175Y-112780661D01*
X111811525Y-112780661D01*
X111811526Y-112780660D01*
X111884589Y-112766127D01*
X111967450Y-112710762D01*
X112022815Y-112627901D01*
X112037349Y-112554835D01*
X112037349Y-110805487D01*
X112037349Y-110805483D01*
X112022816Y-110732425D01*
X112022815Y-110732421D01*
X112006966Y-110708701D01*
X111967450Y-110649560D01*
X111895875Y-110601736D01*
X111884588Y-110594194D01*
X111884584Y-110594193D01*
X111811526Y-110579661D01*
X111811523Y-110579661D01*
X110062175Y-110579661D01*
X110062172Y-110579661D01*
X109989113Y-110594193D01*
X109989109Y-110594194D01*
X109906248Y-110649560D01*
X109850882Y-110732421D01*
X109850881Y-110732425D01*
X109836349Y-110805483D01*
X109065240Y-110805483D01*
X108973637Y-110738929D01*
X108819294Y-110660288D01*
X108654550Y-110606759D01*
X108654548Y-110606758D01*
X108654547Y-110606758D01*
X108490872Y-110580835D01*
X108483460Y-110579661D01*
X108310238Y-110579661D01*
X108302826Y-110580835D01*
X108139151Y-110606758D01*
X107974401Y-110660289D01*
X107820060Y-110738929D01*
X107767365Y-110777215D01*
X107679921Y-110840747D01*
X107679919Y-110840749D01*
X107679918Y-110840749D01*
X107557437Y-110963230D01*
X107557437Y-110963231D01*
X107557435Y-110963233D01*
X107549715Y-110973859D01*
X107455617Y-111103372D01*
X107376977Y-111257713D01*
X107323446Y-111422463D01*
X107313751Y-111483676D01*
X107296349Y-111593550D01*
X94152983Y-111593550D01*
X94152983Y-105930837D01*
X101563900Y-105930837D01*
X101563900Y-106159162D01*
X101599615Y-106384660D01*
X101670170Y-106601803D01*
X101773821Y-106805228D01*
X101908021Y-106989937D01*
X102069463Y-107151379D01*
X102254172Y-107285579D01*
X102322155Y-107320218D01*
X102457596Y-107389229D01*
X102457598Y-107389229D01*
X102457601Y-107389231D01*
X102573992Y-107427049D01*
X102674739Y-107459784D01*
X102900238Y-107495500D01*
X102900243Y-107495500D01*
X103128562Y-107495500D01*
X103354060Y-107459784D01*
X103571199Y-107389231D01*
X103774628Y-107285579D01*
X103959337Y-107151379D01*
X104120779Y-106989937D01*
X104254979Y-106805228D01*
X104358631Y-106601799D01*
X104429184Y-106384660D01*
X104464900Y-106159162D01*
X104464900Y-105930837D01*
X115033900Y-105930837D01*
X115033900Y-106159162D01*
X115069615Y-106384660D01*
X115140170Y-106601803D01*
X115243821Y-106805228D01*
X115378021Y-106989937D01*
X115539463Y-107151379D01*
X115724172Y-107285579D01*
X115792155Y-107320218D01*
X115927596Y-107389229D01*
X115927598Y-107389229D01*
X115927601Y-107389231D01*
X116043992Y-107427049D01*
X116144739Y-107459784D01*
X116370238Y-107495500D01*
X116370243Y-107495500D01*
X116598562Y-107495500D01*
X116824060Y-107459784D01*
X117041199Y-107389231D01*
X117244628Y-107285579D01*
X117429337Y-107151379D01*
X117590779Y-106989937D01*
X117724979Y-106805228D01*
X117828631Y-106601799D01*
X117899184Y-106384660D01*
X117934900Y-106159162D01*
X117934900Y-105930837D01*
X117899184Y-105705339D01*
X117828629Y-105488196D01*
X117724978Y-105284771D01*
X117590779Y-105100063D01*
X117429337Y-104938621D01*
X117244628Y-104804421D01*
X117041203Y-104700770D01*
X116824060Y-104630215D01*
X116598562Y-104594500D01*
X116598557Y-104594500D01*
X116370243Y-104594500D01*
X116370238Y-104594500D01*
X116144739Y-104630215D01*
X115927596Y-104700770D01*
X115724171Y-104804421D01*
X115539461Y-104938622D01*
X115378022Y-105100061D01*
X115243821Y-105284771D01*
X115140170Y-105488196D01*
X115069615Y-105705339D01*
X115033900Y-105930837D01*
X104464900Y-105930837D01*
X104429184Y-105705339D01*
X104358629Y-105488196D01*
X104254978Y-105284771D01*
X104120779Y-105100063D01*
X103959337Y-104938621D01*
X103774628Y-104804421D01*
X103571203Y-104700770D01*
X103354060Y-104630215D01*
X103128562Y-104594500D01*
X103128557Y-104594500D01*
X102900243Y-104594500D01*
X102900238Y-104594500D01*
X102674739Y-104630215D01*
X102457596Y-104700770D01*
X102254171Y-104804421D01*
X102069461Y-104938622D01*
X101908022Y-105100061D01*
X101773821Y-105284771D01*
X101670170Y-105488196D01*
X101599615Y-105705339D01*
X101563900Y-105930837D01*
X94152983Y-105930837D01*
X94152983Y-102530837D01*
X101563900Y-102530837D01*
X101563900Y-102759162D01*
X101599615Y-102984660D01*
X101670170Y-103201803D01*
X101773821Y-103405228D01*
X101908021Y-103589937D01*
X102069463Y-103751379D01*
X102254172Y-103885579D01*
X102350284Y-103934550D01*
X102457596Y-103989229D01*
X102457598Y-103989229D01*
X102457601Y-103989231D01*
X102573992Y-104027049D01*
X102674739Y-104059784D01*
X102900238Y-104095500D01*
X102900243Y-104095500D01*
X103128562Y-104095500D01*
X103354060Y-104059784D01*
X103571199Y-103989231D01*
X103774628Y-103885579D01*
X103959337Y-103751379D01*
X104120779Y-103589937D01*
X104254979Y-103405228D01*
X104358631Y-103201799D01*
X104429184Y-102984660D01*
X104464900Y-102759162D01*
X104464900Y-102530837D01*
X115033900Y-102530837D01*
X115033900Y-102759162D01*
X115069615Y-102984660D01*
X115140170Y-103201803D01*
X115243821Y-103405228D01*
X115378021Y-103589937D01*
X115539463Y-103751379D01*
X115724172Y-103885579D01*
X115820284Y-103934550D01*
X115927596Y-103989229D01*
X115927598Y-103989229D01*
X115927601Y-103989231D01*
X116043992Y-104027049D01*
X116144739Y-104059784D01*
X116370238Y-104095500D01*
X116370243Y-104095500D01*
X116598562Y-104095500D01*
X116824060Y-104059784D01*
X117041199Y-103989231D01*
X117244628Y-103885579D01*
X117429337Y-103751379D01*
X117590779Y-103589937D01*
X117724979Y-103405228D01*
X117828631Y-103201799D01*
X117899184Y-102984660D01*
X117934900Y-102759162D01*
X117934900Y-102530837D01*
X117899184Y-102305339D01*
X117828629Y-102088196D01*
X117724978Y-101884771D01*
X117590779Y-101700063D01*
X117429337Y-101538621D01*
X117244628Y-101404421D01*
X117041203Y-101300770D01*
X116824060Y-101230215D01*
X116598562Y-101194500D01*
X116598557Y-101194500D01*
X116370243Y-101194500D01*
X116370238Y-101194500D01*
X116144739Y-101230215D01*
X115927596Y-101300770D01*
X115724171Y-101404421D01*
X115539461Y-101538622D01*
X115378022Y-101700061D01*
X115243821Y-101884771D01*
X115140170Y-102088196D01*
X115069615Y-102305339D01*
X115033900Y-102530837D01*
X104464900Y-102530837D01*
X104429184Y-102305339D01*
X104358629Y-102088196D01*
X104254978Y-101884771D01*
X104120779Y-101700063D01*
X103959337Y-101538621D01*
X103774628Y-101404421D01*
X103571203Y-101300770D01*
X103354060Y-101230215D01*
X103128562Y-101194500D01*
X103128557Y-101194500D01*
X102900243Y-101194500D01*
X102900238Y-101194500D01*
X102674739Y-101230215D01*
X102457596Y-101300770D01*
X102254171Y-101404421D01*
X102069461Y-101538622D01*
X101908022Y-101700061D01*
X101773821Y-101884771D01*
X101670170Y-102088196D01*
X101599615Y-102305339D01*
X101563900Y-102530837D01*
X94152983Y-102530837D01*
X94152983Y-98888767D01*
X108559600Y-98888767D01*
X119038551Y-98888767D01*
X119038551Y-88493600D01*
X108559600Y-88493600D01*
X108559600Y-98888767D01*
X94152983Y-98888767D01*
X94152983Y-93495237D01*
X97921449Y-93495237D01*
X97921449Y-93871422D01*
X97954236Y-94246177D01*
X97954236Y-94246179D01*
X98019557Y-94616630D01*
X98019561Y-94616647D01*
X98116918Y-94979994D01*
X98116921Y-94980004D01*
X98116922Y-94980005D01*
X98245584Y-95333501D01*
X98245587Y-95333508D01*
X98245588Y-95333510D01*
X98245591Y-95333518D01*
X98404561Y-95674428D01*
X98404569Y-95674444D01*
X98592652Y-96000213D01*
X98592661Y-96000228D01*
X98808431Y-96308379D01*
X98935994Y-96460402D01*
X99050232Y-96596545D01*
X99316234Y-96862547D01*
X99403176Y-96935500D01*
X99604399Y-97104347D01*
X99604405Y-97104351D01*
X99604406Y-97104352D01*
X99912557Y-97320122D01*
X100238341Y-97508213D01*
X100238350Y-97508217D01*
X100579260Y-97667187D01*
X100579264Y-97667188D01*
X100579278Y-97667195D01*
X100932774Y-97795857D01*
X100932780Y-97795858D01*
X100932784Y-97795860D01*
X101031735Y-97822373D01*
X101296139Y-97893220D01*
X101666606Y-97958543D01*
X102041356Y-97991329D01*
X102041357Y-97991330D01*
X102041358Y-97991330D01*
X102417541Y-97991330D01*
X102417541Y-97991329D01*
X102792292Y-97958543D01*
X103162759Y-97893220D01*
X103526124Y-97795857D01*
X103879620Y-97667195D01*
X104220557Y-97508213D01*
X104546341Y-97320122D01*
X104854492Y-97104352D01*
X105142664Y-96862547D01*
X105408666Y-96596545D01*
X105650471Y-96308373D01*
X105866241Y-96000222D01*
X106054332Y-95674438D01*
X106213314Y-95333501D01*
X106341976Y-94980005D01*
X106439339Y-94616640D01*
X106504662Y-94246173D01*
X106537449Y-93871421D01*
X106537449Y-93495239D01*
X106537448Y-93495227D01*
X106537205Y-93492443D01*
X106520120Y-93297181D01*
X106504662Y-93120487D01*
X106439339Y-92750020D01*
X106341976Y-92386655D01*
X106213314Y-92033159D01*
X106172726Y-91946119D01*
X106054336Y-91692231D01*
X106054328Y-91692215D01*
X105928204Y-91473762D01*
X105866241Y-91366438D01*
X105650471Y-91058287D01*
X105650470Y-91058286D01*
X105650466Y-91058280D01*
X105408663Y-90770112D01*
X105142672Y-90504121D01*
X105142664Y-90504113D01*
X105024507Y-90404968D01*
X104854498Y-90262312D01*
X104546347Y-90046542D01*
X104546344Y-90046540D01*
X104546341Y-90046538D01*
X104449553Y-89990658D01*
X104220563Y-89858450D01*
X104220547Y-89858442D01*
X103879637Y-89699472D01*
X103879629Y-89699469D01*
X103879627Y-89699468D01*
X103879620Y-89699465D01*
X103526124Y-89570803D01*
X103526123Y-89570802D01*
X103526113Y-89570799D01*
X103162766Y-89473442D01*
X103162769Y-89473442D01*
X103162759Y-89473440D01*
X103162753Y-89473438D01*
X103162749Y-89473438D01*
X102792297Y-89408117D01*
X102417541Y-89375330D01*
X102417540Y-89375330D01*
X102041358Y-89375330D01*
X102041357Y-89375330D01*
X101666601Y-89408117D01*
X101666599Y-89408117D01*
X101296148Y-89473438D01*
X101296131Y-89473442D01*
X100932784Y-89570799D01*
X100841615Y-89603982D01*
X100579278Y-89699465D01*
X100579274Y-89699466D01*
X100579268Y-89699469D01*
X100579260Y-89699472D01*
X100238350Y-89858442D01*
X100238334Y-89858450D01*
X99912565Y-90046533D01*
X99912550Y-90046542D01*
X99604399Y-90262312D01*
X99316231Y-90504115D01*
X99050234Y-90770112D01*
X98808431Y-91058280D01*
X98592661Y-91366431D01*
X98592652Y-91366446D01*
X98404569Y-91692215D01*
X98404561Y-91692231D01*
X98245591Y-92033141D01*
X98245588Y-92033149D01*
X98116918Y-92386665D01*
X98019561Y-92750012D01*
X98019557Y-92750029D01*
X97954236Y-93120480D01*
X97954236Y-93120482D01*
X97921449Y-93495237D01*
X94152983Y-93495237D01*
X94152983Y-80601265D01*
X94153178Y-80594312D01*
X94155205Y-80558223D01*
X94169568Y-80302481D01*
X94171122Y-80288683D01*
X94219500Y-80003960D01*
X94222594Y-79990404D01*
X94302551Y-79712868D01*
X94307130Y-79699783D01*
X94417661Y-79432939D01*
X94423684Y-79420432D01*
X94563387Y-79167662D01*
X94570784Y-79155889D01*
X94598511Y-79116812D01*
X94737909Y-78920348D01*
X94746564Y-78909494D01*
X94939021Y-78694135D01*
X94948833Y-78684323D01*
X95164194Y-78491865D01*
X95175046Y-78483211D01*
X95410591Y-78316082D01*
X95422358Y-78308689D01*
X95454557Y-78290893D01*
X95675130Y-78168985D01*
X95687644Y-78162959D01*
X95749901Y-78137172D01*
X95819370Y-78129703D01*
X95881849Y-78160979D01*
X95917501Y-78221068D01*
X95915007Y-78290893D01*
X95875159Y-78348285D01*
X95863325Y-78356726D01*
X95805543Y-78393032D01*
X95805538Y-78393036D01*
X95537659Y-78606662D01*
X95295385Y-78848936D01*
X95081762Y-79116812D01*
X94899474Y-79406921D01*
X94750816Y-79715612D01*
X94637655Y-80039010D01*
X94637654Y-80039012D01*
X94561413Y-80373046D01*
X94561410Y-80373060D01*
X94523052Y-80713510D01*
X94523052Y-81056147D01*
X94561410Y-81396597D01*
X94561413Y-81396611D01*
X94637654Y-81730645D01*
X94637655Y-81730647D01*
X94750816Y-82054045D01*
X94899474Y-82362736D01*
X94907102Y-82374876D01*
X95081763Y-82652847D01*
X95241133Y-82852690D01*
X95269450Y-82888200D01*
X95295386Y-82920722D01*
X95537659Y-83162995D01*
X95805534Y-83376618D01*
X96095642Y-83558905D01*
X96404337Y-83707565D01*
X96727735Y-83820726D01*
X97061769Y-83896968D01*
X97061778Y-83896969D01*
X97061783Y-83896970D01*
X97288749Y-83922542D01*
X97402234Y-83935328D01*
X97402237Y-83935329D01*
X97402240Y-83935329D01*
X97744867Y-83935329D01*
X97744868Y-83935328D01*
X97918863Y-83915724D01*
X98085320Y-83896970D01*
X98085323Y-83896969D01*
X98085335Y-83896968D01*
X98419369Y-83820726D01*
X98742767Y-83707565D01*
X99051462Y-83558905D01*
X99341570Y-83376618D01*
X99609445Y-83162995D01*
X99851718Y-82920722D01*
X100065341Y-82652847D01*
X100167442Y-82490355D01*
X103759566Y-82490355D01*
X103759566Y-83138200D01*
X104676554Y-83138200D01*
X104643641Y-83195207D01*
X104609566Y-83322374D01*
X104609566Y-83454026D01*
X104643641Y-83581193D01*
X104676554Y-83638200D01*
X103759566Y-83638200D01*
X103759566Y-84286044D01*
X103765967Y-84345572D01*
X103765969Y-84345579D01*
X103816211Y-84480286D01*
X103816215Y-84480293D01*
X103902375Y-84595387D01*
X103902378Y-84595390D01*
X104017472Y-84681550D01*
X104017479Y-84681554D01*
X104152186Y-84731796D01*
X104152193Y-84731798D01*
X104211721Y-84738199D01*
X104211738Y-84738200D01*
X104859566Y-84738200D01*
X104859566Y-83821212D01*
X104916573Y-83854125D01*
X105043740Y-83888200D01*
X105175392Y-83888200D01*
X105302559Y-83854125D01*
X105359566Y-83821212D01*
X105359566Y-84738200D01*
X106007394Y-84738200D01*
X106007410Y-84738199D01*
X106066938Y-84731798D01*
X106066945Y-84731796D01*
X106201652Y-84681554D01*
X106201659Y-84681550D01*
X106316753Y-84595390D01*
X106316756Y-84595387D01*
X106402916Y-84480293D01*
X106402920Y-84480286D01*
X106453162Y-84345579D01*
X106453164Y-84345572D01*
X106459565Y-84286044D01*
X106459566Y-84286027D01*
X106459566Y-83638200D01*
X105542578Y-83638200D01*
X105575491Y-83581193D01*
X105609566Y-83454026D01*
X105609566Y-83322374D01*
X105596459Y-83273458D01*
X111942642Y-83273458D01*
X111942642Y-83502941D01*
X111960450Y-83638200D01*
X111972594Y-83730438D01*
X112027494Y-83935329D01*
X112031984Y-83952087D01*
X112119792Y-84164076D01*
X112119799Y-84164090D01*
X112234534Y-84362817D01*
X112374223Y-84544861D01*
X112374231Y-84544870D01*
X112536472Y-84707111D01*
X112536480Y-84707118D01*
X112536481Y-84707119D01*
X112568643Y-84731798D01*
X112718524Y-84846807D01*
X112718527Y-84846808D01*
X112718530Y-84846811D01*
X112917254Y-84961544D01*
X112917259Y-84961546D01*
X112917265Y-84961549D01*
X113008622Y-84999390D01*
X113129255Y-85049358D01*
X113350904Y-85108748D01*
X113578408Y-85138700D01*
X113578415Y-85138700D01*
X113807869Y-85138700D01*
X113807876Y-85138700D01*
X114035380Y-85108748D01*
X114257029Y-85049358D01*
X114469030Y-84961544D01*
X114667754Y-84846811D01*
X114849803Y-84707119D01*
X114849807Y-84707114D01*
X114849812Y-84707111D01*
X115012053Y-84544870D01*
X115012056Y-84544865D01*
X115012061Y-84544861D01*
X115151753Y-84362812D01*
X115266486Y-84164088D01*
X115354300Y-83952087D01*
X115413690Y-83730438D01*
X115443642Y-83502934D01*
X115443642Y-83273466D01*
X115443641Y-83273458D01*
X120756219Y-83273458D01*
X120756219Y-83502941D01*
X120774027Y-83638200D01*
X120786171Y-83730438D01*
X120841071Y-83935329D01*
X120845561Y-83952087D01*
X120933369Y-84164076D01*
X120933376Y-84164090D01*
X121048111Y-84362817D01*
X121187800Y-84544861D01*
X121187808Y-84544870D01*
X121350049Y-84707111D01*
X121350057Y-84707118D01*
X121350058Y-84707119D01*
X121382220Y-84731798D01*
X121532101Y-84846807D01*
X121532104Y-84846808D01*
X121532107Y-84846811D01*
X121730831Y-84961544D01*
X121730836Y-84961546D01*
X121730842Y-84961549D01*
X121822199Y-84999390D01*
X121942832Y-85049358D01*
X122164481Y-85108748D01*
X122391985Y-85138700D01*
X122391992Y-85138700D01*
X122621446Y-85138700D01*
X122621453Y-85138700D01*
X122848957Y-85108748D01*
X123070606Y-85049358D01*
X123282607Y-84961544D01*
X123481331Y-84846811D01*
X123663380Y-84707119D01*
X123794119Y-84576378D01*
X123814191Y-84560114D01*
X125046514Y-83758746D01*
X125113447Y-83738702D01*
X125114114Y-83738700D01*
X127184456Y-83738700D01*
X127251495Y-83758385D01*
X127272137Y-83775019D01*
X129451788Y-85954670D01*
X129451789Y-85954671D01*
X129451791Y-85954672D01*
X129491750Y-85977742D01*
X129531712Y-86000814D01*
X129620856Y-86024700D01*
X134467056Y-86024700D01*
X134534095Y-86044385D01*
X134554737Y-86061019D01*
X138112181Y-89618463D01*
X138145666Y-89679786D01*
X138148500Y-89706144D01*
X138148500Y-107590002D01*
X138128815Y-107657041D01*
X138112181Y-107677683D01*
X136093083Y-109696781D01*
X136031760Y-109730266D01*
X136005402Y-109733100D01*
X131819344Y-109733100D01*
X131752305Y-109713415D01*
X131731663Y-109696781D01*
X130696727Y-108661845D01*
X130672090Y-108626707D01*
X130493300Y-108244519D01*
X130493300Y-108244518D01*
X130488672Y-108234625D01*
X130484784Y-108220115D01*
X130469499Y-108193641D01*
X130458422Y-108169962D01*
X130449704Y-108153006D01*
X130448855Y-108151496D01*
X130439059Y-108135481D01*
X130439055Y-108135477D01*
X130434590Y-108129788D01*
X130435218Y-108129294D01*
X130423510Y-108113986D01*
X130412309Y-108094585D01*
X130342593Y-108024869D01*
X130309108Y-107963546D01*
X130314092Y-107893854D01*
X130331901Y-107861698D01*
X130336103Y-107856220D01*
X130336109Y-107856215D01*
X130408584Y-107730685D01*
X130446100Y-107590675D01*
X130446100Y-107445725D01*
X130408584Y-107305715D01*
X130396958Y-107285579D01*
X130336111Y-107180188D01*
X130336106Y-107180182D01*
X130233617Y-107077693D01*
X130233611Y-107077688D01*
X130108088Y-107005217D01*
X130108089Y-107005217D01*
X130096606Y-107002140D01*
X129968075Y-106967700D01*
X129823125Y-106967700D01*
X129694593Y-107002140D01*
X129683111Y-107005217D01*
X129557588Y-107077688D01*
X129557582Y-107077693D01*
X129455093Y-107180182D01*
X129455091Y-107180185D01*
X129424488Y-107233189D01*
X129424487Y-107233188D01*
X129421060Y-107239122D01*
X129408977Y-107255561D01*
X129397900Y-107279236D01*
X129395229Y-107283865D01*
X129395228Y-107283868D01*
X129382616Y-107305713D01*
X129382614Y-107305718D01*
X129381555Y-107309672D01*
X129374102Y-107330108D01*
X129195306Y-107712309D01*
X129170669Y-107747447D01*
X127769560Y-109148558D01*
X127708237Y-109182043D01*
X127681879Y-109184877D01*
X126975845Y-109184877D01*
X126933578Y-109177451D01*
X126536908Y-109033628D01*
X126536906Y-109033627D01*
X126526634Y-109029902D01*
X126513628Y-109022393D01*
X126484109Y-109014482D01*
X126479099Y-109012666D01*
X126479088Y-109012663D01*
X126459503Y-109005562D01*
X126441628Y-108999816D01*
X126439957Y-108999346D01*
X126421410Y-108994868D01*
X126414209Y-108994000D01*
X126414304Y-108993208D01*
X126395207Y-108990661D01*
X126373622Y-108984877D01*
X126373618Y-108984877D01*
X126228668Y-108984877D01*
X126100136Y-109019317D01*
X126088654Y-109022394D01*
X125963131Y-109094865D01*
X125963125Y-109094870D01*
X125860636Y-109197359D01*
X125860631Y-109197365D01*
X125788160Y-109322888D01*
X125788159Y-109322892D01*
X125750643Y-109462902D01*
X125750643Y-109607852D01*
X125788159Y-109747862D01*
X125788160Y-109747865D01*
X125860631Y-109873388D01*
X125860633Y-109873390D01*
X125860634Y-109873392D01*
X125963128Y-109975886D01*
X125963129Y-109975887D01*
X125963131Y-109975888D01*
X126088654Y-110048359D01*
X126088655Y-110048359D01*
X126088658Y-110048361D01*
X126228668Y-110085877D01*
X126228671Y-110085877D01*
X126373617Y-110085877D01*
X126373618Y-110085877D01*
X126439346Y-110068264D01*
X126459524Y-110065184D01*
X126484102Y-110056272D01*
X126513628Y-110048361D01*
X126517175Y-110046312D01*
X126536905Y-110037126D01*
X126546974Y-110033475D01*
X126616707Y-110029132D01*
X126677720Y-110063179D01*
X126710640Y-110124807D01*
X126705016Y-110194450D01*
X126696626Y-110212049D01*
X126688159Y-110226715D01*
X126650643Y-110366725D01*
X126650643Y-110511675D01*
X126684711Y-110638817D01*
X126688160Y-110651688D01*
X126760631Y-110777211D01*
X126760633Y-110777213D01*
X126760634Y-110777215D01*
X126863128Y-110879709D01*
X126863129Y-110879710D01*
X126863131Y-110879711D01*
X126988654Y-110952182D01*
X126988655Y-110952182D01*
X126988658Y-110952184D01*
X127128668Y-110989700D01*
X127128671Y-110989700D01*
X127273617Y-110989700D01*
X127273618Y-110989700D01*
X127339346Y-110972087D01*
X127359524Y-110969007D01*
X127384102Y-110960095D01*
X127413628Y-110952184D01*
X127417175Y-110950135D01*
X127436901Y-110940950D01*
X127833578Y-110797126D01*
X127875845Y-110789700D01*
X128011342Y-110789700D01*
X128011344Y-110789700D01*
X128100488Y-110765814D01*
X128114767Y-110757570D01*
X128180412Y-110719670D01*
X128930582Y-109969499D01*
X128991902Y-109936016D01*
X129061593Y-109941000D01*
X129117527Y-109982871D01*
X129141944Y-110048336D01*
X129138035Y-110089273D01*
X129128934Y-110123237D01*
X129128934Y-110123242D01*
X129128934Y-110268192D01*
X129163921Y-110398762D01*
X129166451Y-110408205D01*
X129238922Y-110533728D01*
X129238924Y-110533730D01*
X129238925Y-110533732D01*
X129341419Y-110636226D01*
X129341420Y-110636227D01*
X129341422Y-110636228D01*
X129383095Y-110660288D01*
X129466949Y-110708701D01*
X129567744Y-110735709D01*
X129587966Y-110743600D01*
X129752865Y-110772875D01*
X129754424Y-110773194D01*
X129757732Y-110774946D01*
X129791602Y-110787296D01*
X129823106Y-110805485D01*
X129823108Y-110805487D01*
X129833026Y-110811213D01*
X129833028Y-110811214D01*
X129922172Y-110835100D01*
X130105978Y-110835100D01*
X130117863Y-110836675D01*
X130119908Y-110836855D01*
X130142316Y-110837839D01*
X130156084Y-110835100D01*
X136449544Y-110835100D01*
X136538688Y-110811214D01*
X136548607Y-110805487D01*
X136558155Y-110799974D01*
X136626054Y-110783507D01*
X136692079Y-110806363D01*
X136735266Y-110861287D01*
X136744146Y-110907366D01*
X136744146Y-110922051D01*
X136736720Y-110964318D01*
X136592892Y-111360996D01*
X136583709Y-111380723D01*
X136581663Y-111384266D01*
X136581660Y-111384272D01*
X136575135Y-111408625D01*
X136571938Y-111418788D01*
X136564830Y-111438394D01*
X136559035Y-111456441D01*
X136558574Y-111458086D01*
X136558571Y-111458097D01*
X136557457Y-111462716D01*
X136554135Y-111476493D01*
X136553271Y-111483676D01*
X136552479Y-111483580D01*
X136549931Y-111502688D01*
X136544146Y-111524279D01*
X136544146Y-111669229D01*
X136570283Y-111766771D01*
X136581663Y-111809242D01*
X136654134Y-111934765D01*
X136654136Y-111934767D01*
X136654137Y-111934769D01*
X136756631Y-112037263D01*
X136756632Y-112037264D01*
X136756634Y-112037265D01*
X136882157Y-112109736D01*
X136882158Y-112109736D01*
X136882161Y-112109738D01*
X137022171Y-112147254D01*
X137022174Y-112147254D01*
X137167118Y-112147254D01*
X137167121Y-112147254D01*
X137307131Y-112109738D01*
X137432661Y-112037263D01*
X137535155Y-111934769D01*
X137607630Y-111809239D01*
X137645146Y-111669229D01*
X137645146Y-111524279D01*
X137627534Y-111458552D01*
X137624453Y-111438372D01*
X137615540Y-111413791D01*
X137607630Y-111384269D01*
X137605580Y-111380718D01*
X137596398Y-111360996D01*
X137452572Y-110964318D01*
X137451703Y-110959374D01*
X137450169Y-110956987D01*
X137445146Y-110922052D01*
X137445146Y-110726498D01*
X137464831Y-110659459D01*
X137481465Y-110638817D01*
X137608610Y-110511672D01*
X137756987Y-110363294D01*
X137818308Y-110329811D01*
X137887999Y-110334795D01*
X137943933Y-110376666D01*
X137952053Y-110388977D01*
X137963153Y-110408202D01*
X138014891Y-110497815D01*
X138117385Y-110600309D01*
X138117386Y-110600310D01*
X138117388Y-110600311D01*
X138242911Y-110672782D01*
X138242912Y-110672782D01*
X138242915Y-110672784D01*
X138382925Y-110710300D01*
X138382928Y-110710300D01*
X138527872Y-110710300D01*
X138527875Y-110710300D01*
X138667885Y-110672784D01*
X138793415Y-110600309D01*
X138895909Y-110497815D01*
X138929938Y-110438873D01*
X138942022Y-110422437D01*
X138953096Y-110398762D01*
X138968384Y-110372285D01*
X138969443Y-110368329D01*
X138976899Y-110347878D01*
X139155691Y-109965689D01*
X139180322Y-109930558D01*
X139690819Y-109420062D01*
X139752142Y-109386577D01*
X139821834Y-109391561D01*
X139877767Y-109433433D01*
X139902184Y-109498897D01*
X139902500Y-109507743D01*
X139902500Y-110026830D01*
X139899820Y-110052827D01*
X139902500Y-110081370D01*
X139902500Y-110346014D01*
X139915104Y-110393055D01*
X139928088Y-110441511D01*
X139931201Y-110449026D01*
X139930666Y-110449247D01*
X139932176Y-110451173D01*
X139940443Y-110485486D01*
X139948853Y-110575051D01*
X139949396Y-110586643D01*
X139949396Y-110590950D01*
X139949434Y-110591244D01*
X139951727Y-110601736D01*
X139953865Y-110614312D01*
X139956015Y-110619550D01*
X139961072Y-110634530D01*
X139986910Y-110730954D01*
X139986913Y-110730961D01*
X140059384Y-110856484D01*
X140059386Y-110856486D01*
X140059387Y-110856488D01*
X140161881Y-110958982D01*
X140161882Y-110958983D01*
X140161884Y-110958984D01*
X140287407Y-111031455D01*
X140287408Y-111031455D01*
X140287411Y-111031457D01*
X140427421Y-111068973D01*
X140427424Y-111068973D01*
X140572368Y-111068973D01*
X140572371Y-111068973D01*
X140712381Y-111031457D01*
X140837911Y-110958982D01*
X140940405Y-110856488D01*
X141012880Y-110730958D01*
X141050396Y-110590948D01*
X141050396Y-110445998D01*
X141012880Y-110305988D01*
X140991058Y-110268192D01*
X140940407Y-110180461D01*
X140940402Y-110180455D01*
X140837911Y-110077964D01*
X140836141Y-110076606D01*
X140825777Y-110067705D01*
X140691651Y-109939015D01*
X140656905Y-109878397D01*
X140653500Y-109849539D01*
X140653500Y-100747712D01*
X162775600Y-100747712D01*
X162775600Y-139463312D01*
X162775601Y-139463321D01*
X162787152Y-139570762D01*
X162787154Y-139570774D01*
X162798360Y-139622284D01*
X162832483Y-139724809D01*
X162832486Y-139724815D01*
X162910271Y-139845849D01*
X162910279Y-139845860D01*
X162956023Y-139898652D01*
X162956026Y-139898655D01*
X162956030Y-139898659D01*
X163064764Y-139992879D01*
X163064767Y-139992880D01*
X163064768Y-139992881D01*
X163159025Y-140035928D01*
X163195641Y-140052650D01*
X163262680Y-140072335D01*
X163262684Y-140072336D01*
X163405100Y-140092812D01*
X163405103Y-140092812D01*
X175097490Y-140092812D01*
X175097500Y-140092812D01*
X175204956Y-140081259D01*
X175256467Y-140070053D01*
X175290697Y-140058659D01*
X175358997Y-140035928D01*
X175359001Y-140035925D01*
X175359004Y-140035925D01*
X175480043Y-139958137D01*
X175532847Y-139912382D01*
X175627067Y-139803648D01*
X175686838Y-139672771D01*
X175706523Y-139605732D01*
X175706524Y-139605728D01*
X175727000Y-139463312D01*
X175727000Y-100747712D01*
X175715447Y-100640256D01*
X175704241Y-100588745D01*
X175704137Y-100588434D01*
X175670116Y-100486214D01*
X175670113Y-100486208D01*
X175592328Y-100365174D01*
X175592325Y-100365169D01*
X175592320Y-100365163D01*
X175546576Y-100312371D01*
X175546572Y-100312368D01*
X175546570Y-100312365D01*
X175437836Y-100218145D01*
X175437833Y-100218143D01*
X175437831Y-100218142D01*
X175306965Y-100158376D01*
X175306960Y-100158374D01*
X175306959Y-100158374D01*
X175239920Y-100138689D01*
X175239922Y-100138689D01*
X175239917Y-100138688D01*
X175177847Y-100129764D01*
X175097500Y-100118212D01*
X163405100Y-100118212D01*
X163405091Y-100118212D01*
X163405090Y-100118213D01*
X163297649Y-100129764D01*
X163297637Y-100129766D01*
X163246127Y-100140972D01*
X163143602Y-100175095D01*
X163143596Y-100175098D01*
X163022562Y-100252883D01*
X163022551Y-100252891D01*
X162969759Y-100298635D01*
X162875533Y-100407376D01*
X162875530Y-100407380D01*
X162815764Y-100538246D01*
X162796076Y-100605294D01*
X162791049Y-100640261D01*
X162775600Y-100747712D01*
X140653500Y-100747712D01*
X140653500Y-100045831D01*
X140673185Y-99978792D01*
X140720302Y-99935811D01*
X140988974Y-99796141D01*
X141000972Y-99789488D01*
X141002043Y-99788856D01*
X141013429Y-99781727D01*
X141013430Y-99781725D01*
X141018837Y-99777436D01*
X141019178Y-99777866D01*
X141036484Y-99764630D01*
X141054015Y-99754509D01*
X141156509Y-99652015D01*
X141228984Y-99526485D01*
X141266500Y-99386475D01*
X141266500Y-99241525D01*
X141228984Y-99101515D01*
X141183554Y-99022829D01*
X141156511Y-98975988D01*
X141156506Y-98975982D01*
X141062724Y-98882200D01*
X164298449Y-98882200D01*
X174777400Y-98882200D01*
X174777400Y-88487033D01*
X164298449Y-88487033D01*
X164298449Y-98882200D01*
X141062724Y-98882200D01*
X141054017Y-98873493D01*
X141054011Y-98873488D01*
X140928488Y-98801017D01*
X140928489Y-98801017D01*
X140917006Y-98797940D01*
X140788475Y-98763500D01*
X140643525Y-98763500D01*
X140514993Y-98797940D01*
X140503511Y-98801017D01*
X140377982Y-98873492D01*
X140376982Y-98874260D01*
X140375986Y-98874644D01*
X140370946Y-98877555D01*
X140370492Y-98876768D01*
X140311812Y-98899451D01*
X140243368Y-98885410D01*
X140193380Y-98836594D01*
X140177500Y-98775881D01*
X140177500Y-93495237D01*
X153572849Y-93495237D01*
X153572849Y-93871422D01*
X153605636Y-94246177D01*
X153605636Y-94246179D01*
X153670957Y-94616630D01*
X153670961Y-94616647D01*
X153768318Y-94979994D01*
X153768321Y-94980004D01*
X153768322Y-94980005D01*
X153896984Y-95333501D01*
X153896987Y-95333508D01*
X153896988Y-95333510D01*
X153896991Y-95333518D01*
X154055961Y-95674428D01*
X154055969Y-95674444D01*
X154244052Y-96000213D01*
X154244061Y-96000228D01*
X154459831Y-96308379D01*
X154587394Y-96460402D01*
X154701632Y-96596545D01*
X154967634Y-96862547D01*
X155054576Y-96935500D01*
X155255799Y-97104347D01*
X155255805Y-97104351D01*
X155255806Y-97104352D01*
X155563957Y-97320122D01*
X155889741Y-97508213D01*
X155889750Y-97508217D01*
X156230660Y-97667187D01*
X156230664Y-97667188D01*
X156230678Y-97667195D01*
X156584174Y-97795857D01*
X156584180Y-97795858D01*
X156584184Y-97795860D01*
X156683135Y-97822373D01*
X156947539Y-97893220D01*
X157318006Y-97958543D01*
X157692756Y-97991329D01*
X157692757Y-97991330D01*
X157692758Y-97991330D01*
X158068941Y-97991330D01*
X158068941Y-97991329D01*
X158443692Y-97958543D01*
X158814159Y-97893220D01*
X159177524Y-97795857D01*
X159531020Y-97667195D01*
X159871957Y-97508213D01*
X160197741Y-97320122D01*
X160505892Y-97104352D01*
X160794064Y-96862547D01*
X161060066Y-96596545D01*
X161301871Y-96308373D01*
X161517641Y-96000222D01*
X161705732Y-95674438D01*
X161864714Y-95333501D01*
X161993376Y-94980005D01*
X162090739Y-94616640D01*
X162156062Y-94246173D01*
X162188849Y-93871421D01*
X162188849Y-93495239D01*
X162188848Y-93495227D01*
X162188605Y-93492443D01*
X162171520Y-93297181D01*
X162156062Y-93120487D01*
X162090739Y-92750020D01*
X161993376Y-92386655D01*
X161864714Y-92033159D01*
X161824126Y-91946119D01*
X161705736Y-91692231D01*
X161705728Y-91692215D01*
X161579604Y-91473762D01*
X161517641Y-91366438D01*
X161301871Y-91058287D01*
X161301870Y-91058286D01*
X161301866Y-91058280D01*
X161060063Y-90770112D01*
X160794072Y-90504121D01*
X160794064Y-90504113D01*
X160675907Y-90404968D01*
X160505898Y-90262312D01*
X160197747Y-90046542D01*
X160197744Y-90046540D01*
X160197741Y-90046538D01*
X160100953Y-89990658D01*
X159871963Y-89858450D01*
X159871947Y-89858442D01*
X159531037Y-89699472D01*
X159531029Y-89699469D01*
X159531027Y-89699468D01*
X159531020Y-89699465D01*
X159177524Y-89570803D01*
X159177523Y-89570802D01*
X159177513Y-89570799D01*
X158814166Y-89473442D01*
X158814169Y-89473442D01*
X158814159Y-89473440D01*
X158814153Y-89473438D01*
X158814149Y-89473438D01*
X158443697Y-89408117D01*
X158068941Y-89375330D01*
X158068940Y-89375330D01*
X157692758Y-89375330D01*
X157692757Y-89375330D01*
X157318001Y-89408117D01*
X157317999Y-89408117D01*
X156947548Y-89473438D01*
X156947531Y-89473442D01*
X156584184Y-89570799D01*
X156493015Y-89603982D01*
X156230678Y-89699465D01*
X156230674Y-89699466D01*
X156230668Y-89699469D01*
X156230660Y-89699472D01*
X155889750Y-89858442D01*
X155889734Y-89858450D01*
X155563965Y-90046533D01*
X155563950Y-90046542D01*
X155255799Y-90262312D01*
X154967631Y-90504115D01*
X154701634Y-90770112D01*
X154459831Y-91058280D01*
X154244061Y-91366431D01*
X154244052Y-91366446D01*
X154055969Y-91692215D01*
X154055961Y-91692231D01*
X153896991Y-92033141D01*
X153896988Y-92033149D01*
X153768318Y-92386665D01*
X153670961Y-92750012D01*
X153670957Y-92750029D01*
X153605636Y-93120480D01*
X153605636Y-93120482D01*
X153572849Y-93495237D01*
X140177500Y-93495237D01*
X140177500Y-90512458D01*
X140540300Y-90512458D01*
X140540300Y-90741941D01*
X140561933Y-90906250D01*
X140570252Y-90969438D01*
X140594057Y-91058280D01*
X140629642Y-91191087D01*
X140717450Y-91403076D01*
X140717457Y-91403090D01*
X140832192Y-91601817D01*
X140971881Y-91783861D01*
X140971889Y-91783870D01*
X141134130Y-91946111D01*
X141134138Y-91946118D01*
X141316182Y-92085807D01*
X141316185Y-92085808D01*
X141316188Y-92085811D01*
X141514912Y-92200544D01*
X141514917Y-92200546D01*
X141514923Y-92200549D01*
X141606280Y-92238390D01*
X141726913Y-92288358D01*
X141948562Y-92347748D01*
X142176066Y-92377700D01*
X142176073Y-92377700D01*
X142405527Y-92377700D01*
X142405534Y-92377700D01*
X142633038Y-92347748D01*
X142854687Y-92288358D01*
X143066688Y-92200544D01*
X143265412Y-92085811D01*
X143447461Y-91946119D01*
X143447465Y-91946114D01*
X143447470Y-91946111D01*
X143609711Y-91783870D01*
X143609714Y-91783865D01*
X143609719Y-91783861D01*
X143749411Y-91601812D01*
X143864144Y-91403088D01*
X143951958Y-91191087D01*
X144011348Y-90969438D01*
X144041300Y-90741934D01*
X144041300Y-90512466D01*
X144011348Y-90284962D01*
X143951958Y-90063313D01*
X143867101Y-89858450D01*
X143864149Y-89851323D01*
X143864146Y-89851317D01*
X143864144Y-89851312D01*
X143749411Y-89652588D01*
X143749408Y-89652585D01*
X143749407Y-89652582D01*
X143648564Y-89521162D01*
X143609719Y-89470539D01*
X143609718Y-89470538D01*
X143609711Y-89470530D01*
X143447470Y-89308289D01*
X143447461Y-89308281D01*
X143265417Y-89168592D01*
X143066690Y-89053857D01*
X143066676Y-89053850D01*
X142854687Y-88966042D01*
X142838531Y-88961713D01*
X142633038Y-88906652D01*
X142595015Y-88901646D01*
X142405541Y-88876700D01*
X142405534Y-88876700D01*
X142176066Y-88876700D01*
X142176058Y-88876700D01*
X141979848Y-88902533D01*
X141948562Y-88906652D01*
X141945334Y-88907517D01*
X141726912Y-88966042D01*
X141514923Y-89053850D01*
X141514909Y-89053857D01*
X141316182Y-89168592D01*
X141134138Y-89308281D01*
X140971881Y-89470538D01*
X140832192Y-89652582D01*
X140717457Y-89851309D01*
X140717450Y-89851323D01*
X140629642Y-90063312D01*
X140570253Y-90284959D01*
X140570251Y-90284970D01*
X140540300Y-90512458D01*
X140177500Y-90512458D01*
X140177500Y-89655344D01*
X140197185Y-89588305D01*
X140213819Y-89567663D01*
X146006463Y-83775019D01*
X146067786Y-83741534D01*
X146094144Y-83738700D01*
X146340052Y-83738700D01*
X146407091Y-83758385D01*
X146407614Y-83758723D01*
X147639974Y-84560115D01*
X147660048Y-84576381D01*
X147790786Y-84707119D01*
X147822948Y-84731798D01*
X147972829Y-84846807D01*
X147972832Y-84846808D01*
X147972835Y-84846811D01*
X148171559Y-84961544D01*
X148171564Y-84961546D01*
X148171570Y-84961549D01*
X148262927Y-84999390D01*
X148383560Y-85049358D01*
X148605209Y-85108748D01*
X148832713Y-85138700D01*
X148832720Y-85138700D01*
X149062174Y-85138700D01*
X149062181Y-85138700D01*
X149289685Y-85108748D01*
X149511334Y-85049358D01*
X149723335Y-84961544D01*
X149922059Y-84846811D01*
X150104108Y-84707119D01*
X150104112Y-84707114D01*
X150104117Y-84707111D01*
X150266358Y-84544870D01*
X150266361Y-84544865D01*
X150266366Y-84544861D01*
X150406058Y-84362812D01*
X150520791Y-84164088D01*
X150608605Y-83952087D01*
X150667995Y-83730438D01*
X150697947Y-83502934D01*
X150697947Y-83273466D01*
X150697946Y-83273458D01*
X156010524Y-83273458D01*
X156010524Y-83502941D01*
X156028332Y-83638200D01*
X156040476Y-83730438D01*
X156095376Y-83935329D01*
X156099866Y-83952087D01*
X156187674Y-84164076D01*
X156187681Y-84164090D01*
X156302416Y-84362817D01*
X156442105Y-84544861D01*
X156442113Y-84544870D01*
X156604354Y-84707111D01*
X156604362Y-84707118D01*
X156604363Y-84707119D01*
X156636525Y-84731798D01*
X156786406Y-84846807D01*
X156786409Y-84846808D01*
X156786412Y-84846811D01*
X156985136Y-84961544D01*
X156985141Y-84961546D01*
X156985147Y-84961549D01*
X157076504Y-84999390D01*
X157197137Y-85049358D01*
X157418786Y-85108748D01*
X157646290Y-85138700D01*
X157646297Y-85138700D01*
X157875751Y-85138700D01*
X157875758Y-85138700D01*
X158103262Y-85108748D01*
X158324911Y-85049358D01*
X158536912Y-84961544D01*
X158735636Y-84846811D01*
X158917685Y-84707119D01*
X158917689Y-84707114D01*
X158917694Y-84707111D01*
X159079935Y-84544870D01*
X159079938Y-84544865D01*
X159079943Y-84544861D01*
X159219635Y-84362812D01*
X159334368Y-84164088D01*
X159422182Y-83952087D01*
X159481572Y-83730438D01*
X159511524Y-83502934D01*
X159511524Y-83273466D01*
X159481572Y-83045962D01*
X159422182Y-82824313D01*
X159351158Y-82652847D01*
X159334373Y-82612323D01*
X159334370Y-82612317D01*
X159334368Y-82612312D01*
X159219635Y-82413588D01*
X159219632Y-82413585D01*
X159219631Y-82413582D01*
X159079942Y-82231538D01*
X159079935Y-82231530D01*
X158917694Y-82069289D01*
X158917685Y-82069281D01*
X158735641Y-81929592D01*
X158536914Y-81814857D01*
X158536900Y-81814850D01*
X158324911Y-81727042D01*
X158103262Y-81667652D01*
X158065239Y-81662646D01*
X157875765Y-81637700D01*
X157875758Y-81637700D01*
X157646290Y-81637700D01*
X157646282Y-81637700D01*
X157429739Y-81666209D01*
X157418786Y-81667652D01*
X157325100Y-81692754D01*
X157197136Y-81727042D01*
X156985147Y-81814850D01*
X156985133Y-81814857D01*
X156786406Y-81929592D01*
X156604362Y-82069281D01*
X156442105Y-82231538D01*
X156302416Y-82413582D01*
X156187681Y-82612309D01*
X156187674Y-82612323D01*
X156099866Y-82824312D01*
X156040477Y-83045959D01*
X156040475Y-83045970D01*
X156010524Y-83273458D01*
X150697946Y-83273458D01*
X150667995Y-83045962D01*
X150608605Y-82824313D01*
X150537581Y-82652847D01*
X150520796Y-82612323D01*
X150520793Y-82612317D01*
X150520791Y-82612312D01*
X150406058Y-82413588D01*
X150406055Y-82413585D01*
X150406054Y-82413582D01*
X150266365Y-82231538D01*
X150266358Y-82231530D01*
X150104117Y-82069289D01*
X150104108Y-82069281D01*
X149922064Y-81929592D01*
X149723337Y-81814857D01*
X149723323Y-81814850D01*
X149511334Y-81727042D01*
X149289685Y-81667652D01*
X149251662Y-81662646D01*
X149062188Y-81637700D01*
X149062181Y-81637700D01*
X148832713Y-81637700D01*
X148832705Y-81637700D01*
X148616162Y-81666209D01*
X148605209Y-81667652D01*
X148511523Y-81692754D01*
X148383559Y-81727042D01*
X148171570Y-81814850D01*
X148171556Y-81814857D01*
X147972834Y-81929589D01*
X147790784Y-82069281D01*
X147660059Y-82200006D01*
X147639978Y-82216277D01*
X146407649Y-83017653D01*
X146340717Y-83037698D01*
X146340049Y-83037700D01*
X145851456Y-83037700D01*
X145762312Y-83061586D01*
X145762309Y-83061587D01*
X145682391Y-83107727D01*
X145682386Y-83107731D01*
X140947981Y-87842137D01*
X140886658Y-87875622D01*
X140816966Y-87870638D01*
X140761033Y-87828766D01*
X140736616Y-87763302D01*
X140736300Y-87754456D01*
X140736300Y-85961523D01*
X140749904Y-85905055D01*
X141047289Y-85323665D01*
X141429285Y-84576859D01*
X141450267Y-84548036D01*
X141450119Y-84547906D01*
X141451550Y-84546274D01*
X141452014Y-84545636D01*
X141452790Y-84544861D01*
X141592482Y-84362812D01*
X141707215Y-84164088D01*
X141795029Y-83952087D01*
X141854419Y-83730438D01*
X141884371Y-83502934D01*
X141884371Y-83273466D01*
X141854419Y-83045962D01*
X141795029Y-82824313D01*
X141724005Y-82652847D01*
X141707220Y-82612323D01*
X141707217Y-82612317D01*
X141707215Y-82612312D01*
X141592482Y-82413588D01*
X141592479Y-82413585D01*
X141592478Y-82413582D01*
X141452789Y-82231538D01*
X141452782Y-82231530D01*
X141290541Y-82069289D01*
X141290532Y-82069281D01*
X141108488Y-81929592D01*
X140909761Y-81814857D01*
X140909747Y-81814850D01*
X140697758Y-81727042D01*
X140476109Y-81667652D01*
X140438086Y-81662646D01*
X140248612Y-81637700D01*
X140248605Y-81637700D01*
X140019137Y-81637700D01*
X140019129Y-81637700D01*
X139802586Y-81666209D01*
X139791633Y-81667652D01*
X139697947Y-81692754D01*
X139569983Y-81727042D01*
X139357994Y-81814850D01*
X139357980Y-81814857D01*
X139159253Y-81929592D01*
X138977209Y-82069281D01*
X138814952Y-82231538D01*
X138675263Y-82413582D01*
X138560528Y-82612309D01*
X138560521Y-82612323D01*
X138472713Y-82824312D01*
X138413324Y-83045959D01*
X138413322Y-83045970D01*
X138383371Y-83273458D01*
X138383371Y-83502941D01*
X138401179Y-83638200D01*
X138413323Y-83730438D01*
X138468223Y-83935329D01*
X138472713Y-83952087D01*
X138560521Y-84164076D01*
X138560528Y-84164090D01*
X138675263Y-84362817D01*
X138814952Y-84544861D01*
X138814960Y-84544870D01*
X138977202Y-84707112D01*
X138977206Y-84707115D01*
X138977210Y-84707119D01*
X139040484Y-84755671D01*
X139060570Y-84771084D01*
X139081065Y-84790953D01*
X139340995Y-85108748D01*
X140007283Y-85923364D01*
X140034490Y-85987718D01*
X140035300Y-86001869D01*
X140035300Y-88065646D01*
X140015615Y-88132685D01*
X139998981Y-88153327D01*
X139278276Y-88874032D01*
X139216953Y-88907517D01*
X139147261Y-88902533D01*
X139102914Y-88874032D01*
X133879615Y-83650733D01*
X133861458Y-83627660D01*
X133857540Y-83621242D01*
X133857530Y-83621229D01*
X133301495Y-83017653D01*
X132845123Y-82522261D01*
X132828941Y-82500253D01*
X132778906Y-82413588D01*
X132639214Y-82231539D01*
X132639213Y-82231538D01*
X132639206Y-82231530D01*
X132476965Y-82069289D01*
X132476956Y-82069281D01*
X132294912Y-81929592D01*
X132096185Y-81814857D01*
X132096171Y-81814850D01*
X131884182Y-81727042D01*
X131662533Y-81667652D01*
X131624510Y-81662646D01*
X131435036Y-81637700D01*
X131435029Y-81637700D01*
X131205561Y-81637700D01*
X131205553Y-81637700D01*
X130989010Y-81666209D01*
X130978057Y-81667652D01*
X130884371Y-81692754D01*
X130756407Y-81727042D01*
X130544418Y-81814850D01*
X130544404Y-81814857D01*
X130345677Y-81929592D01*
X130163633Y-82069281D01*
X130001376Y-82231538D01*
X129861687Y-82413582D01*
X129746952Y-82612309D01*
X129746945Y-82612323D01*
X129659137Y-82824312D01*
X129599748Y-83045959D01*
X129599746Y-83045970D01*
X129569795Y-83273458D01*
X129569795Y-83502941D01*
X129587603Y-83638200D01*
X129599747Y-83730438D01*
X129654647Y-83935329D01*
X129659137Y-83952087D01*
X129746945Y-84164076D01*
X129746952Y-84164090D01*
X129861687Y-84362817D01*
X130001376Y-84544861D01*
X130001384Y-84544870D01*
X130163625Y-84707111D01*
X130163633Y-84707118D01*
X130163634Y-84707119D01*
X130195796Y-84731798D01*
X130345677Y-84846807D01*
X130345680Y-84846808D01*
X130345683Y-84846811D01*
X130544407Y-84961544D01*
X130544412Y-84961546D01*
X130544418Y-84961549D01*
X130635775Y-84999390D01*
X130756408Y-85049358D01*
X130870490Y-85079926D01*
X130930150Y-85116290D01*
X130960679Y-85179137D01*
X130952384Y-85248512D01*
X130907899Y-85302390D01*
X130841347Y-85323665D01*
X130838396Y-85323700D01*
X129863544Y-85323700D01*
X129796505Y-85304015D01*
X129775863Y-85287381D01*
X127596213Y-83107731D01*
X127596208Y-83107727D01*
X127516290Y-83061587D01*
X127516289Y-83061586D01*
X127516288Y-83061586D01*
X127427144Y-83037700D01*
X127427143Y-83037700D01*
X125114116Y-83037700D01*
X125047077Y-83018015D01*
X125046516Y-83017653D01*
X124899846Y-82922275D01*
X123814190Y-82216282D01*
X123794114Y-82200015D01*
X123663380Y-82069281D01*
X123606715Y-82025800D01*
X123481336Y-81929592D01*
X123282609Y-81814857D01*
X123282595Y-81814850D01*
X123070606Y-81727042D01*
X122848957Y-81667652D01*
X122810934Y-81662646D01*
X122621460Y-81637700D01*
X122621453Y-81637700D01*
X122391985Y-81637700D01*
X122391977Y-81637700D01*
X122175434Y-81666209D01*
X122164481Y-81667652D01*
X122070795Y-81692754D01*
X121942831Y-81727042D01*
X121730842Y-81814850D01*
X121730828Y-81814857D01*
X121532101Y-81929592D01*
X121350057Y-82069281D01*
X121187800Y-82231538D01*
X121048111Y-82413582D01*
X120933376Y-82612309D01*
X120933369Y-82612323D01*
X120845561Y-82824312D01*
X120786172Y-83045959D01*
X120786170Y-83045970D01*
X120756219Y-83273458D01*
X115443641Y-83273458D01*
X115413690Y-83045962D01*
X115354300Y-82824313D01*
X115283276Y-82652847D01*
X115266491Y-82612323D01*
X115266488Y-82612317D01*
X115266486Y-82612312D01*
X115151753Y-82413588D01*
X115151750Y-82413585D01*
X115151749Y-82413582D01*
X115012060Y-82231538D01*
X115012053Y-82231530D01*
X114849812Y-82069289D01*
X114849803Y-82069281D01*
X114667759Y-81929592D01*
X114469032Y-81814857D01*
X114469018Y-81814850D01*
X114257029Y-81727042D01*
X114035380Y-81667652D01*
X113997357Y-81662646D01*
X113807883Y-81637700D01*
X113807876Y-81637700D01*
X113578408Y-81637700D01*
X113578400Y-81637700D01*
X113361857Y-81666209D01*
X113350904Y-81667652D01*
X113257218Y-81692754D01*
X113129254Y-81727042D01*
X112917265Y-81814850D01*
X112917251Y-81814857D01*
X112718524Y-81929592D01*
X112536480Y-82069281D01*
X112374223Y-82231538D01*
X112234534Y-82413582D01*
X112119799Y-82612309D01*
X112119792Y-82612323D01*
X112031984Y-82824312D01*
X111972595Y-83045959D01*
X111972593Y-83045970D01*
X111942642Y-83273458D01*
X105596459Y-83273458D01*
X105575491Y-83195207D01*
X105542578Y-83138200D01*
X106459566Y-83138200D01*
X106459566Y-82490372D01*
X106459565Y-82490355D01*
X106453164Y-82430827D01*
X106453162Y-82430820D01*
X106402920Y-82296113D01*
X106402916Y-82296106D01*
X106316756Y-82181012D01*
X106316753Y-82181009D01*
X106201659Y-82094849D01*
X106201652Y-82094845D01*
X106066945Y-82044603D01*
X106066938Y-82044601D01*
X106007410Y-82038200D01*
X105359566Y-82038200D01*
X105359566Y-82955188D01*
X105302559Y-82922275D01*
X105175392Y-82888200D01*
X105043740Y-82888200D01*
X104916573Y-82922275D01*
X104859566Y-82955188D01*
X104859566Y-82038200D01*
X104211721Y-82038200D01*
X104152193Y-82044601D01*
X104152186Y-82044603D01*
X104017479Y-82094845D01*
X104017472Y-82094849D01*
X103902378Y-82181009D01*
X103902375Y-82181012D01*
X103816215Y-82296106D01*
X103816211Y-82296113D01*
X103765969Y-82430820D01*
X103765967Y-82430827D01*
X103759566Y-82490355D01*
X100167442Y-82490355D01*
X100247628Y-82362739D01*
X100396288Y-82054044D01*
X100509449Y-81730646D01*
X100585691Y-81396612D01*
X100588874Y-81368368D01*
X100624051Y-81056147D01*
X100624052Y-81056143D01*
X100624052Y-80713514D01*
X100624051Y-80713510D01*
X100585693Y-80373060D01*
X100585692Y-80373055D01*
X100585691Y-80373046D01*
X100509449Y-80039012D01*
X100396288Y-79715614D01*
X100247628Y-79406919D01*
X100065341Y-79116811D01*
X99851718Y-78848936D01*
X99609445Y-78606663D01*
X99341570Y-78393040D01*
X99051462Y-78210753D01*
X99051459Y-78210751D01*
X98892096Y-78134006D01*
X98840237Y-78087184D01*
X98821924Y-78019757D01*
X98842972Y-77953133D01*
X98896698Y-77908464D01*
X98945898Y-77898286D01*
X174514778Y-77898286D01*
X174522242Y-77900477D01*
G37*
%TD.AperFunction*%
%TD*%
%TA.AperFunction,Conductor*%
%TO.N,/DISSIPATION*%
G36*
X175164539Y-100643397D02*
G01*
X175210294Y-100696201D01*
X175221500Y-100747712D01*
X175221500Y-139463312D01*
X175201815Y-139530351D01*
X175149011Y-139576106D01*
X175097500Y-139587312D01*
X163405100Y-139587312D01*
X163338061Y-139567627D01*
X163292306Y-139514823D01*
X163281100Y-139463312D01*
X163281100Y-100747712D01*
X163300785Y-100680673D01*
X163353589Y-100634918D01*
X163405100Y-100623712D01*
X175097500Y-100623712D01*
X175164539Y-100643397D01*
G37*
%TD.AperFunction*%
%TD*%
%TA.AperFunction,Conductor*%
%TO.N,GND*%
G36*
X119038551Y-98888767D02*
G01*
X108559600Y-98888767D01*
X108559600Y-88493600D01*
X119038551Y-88493600D01*
X119038551Y-98888767D01*
G37*
%TD.AperFunction*%
%TD*%
%TA.AperFunction,Conductor*%
%TO.N,GND*%
G36*
X174777400Y-98882200D02*
G01*
X164298449Y-98882200D01*
X164298449Y-88487033D01*
X174777400Y-88487033D01*
X174777400Y-98882200D01*
G37*
%TD.AperFunction*%
%TD*%
%TA.AperFunction,Conductor*%
%TO.N,/USB_PD/PD_3V3*%
G36*
X127755391Y-122621827D02*
G01*
X127756333Y-122622391D01*
X127914825Y-122727869D01*
X127992009Y-122779236D01*
X127996998Y-122786672D01*
X127997010Y-122786731D01*
X128051625Y-123066070D01*
X128049849Y-123074847D01*
X128043826Y-123079420D01*
X127556724Y-123241036D01*
X127547793Y-123240389D01*
X127541935Y-123233615D01*
X127541340Y-123229931D01*
X127541340Y-122999079D01*
X127542730Y-122993549D01*
X127739552Y-122626605D01*
X127746481Y-122620936D01*
X127755391Y-122621827D01*
G37*
%TD.AperFunction*%
%TD*%
%TA.AperFunction,Conductor*%
%TO.N,/USB_PD/PD_3V3*%
G36*
X121137886Y-126435746D02*
G01*
X121138518Y-126436817D01*
X121387695Y-126916132D01*
X121388471Y-126925053D01*
X121385587Y-126929802D01*
X121220935Y-127094454D01*
X121212662Y-127097881D01*
X121207265Y-127096562D01*
X120727950Y-126847385D01*
X120722190Y-126840528D01*
X120722966Y-126831607D01*
X120723590Y-126830548D01*
X120881059Y-126593204D01*
X120884337Y-126589926D01*
X121121670Y-126432464D01*
X121130457Y-126430746D01*
X121137886Y-126435746D01*
G37*
%TD.AperFunction*%
%TD*%
%TA.AperFunction,Conductor*%
%TO.N,Net-(IC2-EN)*%
G36*
X123617444Y-82393112D02*
G01*
X124988564Y-83284739D01*
X124993632Y-83292122D01*
X124993886Y-83294547D01*
X124993886Y-83481852D01*
X124990459Y-83490125D01*
X124988564Y-83491660D01*
X123617444Y-84383287D01*
X123608641Y-84384925D01*
X123603212Y-84382151D01*
X123315578Y-84121653D01*
X122515293Y-83396871D01*
X122511462Y-83388779D01*
X122514476Y-83380346D01*
X122515294Y-83379528D01*
X122609128Y-83294547D01*
X123603213Y-82394247D01*
X123611645Y-82391234D01*
X123617444Y-82393112D01*
G37*
%TD.AperFunction*%
%TD*%
%TA.AperFunction,Conductor*%
%TO.N,/USB_PD/PD_FAULT*%
G36*
X130294544Y-133316332D02*
G01*
X130297270Y-133320617D01*
X130484082Y-133835850D01*
X130483681Y-133844796D01*
X130477071Y-133850837D01*
X130475403Y-133851306D01*
X130196794Y-133907671D01*
X130192154Y-133907671D01*
X129913544Y-133851306D01*
X129906115Y-133846306D01*
X129904396Y-133837518D01*
X129904861Y-133835861D01*
X130091678Y-133320617D01*
X130097719Y-133314007D01*
X130102677Y-133312905D01*
X130286271Y-133312905D01*
X130294544Y-133316332D01*
G37*
%TD.AperFunction*%
%TD*%
%TA.AperFunction,Conductor*%
%TO.N,/USB_PD/PD_HPI_INT*%
G36*
X127258818Y-128667951D02*
G01*
X127259667Y-128669461D01*
X127434404Y-129042985D01*
X127435107Y-129044915D01*
X127442129Y-129071124D01*
X127470540Y-129120334D01*
X127471005Y-129121226D01*
X127491896Y-129165881D01*
X127492297Y-129174827D01*
X127489571Y-129179112D01*
X127359751Y-129308932D01*
X127351478Y-129312359D01*
X127346521Y-129311257D01*
X127195902Y-129240796D01*
X126850100Y-129079028D01*
X126844059Y-129072418D01*
X126844460Y-129063472D01*
X126845309Y-129061962D01*
X126857900Y-129042985D01*
X127002459Y-128825098D01*
X127005737Y-128821820D01*
X127242601Y-128664669D01*
X127251389Y-128662951D01*
X127258818Y-128667951D01*
G37*
%TD.AperFunction*%
%TD*%
%TA.AperFunction,Conductor*%
%TO.N,Net-(IC2-FB)*%
G36*
X147850953Y-82394248D02*
G01*
X148938871Y-83379528D01*
X148942703Y-83387621D01*
X148939689Y-83396054D01*
X148938871Y-83396872D01*
X147850953Y-84382151D01*
X147842520Y-84385165D01*
X147836721Y-84383287D01*
X146465602Y-83491660D01*
X146460534Y-83484277D01*
X146460280Y-83481852D01*
X146460280Y-83294547D01*
X146463707Y-83286274D01*
X146465602Y-83284739D01*
X147836721Y-82393111D01*
X147845524Y-82391474D01*
X147850953Y-82394248D01*
G37*
%TD.AperFunction*%
%TD*%
%TA.AperFunction,Conductor*%
%TO.N,/USB_PD/PD_SDA*%
G36*
X134115070Y-128008248D02*
G01*
X134117796Y-128012533D01*
X134304608Y-128527766D01*
X134304207Y-128536712D01*
X134297597Y-128542753D01*
X134295929Y-128543222D01*
X134017320Y-128599587D01*
X134012680Y-128599587D01*
X133734070Y-128543222D01*
X133726641Y-128538222D01*
X133724922Y-128529434D01*
X133725387Y-128527777D01*
X133912204Y-128012533D01*
X133918245Y-128005923D01*
X133923203Y-128004821D01*
X134106797Y-128004821D01*
X134115070Y-128008248D01*
G37*
%TD.AperFunction*%
%TD*%
%TA.AperFunction,Conductor*%
%TO.N,/VBUS_IN*%
G36*
X131830513Y-131653231D02*
G01*
X132159239Y-131780556D01*
X132165716Y-131786739D01*
X132166490Y-131793741D01*
X132110820Y-132074564D01*
X132105849Y-132082013D01*
X132105816Y-132082035D01*
X131871673Y-132237546D01*
X131862886Y-132239269D01*
X131855454Y-132234273D01*
X131854635Y-132232827D01*
X131586433Y-131669169D01*
X131585973Y-131660226D01*
X131591971Y-131653577D01*
X131596998Y-131652442D01*
X131826288Y-131652442D01*
X131830513Y-131653231D01*
G37*
%TD.AperFunction*%
%TD*%
%TA.AperFunction,Conductor*%
%TO.N,/BOOST_24V_OUT*%
G36*
X140476333Y-99153892D02*
G01*
X140477400Y-99154521D01*
X140703419Y-99304477D01*
X140714734Y-99311984D01*
X140718015Y-99315265D01*
X140875475Y-99552595D01*
X140877194Y-99561383D01*
X140872194Y-99568812D01*
X140871123Y-99569444D01*
X140391808Y-99818621D01*
X140382887Y-99819397D01*
X140378138Y-99816513D01*
X140213486Y-99651861D01*
X140210059Y-99643588D01*
X140211377Y-99638194D01*
X140460557Y-99158874D01*
X140467412Y-99153116D01*
X140476333Y-99153892D01*
G37*
%TD.AperFunction*%
%TD*%
%TA.AperFunction,Conductor*%
%TO.N,/USB_PD/ISINK_COARSE*%
G36*
X125494023Y-125977447D02*
G01*
X125804787Y-126122824D01*
X125990447Y-126209677D01*
X125996488Y-126216287D01*
X125996087Y-126225233D01*
X125995238Y-126226743D01*
X125838089Y-126463605D01*
X125834808Y-126466886D01*
X125597946Y-126624035D01*
X125589158Y-126625754D01*
X125581729Y-126620754D01*
X125580880Y-126619244D01*
X125508071Y-126463605D01*
X125348650Y-126122822D01*
X125348250Y-126113878D01*
X125350974Y-126109595D01*
X125480797Y-125979772D01*
X125489069Y-125976346D01*
X125494023Y-125977447D01*
G37*
%TD.AperFunction*%
%TD*%
%TA.AperFunction,Conductor*%
%TO.N,Net-(IC2-SS)*%
G36*
X129935132Y-110038935D02*
G01*
X129935277Y-110039158D01*
X130152195Y-110381733D01*
X130154010Y-110387992D01*
X130154010Y-110570639D01*
X130150583Y-110578912D01*
X130142310Y-110582339D01*
X130140265Y-110582159D01*
X129632629Y-110492034D01*
X129625082Y-110487214D01*
X129623154Y-110478469D01*
X129623191Y-110478269D01*
X129677497Y-110200505D01*
X129682447Y-110193046D01*
X129918911Y-110035676D01*
X129927696Y-110033946D01*
X129935132Y-110038935D01*
G37*
%TD.AperFunction*%
%TD*%
%TA.AperFunction,Conductor*%
%TO.N,/USB_PD/VBUS_MIN*%
G36*
X125900729Y-123457933D02*
G01*
X125906770Y-123464543D01*
X125907239Y-123466211D01*
X125963604Y-123744821D01*
X125963604Y-123749461D01*
X125907239Y-124028070D01*
X125902239Y-124035499D01*
X125893451Y-124037218D01*
X125891783Y-124036749D01*
X125376550Y-123849937D01*
X125369940Y-123843896D01*
X125368838Y-123838938D01*
X125368838Y-123655343D01*
X125372265Y-123647070D01*
X125376547Y-123644345D01*
X125891785Y-123457532D01*
X125900729Y-123457933D01*
G37*
%TD.AperFunction*%
%TD*%
%TA.AperFunction,Conductor*%
%TO.N,/VBUS_IN*%
G36*
X131984953Y-124769946D02*
G01*
X131992381Y-124774945D01*
X131994100Y-124783733D01*
X131993789Y-124784937D01*
X131831057Y-125300060D01*
X131825297Y-125306917D01*
X131819900Y-125308236D01*
X131587048Y-125308236D01*
X131578775Y-125304809D01*
X131575891Y-125300060D01*
X131413158Y-124784937D01*
X131413934Y-124776016D01*
X131420791Y-124770256D01*
X131421974Y-124769950D01*
X131701156Y-124713469D01*
X131705792Y-124713469D01*
X131984953Y-124769946D01*
G37*
%TD.AperFunction*%
%TD*%
%TA.AperFunction,Conductor*%
%TO.N,Net-(IC2-EN)*%
G36*
X129732162Y-108272586D02*
G01*
X129733672Y-108273435D01*
X129970534Y-108430584D01*
X129973815Y-108433865D01*
X130130964Y-108670727D01*
X130132683Y-108679515D01*
X130127683Y-108686944D01*
X130126173Y-108687793D01*
X129629753Y-108920022D01*
X129620807Y-108920423D01*
X129616522Y-108917697D01*
X129486702Y-108787877D01*
X129483275Y-108779604D01*
X129484375Y-108774651D01*
X129716606Y-108278225D01*
X129723216Y-108272185D01*
X129732162Y-108272586D01*
G37*
%TD.AperFunction*%
%TD*%
%TA.AperFunction,Conductor*%
%TO.N,/CC2*%
G36*
X133699036Y-124958727D02*
G01*
X133700546Y-124959576D01*
X133937408Y-125116725D01*
X133940689Y-125120006D01*
X134097838Y-125356868D01*
X134099557Y-125365656D01*
X134094557Y-125373085D01*
X134093047Y-125373934D01*
X133596627Y-125606163D01*
X133587681Y-125606564D01*
X133583396Y-125603838D01*
X133453576Y-125474018D01*
X133450149Y-125465745D01*
X133451249Y-125460792D01*
X133683480Y-124964366D01*
X133690090Y-124958326D01*
X133699036Y-124958727D01*
G37*
%TD.AperFunction*%
%TD*%
%TA.AperFunction,Conductor*%
%TO.N,/PD_VOUT*%
G36*
X113159173Y-122216532D02*
G01*
X113162057Y-122221281D01*
X113324789Y-122736403D01*
X113324013Y-122745324D01*
X113317156Y-122751084D01*
X113315952Y-122751395D01*
X113036794Y-122807871D01*
X113032154Y-122807871D01*
X112799027Y-122760707D01*
X112752994Y-122751394D01*
X112745566Y-122746395D01*
X112743847Y-122737607D01*
X112744154Y-122736416D01*
X112906891Y-122221280D01*
X112912651Y-122214424D01*
X112918048Y-122213105D01*
X113150900Y-122213105D01*
X113159173Y-122216532D01*
G37*
%TD.AperFunction*%
%TD*%
%TA.AperFunction,Conductor*%
%TO.N,/USB_PD/VBUS_MIN*%
G36*
X120867562Y-123587127D02*
G01*
X120869072Y-123587976D01*
X121105934Y-123745125D01*
X121109215Y-123748406D01*
X121266364Y-123985268D01*
X121268083Y-123994056D01*
X121263083Y-124001485D01*
X121261573Y-124002334D01*
X120765153Y-124234563D01*
X120756207Y-124234964D01*
X120751922Y-124232238D01*
X120622102Y-124102418D01*
X120618675Y-124094145D01*
X120619775Y-124089192D01*
X120852006Y-123592766D01*
X120858616Y-123586726D01*
X120867562Y-123587127D01*
G37*
%TD.AperFunction*%
%TD*%
%TA.AperFunction,Conductor*%
%TO.N,/USB_PD/PD_SCL*%
G36*
X134413305Y-126355791D02*
G01*
X134543107Y-126485593D01*
X134546534Y-126493866D01*
X134545192Y-126499307D01*
X134294308Y-126976901D01*
X134287427Y-126982632D01*
X134278509Y-126981818D01*
X134277487Y-126981212D01*
X134150371Y-126896875D01*
X134040106Y-126823718D01*
X134036825Y-126820437D01*
X133880023Y-126584098D01*
X133878304Y-126575310D01*
X133883304Y-126567881D01*
X133885282Y-126566827D01*
X134400552Y-126353255D01*
X134409507Y-126353254D01*
X134413305Y-126355791D01*
G37*
%TD.AperFunction*%
%TD*%
%TA.AperFunction,Conductor*%
%TO.N,/USB_PD/VBUS_MIN*%
G36*
X121178482Y-123457530D02*
G01*
X121693725Y-123644345D01*
X121700334Y-123650385D01*
X121701436Y-123655343D01*
X121701436Y-123838938D01*
X121698009Y-123847211D01*
X121693724Y-123849937D01*
X121593324Y-123886340D01*
X121589336Y-123887041D01*
X121477178Y-123887041D01*
X121400755Y-123907518D01*
X121400751Y-123907520D01*
X121332235Y-123947078D01*
X121332230Y-123947082D01*
X121280848Y-123998463D01*
X121276563Y-124001189D01*
X121178490Y-124036749D01*
X121169544Y-124036348D01*
X121163503Y-124029738D01*
X121163037Y-124028080D01*
X121106669Y-123749459D01*
X121106669Y-123744821D01*
X121163035Y-123466208D01*
X121168034Y-123458782D01*
X121176822Y-123457063D01*
X121178482Y-123457530D01*
G37*
%TD.AperFunction*%
%TD*%
%TA.AperFunction,Conductor*%
%TO.N,/USB_PD/VBUS_FET_EN*%
G36*
X124241614Y-124090120D02*
G01*
X124747460Y-124184405D01*
X124754965Y-124189290D01*
X124756818Y-124198051D01*
X124756799Y-124198152D01*
X124702473Y-124476013D01*
X124697522Y-124483475D01*
X124697472Y-124483508D01*
X124461151Y-124640782D01*
X124452365Y-124642513D01*
X124444929Y-124637524D01*
X124444727Y-124637210D01*
X124229533Y-124290374D01*
X124227775Y-124284206D01*
X124227775Y-124101623D01*
X124231202Y-124093350D01*
X124239475Y-124089923D01*
X124241614Y-124090120D01*
G37*
%TD.AperFunction*%
%TD*%
%TA.AperFunction,Conductor*%
%TO.N,Net-(IC2-EN)*%
G36*
X127272425Y-110149589D02*
G01*
X127787668Y-110336404D01*
X127794277Y-110342444D01*
X127795379Y-110347402D01*
X127795379Y-110530997D01*
X127791952Y-110539270D01*
X127787667Y-110541996D01*
X127272433Y-110728808D01*
X127263487Y-110728407D01*
X127257446Y-110721797D01*
X127256980Y-110720139D01*
X127200612Y-110441518D01*
X127200612Y-110436880D01*
X127256978Y-110158267D01*
X127261977Y-110150841D01*
X127270765Y-110149122D01*
X127272425Y-110149589D01*
G37*
%TD.AperFunction*%
%TD*%
%TA.AperFunction,Conductor*%
%TO.N,/CC1*%
G36*
X133958464Y-123783318D02*
G01*
X134473703Y-123970278D01*
X134480310Y-123976320D01*
X134481411Y-123981275D01*
X134481411Y-124164870D01*
X134477984Y-124173143D01*
X134473696Y-124175870D01*
X133958463Y-124362535D01*
X133949518Y-124362131D01*
X133943478Y-124355520D01*
X133943010Y-124353855D01*
X133906450Y-124173143D01*
X133886644Y-124075241D01*
X133886644Y-124070603D01*
X133905719Y-123976320D01*
X133943009Y-123791996D01*
X133948009Y-123784568D01*
X133956797Y-123782849D01*
X133958464Y-123783318D01*
G37*
%TD.AperFunction*%
%TD*%
%TA.AperFunction,Conductor*%
%TO.N,/USB_PD/PD_3V3*%
G36*
X127755407Y-122621833D02*
G01*
X127756474Y-122622462D01*
X127982493Y-122772418D01*
X127993808Y-122779925D01*
X127997089Y-122783206D01*
X128154549Y-123020536D01*
X128156268Y-123029324D01*
X128151268Y-123036753D01*
X128150197Y-123037385D01*
X127670880Y-123286562D01*
X127661959Y-123287338D01*
X127657210Y-123284454D01*
X127492559Y-123119803D01*
X127489132Y-123111530D01*
X127490450Y-123106137D01*
X127739631Y-122626815D01*
X127746486Y-122621057D01*
X127755407Y-122621833D01*
G37*
%TD.AperFunction*%
%TD*%
%TA.AperFunction,Conductor*%
%TO.N,/CC2*%
G36*
X126149944Y-143836048D02*
G01*
X126152670Y-143840333D01*
X126339483Y-144355566D01*
X126339082Y-144364512D01*
X126332472Y-144370553D01*
X126330804Y-144371022D01*
X126052195Y-144427387D01*
X126047555Y-144427387D01*
X125768945Y-144371022D01*
X125761516Y-144366022D01*
X125759797Y-144357234D01*
X125760262Y-144355577D01*
X125947078Y-143840333D01*
X125953119Y-143833723D01*
X125958077Y-143832621D01*
X126141671Y-143832621D01*
X126149944Y-143836048D01*
G37*
%TD.AperFunction*%
%TD*%
%TA.AperFunction,Conductor*%
%TO.N,/BOOST_24V_OUT*%
G36*
X140406395Y-110019407D02*
G01*
X140659504Y-110262255D01*
X140663101Y-110270456D01*
X140661144Y-110277180D01*
X140502600Y-110515408D01*
X140495164Y-110520397D01*
X140495105Y-110520409D01*
X140218345Y-110574519D01*
X140209568Y-110572743D01*
X140204617Y-110565281D01*
X140204452Y-110564141D01*
X140154201Y-110028943D01*
X140156840Y-110020386D01*
X140164756Y-110016201D01*
X140165850Y-110016150D01*
X140398295Y-110016150D01*
X140406395Y-110019407D01*
G37*
%TD.AperFunction*%
%TD*%
%TA.AperFunction,Conductor*%
%TO.N,/CC2*%
G36*
X134380002Y-124670381D02*
G01*
X134385760Y-124677239D01*
X134386302Y-124680760D01*
X134386302Y-124862181D01*
X134385186Y-124867168D01*
X134193893Y-125273147D01*
X134187267Y-125279170D01*
X134178322Y-125278744D01*
X134176827Y-125277900D01*
X134169685Y-125273147D01*
X134105191Y-125230225D01*
X133941738Y-125121445D01*
X133936749Y-125114009D01*
X133936737Y-125113950D01*
X133882152Y-124834762D01*
X133883928Y-124825985D01*
X133890111Y-124821360D01*
X134371082Y-124669602D01*
X134380002Y-124670381D01*
G37*
%TD.AperFunction*%
%TD*%
%TA.AperFunction,Conductor*%
%TO.N,/USB_PD_Boost/+USB_PD*%
G36*
X126372425Y-109245766D02*
G01*
X126887668Y-109432581D01*
X126894277Y-109438621D01*
X126895379Y-109443579D01*
X126895379Y-109627174D01*
X126891952Y-109635447D01*
X126887667Y-109638173D01*
X126372433Y-109824985D01*
X126363487Y-109824584D01*
X126357446Y-109817974D01*
X126356980Y-109816316D01*
X126300612Y-109537695D01*
X126300612Y-109533057D01*
X126356978Y-109254444D01*
X126361977Y-109247018D01*
X126370765Y-109245299D01*
X126372425Y-109245766D01*
G37*
%TD.AperFunction*%
%TD*%
%TA.AperFunction,Conductor*%
%TO.N,/USB_PD/PD_3V3*%
G36*
X132608237Y-129928505D02*
G01*
X132611661Y-129936510D01*
X132622486Y-130409820D01*
X132619249Y-130418170D01*
X132613109Y-130421556D01*
X132333263Y-130478171D01*
X132324475Y-130476452D01*
X132324416Y-130476413D01*
X132089131Y-130318258D01*
X132084177Y-130310799D01*
X132085948Y-130302021D01*
X132086189Y-130301676D01*
X132357894Y-129929874D01*
X132365542Y-129925217D01*
X132367340Y-129925078D01*
X132599964Y-129925078D01*
X132608237Y-129928505D01*
G37*
%TD.AperFunction*%
%TD*%
%TA.AperFunction,Conductor*%
%TO.N,/USB_PD/PD_1V8*%
G36*
X128117277Y-120469702D02*
G01*
X128247097Y-120599522D01*
X128250524Y-120607795D01*
X128249422Y-120612753D01*
X128017193Y-121109173D01*
X128010583Y-121115214D01*
X128001637Y-121114813D01*
X128000127Y-121113964D01*
X127763265Y-120956815D01*
X127759984Y-120953534D01*
X127602835Y-120716672D01*
X127601116Y-120707884D01*
X127606116Y-120700455D01*
X127607621Y-120699608D01*
X128104048Y-120467376D01*
X128112992Y-120466976D01*
X128117277Y-120469702D01*
G37*
%TD.AperFunction*%
%TD*%
%TA.AperFunction,Conductor*%
%TO.N,/PD_VOUT*%
G36*
X110551279Y-117400518D02*
G01*
X111030597Y-117649697D01*
X111036357Y-117656553D01*
X111035581Y-117665474D01*
X111034949Y-117666545D01*
X110877489Y-117903875D01*
X110874208Y-117907156D01*
X110636878Y-118064616D01*
X110628090Y-118066335D01*
X110620661Y-118061335D01*
X110620034Y-118060273D01*
X110370851Y-117580947D01*
X110370076Y-117572028D01*
X110372958Y-117567281D01*
X110537613Y-117402626D01*
X110545885Y-117399200D01*
X110551279Y-117400518D01*
G37*
%TD.AperFunction*%
%TD*%
%TA.AperFunction,Conductor*%
%TO.N,Net-(IC2-COMP)*%
G36*
X140142572Y-83395125D02*
G01*
X140143509Y-83395886D01*
X141233970Y-84378578D01*
X141237821Y-84386662D01*
X141236553Y-84392597D01*
X140489059Y-85853952D01*
X140482241Y-85859757D01*
X140478643Y-85860324D01*
X140291345Y-85860324D01*
X140283072Y-85856897D01*
X140282289Y-85856031D01*
X139928435Y-85423402D01*
X139257575Y-84603196D01*
X139254990Y-84594625D01*
X139257179Y-84588896D01*
X140126225Y-83397680D01*
X140133868Y-83393017D01*
X140142572Y-83395125D01*
G37*
%TD.AperFunction*%
%TD*%
%TA.AperFunction,Conductor*%
%TO.N,/USB_PD/PD_3V3*%
G36*
X125602203Y-124295022D02*
G01*
X126117334Y-124457758D01*
X126124191Y-124463518D01*
X126125510Y-124468915D01*
X126125510Y-124701766D01*
X126122083Y-124710039D01*
X126117334Y-124712923D01*
X125602211Y-124875656D01*
X125593290Y-124874880D01*
X125587530Y-124868023D01*
X125587223Y-124866835D01*
X125530743Y-124587659D01*
X125530743Y-124583021D01*
X125553828Y-124468915D01*
X125587220Y-124303859D01*
X125592219Y-124296433D01*
X125601007Y-124294714D01*
X125602203Y-124295022D01*
G37*
%TD.AperFunction*%
%TD*%
%TA.AperFunction,Conductor*%
%TO.N,/VBUS_IN*%
G36*
X115219686Y-126537346D02*
G01*
X115220318Y-126538417D01*
X115469495Y-127017732D01*
X115470271Y-127026653D01*
X115467387Y-127031402D01*
X115302735Y-127196054D01*
X115294462Y-127199481D01*
X115289065Y-127198162D01*
X114809750Y-126948985D01*
X114803990Y-126942128D01*
X114804766Y-126933207D01*
X114805390Y-126932148D01*
X114962859Y-126694804D01*
X114966137Y-126691526D01*
X115203470Y-126534064D01*
X115212257Y-126532346D01*
X115219686Y-126537346D01*
G37*
%TD.AperFunction*%
%TD*%
%TA.AperFunction,Conductor*%
%TO.N,/PD_VOUT*%
G36*
X113289286Y-126222946D02*
G01*
X113289918Y-126224017D01*
X113539095Y-126703332D01*
X113539871Y-126712253D01*
X113536987Y-126717002D01*
X113372335Y-126881654D01*
X113364062Y-126885081D01*
X113358665Y-126883762D01*
X112879350Y-126634585D01*
X112873590Y-126627728D01*
X112874366Y-126618807D01*
X112874990Y-126617748D01*
X113032459Y-126380404D01*
X113035737Y-126377126D01*
X113273070Y-126219664D01*
X113281857Y-126217946D01*
X113289286Y-126222946D01*
G37*
%TD.AperFunction*%
%TD*%
%TA.AperFunction,Conductor*%
%TO.N,/CC1*%
G36*
X133647537Y-123912909D02*
G01*
X133649049Y-123913759D01*
X133885909Y-124070907D01*
X133889190Y-124074188D01*
X134046341Y-124311052D01*
X134048060Y-124319840D01*
X134043060Y-124327269D01*
X134041552Y-124328117D01*
X133545204Y-124560419D01*
X133536258Y-124560822D01*
X133531971Y-124558095D01*
X133402151Y-124428275D01*
X133398724Y-124420002D01*
X133399823Y-124415050D01*
X133631983Y-123918551D01*
X133638591Y-123912509D01*
X133647537Y-123912909D01*
G37*
%TD.AperFunction*%
%TD*%
%TA.AperFunction,Conductor*%
%TO.N,Net-(IC2-COMP)*%
G36*
X137194716Y-111005945D02*
G01*
X137197442Y-111010230D01*
X137384254Y-111525463D01*
X137383853Y-111534409D01*
X137377243Y-111540450D01*
X137375575Y-111540919D01*
X137096966Y-111597284D01*
X137092326Y-111597284D01*
X136813716Y-111540919D01*
X136806287Y-111535919D01*
X136804568Y-111527131D01*
X136805033Y-111525474D01*
X136991850Y-111010230D01*
X136997891Y-111003620D01*
X137002849Y-111002518D01*
X137186443Y-111002518D01*
X137194716Y-111005945D01*
G37*
%TD.AperFunction*%
%TD*%
%TA.AperFunction,Conductor*%
%TO.N,/USB_PD_Boost/+USB_PD*%
G36*
X129655962Y-107358186D02*
G01*
X129657472Y-107359035D01*
X129894334Y-107516184D01*
X129897615Y-107519465D01*
X130054764Y-107756327D01*
X130056483Y-107765115D01*
X130051483Y-107772544D01*
X130049973Y-107773393D01*
X129553553Y-108005622D01*
X129544607Y-108006023D01*
X129540322Y-108003297D01*
X129410502Y-107873477D01*
X129407075Y-107865204D01*
X129408175Y-107860251D01*
X129640406Y-107363825D01*
X129647016Y-107357785D01*
X129655962Y-107358186D01*
G37*
%TD.AperFunction*%
%TD*%
%TA.AperFunction,Conductor*%
%TO.N,/USB_PD/PD_GPIO_1*%
G36*
X127979805Y-128588330D02*
G01*
X128495048Y-128775145D01*
X128501657Y-128781185D01*
X128502759Y-128786143D01*
X128502759Y-128969738D01*
X128499332Y-128978011D01*
X128495047Y-128980737D01*
X127979813Y-129167549D01*
X127970867Y-129167148D01*
X127964826Y-129160538D01*
X127964360Y-129158880D01*
X127907992Y-128880259D01*
X127907992Y-128875621D01*
X127964358Y-128597008D01*
X127969357Y-128589582D01*
X127978145Y-128587863D01*
X127979805Y-128588330D01*
G37*
%TD.AperFunction*%
%TD*%
%TA.AperFunction,Conductor*%
%TO.N,/USB_PD/ISINK_COARSE*%
G36*
X122783156Y-124498930D02*
G01*
X123298399Y-124685745D01*
X123305008Y-124691785D01*
X123306110Y-124696743D01*
X123306110Y-124880338D01*
X123302683Y-124888611D01*
X123298398Y-124891337D01*
X122783164Y-125078149D01*
X122774218Y-125077748D01*
X122768177Y-125071138D01*
X122767711Y-125069480D01*
X122711343Y-124790859D01*
X122711343Y-124786221D01*
X122767709Y-124507608D01*
X122772708Y-124500182D01*
X122781496Y-124498463D01*
X122783156Y-124498930D01*
G37*
%TD.AperFunction*%
%TD*%
%TA.AperFunction,Conductor*%
%TO.N,Net-(IC2-SS)*%
G36*
X132610849Y-82645051D02*
G01*
X133294811Y-83387493D01*
X133669620Y-83794348D01*
X133672705Y-83802754D01*
X133669288Y-83810548D01*
X133537187Y-83942649D01*
X133534055Y-83944886D01*
X132209695Y-84592713D01*
X132200758Y-84593270D01*
X132195099Y-84589094D01*
X131327215Y-83397961D01*
X131325114Y-83389258D01*
X131329782Y-83381617D01*
X131330765Y-83380974D01*
X132596352Y-82642870D01*
X132605223Y-82641664D01*
X132610849Y-82645051D01*
G37*
%TD.AperFunction*%
%TD*%
%TA.AperFunction,Conductor*%
%TO.N,/USB_PD/ISINK_COARSE*%
G36*
X122708097Y-124787594D02*
G01*
X122715546Y-124792565D01*
X122715568Y-124792598D01*
X122870832Y-125026369D01*
X122872555Y-125035156D01*
X122867559Y-125042588D01*
X122865771Y-125043563D01*
X122303047Y-125289440D01*
X122294093Y-125289613D01*
X122287641Y-125283404D01*
X122286662Y-125278719D01*
X122286662Y-125098628D01*
X122287344Y-125094691D01*
X122308615Y-125035156D01*
X122414243Y-124739515D01*
X122420254Y-124732879D01*
X122427535Y-124731976D01*
X122708097Y-124787594D01*
G37*
%TD.AperFunction*%
%TD*%
%TA.AperFunction,Conductor*%
%TO.N,/PD_VOUT*%
G36*
X130782761Y-128057779D02*
G01*
X130786270Y-128064035D01*
X130842857Y-128343739D01*
X130841138Y-128352527D01*
X130841099Y-128352586D01*
X130682836Y-128588030D01*
X130675377Y-128592984D01*
X130666599Y-128591213D01*
X130666374Y-128591058D01*
X130291716Y-128326331D01*
X130286937Y-128318759D01*
X130286768Y-128316776D01*
X130286768Y-128084107D01*
X130290195Y-128075834D01*
X130298031Y-128072415D01*
X130774366Y-128054663D01*
X130782761Y-128057779D01*
G37*
%TD.AperFunction*%
%TD*%
%TA.AperFunction,Conductor*%
%TO.N,/CC1*%
G36*
X123862698Y-144184666D02*
G01*
X123869085Y-144187940D01*
X123998474Y-144317329D01*
X124001901Y-144325602D01*
X123998474Y-144333875D01*
X123997390Y-144334833D01*
X123585015Y-144655986D01*
X123576382Y-144658366D01*
X123568595Y-144653944D01*
X123568119Y-144653287D01*
X123410468Y-144419007D01*
X123408692Y-144410231D01*
X123464755Y-144131076D01*
X123469744Y-144123641D01*
X123478111Y-144121834D01*
X123862698Y-144184666D01*
G37*
%TD.AperFunction*%
%TD*%
%TA.AperFunction,Conductor*%
%TO.N,/USB_PD/SAFE_PWR_EN*%
G36*
X124541523Y-125978447D02*
G01*
X124852287Y-126123824D01*
X125037947Y-126210677D01*
X125043988Y-126217287D01*
X125043587Y-126226233D01*
X125042738Y-126227743D01*
X124885589Y-126464605D01*
X124882308Y-126467886D01*
X124645446Y-126625035D01*
X124636658Y-126626754D01*
X124629229Y-126621754D01*
X124628380Y-126620244D01*
X124555571Y-126464605D01*
X124396150Y-126123822D01*
X124395750Y-126114878D01*
X124398474Y-126110595D01*
X124528297Y-125980772D01*
X124536569Y-125977346D01*
X124541523Y-125978447D01*
G37*
%TD.AperFunction*%
%TD*%
%TA.AperFunction,Conductor*%
%TO.N,/PD_VOUT*%
G36*
X111130286Y-117748946D02*
G01*
X111130918Y-117750017D01*
X111380095Y-118229332D01*
X111380871Y-118238253D01*
X111377987Y-118243002D01*
X111213335Y-118407654D01*
X111205062Y-118411081D01*
X111199665Y-118409762D01*
X110720350Y-118160585D01*
X110714590Y-118153728D01*
X110715366Y-118144807D01*
X110715990Y-118143748D01*
X110873459Y-117906404D01*
X110876737Y-117903126D01*
X111114070Y-117745664D01*
X111122857Y-117743946D01*
X111130286Y-117748946D01*
G37*
%TD.AperFunction*%
%TD*%
%TA.AperFunction,Conductor*%
%TO.N,Net-(IC2-EN)*%
G36*
X130226144Y-108276716D02*
G01*
X130226993Y-108278226D01*
X130298880Y-108431893D01*
X130418591Y-108687793D01*
X130459222Y-108774646D01*
X130459623Y-108783592D01*
X130456897Y-108787877D01*
X130327077Y-108917697D01*
X130318804Y-108921124D01*
X130313847Y-108920022D01*
X130163228Y-108849561D01*
X129817426Y-108687793D01*
X129811385Y-108681183D01*
X129811786Y-108672237D01*
X129812635Y-108670727D01*
X129969785Y-108433863D01*
X129973063Y-108430585D01*
X130209927Y-108273434D01*
X130218715Y-108271716D01*
X130226144Y-108276716D01*
G37*
%TD.AperFunction*%
%TD*%
%TA.AperFunction,Conductor*%
%TO.N,/USB_PD/PD_FAULT*%
G36*
X129925818Y-130398457D02*
G01*
X129926667Y-130399967D01*
X129998554Y-130553634D01*
X130118265Y-130809534D01*
X130158896Y-130896387D01*
X130159297Y-130905333D01*
X130156571Y-130909618D01*
X130026751Y-131039438D01*
X130018478Y-131042865D01*
X130013521Y-131041763D01*
X129862902Y-130971302D01*
X129517100Y-130809534D01*
X129511059Y-130802924D01*
X129511460Y-130793978D01*
X129512309Y-130792468D01*
X129669459Y-130555604D01*
X129672737Y-130552326D01*
X129909601Y-130395175D01*
X129918389Y-130393457D01*
X129925818Y-130398457D01*
G37*
%TD.AperFunction*%
%TD*%
%TA.AperFunction,Conductor*%
%TO.N,/USB_PD/PD_3V3*%
G36*
X125786086Y-124429146D02*
G01*
X125786718Y-124430217D01*
X126035895Y-124909532D01*
X126036671Y-124918453D01*
X126033787Y-124923202D01*
X125869135Y-125087854D01*
X125860862Y-125091281D01*
X125855465Y-125089962D01*
X125376150Y-124840785D01*
X125370390Y-124833928D01*
X125371166Y-124825007D01*
X125371790Y-124823948D01*
X125529259Y-124586604D01*
X125532537Y-124583326D01*
X125769870Y-124425864D01*
X125778657Y-124424146D01*
X125786086Y-124429146D01*
G37*
%TD.AperFunction*%
%TD*%
%TA.AperFunction,Conductor*%
%TO.N,Net-(IC2-FB)*%
G36*
X138810677Y-109674702D02*
G01*
X138940497Y-109804522D01*
X138943924Y-109812795D01*
X138942822Y-109817753D01*
X138710593Y-110314173D01*
X138703983Y-110320214D01*
X138695037Y-110319813D01*
X138693527Y-110318964D01*
X138456665Y-110161815D01*
X138453384Y-110158534D01*
X138296235Y-109921672D01*
X138294516Y-109912884D01*
X138299516Y-109905455D01*
X138301021Y-109904608D01*
X138797448Y-109672376D01*
X138806392Y-109671976D01*
X138810677Y-109674702D01*
G37*
%TD.AperFunction*%
%TD*%
%TA.AperFunction,Conductor*%
%TO.N,/PD_5V_OUT*%
G36*
X113979671Y-129200433D02*
G01*
X113980738Y-129201062D01*
X114206757Y-129351018D01*
X114218072Y-129358525D01*
X114221353Y-129361806D01*
X114378813Y-129599136D01*
X114380532Y-129607924D01*
X114375532Y-129615353D01*
X114374461Y-129615985D01*
X113895146Y-129865162D01*
X113886225Y-129865938D01*
X113881476Y-129863054D01*
X113716824Y-129698402D01*
X113713397Y-129690129D01*
X113714715Y-129684735D01*
X113963895Y-129205415D01*
X113970750Y-129199657D01*
X113979671Y-129200433D01*
G37*
%TD.AperFunction*%
%TD*%
M02*
