%TF.GenerationSoftware,KiCad,Pcbnew,9.0.5*%
%TF.CreationDate,2026-05-29T23:24:00-05:00*%
%TF.ProjectId,USB_PD_Boost_TestBoard,5553425f-5044-45f4-926f-6f73745f5465,rev?*%
%TF.SameCoordinates,Original*%
%TF.FileFunction,Soldermask,Top*%
%TF.FilePolarity,Negative*%
%FSLAX46Y46*%
G04 Gerber Fmt 4.6, Leading zero omitted, Abs format (unit mm)*
G04 Created by KiCad (PCBNEW 9.0.5) date 2026-05-29 23:24:00*
%MOMM*%
%LPD*%
G01*
G04 APERTURE LIST*
G04 Aperture macros list*
%AMRoundRect*
0 Rectangle with rounded corners*
0 $1 Rounding radius*
0 $2 $3 $4 $5 $6 $7 $8 $9 X,Y pos of 4 corners*
0 Add a 4 corners polygon primitive as box body*
4,1,4,$2,$3,$4,$5,$6,$7,$8,$9,$2,$3,0*
0 Add four circle primitives for the rounded corners*
1,1,$1+$1,$2,$3*
1,1,$1+$1,$4,$5*
1,1,$1+$1,$6,$7*
1,1,$1+$1,$8,$9*
0 Add four rect primitives between the rounded corners*
20,1,$1+$1,$2,$3,$4,$5,0*
20,1,$1+$1,$4,$5,$6,$7,0*
20,1,$1+$1,$6,$7,$8,$9,0*
20,1,$1+$1,$8,$9,$2,$3,0*%
G04 Aperture macros list end*
%ADD10C,0.010000*%
%ADD11C,0.000000*%
%ADD12RoundRect,0.237500X-0.300000X-0.237500X0.300000X-0.237500X0.300000X0.237500X-0.300000X0.237500X0*%
%ADD13RoundRect,0.237500X-0.287500X-0.237500X0.287500X-0.237500X0.287500X0.237500X-0.287500X0.237500X0*%
%ADD14R,1.700000X1.700000*%
%ADD15RoundRect,0.237500X0.237500X-0.250000X0.237500X0.250000X-0.237500X0.250000X-0.237500X-0.250000X0*%
%ADD16C,8.115000*%
%ADD17RoundRect,0.237500X-0.250000X-0.237500X0.250000X-0.237500X0.250000X0.237500X-0.250000X0.237500X0*%
%ADD18RoundRect,0.200000X0.200000X0.275000X-0.200000X0.275000X-0.200000X-0.275000X0.200000X-0.275000X0*%
%ADD19RoundRect,0.237500X0.250000X0.237500X-0.250000X0.237500X-0.250000X-0.237500X0.250000X-0.237500X0*%
%ADD20R,1.270000X0.610000*%
%ADD21R,0.710000X0.610000*%
%ADD22R,3.810000X1.650000*%
%ADD23R,0.310000X0.230000*%
%ADD24C,1.700000*%
%ADD25C,3.600000*%
%ADD26C,5.600000*%
%ADD27RoundRect,0.250000X-0.475000X0.250000X-0.475000X-0.250000X0.475000X-0.250000X0.475000X0.250000X0*%
%ADD28RoundRect,0.237500X0.287500X0.237500X-0.287500X0.237500X-0.287500X-0.237500X0.287500X-0.237500X0*%
%ADD29C,3.000000*%
%ADD30RoundRect,0.102000X-2.115000X-1.200000X2.115000X-1.200000X2.115000X1.200000X-2.115000X1.200000X0*%
%ADD31RoundRect,0.200000X-0.200000X-0.275000X0.200000X-0.275000X0.200000X0.275000X-0.200000X0.275000X0*%
%ADD32RoundRect,0.250000X0.900000X-1.000000X0.900000X1.000000X-0.900000X1.000000X-0.900000X-1.000000X0*%
%ADD33RoundRect,0.237500X-0.237500X0.250000X-0.237500X-0.250000X0.237500X-0.250000X0.237500X0.250000X0*%
%ADD34RoundRect,0.225000X-0.250000X0.225000X-0.250000X-0.225000X0.250000X-0.225000X0.250000X0.225000X0*%
%ADD35RoundRect,0.225000X-0.225000X-0.250000X0.225000X-0.250000X0.225000X0.250000X-0.225000X0.250000X0*%
%ADD36RoundRect,0.225000X0.225000X0.250000X-0.225000X0.250000X-0.225000X-0.250000X0.225000X-0.250000X0*%
%ADD37C,2.400000*%
%ADD38RoundRect,0.237500X-0.237500X0.287500X-0.237500X-0.287500X0.237500X-0.287500X0.237500X0.287500X0*%
%ADD39RoundRect,0.237500X-0.237500X0.300000X-0.237500X-0.300000X0.237500X-0.300000X0.237500X0.300000X0*%
%ADD40R,0.750000X0.300000*%
%ADD41R,0.300000X0.750000*%
%ADD42R,2.850000X2.850000*%
%ADD43RoundRect,0.250000X-1.000000X-0.900000X1.000000X-0.900000X1.000000X0.900000X-1.000000X0.900000X0*%
%ADD44RoundRect,0.150000X-0.150000X0.587500X-0.150000X-0.587500X0.150000X-0.587500X0.150000X0.587500X0*%
%ADD45R,3.100000X2.200000*%
%ADD46RoundRect,0.250000X0.475000X-0.337500X0.475000X0.337500X-0.475000X0.337500X-0.475000X-0.337500X0*%
%ADD47RoundRect,0.150000X-0.150000X-0.425000X0.150000X-0.425000X0.150000X0.425000X-0.150000X0.425000X0*%
%ADD48RoundRect,0.075000X-0.075000X-0.500000X0.075000X-0.500000X0.075000X0.500000X-0.075000X0.500000X0*%
%ADD49O,1.000000X2.100000*%
%ADD50O,1.000000X1.800000*%
%ADD51R,4.750000X14.000000*%
%ADD52R,1.475000X0.450000*%
%ADD53R,2.460000X2.310000*%
G04 APERTURE END LIST*
D10*
%TO.C,R6*%
X174586100Y-125741375D02*
X170366100Y-125741375D01*
X170366100Y-124241375D01*
X163866100Y-124241375D01*
X163866100Y-116041375D01*
X170366100Y-116041375D01*
X170366100Y-114541375D01*
X174586100Y-114541375D01*
X174586100Y-125741375D01*
G36*
X174586100Y-125741375D02*
G01*
X170366100Y-125741375D01*
X170366100Y-124241375D01*
X163866100Y-124241375D01*
X163866100Y-116041375D01*
X170366100Y-116041375D01*
X170366100Y-114541375D01*
X174586100Y-114541375D01*
X174586100Y-125741375D01*
G37*
%TO.C,R7*%
X174586100Y-138291375D02*
X170366100Y-138291375D01*
X170366100Y-136791375D01*
X163866100Y-136791375D01*
X163866100Y-128591375D01*
X170366100Y-128591375D01*
X170366100Y-127091375D01*
X174586100Y-127091375D01*
X174586100Y-138291375D01*
G36*
X174586100Y-138291375D02*
G01*
X170366100Y-138291375D01*
X170366100Y-136791375D01*
X163866100Y-136791375D01*
X163866100Y-128591375D01*
X170366100Y-128591375D01*
X170366100Y-127091375D01*
X174586100Y-127091375D01*
X174586100Y-138291375D01*
G37*
D11*
%TO.C,LOGO1*%
G36*
X138091839Y-139167115D02*
G01*
X138117038Y-140301043D01*
X139137573Y-140314686D01*
X140158109Y-140328329D01*
X140158109Y-140579269D01*
X140158109Y-140830210D01*
X138821796Y-140830210D01*
X137485483Y-140830210D01*
X137498879Y-139431698D01*
X137512276Y-138033186D01*
X137789458Y-138033186D01*
X138066641Y-138033186D01*
X138091839Y-139167115D01*
G37*
G36*
X150956918Y-138680408D02*
G01*
X150956918Y-138907194D01*
X150175767Y-138907194D01*
X149394616Y-138907194D01*
X149394616Y-139159178D01*
X149394616Y-139411162D01*
X150175767Y-139411162D01*
X150956918Y-139411162D01*
X150956918Y-140116718D01*
X150956918Y-140822273D01*
X149948981Y-140822273D01*
X148941045Y-140822273D01*
X148941045Y-140595488D01*
X148941045Y-140368702D01*
X149722196Y-140368702D01*
X150503346Y-140368702D01*
X150503346Y-140116718D01*
X150503346Y-139864734D01*
X149722196Y-139864734D01*
X148941045Y-139864734D01*
X148941045Y-139159178D01*
X148941045Y-138453623D01*
X149948981Y-138453623D01*
X150956918Y-138453623D01*
X150956918Y-138680408D01*
G37*
G36*
X143967873Y-138017080D02*
G01*
X144164657Y-138033186D01*
X144178053Y-139431698D01*
X144191449Y-140830210D01*
X143864723Y-140830210D01*
X143537997Y-140830210D01*
X143523748Y-140263246D01*
X143509498Y-139696281D01*
X142415027Y-139682704D01*
X141320555Y-139669126D01*
X141306296Y-140237069D01*
X141292038Y-140805011D01*
X140976256Y-140820036D01*
X140660474Y-140835061D01*
X140673875Y-139434124D01*
X140687276Y-138033186D01*
X140943736Y-138018235D01*
X141142835Y-138023071D01*
X141251408Y-138065630D01*
X141256773Y-138071454D01*
X141282320Y-138148783D01*
X141305096Y-138301453D01*
X141321921Y-138504011D01*
X141327892Y-138640771D01*
X141342434Y-139141916D01*
X142425966Y-139141916D01*
X143509498Y-139141916D01*
X143523797Y-138600684D01*
X143533106Y-138342765D01*
X143552816Y-138169989D01*
X143594826Y-138066719D01*
X143671035Y-138017315D01*
X143793343Y-138006140D01*
X143967873Y-138017080D01*
G37*
G36*
X146197434Y-138013090D02*
G01*
X146520562Y-138016934D01*
X146988770Y-138025403D01*
X147366700Y-138038079D01*
X147664868Y-138059066D01*
X147893789Y-138092467D01*
X148063979Y-138142388D01*
X148185953Y-138212931D01*
X148270227Y-138308202D01*
X148327317Y-138432304D01*
X148367738Y-138589342D01*
X148396397Y-138749066D01*
X148406826Y-138951524D01*
X148383233Y-139174015D01*
X148332740Y-139382558D01*
X148262467Y-139543176D01*
X148218416Y-139598370D01*
X148154175Y-139664286D01*
X148154342Y-139716592D01*
X148221333Y-139796782D01*
X148230544Y-139806595D01*
X148286608Y-139881561D01*
X148323275Y-139978985D01*
X148346361Y-140123844D01*
X148361679Y-140341115D01*
X148363483Y-140377639D01*
X148385121Y-140830210D01*
X148051377Y-140830210D01*
X147717633Y-140830210D01*
X147717633Y-140534625D01*
X147705387Y-140327923D01*
X147662943Y-140184561D01*
X147613181Y-140106252D01*
X147508730Y-139973464D01*
X146554848Y-139973464D01*
X145600966Y-139973464D01*
X145600966Y-140401837D01*
X145600966Y-140830210D01*
X145273387Y-140830210D01*
X144945807Y-140830210D01*
X144945807Y-139445257D01*
X144945807Y-138982326D01*
X144945807Y-138562353D01*
X145600966Y-138562353D01*
X145600966Y-138982326D01*
X145605233Y-139179863D01*
X145616587Y-139337584D01*
X145632861Y-139429222D01*
X145638764Y-139440309D01*
X145698864Y-139451409D01*
X145843289Y-139459414D01*
X146055609Y-139463971D01*
X146319390Y-139464729D01*
X146618203Y-139461336D01*
X146619764Y-139461308D01*
X146956527Y-139454217D01*
X147207010Y-139445820D01*
X147385726Y-139434614D01*
X147507186Y-139419095D01*
X147585904Y-139397761D01*
X147636394Y-139369107D01*
X147652898Y-139354303D01*
X147718240Y-139236172D01*
X147742452Y-139044707D01*
X147742831Y-139009672D01*
X147732836Y-138840339D01*
X147694455Y-138733406D01*
X147623855Y-138658694D01*
X147573765Y-138624756D01*
X147509468Y-138599811D01*
X147415859Y-138582497D01*
X147277833Y-138571457D01*
X147080285Y-138565333D01*
X146808109Y-138562764D01*
X146552923Y-138562353D01*
X145600966Y-138562353D01*
X144945807Y-138562353D01*
X144945807Y-138060305D01*
X145071653Y-138028719D01*
X145154809Y-138020936D01*
X145323850Y-138015360D01*
X145563892Y-138012113D01*
X145860049Y-138011316D01*
X146197434Y-138013090D01*
G37*
D10*
%TO.C,R5*%
X174586100Y-113191375D02*
X170366100Y-113191375D01*
X170366100Y-111691375D01*
X163866100Y-111691375D01*
X163866100Y-103491375D01*
X170366100Y-103491375D01*
X170366100Y-101991375D01*
X174586100Y-101991375D01*
X174586100Y-113191375D01*
G36*
X174586100Y-113191375D02*
G01*
X170366100Y-113191375D01*
X170366100Y-111691375D01*
X163866100Y-111691375D01*
X163866100Y-103491375D01*
X170366100Y-103491375D01*
X170366100Y-101991375D01*
X174586100Y-101991375D01*
X174586100Y-113191375D01*
G37*
%TD*%
D12*
%TO.C,C3*%
X114219338Y-136993780D03*
X115944340Y-136993780D03*
%TD*%
D13*
%TO.C,D8*%
X133266874Y-133776461D03*
X135016874Y-133776461D03*
%TD*%
D14*
%TO.C,TP8*%
X97715646Y-118754136D03*
%TD*%
D15*
%TO.C,R19*%
X130703363Y-131624952D03*
X130703363Y-129799952D03*
%TD*%
D16*
%TO.C,J6*%
X169580849Y-93683330D03*
%TD*%
D17*
%TO.C,R8*%
X133049674Y-124026541D03*
X134874674Y-124026541D03*
%TD*%
D18*
%TO.C,R28*%
X141313131Y-111092791D03*
X139663131Y-111092791D03*
%TD*%
D19*
%TO.C,R21*%
X134874674Y-129251581D03*
X133049674Y-129251581D03*
%TD*%
D20*
%TO.C,Q1*%
X116599615Y-121083849D03*
X116599615Y-119813849D03*
X116599615Y-118543849D03*
X116599615Y-117273849D03*
D21*
X110979615Y-117273849D03*
X110979615Y-118543849D03*
X110979615Y-119813849D03*
X110979615Y-121083849D03*
D22*
X113239615Y-120333849D03*
X113239615Y-118023849D03*
D23*
X111489615Y-121273849D03*
X111489615Y-117083849D03*
%TD*%
D14*
%TO.C,J2*%
X142789946Y-126257315D03*
D24*
X142789946Y-128797315D03*
X142789946Y-131337315D03*
%TD*%
D25*
%TO.C,H2*%
X175945773Y-80856585D03*
D26*
X175945773Y-80856585D03*
%TD*%
D27*
%TO.C,C11*%
X123440695Y-105536820D03*
X123440695Y-107436818D03*
%TD*%
D28*
%TO.C,D2*%
X105348400Y-119864499D03*
X103598402Y-119864499D03*
%TD*%
D29*
%TO.C,TP26*%
X157761024Y-83388200D03*
%TD*%
D17*
%TO.C,R4*%
X163603300Y-82550000D03*
X165428300Y-82550000D03*
%TD*%
D30*
%TO.C,R6*%
X159601100Y-117601375D03*
X159601100Y-122681375D03*
%TD*%
D20*
%TO.C,Q2*%
X116583215Y-134215649D03*
X116583215Y-132945649D03*
X116583215Y-131675649D03*
X116583215Y-130405649D03*
D21*
X110963215Y-130405649D03*
X110963215Y-131675649D03*
X110963215Y-132945649D03*
X110963215Y-134215649D03*
D22*
X113223215Y-133465649D03*
X113223215Y-131155649D03*
D23*
X111473215Y-134405649D03*
X111473215Y-130215649D03*
%TD*%
D19*
%TO.C,R2*%
X105385901Y-118238899D03*
X103560901Y-118238899D03*
%TD*%
D31*
%TO.C,R26*%
X139650200Y-109296200D03*
X141300200Y-109296200D03*
%TD*%
D32*
%TO.C,D7*%
X121111674Y-134304542D03*
X121111674Y-130004540D03*
%TD*%
D14*
%TO.C,TP10*%
X97715646Y-129781496D03*
%TD*%
%TO.C,TP11*%
X97715646Y-135295176D03*
%TD*%
D29*
%TO.C,TP23*%
X140133871Y-83388200D03*
%TD*%
D14*
%TO.C,TP18*%
X142803274Y-119835541D03*
%TD*%
D33*
%TO.C,R17*%
X123625665Y-124758428D03*
X123625665Y-126583428D03*
%TD*%
D28*
%TO.C,D3*%
X105348400Y-133280265D03*
X103598402Y-133280265D03*
%TD*%
D15*
%TO.C,R15*%
X121808782Y-126583428D03*
X121808782Y-124758428D03*
%TD*%
D34*
%TO.C,C12*%
X128772457Y-105631159D03*
X128772457Y-107181159D03*
%TD*%
D14*
%TO.C,TP19*%
X129032000Y-135102600D03*
%TD*%
D12*
%TO.C,C7*%
X128882897Y-118105711D03*
X130607897Y-118105711D03*
%TD*%
D35*
%TO.C,C14*%
X135813800Y-112903000D03*
X137363800Y-112903000D03*
%TD*%
D14*
%TO.C,TP17*%
X135284874Y-119835541D03*
%TD*%
D31*
%TO.C,R25*%
X125551143Y-111244270D03*
X127201143Y-111244270D03*
%TD*%
D29*
%TO.C,TP25*%
X148947447Y-83388200D03*
%TD*%
D25*
%TO.C,H4*%
X175769314Y-146599009D03*
D26*
X175769314Y-146599009D03*
%TD*%
D14*
%TO.C,TP14*%
X133985166Y-145178808D03*
%TD*%
D36*
%TO.C,C15*%
X130582000Y-112903000D03*
X129032000Y-112903000D03*
%TD*%
D25*
%TO.C,H3*%
X97283981Y-146627253D03*
D26*
X97283981Y-146627253D03*
%TD*%
D37*
%TO.C,F1*%
X103014400Y-102645000D03*
X103014400Y-106045000D03*
X116484400Y-102645000D03*
X116484400Y-106045000D03*
%TD*%
D25*
%TO.C,H1*%
X97573552Y-80884829D03*
D26*
X97573552Y-80884829D03*
%TD*%
D14*
%TO.C,TP3*%
X105109566Y-83388200D03*
%TD*%
D29*
%TO.C,TP24*%
X142290800Y-90627200D03*
%TD*%
D34*
%TO.C,C19*%
X139541446Y-104131629D03*
X139541446Y-105681629D03*
%TD*%
D31*
%TO.C,R23*%
X125551143Y-109637720D03*
X127201143Y-109637720D03*
%TD*%
D19*
%TO.C,R20*%
X134874674Y-127509901D03*
X133049674Y-127509901D03*
%TD*%
D38*
%TO.C,D1*%
X139809766Y-144403509D03*
X139809766Y-146153507D03*
%TD*%
D39*
%TO.C,C6*%
X126922723Y-120073370D03*
X126922723Y-121798372D03*
%TD*%
D30*
%TO.C,R7*%
X159601100Y-130151375D03*
X159601100Y-135231375D03*
%TD*%
D12*
%TO.C,C5*%
X114219338Y-127553555D03*
X115944340Y-127553555D03*
%TD*%
D33*
%TO.C,R18*%
X124431815Y-116334049D03*
X124431815Y-118159049D03*
%TD*%
D27*
%TO.C,C17*%
X146053306Y-104096030D03*
X146053306Y-105996028D03*
%TD*%
D29*
%TO.C,TP22*%
X131320295Y-83388200D03*
%TD*%
D16*
%TO.C,J5*%
X157880849Y-93683330D03*
%TD*%
D19*
%TO.C,R12*%
X115991215Y-125619930D03*
X114166215Y-125619930D03*
%TD*%
D40*
%TO.C,IC1*%
X126783523Y-124364871D03*
X126783523Y-124864871D03*
X126783523Y-125364871D03*
X126783523Y-125864871D03*
X126783523Y-126364871D03*
X126783523Y-126864871D03*
D41*
X127533523Y-127614871D03*
X128033523Y-127614871D03*
X128533523Y-127614871D03*
X129033523Y-127614871D03*
X129533523Y-127614871D03*
X130033523Y-127614871D03*
D40*
X130783523Y-126864871D03*
X130783523Y-126364871D03*
X130783523Y-125864871D03*
X130783523Y-125364871D03*
X130783523Y-124864871D03*
X130783523Y-124364871D03*
D41*
X130033523Y-123614871D03*
X129533523Y-123614871D03*
X129033523Y-123614871D03*
X128533523Y-123614871D03*
X128033523Y-123614871D03*
X127533523Y-123614871D03*
D42*
X128783523Y-125614871D03*
%TD*%
D12*
%TO.C,C9*%
X128873880Y-121885520D03*
X130598880Y-121885520D03*
%TD*%
D43*
%TO.C,D5*%
X124854473Y-139846841D03*
X129154475Y-139846841D03*
%TD*%
D44*
%TO.C,Q3*%
X128678674Y-130103195D03*
X126778674Y-130103195D03*
X127728674Y-131978196D03*
%TD*%
D33*
%TO.C,R1*%
X137871366Y-144366008D03*
X137871366Y-146191008D03*
%TD*%
D45*
%TO.C,D9*%
X142336049Y-101470730D03*
X142336049Y-94470730D03*
%TD*%
D46*
%TO.C,C1*%
X121565963Y-139404292D03*
X121565963Y-137329292D03*
%TD*%
D33*
%TO.C,R10*%
X124381015Y-120349149D03*
X124381015Y-122174149D03*
%TD*%
D17*
%TO.C,R9*%
X133049674Y-125768221D03*
X134874674Y-125768221D03*
%TD*%
D12*
%TO.C,C4*%
X114219338Y-114678338D03*
X115944340Y-114678338D03*
%TD*%
D47*
%TO.C,J1*%
X121289874Y-143482041D03*
X122089874Y-143482041D03*
D48*
X123239874Y-143482042D03*
X124239874Y-143482041D03*
X124739874Y-143482041D03*
X125739874Y-143482042D03*
D47*
X126889874Y-143482041D03*
X127689874Y-143482041D03*
X127689874Y-143482041D03*
X126889874Y-143482041D03*
D48*
X126239874Y-143482041D03*
X125239874Y-143482041D03*
X123739874Y-143482041D03*
X122739874Y-143482041D03*
D47*
X122089874Y-143482041D03*
X121289874Y-143482041D03*
D49*
X120169874Y-144057041D03*
X128809874Y-144057041D03*
D50*
X128809874Y-148237041D03*
X120169874Y-148237041D03*
%TD*%
D13*
%TO.C,D4*%
X163640801Y-84304374D03*
X165390799Y-84304374D03*
%TD*%
D14*
%TO.C,TP13*%
X109114151Y-145173044D03*
%TD*%
%TO.C,TP16*%
X104593401Y-137822210D03*
%TD*%
D18*
%TO.C,R27*%
X134022900Y-112903000D03*
X132372900Y-112903000D03*
%TD*%
D17*
%TO.C,R22*%
X133226800Y-132054600D03*
X135051800Y-132054600D03*
%TD*%
D32*
%TO.C,D6*%
X121079015Y-121363249D03*
X121079015Y-117063247D03*
%TD*%
D12*
%TO.C,C2*%
X114219338Y-123768338D03*
X115944340Y-123768338D03*
%TD*%
D15*
%TO.C,R14*%
X119991899Y-126583428D03*
X119991899Y-124758428D03*
%TD*%
D27*
%TO.C,C10*%
X126124776Y-105536820D03*
X126124776Y-107436818D03*
%TD*%
D31*
%TO.C,R29*%
X139640236Y-112927736D03*
X141290236Y-112927736D03*
%TD*%
D15*
%TO.C,R11*%
X124482615Y-131232950D03*
X124482615Y-129407950D03*
%TD*%
D14*
%TO.C,TP1*%
X102886735Y-145178808D03*
%TD*%
D27*
%TO.C,C16*%
X148374166Y-104096030D03*
X148374166Y-105996028D03*
%TD*%
D29*
%TO.C,TP21*%
X122506719Y-83388200D03*
%TD*%
D18*
%TO.C,R24*%
X127201143Y-112850820D03*
X125551143Y-112850820D03*
%TD*%
D19*
%TO.C,R3*%
X105385901Y-135128000D03*
X103560901Y-135128000D03*
%TD*%
D12*
%TO.C,C8*%
X128873880Y-119995616D03*
X130598880Y-119995616D03*
%TD*%
D51*
%TO.C,L1*%
X125696849Y-96426530D03*
X134946849Y-96426530D03*
%TD*%
D14*
%TO.C,TP5*%
X148391274Y-126287141D03*
%TD*%
%TO.C,TP7*%
X104593401Y-124663200D03*
%TD*%
D34*
%TO.C,C13*%
X129001049Y-109456430D03*
X129001049Y-111006430D03*
%TD*%
%TO.C,C20*%
X141497246Y-104131629D03*
X141497246Y-105681629D03*
%TD*%
D14*
%TO.C,TP4*%
X148340474Y-131087741D03*
%TD*%
D19*
%TO.C,R13*%
X115994339Y-138840207D03*
X114169339Y-138840207D03*
%TD*%
D30*
%TO.C,R5*%
X159601100Y-105051375D03*
X159601100Y-110131375D03*
%TD*%
D14*
%TO.C,TP2*%
X148340474Y-145178808D03*
%TD*%
D52*
%TO.C,IC2*%
X131218646Y-106474229D03*
X131218646Y-107124229D03*
X131218646Y-107774229D03*
X131218646Y-108424229D03*
X131218646Y-109074229D03*
X131218646Y-109724229D03*
X131218646Y-110374229D03*
X137094646Y-110374229D03*
X137094646Y-109724229D03*
X137094646Y-109074229D03*
X137094646Y-108424229D03*
X137094646Y-107774229D03*
X137094646Y-107124229D03*
X137094646Y-106474229D03*
D53*
X134156646Y-108424229D03*
%TD*%
D27*
%TO.C,C18*%
X143732446Y-104096030D03*
X143732446Y-105996028D03*
%TD*%
D14*
%TO.C,TP15*%
X104593401Y-115648099D03*
%TD*%
D16*
%TO.C,J4*%
X113837249Y-93683330D03*
%TD*%
D33*
%TO.C,R16*%
X118175016Y-124758428D03*
X118175016Y-126583428D03*
%TD*%
D14*
%TO.C,TP12*%
X115341566Y-145178808D03*
%TD*%
%TO.C,JP1*%
X110936849Y-111680161D03*
D24*
X108396849Y-111680161D03*
%TD*%
D14*
%TO.C,TP6*%
X104593401Y-128727200D03*
%TD*%
D29*
%TO.C,TP20*%
X113693142Y-83388200D03*
%TD*%
D14*
%TO.C,TP9*%
X97715646Y-124267816D03*
%TD*%
D16*
%TO.C,J3*%
X102229449Y-93683330D03*
%TD*%
M02*
