M48
; DRILL file {KiCad 9.0.5} date 2026-05-29T23:24:00-0500
; FORMAT={-:-/ absolute / inch / decimal}
; #@! TF.CreationDate,2026-05-29T23:24:00-05:00
; #@! TF.GenerationSoftware,Kicad,Pcbnew,9.0.5
; #@! TF.FileFunction,Plated,1,2,PTH
FMAT,2
INCH
; #@! TA.AperFunction,Plated,PTH,ViaDrill
T1C0.0118
; #@! TA.AperFunction,Plated,PTH,ComponentDrill
T2C0.0236
; #@! TA.AperFunction,Plated,PTH,ComponentDrill
T3C0.0394
; #@! TA.AperFunction,Plated,PTH,ComponentDrill
T4C0.0591
; #@! TA.AperFunction,Plated,PTH,ComponentDrill
T5C0.0630
; #@! TA.AperFunction,Plated,PTH,ComponentDrill
T6C0.1260
; #@! TA.AperFunction,Plated,PTH,ComponentDrill
T7C0.2130
%
G90
G05
T1
X3.7503Y-4.5766
X3.7503Y-4.813
X3.7503Y-5.0494
X3.7503Y-5.2858
X3.7503Y-5.5222
X3.7533Y-3.3946
X3.7533Y-3.631
X3.7533Y-3.8674
X3.7533Y-4.1038
X3.7533Y-4.3402
X3.8235Y-4.3988
X3.8235Y-4.4579
X3.8235Y-5.4938
X3.8235Y-5.5529
X3.8826Y-4.3988
X3.8826Y-4.4579
X3.8826Y-5.4938
X3.8826Y-5.5529
X4.001Y-4.577
X4.001Y-4.687
X4.001Y-4.797
X4.001Y-4.9383
X4.001Y-5.1475
X4.001Y-5.2575
X4.001Y-5.3675
X4.0231Y-3.1225
X4.0381Y-5.8509
X4.2638Y-3.1225
X4.2743Y-5.8509
X4.3652Y-4.6419
X4.4502Y-4.8349
X4.4502Y-4.9756
X4.4968Y-5.0929
X4.5044Y-3.1225
X4.5105Y-5.8509
X4.5262Y-4.9879
X4.6519Y-4.8107
X4.6522Y-5.0759
X4.6672Y-5.4059
X4.6678Y-5.3535
X4.694Y-4.326
X4.694Y-4.3851
X4.694Y-4.4441
X4.745Y-3.1225
X4.7531Y-4.326
X4.7531Y-4.3851
X4.7531Y-4.4441
X4.7592Y-4.9839
X4.768Y-4.8719
X4.8121Y-4.326
X4.8121Y-4.3851
X4.8121Y-4.4441
X4.8312Y-4.9129
X4.8382Y-5.8509
X4.8459Y-4.8107
X4.8462Y-5.0759
X4.8586Y-5.6856
X4.9Y-5.2629
X4.9Y-5.326
X4.9Y-5.389
X4.9095Y-4.9008
X4.9167Y-4.979
X4.9422Y-4.9049
X4.9512Y-5.0739
X4.953Y-4.8107
X4.9542Y-4.9789
X4.9563Y-5.8509
X4.9592Y-4.8719
X4.9621Y-5.2627
X4.9621Y-5.3257
X4.9621Y-5.3888
X4.9626Y-5.6861
X4.9725Y-4.3124
X4.9856Y-3.1225
X5.0002Y-5.0718
X5.0079Y-4.348
X5.0112Y-4.5839
X5.03Y-4.762
X5.0358Y-5.0739
X5.0392Y-4.8339
X5.0409Y-4.908
X5.0409Y-4.9671
X5.1Y-4.908
X5.1Y-4.9671
X5.1052Y-5.1399
X5.1055Y-4.3384
X5.114Y-4.233
X5.117Y-4.269
X5.1258Y-5.2719
X5.1412Y-4.6879
X5.1412Y-4.7629
X5.1513Y-5.0531
X5.1852Y-4.91
X5.189Y-4.847
X5.2012Y-5.1999
X5.208Y-4.5839
X5.2098Y-5.1369
X5.2262Y-3.1225
X5.247Y-4.817
X5.2541Y-4.24
X5.2542Y-4.297
X5.2711Y-4.8848
X5.2732Y-4.9259
X5.2732Y-5.8419
X5.2762Y-5.063
X5.2771Y-4.993
X5.2818Y-4.2687
X5.2992Y-5.4009
X5.2992Y-5.4797
X5.3109Y-4.2399
X5.3111Y-4.2969
X5.3143Y-4.817
X5.338Y-4.191
X5.3817Y-4.817
X5.3974Y-4.3936
X5.4Y-4.159
X5.4049Y-4.5839
X5.417Y-5.0289
X5.417Y-5.0879
X5.417Y-5.147
X5.449Y-4.817
X5.451Y-4.337
X5.4669Y-3.1225
X5.4761Y-5.0289
X5.4761Y-5.0879
X5.4761Y-5.147
X5.4968Y-5.4009
X5.4968Y-5.4797
X5.5087Y-5.8419
X5.5315Y-4.3511
X5.54Y-3.91
X5.5728Y-4.2445
X5.6017Y-4.5839
X5.6508Y-4.2445
X5.6944Y-5.4009
X5.6944Y-5.4797
X5.7075Y-3.1225
X5.7287Y-4.2445
X5.7442Y-5.8419
X5.7842Y-4.6059
X5.7842Y-4.665
X5.7842Y-4.724
X5.8067Y-4.2445
X5.817Y-3.617
X5.817Y-3.6761
X5.817Y-3.7351
X5.8432Y-4.6059
X5.8432Y-4.665
X5.8432Y-4.724
X5.8761Y-3.617
X5.8761Y-3.6761
X5.8761Y-3.7351
X5.8847Y-4.2445
X5.8919Y-5.4009
X5.8919Y-5.4797
X5.9023Y-4.6059
X5.9023Y-4.665
X5.9023Y-4.724
X5.9481Y-3.1225
X5.9627Y-4.2445
X5.9797Y-5.8419
X5.9804Y-5.7122
X6.1887Y-3.1225
X6.218Y-5.8419
X6.2188Y-5.6622
X6.241Y-4.234
X6.241Y-4.4578
X6.241Y-4.5125
X6.241Y-4.73
X6.241Y-4.953
X6.241Y-5.0077
X6.2995Y-4.234
X6.2995Y-4.4578
X6.2995Y-4.5125
X6.2995Y-4.73
X6.2995Y-4.953
X6.2995Y-5.0077
X6.358Y-4.234
X6.358Y-4.4578
X6.358Y-4.5125
X6.358Y-4.73
X6.358Y-4.953
X6.358Y-5.0077
X6.4293Y-3.1225
X6.4535Y-5.8419
X6.4543Y-5.6622
X6.5418Y-4.6098
X6.5418Y-4.6689
X6.5418Y-4.7279
X6.5418Y-4.787
X6.5418Y-4.8461
X6.5428Y-4.1158
X6.5428Y-4.1749
X6.5428Y-4.2339
X6.5428Y-4.293
X6.5428Y-4.3521
X6.5542Y-5.1028
X6.5542Y-5.1619
X6.5542Y-5.2209
X6.5542Y-5.28
X6.5542Y-5.3391
X6.6008Y-4.6098
X6.6008Y-4.6689
X6.6008Y-4.7279
X6.6008Y-4.787
X6.6008Y-4.8461
X6.6018Y-4.1158
X6.6018Y-4.1749
X6.6018Y-4.2339
X6.6018Y-4.293
X6.6018Y-4.3521
X6.6132Y-5.1028
X6.6132Y-5.1619
X6.6132Y-5.2209
X6.6132Y-5.28
X6.6132Y-5.3391
X6.6599Y-4.6098
X6.6599Y-4.6689
X6.6599Y-4.7279
X6.6599Y-4.787
X6.6599Y-4.8461
X6.6609Y-4.1158
X6.6609Y-4.1749
X6.6609Y-4.2339
X6.6609Y-4.293
X6.6609Y-4.3521
X6.67Y-3.1225
X6.6723Y-5.1028
X6.6723Y-5.1619
X6.6723Y-5.2209
X6.6723Y-5.28
X6.6723Y-5.3391
X6.689Y-5.8419
X6.6898Y-5.6622
X6.7189Y-4.6098
X6.7189Y-4.6689
X6.7189Y-4.7279
X6.7189Y-4.787
X6.7189Y-4.8461
X6.7199Y-4.1158
X6.7199Y-4.1749
X6.7199Y-4.2339
X6.7199Y-4.293
X6.7199Y-4.3521
X6.7313Y-5.1028
X6.7313Y-5.1619
X6.7313Y-5.2209
X6.7313Y-5.28
X6.7313Y-5.3391
X6.778Y-4.6098
X6.778Y-4.6689
X6.778Y-4.7279
X6.778Y-4.787
X6.778Y-4.8461
X6.779Y-4.1158
X6.779Y-4.1749
X6.779Y-4.2339
X6.779Y-4.293
X6.779Y-4.3521
X6.7904Y-5.1028
X6.7904Y-5.1619
X6.7904Y-5.2209
X6.7904Y-5.28
X6.7904Y-5.3391
X6.9827Y-4.5949
X6.9827Y-4.8313
X6.9827Y-5.0677
X6.9827Y-5.3041
X6.9827Y-5.5405
X6.9857Y-3.4128
X6.9857Y-3.6492
X6.9857Y-3.8856
X6.9857Y-4.122
X6.9857Y-4.3584
T3
X3.8471Y-4.6754
X3.8471Y-4.8924
X3.8471Y-5.1095
X3.8471Y-5.3266
X4.0507Y-5.7157
X4.1179Y-4.5531
X4.1179Y-4.908
X4.1179Y-5.068
X4.1179Y-5.4261
X4.1382Y-3.283
X4.2676Y-4.3969
X4.2958Y-5.7155
X4.3676Y-4.3969
X4.541Y-5.7157
X5.08Y-5.319
X5.275Y-5.7157
X5.3262Y-4.7179
X5.6217Y-4.9708
X5.6217Y-5.0708
X5.6217Y-5.1708
X5.6222Y-4.7179
X5.8402Y-5.1609
X5.8402Y-5.7157
X5.8422Y-4.9719
T4
X4.4761Y-3.283
X4.8231Y-3.283
X5.1701Y-3.283
X5.5171Y-3.283
X5.602Y-3.568
X5.8641Y-3.283
X6.2111Y-3.283
T5
X4.0557Y-4.0411
X4.0557Y-4.175
X4.586Y-4.0411
X4.586Y-4.175
T6
X3.8301Y-5.7727
X3.8415Y-3.1844
X6.9201Y-5.7716
X6.927Y-3.1833
T7
X4.0248Y-3.6883
X4.4818Y-3.6883
X6.2158Y-3.6883
X6.6764Y-3.6883
T2
G00X4.7311Y-5.6499
M15
G01X4.7311Y-5.6932
M16
G05
G00X4.7311Y-5.8204
M15
G01X4.7311Y-5.8519
M16
G05
G00X5.0713Y-5.6499
M15
G01X5.0713Y-5.6932
M16
G05
G00X5.0713Y-5.8204
M15
G01X5.0713Y-5.8519
M16
G05
M30
