%TF.GenerationSoftware,KiCad,Pcbnew,9.0.4*%
%TF.CreationDate,2026-05-31T00:19:45-05:00*%
%TF.ProjectId,PowerPath,506f7765-7250-4617-9468-2e6b69636164,rev?*%
%TF.SameCoordinates,Original*%
%TF.FileFunction,Copper,L2,Bot*%
%TF.FilePolarity,Positive*%
%FSLAX46Y46*%
G04 Gerber Fmt 4.6, Leading zero omitted, Abs format (unit mm)*
G04 Created by KiCad (PCBNEW 9.0.4) date 2026-05-31 00:19:45*
%MOMM*%
%LPD*%
G01*
G04 APERTURE LIST*
%TA.AperFunction,ComponentPad*%
%ADD10C,3.000000*%
%TD*%
%TA.AperFunction,ComponentPad*%
%ADD11R,1.700000X1.700000*%
%TD*%
%TA.AperFunction,ComponentPad*%
%ADD12C,1.700000*%
%TD*%
%TA.AperFunction,ComponentPad*%
%ADD13C,2.400000*%
%TD*%
%TA.AperFunction,ComponentPad*%
%ADD14C,8.115000*%
%TD*%
%TA.AperFunction,ComponentPad*%
%ADD15C,3.400000*%
%TD*%
%TA.AperFunction,ConnectorPad*%
%ADD16C,6.000000*%
%TD*%
%TA.AperFunction,ViaPad*%
%ADD17C,0.600000*%
%TD*%
%TA.AperFunction,ViaPad*%
%ADD18C,0.900000*%
%TD*%
%TA.AperFunction,Conductor*%
%ADD19C,0.200000*%
%TD*%
G04 APERTURE END LIST*
D10*
%TO.P,TP_3.3V1,1,1*%
%TO.N,/+Vout_3V3*%
X197000000Y-121400000D03*
%TD*%
D11*
%TO.P,JP1,1,A*%
%TO.N,Net-(J1-Pin_1)*%
X199400000Y-78800000D03*
D12*
%TO.P,JP1,2,B*%
%TO.N,/Vout_24V*%
X199400000Y-81340000D03*
%TD*%
D10*
%TO.P,TP11,1,1*%
%TO.N,/5VBuck/CB*%
X214148031Y-96147927D03*
%TD*%
%TO.P,TP19,1,1*%
%TO.N,Net-(IC1-VCAP)*%
X177200000Y-66600000D03*
%TD*%
D13*
%TO.P,F1,1*%
%TO.N,/+24V_Ext_In*%
X144280000Y-82000000D03*
X144280000Y-85400000D03*
%TO.P,F1,2*%
%TO.N,/+24V_Ext*%
X157750000Y-82000000D03*
X157750000Y-85400000D03*
%TD*%
D11*
%TO.P,JP7,1,A*%
%TO.N,/+V_out_5V_Buck*%
X199650000Y-106700000D03*
D12*
%TO.P,JP7,2,B*%
%TO.N,/+Vin_5V*%
X202190000Y-106700000D03*
%TD*%
D10*
%TO.P,TP7,1,1*%
%TO.N,/+V_in_24V*%
X213550000Y-84800000D03*
%TD*%
%TO.P,TP4,1,1*%
%TO.N,GND*%
X187200000Y-66600000D03*
%TD*%
D14*
%TO.P,J2,1,Pin_1*%
%TO.N,/+24V_Ext_In*%
X148900000Y-71550000D03*
%TD*%
%TO.P,J8,1,Pin_1*%
%TO.N,GND*%
X197000000Y-71550000D03*
%TD*%
D11*
%TO.P,JP2,1,A*%
%TO.N,Net-(J4-Pin_1)*%
X181800000Y-103675000D03*
D12*
%TO.P,JP2,2,B*%
%TO.N,/V_out_12V*%
X181800000Y-101135000D03*
%TD*%
D15*
%TO.P,H1,1*%
%TO.N,N/C*%
X139813774Y-67200000D03*
D16*
X139813774Y-67200000D03*
%TD*%
D14*
%TO.P,J6,1,Pin_1*%
%TO.N,Net-(J6-Pin_1)*%
X184550000Y-115750000D03*
%TD*%
D10*
%TO.P,TP13,1,1*%
%TO.N,/5VBuck/SW*%
X214150000Y-102200000D03*
%TD*%
%TO.P,TP18,1,1*%
%TO.N,Net-(IC1-EN{slash}UVLO)*%
X161131933Y-71204807D03*
%TD*%
%TO.P,TP12,1,1*%
%TO.N,/5VBuck/FB*%
X207100000Y-96200000D03*
%TD*%
%TO.P,TP5,1,1*%
%TO.N,/+V_out_5V_Buck*%
X207100000Y-101900000D03*
%TD*%
D15*
%TO.P,H5,1*%
%TO.N,N/C*%
X235103085Y-119961400D03*
D16*
X235103085Y-119961400D03*
%TD*%
D10*
%TO.P,TP10,1,1*%
%TO.N,/12VBuck/SW*%
X155050000Y-94850000D03*
%TD*%
D14*
%TO.P,J5,1,Pin_1*%
%TO.N,Net-(J5-Pin_1)*%
X224500000Y-102050000D03*
%TD*%
D10*
%TO.P,TP14,1,1*%
%TO.N,Net-(D10-K)*%
X171200000Y-66600000D03*
%TD*%
%TO.P,TP21,1,1*%
%TO.N,GND*%
X211100000Y-121400000D03*
%TD*%
D15*
%TO.P,H2,1*%
%TO.N,N/C*%
X139813774Y-119961400D03*
D16*
X139813774Y-119961400D03*
%TD*%
D10*
%TO.P,TP16,1,1*%
%TO.N,/PowerProtection/source*%
X181300000Y-71204807D03*
%TD*%
%TO.P,TP15,1,1*%
%TO.N,/PowerProtection/gate*%
X164400000Y-66600000D03*
%TD*%
%TO.P,TP9,1,1*%
%TO.N,/12VBuck/FB*%
X155058412Y-106320502D03*
%TD*%
D11*
%TO.P,JP6,1,A*%
%TO.N,/Vout_24V*%
X193860000Y-85945000D03*
D12*
%TO.P,JP6,2,B*%
%TO.N,/+V_in_24V*%
X193860000Y-88485000D03*
%TD*%
D10*
%TO.P,TP2,1,1*%
%TO.N,/Vout_24V*%
X187700000Y-71204807D03*
%TD*%
D14*
%TO.P,J9,1,Pin_1*%
%TO.N,/+Vin_5V*%
X224500000Y-115750000D03*
%TD*%
D10*
%TO.P,TP3,1,1*%
%TO.N,/V_out_12V*%
X155050000Y-113250000D03*
%TD*%
D11*
%TO.P,JP5,1,A*%
%TO.N,/Vout_24V*%
X187460000Y-86015000D03*
D12*
%TO.P,JP5,2,B*%
%TO.N,/+V_in_24V*%
X187460000Y-88555000D03*
%TD*%
D14*
%TO.P,J4,1,Pin_1*%
%TO.N,Net-(J4-Pin_1)*%
X170200000Y-115750000D03*
%TD*%
D11*
%TO.P,JP4,1,A*%
%TO.N,Net-(J6-Pin_1)*%
X193900000Y-114600000D03*
D12*
%TO.P,JP4,2,B*%
%TO.N,/+Vout_3V3*%
X193900000Y-112060000D03*
%TD*%
D14*
%TO.P,J1,1,Pin_1*%
%TO.N,Net-(J1-Pin_1)*%
X210310444Y-71550000D03*
%TD*%
D15*
%TO.P,H3,1*%
%TO.N,N/C*%
X235106971Y-67200000D03*
D16*
X235106971Y-67200000D03*
%TD*%
D10*
%TO.P,TP1,1,1*%
%TO.N,/+24V_Ext*%
X157300000Y-66600000D03*
%TD*%
%TO.P,TP20,1,1*%
%TO.N,GND*%
X161180154Y-121450774D03*
%TD*%
%TO.P,TP6,1,1*%
%TO.N,/+Vin_5V*%
X215700000Y-117300000D03*
%TD*%
%TO.P,TP8,1,1*%
%TO.N,/12VBuck/CB*%
X155050000Y-100350000D03*
%TD*%
D14*
%TO.P,J7,1,Pin_1*%
%TO.N,/+V_in_24V*%
X224500000Y-88000000D03*
%TD*%
D11*
%TO.P,JP3,1,A*%
%TO.N,Net-(J5-Pin_1)*%
X216800000Y-106300000D03*
D12*
%TO.P,JP3,2,B*%
%TO.N,/+Vin_5V*%
X216800000Y-108840000D03*
%TD*%
D10*
%TO.P,TP17,1,1*%
%TO.N,Net-(IC1-OV)*%
X167700000Y-71204807D03*
%TD*%
D17*
%TO.N,GND*%
X177500000Y-73300000D03*
X170100000Y-75700000D03*
X188600000Y-98300000D03*
X168200000Y-74900000D03*
X165100000Y-73600000D03*
X203400000Y-91500000D03*
X204300000Y-94500000D03*
X187100000Y-98300000D03*
X185150000Y-97350000D03*
X165100000Y-72700000D03*
X183950000Y-97350000D03*
X174100000Y-69800000D03*
X176400000Y-71500000D03*
X201400000Y-98400000D03*
X166800000Y-76600000D03*
X202200000Y-97300000D03*
X204200000Y-92400000D03*
X200800000Y-95300000D03*
X174050000Y-92200000D03*
X162300000Y-73600000D03*
X179400000Y-92200000D03*
X202900000Y-98400000D03*
X176400000Y-73300000D03*
X159200000Y-75600000D03*
X202900000Y-94500000D03*
X169500000Y-76500000D03*
X159200000Y-76700000D03*
X182800000Y-95800000D03*
X168800000Y-75700000D03*
X201500000Y-94500000D03*
X170800000Y-74900000D03*
X174700000Y-70600000D03*
X174750000Y-91450000D03*
X177500000Y-72400000D03*
X202200000Y-95300000D03*
X185850000Y-98300000D03*
D18*
X177501520Y-82240859D03*
D17*
X176400000Y-69800000D03*
X201500000Y-96300000D03*
X160200000Y-74700000D03*
X179400000Y-91400000D03*
X172300000Y-70600000D03*
X204300000Y-96200000D03*
X184550000Y-98350000D03*
X184450000Y-96300000D03*
X158100000Y-76700000D03*
X202900000Y-96300000D03*
X204400000Y-98300000D03*
X163000000Y-72700000D03*
X203600000Y-95300000D03*
X183700000Y-88812500D03*
X177600000Y-69800000D03*
X175800000Y-70600000D03*
X200700000Y-97300000D03*
X180400000Y-91400000D03*
X187700000Y-97400000D03*
X185550000Y-96300000D03*
X203600000Y-97300000D03*
X186400000Y-97400000D03*
X186600000Y-96300000D03*
X199900000Y-91500000D03*
X172550000Y-92250000D03*
X160100000Y-77600000D03*
X163400000Y-73600000D03*
X177500000Y-71500000D03*
X175500000Y-92200000D03*
X189200000Y-97400000D03*
X169500000Y-74900000D03*
X168200000Y-76500000D03*
X173200000Y-91450000D03*
X167600000Y-75700000D03*
X180400000Y-92200000D03*
X177000000Y-70600000D03*
X158100000Y-75600000D03*
X165100000Y-71700000D03*
X173500000Y-70600000D03*
X175200000Y-69800000D03*
X158700000Y-77600000D03*
X163600000Y-71700000D03*
X176250000Y-91400000D03*
X158700000Y-74700000D03*
X202700000Y-92400000D03*
X171750000Y-91450000D03*
X201600000Y-91500000D03*
X172900000Y-69800000D03*
X200700000Y-92400000D03*
X176400000Y-72400000D03*
%TO.N,/5VBuck/SW*%
X191700000Y-95500000D03*
%TO.N,/5VBuck/CB*%
X192650000Y-94900000D03*
%TO.N,Net-(D10-K)*%
X172400000Y-75400000D03*
%TO.N,Net-(IC1-VCAP)*%
X176400000Y-77900000D03*
%TO.N,/PowerProtection/source*%
X179700000Y-79500000D03*
%TO.N,Net-(IC1-OV)*%
X165900000Y-74000000D03*
%TO.N,Net-(IC1-EN{slash}UVLO)*%
X164900000Y-77500000D03*
X177150000Y-83400000D03*
%TO.N,/PowerProtection/gate*%
X174000000Y-88700000D03*
X173900000Y-82700000D03*
%TD*%
D19*
%TO.N,/+24V_Ext*%
X157300000Y-66600000D02*
X157300000Y-81550000D01*
X157300000Y-81550000D02*
X157750000Y-82000000D01*
%TO.N,/5VBuck/SW*%
X193117100Y-95500000D02*
X194866100Y-93751000D01*
X194866100Y-93751000D02*
X208451000Y-93751000D01*
X208451000Y-93751000D02*
X214150000Y-99450000D01*
X191700000Y-95500000D02*
X193117100Y-95500000D01*
X214150000Y-99450000D02*
X214150000Y-102200000D01*
%TO.N,/5VBuck/CB*%
X193149990Y-94900010D02*
X194700000Y-93350000D01*
X194700000Y-93350000D02*
X212700000Y-93350000D01*
X192650000Y-94900000D02*
X192650010Y-94900010D01*
X192650010Y-94900010D02*
X193149990Y-94900010D01*
X214148031Y-94798031D02*
X214148031Y-96147927D01*
X212700000Y-93350000D02*
X214148031Y-94798031D01*
%TO.N,/+V_out_5V_Buck*%
X207100000Y-101900000D02*
X204300000Y-104700000D01*
X199650000Y-105450000D02*
X199650000Y-106700000D01*
X204300000Y-104700000D02*
X200400000Y-104700000D01*
X200400000Y-104700000D02*
X199650000Y-105450000D01*
%TO.N,Net-(D10-K)*%
X171200000Y-66600000D02*
X171200000Y-74200000D01*
X171200000Y-74200000D02*
X172400000Y-75400000D01*
%TO.N,Net-(IC1-VCAP)*%
X178201000Y-76599000D02*
X176900000Y-77900000D01*
X177200000Y-66600000D02*
X178201000Y-67601000D01*
X176900000Y-77900000D02*
X176400000Y-77900000D01*
X178201000Y-67601000D02*
X178201000Y-76599000D01*
%TO.N,/PowerProtection/source*%
X181300000Y-71204807D02*
X179708869Y-72795938D01*
X179708869Y-72795938D02*
X179708869Y-79491131D01*
X179708869Y-79491131D02*
X179700000Y-79500000D01*
%TO.N,Net-(IC1-OV)*%
X165900000Y-73004807D02*
X165900000Y-74000000D01*
X167700000Y-71204807D02*
X165900000Y-73004807D01*
%TO.N,Net-(IC1-EN{slash}UVLO)*%
X177150000Y-83400000D02*
X177150000Y-82950000D01*
X174100000Y-79900000D02*
X167300000Y-79900000D01*
X167300000Y-79900000D02*
X164900000Y-77500000D01*
X177150000Y-82950000D02*
X174100000Y-79900000D01*
%TO.N,/PowerProtection/gate*%
X164299000Y-66701000D02*
X164299000Y-78599000D01*
X173900000Y-88600000D02*
X173900000Y-82700000D01*
X164400000Y-66600000D02*
X164299000Y-66701000D01*
X174000000Y-88700000D02*
X173900000Y-88600000D01*
X173802632Y-82797368D02*
X173900000Y-82700000D01*
X164299000Y-78599000D02*
X168497368Y-82797368D01*
X168497368Y-82797368D02*
X173802632Y-82797368D01*
%TD*%
%TA.AperFunction,Conductor*%
%TO.N,GND*%
G36*
X235395332Y-62643901D02*
G01*
X235408554Y-62644609D01*
X235790018Y-62685584D01*
X235800855Y-62687237D01*
X236187296Y-62763852D01*
X236197970Y-62766465D01*
X236576087Y-62877011D01*
X236586478Y-62880556D01*
X236702913Y-62926139D01*
X236953314Y-63024168D01*
X236963366Y-63028627D01*
X237316022Y-63204168D01*
X237325640Y-63209500D01*
X237661366Y-63415602D01*
X237670473Y-63421765D01*
X237986619Y-63656802D01*
X237995125Y-63663732D01*
X238118095Y-63773339D01*
X238289213Y-63925863D01*
X238297089Y-63933537D01*
X238566780Y-64220675D01*
X238573944Y-64229015D01*
X238748373Y-64451295D01*
X238817136Y-64538921D01*
X238823535Y-64547865D01*
X239038313Y-64878099D01*
X239043894Y-64887574D01*
X239228575Y-65235548D01*
X239233284Y-65245458D01*
X239386412Y-65608434D01*
X239390232Y-65618746D01*
X239510591Y-65993836D01*
X239513484Y-66004446D01*
X239537651Y-66111622D01*
X239572808Y-66267534D01*
X239600139Y-66388737D01*
X239602080Y-66399561D01*
X239654347Y-66790019D01*
X239655321Y-66800973D01*
X239672882Y-67196653D01*
X239673004Y-67202186D01*
X239658046Y-120408950D01*
X239657402Y-120421541D01*
X239657024Y-120425234D01*
X239656360Y-120430572D01*
X239600129Y-120814626D01*
X239598116Y-120825168D01*
X239509506Y-121200288D01*
X239506589Y-121210616D01*
X239385877Y-121576664D01*
X239382078Y-121586702D01*
X239230161Y-121940951D01*
X239225508Y-121950622D01*
X239043537Y-122290393D01*
X239038066Y-122299626D01*
X238827384Y-122622410D01*
X238821134Y-122631135D01*
X238583338Y-122934479D01*
X238576357Y-122942631D01*
X238313226Y-123224274D01*
X238305567Y-123231792D01*
X238019055Y-123489638D01*
X238010775Y-123496465D01*
X237914303Y-123569228D01*
X237703048Y-123728565D01*
X237694214Y-123734647D01*
X237367563Y-123939272D01*
X237358238Y-123944566D01*
X237077057Y-124088479D01*
X237015124Y-124120177D01*
X237005368Y-124124648D01*
X236648345Y-124269935D01*
X236638238Y-124273546D01*
X236270007Y-124387412D01*
X236259627Y-124390136D01*
X235882916Y-124471738D01*
X235872338Y-124473554D01*
X235489992Y-124522274D01*
X235479297Y-124523169D01*
X235091121Y-124538768D01*
X235086151Y-124538868D01*
X235085920Y-124538868D01*
X235022902Y-124538671D01*
X235022136Y-124538872D01*
X235013436Y-124538873D01*
X235013426Y-124538870D01*
X235013384Y-124538873D01*
X139366592Y-124506037D01*
X139349391Y-124504832D01*
X138989166Y-124454247D01*
X138978639Y-124452302D01*
X138604739Y-124366382D01*
X138594419Y-124363537D01*
X138229304Y-124245682D01*
X138219272Y-124241958D01*
X137935909Y-124122626D01*
X137865693Y-124093056D01*
X137856016Y-124088479D01*
X137516589Y-123909631D01*
X137507357Y-123904245D01*
X137184629Y-123696792D01*
X137175884Y-123690622D01*
X136872239Y-123456099D01*
X136864057Y-123449195D01*
X136581789Y-123189371D01*
X136574233Y-123181789D01*
X136315413Y-122898574D01*
X136308549Y-122890379D01*
X136075121Y-122585896D01*
X136068981Y-122577127D01*
X135995261Y-122461531D01*
X135862687Y-122253650D01*
X135857330Y-122244391D01*
X135679703Y-121904323D01*
X135675171Y-121894650D01*
X135527536Y-121540529D01*
X135523848Y-121530481D01*
X135517783Y-121511457D01*
X135407303Y-121164934D01*
X135404503Y-121154634D01*
X135319919Y-120780388D01*
X135318019Y-120769895D01*
X135266029Y-120389747D01*
X135265040Y-120379129D01*
X135245910Y-119993480D01*
X135245759Y-119987250D01*
X135245984Y-119781659D01*
X136613274Y-119781659D01*
X136613274Y-120141140D01*
X136653520Y-120498335D01*
X136653522Y-120498351D01*
X136733511Y-120848807D01*
X136733515Y-120848819D01*
X136852239Y-121188111D01*
X137008206Y-121511979D01*
X137008208Y-121511982D01*
X137199459Y-121816356D01*
X137366665Y-122026026D01*
X137405864Y-122075181D01*
X137423586Y-122097403D01*
X137677771Y-122351588D01*
X137958818Y-122575715D01*
X138263192Y-122766966D01*
X138587066Y-122922936D01*
X138841893Y-123012103D01*
X138926354Y-123041658D01*
X138926366Y-123041662D01*
X139276826Y-123121652D01*
X139634034Y-123161899D01*
X139634035Y-123161900D01*
X139634038Y-123161900D01*
X139993513Y-123161900D01*
X139993513Y-123161899D01*
X140350722Y-123121652D01*
X140701182Y-123041662D01*
X141040482Y-122922936D01*
X141364356Y-122766966D01*
X141668730Y-122575715D01*
X141949777Y-122351588D01*
X142203962Y-122097403D01*
X142428089Y-121816356D01*
X142619340Y-121511982D01*
X142726940Y-121288549D01*
X195299500Y-121288549D01*
X195299500Y-121511450D01*
X195299501Y-121511466D01*
X195328594Y-121732452D01*
X195328595Y-121732457D01*
X195328596Y-121732463D01*
X195384460Y-121940951D01*
X195386290Y-121947780D01*
X195386293Y-121947790D01*
X195448265Y-122097403D01*
X195471595Y-122153726D01*
X195583052Y-122346774D01*
X195583057Y-122346780D01*
X195583058Y-122346782D01*
X195718751Y-122523622D01*
X195718757Y-122523629D01*
X195876370Y-122681242D01*
X195876376Y-122681247D01*
X196053226Y-122816948D01*
X196246274Y-122928405D01*
X196452219Y-123013710D01*
X196667537Y-123071404D01*
X196888543Y-123100500D01*
X196888550Y-123100500D01*
X197111450Y-123100500D01*
X197111457Y-123100500D01*
X197332463Y-123071404D01*
X197547781Y-123013710D01*
X197753726Y-122928405D01*
X197946774Y-122816948D01*
X198123624Y-122681247D01*
X198281247Y-122523624D01*
X198416948Y-122346774D01*
X198528405Y-122153726D01*
X198613710Y-121947781D01*
X198671404Y-121732463D01*
X198700500Y-121511457D01*
X198700500Y-121288543D01*
X198671404Y-121067537D01*
X198613710Y-120852219D01*
X198528405Y-120646274D01*
X198416948Y-120453226D01*
X198281247Y-120276376D01*
X198281242Y-120276370D01*
X198123629Y-120118757D01*
X198123622Y-120118751D01*
X197946782Y-119983058D01*
X197946780Y-119983057D01*
X197946774Y-119983052D01*
X197753726Y-119871595D01*
X197753722Y-119871593D01*
X197547790Y-119786293D01*
X197547783Y-119786291D01*
X197547781Y-119786290D01*
X197332463Y-119728596D01*
X197332457Y-119728595D01*
X197332452Y-119728594D01*
X197111466Y-119699501D01*
X197111463Y-119699500D01*
X197111457Y-119699500D01*
X196888543Y-119699500D01*
X196888537Y-119699500D01*
X196888533Y-119699501D01*
X196667547Y-119728594D01*
X196667540Y-119728595D01*
X196667537Y-119728596D01*
X196482979Y-119778048D01*
X196452219Y-119786290D01*
X196452209Y-119786293D01*
X196246277Y-119871593D01*
X196246273Y-119871595D01*
X196053226Y-119983052D01*
X196053217Y-119983058D01*
X195876377Y-120118751D01*
X195876370Y-120118757D01*
X195718757Y-120276370D01*
X195718751Y-120276377D01*
X195583058Y-120453217D01*
X195583052Y-120453226D01*
X195471595Y-120646273D01*
X195471593Y-120646277D01*
X195386293Y-120852209D01*
X195386290Y-120852219D01*
X195328597Y-121067534D01*
X195328594Y-121067547D01*
X195299501Y-121288533D01*
X195299500Y-121288549D01*
X142726940Y-121288549D01*
X142726948Y-121288533D01*
X142754808Y-121230682D01*
X142754809Y-121230680D01*
X142775305Y-121188119D01*
X142775306Y-121188116D01*
X142775310Y-121188108D01*
X142894036Y-120848808D01*
X142974026Y-120498348D01*
X143014274Y-120141136D01*
X143014274Y-119781664D01*
X142974026Y-119424452D01*
X142894036Y-119073992D01*
X142775310Y-118734692D01*
X142671330Y-118518776D01*
X142619341Y-118410820D01*
X142516264Y-118246774D01*
X142428089Y-118106444D01*
X142203962Y-117825397D01*
X141949777Y-117571212D01*
X141668730Y-117347085D01*
X141364356Y-117155834D01*
X141364353Y-117155832D01*
X141040485Y-116999865D01*
X140701193Y-116881141D01*
X140701181Y-116881137D01*
X140350725Y-116801148D01*
X140350709Y-116801146D01*
X139993514Y-116760900D01*
X139993510Y-116760900D01*
X139634038Y-116760900D01*
X139634033Y-116760900D01*
X139276838Y-116801146D01*
X139276822Y-116801148D01*
X138926366Y-116881137D01*
X138926354Y-116881141D01*
X138587062Y-116999865D01*
X138263194Y-117155832D01*
X137958819Y-117347084D01*
X137677771Y-117571211D01*
X137423585Y-117825397D01*
X137199458Y-118106445D01*
X137008206Y-118410820D01*
X136852239Y-118734688D01*
X136733515Y-119073980D01*
X136733511Y-119073992D01*
X136653522Y-119424448D01*
X136653520Y-119424464D01*
X136613274Y-119781659D01*
X135245984Y-119781659D01*
X135250592Y-115564087D01*
X165942000Y-115564087D01*
X165942000Y-115935912D01*
X165974405Y-116306312D01*
X166038970Y-116672472D01*
X166038973Y-116672485D01*
X166135200Y-117031614D01*
X166135203Y-117031624D01*
X166135204Y-117031625D01*
X166262373Y-117381019D01*
X166262376Y-117381026D01*
X166262377Y-117381028D01*
X166419504Y-117717990D01*
X166419509Y-117717999D01*
X166605418Y-118040002D01*
X166605422Y-118040008D01*
X166605429Y-118040019D01*
X166818683Y-118344577D01*
X166874268Y-118410820D01*
X167057682Y-118629404D01*
X167320596Y-118892318D01*
X167346089Y-118913709D01*
X167605422Y-119131316D01*
X167909980Y-119344570D01*
X167909987Y-119344574D01*
X167909998Y-119344582D01*
X168211774Y-119518813D01*
X168231994Y-119530487D01*
X168232009Y-119530495D01*
X168232020Y-119530500D01*
X168568981Y-119687627D01*
X168918375Y-119814796D01*
X168918381Y-119814797D01*
X168918385Y-119814799D01*
X169016186Y-119841004D01*
X169277522Y-119911029D01*
X169643690Y-119975595D01*
X170014090Y-120007999D01*
X170014091Y-120008000D01*
X170014092Y-120008000D01*
X170385909Y-120008000D01*
X170385909Y-120007999D01*
X170756310Y-119975595D01*
X171122478Y-119911029D01*
X171481625Y-119814796D01*
X171831019Y-119687627D01*
X172167999Y-119530491D01*
X172490002Y-119344582D01*
X172794576Y-119131317D01*
X173079404Y-118892318D01*
X173342318Y-118629404D01*
X173581317Y-118344576D01*
X173794582Y-118040002D01*
X173980491Y-117717999D01*
X174137627Y-117381019D01*
X174264796Y-117031625D01*
X174361029Y-116672478D01*
X174425595Y-116306310D01*
X174458000Y-115935908D01*
X174458000Y-115564092D01*
X174458000Y-115564087D01*
X180292000Y-115564087D01*
X180292000Y-115935912D01*
X180324405Y-116306312D01*
X180388970Y-116672472D01*
X180388973Y-116672485D01*
X180485200Y-117031614D01*
X180485203Y-117031624D01*
X180485204Y-117031625D01*
X180612373Y-117381019D01*
X180612376Y-117381026D01*
X180612377Y-117381028D01*
X180769504Y-117717990D01*
X180769509Y-117717999D01*
X180955418Y-118040002D01*
X180955422Y-118040008D01*
X180955429Y-118040019D01*
X181168683Y-118344577D01*
X181224268Y-118410820D01*
X181407682Y-118629404D01*
X181670596Y-118892318D01*
X181696089Y-118913709D01*
X181955422Y-119131316D01*
X182259980Y-119344570D01*
X182259987Y-119344574D01*
X182259998Y-119344582D01*
X182561774Y-119518813D01*
X182581994Y-119530487D01*
X182582009Y-119530495D01*
X182582020Y-119530500D01*
X182918981Y-119687627D01*
X183268375Y-119814796D01*
X183268381Y-119814797D01*
X183268385Y-119814799D01*
X183366186Y-119841004D01*
X183627522Y-119911029D01*
X183993690Y-119975595D01*
X184364090Y-120007999D01*
X184364091Y-120008000D01*
X184364092Y-120008000D01*
X184735909Y-120008000D01*
X184735909Y-120007999D01*
X185106310Y-119975595D01*
X185472478Y-119911029D01*
X185831625Y-119814796D01*
X186181019Y-119687627D01*
X186517999Y-119530491D01*
X186840002Y-119344582D01*
X187144576Y-119131317D01*
X187429404Y-118892318D01*
X187692318Y-118629404D01*
X187931317Y-118344576D01*
X188144582Y-118040002D01*
X188330491Y-117717999D01*
X188487627Y-117381019D01*
X188557680Y-117188549D01*
X213999500Y-117188549D01*
X213999500Y-117411450D01*
X213999501Y-117411466D01*
X214028594Y-117632452D01*
X214028595Y-117632457D01*
X214028596Y-117632463D01*
X214086290Y-117847780D01*
X214086293Y-117847790D01*
X214165910Y-118040002D01*
X214171595Y-118053726D01*
X214283052Y-118246774D01*
X214283057Y-118246780D01*
X214283058Y-118246782D01*
X214418751Y-118423622D01*
X214418757Y-118423629D01*
X214576370Y-118581242D01*
X214576376Y-118581247D01*
X214753226Y-118716948D01*
X214946274Y-118828405D01*
X215152219Y-118913710D01*
X215367537Y-118971404D01*
X215588543Y-119000500D01*
X215588550Y-119000500D01*
X215811450Y-119000500D01*
X215811457Y-119000500D01*
X216032463Y-118971404D01*
X216247781Y-118913710D01*
X216453726Y-118828405D01*
X216646774Y-118716948D01*
X216823624Y-118581247D01*
X216981247Y-118423624D01*
X217116948Y-118246774D01*
X217228405Y-118053726D01*
X217313710Y-117847781D01*
X217371404Y-117632463D01*
X217400500Y-117411457D01*
X217400500Y-117188543D01*
X217371404Y-116967537D01*
X217313710Y-116752219D01*
X217228405Y-116546274D01*
X217116948Y-116353226D01*
X216981247Y-116176376D01*
X216981242Y-116176370D01*
X216823629Y-116018757D01*
X216823622Y-116018751D01*
X216646782Y-115883058D01*
X216646780Y-115883057D01*
X216646774Y-115883052D01*
X216453726Y-115771595D01*
X216453722Y-115771593D01*
X216247790Y-115686293D01*
X216247783Y-115686291D01*
X216247784Y-115686291D01*
X216247781Y-115686290D01*
X216228636Y-115681160D01*
X216183678Y-115669113D01*
X216032463Y-115628596D01*
X216032457Y-115628595D01*
X216032452Y-115628594D01*
X215811466Y-115599501D01*
X215811463Y-115599500D01*
X215811457Y-115599500D01*
X215588543Y-115599500D01*
X215588537Y-115599500D01*
X215588533Y-115599501D01*
X215367547Y-115628594D01*
X215367540Y-115628595D01*
X215367537Y-115628596D01*
X215285790Y-115650500D01*
X215152219Y-115686290D01*
X215152209Y-115686293D01*
X214946277Y-115771593D01*
X214946273Y-115771595D01*
X214753226Y-115883052D01*
X214753217Y-115883058D01*
X214576377Y-116018751D01*
X214576370Y-116018757D01*
X214418757Y-116176370D01*
X214418751Y-116176377D01*
X214283058Y-116353217D01*
X214283052Y-116353226D01*
X214171595Y-116546273D01*
X214171593Y-116546277D01*
X214086293Y-116752209D01*
X214086290Y-116752219D01*
X214051747Y-116881138D01*
X214028597Y-116967534D01*
X214028594Y-116967547D01*
X213999501Y-117188533D01*
X213999500Y-117188549D01*
X188557680Y-117188549D01*
X188614796Y-117031625D01*
X188711029Y-116672478D01*
X188775595Y-116306310D01*
X188808000Y-115935908D01*
X188808000Y-115564092D01*
X188775595Y-115193690D01*
X188711029Y-114827522D01*
X188631643Y-114531248D01*
X188614799Y-114468385D01*
X188614797Y-114468381D01*
X188614796Y-114468375D01*
X188487627Y-114118981D01*
X188330491Y-113782001D01*
X188300611Y-113730247D01*
X192849500Y-113730247D01*
X192849500Y-115469752D01*
X192861131Y-115528229D01*
X192861132Y-115528230D01*
X192905447Y-115594552D01*
X192971769Y-115638867D01*
X192971770Y-115638868D01*
X193030247Y-115650499D01*
X193030250Y-115650500D01*
X193030252Y-115650500D01*
X194769750Y-115650500D01*
X194769751Y-115650499D01*
X194784568Y-115647552D01*
X194828229Y-115638868D01*
X194828229Y-115638867D01*
X194828231Y-115638867D01*
X194894552Y-115594552D01*
X194914908Y-115564087D01*
X220242000Y-115564087D01*
X220242000Y-115935912D01*
X220274405Y-116306312D01*
X220338970Y-116672472D01*
X220338973Y-116672485D01*
X220435200Y-117031614D01*
X220435203Y-117031624D01*
X220435204Y-117031625D01*
X220562373Y-117381019D01*
X220562376Y-117381026D01*
X220562377Y-117381028D01*
X220719504Y-117717990D01*
X220719509Y-117717999D01*
X220905418Y-118040002D01*
X220905422Y-118040008D01*
X220905429Y-118040019D01*
X221118683Y-118344577D01*
X221174268Y-118410820D01*
X221357682Y-118629404D01*
X221620596Y-118892318D01*
X221646089Y-118913709D01*
X221905422Y-119131316D01*
X222209980Y-119344570D01*
X222209987Y-119344574D01*
X222209998Y-119344582D01*
X222511774Y-119518813D01*
X222531994Y-119530487D01*
X222532009Y-119530495D01*
X222532020Y-119530500D01*
X222868981Y-119687627D01*
X223218375Y-119814796D01*
X223218381Y-119814797D01*
X223218385Y-119814799D01*
X223316186Y-119841004D01*
X223577522Y-119911029D01*
X223943690Y-119975595D01*
X224314090Y-120007999D01*
X224314091Y-120008000D01*
X224314092Y-120008000D01*
X224685909Y-120008000D01*
X224685909Y-120007999D01*
X225056310Y-119975595D01*
X225422478Y-119911029D01*
X225781625Y-119814796D01*
X225872668Y-119781659D01*
X231902585Y-119781659D01*
X231902585Y-120141140D01*
X231942831Y-120498335D01*
X231942833Y-120498351D01*
X232022822Y-120848807D01*
X232022826Y-120848819D01*
X232141550Y-121188111D01*
X232297517Y-121511979D01*
X232297519Y-121511982D01*
X232488770Y-121816356D01*
X232655976Y-122026026D01*
X232695175Y-122075181D01*
X232712897Y-122097403D01*
X232967082Y-122351588D01*
X233248129Y-122575715D01*
X233552503Y-122766966D01*
X233876377Y-122922936D01*
X234131204Y-123012103D01*
X234215665Y-123041658D01*
X234215677Y-123041662D01*
X234566137Y-123121652D01*
X234923345Y-123161899D01*
X234923346Y-123161900D01*
X234923349Y-123161900D01*
X235282824Y-123161900D01*
X235282824Y-123161899D01*
X235640033Y-123121652D01*
X235990493Y-123041662D01*
X236329793Y-122922936D01*
X236653667Y-122766966D01*
X236958041Y-122575715D01*
X237239088Y-122351588D01*
X237493273Y-122097403D01*
X237717400Y-121816356D01*
X237908651Y-121511982D01*
X238064621Y-121188108D01*
X238183347Y-120848808D01*
X238263337Y-120498348D01*
X238303585Y-120141136D01*
X238303585Y-119781664D01*
X238263337Y-119424452D01*
X238183347Y-119073992D01*
X238064621Y-118734692D01*
X237960641Y-118518776D01*
X237908652Y-118410820D01*
X237805575Y-118246774D01*
X237717400Y-118106444D01*
X237493273Y-117825397D01*
X237239088Y-117571212D01*
X236958041Y-117347085D01*
X236653667Y-117155834D01*
X236653664Y-117155832D01*
X236329796Y-116999865D01*
X235990504Y-116881141D01*
X235990492Y-116881137D01*
X235640036Y-116801148D01*
X235640020Y-116801146D01*
X235282825Y-116760900D01*
X235282821Y-116760900D01*
X234923349Y-116760900D01*
X234923344Y-116760900D01*
X234566149Y-116801146D01*
X234566133Y-116801148D01*
X234215677Y-116881137D01*
X234215665Y-116881141D01*
X233876373Y-116999865D01*
X233552505Y-117155832D01*
X233248130Y-117347084D01*
X232967082Y-117571211D01*
X232712896Y-117825397D01*
X232488769Y-118106445D01*
X232297517Y-118410820D01*
X232141550Y-118734688D01*
X232022826Y-119073980D01*
X232022822Y-119073992D01*
X231942833Y-119424448D01*
X231942831Y-119424464D01*
X231902585Y-119781659D01*
X225872668Y-119781659D01*
X226131019Y-119687627D01*
X226301717Y-119608029D01*
X226467981Y-119530500D01*
X226467989Y-119530495D01*
X226467999Y-119530491D01*
X226790002Y-119344582D01*
X227094576Y-119131317D01*
X227379404Y-118892318D01*
X227642318Y-118629404D01*
X227881317Y-118344576D01*
X228094582Y-118040002D01*
X228280491Y-117717999D01*
X228437627Y-117381019D01*
X228564796Y-117031625D01*
X228661029Y-116672478D01*
X228725595Y-116306310D01*
X228758000Y-115935908D01*
X228758000Y-115564092D01*
X228725595Y-115193690D01*
X228661029Y-114827522D01*
X228581643Y-114531248D01*
X228564799Y-114468385D01*
X228564797Y-114468381D01*
X228564796Y-114468375D01*
X228437627Y-114118981D01*
X228287854Y-113797790D01*
X228280495Y-113782009D01*
X228280487Y-113781994D01*
X228216848Y-113671769D01*
X228094582Y-113459998D01*
X228094574Y-113459987D01*
X228094570Y-113459980D01*
X227881316Y-113155422D01*
X227741691Y-112989024D01*
X227642318Y-112870596D01*
X227379404Y-112607682D01*
X227246632Y-112496273D01*
X227094577Y-112368683D01*
X226790019Y-112155429D01*
X226790008Y-112155422D01*
X226790002Y-112155418D01*
X226620975Y-112057830D01*
X226468005Y-111969512D01*
X226467990Y-111969504D01*
X226131028Y-111812377D01*
X226131026Y-111812376D01*
X226131019Y-111812373D01*
X225781625Y-111685204D01*
X225781624Y-111685203D01*
X225781614Y-111685200D01*
X225422485Y-111588973D01*
X225422488Y-111588973D01*
X225422478Y-111588971D01*
X225363628Y-111578594D01*
X225056312Y-111524405D01*
X224685912Y-111492000D01*
X224685908Y-111492000D01*
X224314092Y-111492000D01*
X224314087Y-111492000D01*
X223943687Y-111524405D01*
X223577527Y-111588970D01*
X223577524Y-111588970D01*
X223577522Y-111588971D01*
X223577517Y-111588972D01*
X223577514Y-111588973D01*
X223218385Y-111685200D01*
X223043678Y-111748788D01*
X222868981Y-111812373D01*
X222868977Y-111812374D01*
X222868971Y-111812377D01*
X222532009Y-111969504D01*
X222531994Y-111969512D01*
X222210006Y-112155413D01*
X222209980Y-112155429D01*
X221905422Y-112368683D01*
X221620593Y-112607684D01*
X221357684Y-112870593D01*
X221118683Y-113155422D01*
X220905429Y-113459980D01*
X220905413Y-113460006D01*
X220719512Y-113781994D01*
X220719504Y-113782009D01*
X220562377Y-114118971D01*
X220435200Y-114468385D01*
X220338973Y-114827514D01*
X220338970Y-114827527D01*
X220274405Y-115193687D01*
X220242000Y-115564087D01*
X194914908Y-115564087D01*
X194938867Y-115528231D01*
X194938867Y-115528229D01*
X194938868Y-115528229D01*
X194950499Y-115469752D01*
X194950500Y-115469750D01*
X194950500Y-113730249D01*
X194950499Y-113730247D01*
X194938868Y-113671770D01*
X194938867Y-113671769D01*
X194894552Y-113605447D01*
X194828230Y-113561132D01*
X194828229Y-113561131D01*
X194769752Y-113549500D01*
X194769748Y-113549500D01*
X193030252Y-113549500D01*
X193030247Y-113549500D01*
X192971770Y-113561131D01*
X192971769Y-113561132D01*
X192905447Y-113605447D01*
X192861132Y-113671769D01*
X192861131Y-113671770D01*
X192849500Y-113730247D01*
X188300611Y-113730247D01*
X188144582Y-113459998D01*
X188144574Y-113459987D01*
X188144570Y-113459980D01*
X187931316Y-113155422D01*
X187791691Y-112989024D01*
X187692318Y-112870596D01*
X187429404Y-112607682D01*
X187296632Y-112496273D01*
X187144577Y-112368683D01*
X186840019Y-112155429D01*
X186840008Y-112155422D01*
X186840002Y-112155418D01*
X186659799Y-112051377D01*
X186518005Y-111969512D01*
X186517990Y-111969504D01*
X186490167Y-111956530D01*
X192849500Y-111956530D01*
X192849500Y-112163469D01*
X192889868Y-112366412D01*
X192889870Y-112366420D01*
X192969058Y-112557596D01*
X193084024Y-112729657D01*
X193230342Y-112875975D01*
X193230345Y-112875977D01*
X193402402Y-112990941D01*
X193593580Y-113070130D01*
X193796530Y-113110499D01*
X193796534Y-113110500D01*
X193796535Y-113110500D01*
X194003466Y-113110500D01*
X194003467Y-113110499D01*
X194206420Y-113070130D01*
X194397598Y-112990941D01*
X194569655Y-112875977D01*
X194715977Y-112729655D01*
X194830941Y-112557598D01*
X194910130Y-112366420D01*
X194950500Y-112163465D01*
X194950500Y-111956535D01*
X194910130Y-111753580D01*
X194830941Y-111562402D01*
X194715977Y-111390345D01*
X194715975Y-111390342D01*
X194569657Y-111244024D01*
X194483626Y-111186541D01*
X194397598Y-111129059D01*
X194206420Y-111049870D01*
X194206412Y-111049868D01*
X194003469Y-111009500D01*
X194003465Y-111009500D01*
X193796535Y-111009500D01*
X193796530Y-111009500D01*
X193593587Y-111049868D01*
X193593579Y-111049870D01*
X193402403Y-111129058D01*
X193230342Y-111244024D01*
X193084024Y-111390342D01*
X192969058Y-111562403D01*
X192889870Y-111753579D01*
X192889868Y-111753587D01*
X192849500Y-111956530D01*
X186490167Y-111956530D01*
X186181028Y-111812377D01*
X186181026Y-111812376D01*
X186181019Y-111812373D01*
X185831625Y-111685204D01*
X185831624Y-111685203D01*
X185831614Y-111685200D01*
X185472485Y-111588973D01*
X185472488Y-111588973D01*
X185472478Y-111588971D01*
X185413628Y-111578594D01*
X185106312Y-111524405D01*
X184735912Y-111492000D01*
X184735908Y-111492000D01*
X184364092Y-111492000D01*
X184364087Y-111492000D01*
X183993687Y-111524405D01*
X183627527Y-111588970D01*
X183627524Y-111588970D01*
X183627522Y-111588971D01*
X183627517Y-111588972D01*
X183627514Y-111588973D01*
X183268385Y-111685200D01*
X183093678Y-111748788D01*
X182918981Y-111812373D01*
X182918977Y-111812374D01*
X182918971Y-111812377D01*
X182582009Y-111969504D01*
X182581994Y-111969512D01*
X182260006Y-112155413D01*
X182259980Y-112155429D01*
X181955422Y-112368683D01*
X181670593Y-112607684D01*
X181407684Y-112870593D01*
X181168683Y-113155422D01*
X180955429Y-113459980D01*
X180955413Y-113460006D01*
X180769512Y-113781994D01*
X180769504Y-113782009D01*
X180612377Y-114118971D01*
X180485200Y-114468385D01*
X180388973Y-114827514D01*
X180388970Y-114827527D01*
X180324405Y-115193687D01*
X180292000Y-115564087D01*
X174458000Y-115564087D01*
X174425595Y-115193690D01*
X174361029Y-114827522D01*
X174281643Y-114531248D01*
X174264799Y-114468385D01*
X174264797Y-114468381D01*
X174264796Y-114468375D01*
X174137627Y-114118981D01*
X173987854Y-113797790D01*
X173980495Y-113782009D01*
X173980487Y-113781994D01*
X173916848Y-113671769D01*
X173794582Y-113459998D01*
X173794574Y-113459987D01*
X173794570Y-113459980D01*
X173581316Y-113155422D01*
X173441691Y-112989024D01*
X173342318Y-112870596D01*
X173079404Y-112607682D01*
X172946632Y-112496273D01*
X172794577Y-112368683D01*
X172490019Y-112155429D01*
X172490008Y-112155422D01*
X172490002Y-112155418D01*
X172320975Y-112057830D01*
X172168005Y-111969512D01*
X172167990Y-111969504D01*
X171831028Y-111812377D01*
X171831026Y-111812376D01*
X171831019Y-111812373D01*
X171481625Y-111685204D01*
X171481624Y-111685203D01*
X171481614Y-111685200D01*
X171122485Y-111588973D01*
X171122488Y-111588973D01*
X171122478Y-111588971D01*
X171063628Y-111578594D01*
X170756312Y-111524405D01*
X170385912Y-111492000D01*
X170385908Y-111492000D01*
X170014092Y-111492000D01*
X170014087Y-111492000D01*
X169643687Y-111524405D01*
X169277527Y-111588970D01*
X169277524Y-111588970D01*
X169277522Y-111588971D01*
X169277517Y-111588972D01*
X169277514Y-111588973D01*
X168918385Y-111685200D01*
X168743678Y-111748788D01*
X168568981Y-111812373D01*
X168568977Y-111812374D01*
X168568971Y-111812377D01*
X168232009Y-111969504D01*
X168231994Y-111969512D01*
X167910006Y-112155413D01*
X167909980Y-112155429D01*
X167605422Y-112368683D01*
X167320593Y-112607684D01*
X167057684Y-112870593D01*
X166818683Y-113155422D01*
X166605429Y-113459980D01*
X166605413Y-113460006D01*
X166419512Y-113781994D01*
X166419504Y-113782009D01*
X166262377Y-114118971D01*
X166135200Y-114468385D01*
X166038973Y-114827514D01*
X166038970Y-114827527D01*
X165974405Y-115193687D01*
X165942000Y-115564087D01*
X135250592Y-115564087D01*
X135253242Y-113138549D01*
X153349500Y-113138549D01*
X153349500Y-113361450D01*
X153349501Y-113361466D01*
X153378594Y-113582452D01*
X153378595Y-113582457D01*
X153378596Y-113582463D01*
X153432060Y-113781994D01*
X153436290Y-113797780D01*
X153436293Y-113797790D01*
X153521593Y-114003722D01*
X153521595Y-114003726D01*
X153633052Y-114196774D01*
X153633057Y-114196780D01*
X153633058Y-114196782D01*
X153768751Y-114373622D01*
X153768757Y-114373629D01*
X153926370Y-114531242D01*
X153926376Y-114531247D01*
X154103226Y-114666948D01*
X154296274Y-114778405D01*
X154502219Y-114863710D01*
X154717537Y-114921404D01*
X154938543Y-114950500D01*
X154938550Y-114950500D01*
X155161450Y-114950500D01*
X155161457Y-114950500D01*
X155382463Y-114921404D01*
X155597781Y-114863710D01*
X155803726Y-114778405D01*
X155996774Y-114666948D01*
X156173624Y-114531247D01*
X156331247Y-114373624D01*
X156466948Y-114196774D01*
X156578405Y-114003726D01*
X156663710Y-113797781D01*
X156721404Y-113582463D01*
X156750500Y-113361457D01*
X156750500Y-113138543D01*
X156721404Y-112917537D01*
X156663710Y-112702219D01*
X156578405Y-112496274D01*
X156466948Y-112303226D01*
X156331247Y-112126376D01*
X156331242Y-112126370D01*
X156173629Y-111968757D01*
X156173622Y-111968751D01*
X155996782Y-111833058D01*
X155996780Y-111833057D01*
X155996774Y-111833052D01*
X155803726Y-111721595D01*
X155803722Y-111721593D01*
X155597790Y-111636293D01*
X155597783Y-111636291D01*
X155597781Y-111636290D01*
X155382463Y-111578596D01*
X155382457Y-111578595D01*
X155382452Y-111578594D01*
X155161466Y-111549501D01*
X155161463Y-111549500D01*
X155161457Y-111549500D01*
X154938543Y-111549500D01*
X154938537Y-111549500D01*
X154938533Y-111549501D01*
X154717547Y-111578594D01*
X154717540Y-111578595D01*
X154717537Y-111578596D01*
X154502219Y-111636290D01*
X154502209Y-111636293D01*
X154296277Y-111721593D01*
X154296273Y-111721595D01*
X154103226Y-111833052D01*
X154103217Y-111833058D01*
X153926377Y-111968751D01*
X153926370Y-111968757D01*
X153768757Y-112126370D01*
X153768751Y-112126377D01*
X153633058Y-112303217D01*
X153633052Y-112303226D01*
X153521595Y-112496273D01*
X153521593Y-112496277D01*
X153436293Y-112702209D01*
X153436290Y-112702219D01*
X153389733Y-112875975D01*
X153378597Y-112917534D01*
X153378594Y-112917547D01*
X153349501Y-113138533D01*
X153349500Y-113138549D01*
X135253242Y-113138549D01*
X135258051Y-108736530D01*
X215749500Y-108736530D01*
X215749500Y-108943469D01*
X215789868Y-109146412D01*
X215789870Y-109146420D01*
X215869058Y-109337596D01*
X215984024Y-109509657D01*
X216130342Y-109655975D01*
X216130345Y-109655977D01*
X216302402Y-109770941D01*
X216493580Y-109850130D01*
X216696530Y-109890499D01*
X216696534Y-109890500D01*
X216696535Y-109890500D01*
X216903466Y-109890500D01*
X216903467Y-109890499D01*
X217106420Y-109850130D01*
X217297598Y-109770941D01*
X217469655Y-109655977D01*
X217615977Y-109509655D01*
X217730941Y-109337598D01*
X217810130Y-109146420D01*
X217850500Y-108943465D01*
X217850500Y-108736535D01*
X217810130Y-108533580D01*
X217730941Y-108342402D01*
X217615977Y-108170345D01*
X217615975Y-108170342D01*
X217469657Y-108024024D01*
X217335236Y-107934208D01*
X217297598Y-107909059D01*
X217106420Y-107829870D01*
X217106412Y-107829868D01*
X216903469Y-107789500D01*
X216903465Y-107789500D01*
X216696535Y-107789500D01*
X216696530Y-107789500D01*
X216493587Y-107829868D01*
X216493579Y-107829870D01*
X216302403Y-107909058D01*
X216130342Y-108024024D01*
X215984024Y-108170342D01*
X215869058Y-108342403D01*
X215789870Y-108533579D01*
X215789868Y-108533587D01*
X215749500Y-108736530D01*
X135258051Y-108736530D01*
X135260812Y-106209051D01*
X153357912Y-106209051D01*
X153357912Y-106431952D01*
X153357913Y-106431968D01*
X153387006Y-106652954D01*
X153387007Y-106652959D01*
X153387008Y-106652965D01*
X153444702Y-106868282D01*
X153444705Y-106868292D01*
X153501920Y-107006420D01*
X153530007Y-107074228D01*
X153641464Y-107267276D01*
X153641469Y-107267282D01*
X153641470Y-107267284D01*
X153777163Y-107444124D01*
X153777169Y-107444131D01*
X153934782Y-107601744D01*
X153934789Y-107601750D01*
X153969299Y-107628230D01*
X154111638Y-107737450D01*
X154304686Y-107848907D01*
X154510631Y-107934212D01*
X154725949Y-107991906D01*
X154946955Y-108021002D01*
X154946962Y-108021002D01*
X155169862Y-108021002D01*
X155169869Y-108021002D01*
X155390875Y-107991906D01*
X155606193Y-107934212D01*
X155812138Y-107848907D01*
X156005186Y-107737450D01*
X156182036Y-107601749D01*
X156339659Y-107444126D01*
X156475360Y-107267276D01*
X156586817Y-107074228D01*
X156672122Y-106868283D01*
X156729816Y-106652965D01*
X156758912Y-106431959D01*
X156758912Y-106209045D01*
X156729816Y-105988039D01*
X156687536Y-105830247D01*
X198599500Y-105830247D01*
X198599500Y-107569752D01*
X198611131Y-107628229D01*
X198611132Y-107628230D01*
X198655447Y-107694552D01*
X198721769Y-107738867D01*
X198721770Y-107738868D01*
X198780247Y-107750499D01*
X198780250Y-107750500D01*
X198780252Y-107750500D01*
X200519750Y-107750500D01*
X200519751Y-107750499D01*
X200534568Y-107747552D01*
X200578229Y-107738868D01*
X200578229Y-107738867D01*
X200578231Y-107738867D01*
X200644552Y-107694552D01*
X200688867Y-107628231D01*
X200688867Y-107628229D01*
X200688868Y-107628229D01*
X200700499Y-107569752D01*
X200700500Y-107569750D01*
X200700500Y-106596530D01*
X201139500Y-106596530D01*
X201139500Y-106803469D01*
X201179868Y-107006412D01*
X201179870Y-107006420D01*
X201259058Y-107197596D01*
X201374024Y-107369657D01*
X201520342Y-107515975D01*
X201520345Y-107515977D01*
X201692402Y-107630941D01*
X201883580Y-107710130D01*
X202020893Y-107737443D01*
X202086530Y-107750499D01*
X202086534Y-107750500D01*
X202086535Y-107750500D01*
X202293466Y-107750500D01*
X202293467Y-107750499D01*
X202496420Y-107710130D01*
X202687598Y-107630941D01*
X202859655Y-107515977D01*
X203005977Y-107369655D01*
X203120941Y-107197598D01*
X203200130Y-107006420D01*
X203240500Y-106803465D01*
X203240500Y-106596535D01*
X203200130Y-106393580D01*
X203120941Y-106202402D01*
X203005977Y-106030345D01*
X203005975Y-106030342D01*
X202859657Y-105884024D01*
X202706590Y-105781749D01*
X202687598Y-105769059D01*
X202496420Y-105689870D01*
X202496412Y-105689868D01*
X202293469Y-105649500D01*
X202293465Y-105649500D01*
X202086535Y-105649500D01*
X202086530Y-105649500D01*
X201883587Y-105689868D01*
X201883579Y-105689870D01*
X201692403Y-105769058D01*
X201520342Y-105884024D01*
X201374024Y-106030342D01*
X201259058Y-106202403D01*
X201179870Y-106393579D01*
X201179868Y-106393587D01*
X201139500Y-106596530D01*
X200700500Y-106596530D01*
X200700500Y-105830253D01*
X200700499Y-105830247D01*
X200696543Y-105810359D01*
X200696533Y-105804585D01*
X200694525Y-105795858D01*
X200692971Y-105792401D01*
X200688867Y-105771769D01*
X200678809Y-105756718D01*
X200668817Y-105738674D01*
X200668665Y-105738337D01*
X200661651Y-105722733D01*
X200661649Y-105722730D01*
X200661649Y-105722729D01*
X200500253Y-105496089D01*
X200453365Y-105430247D01*
X215749500Y-105430247D01*
X215749500Y-107169752D01*
X215761131Y-107228229D01*
X215761132Y-107228230D01*
X215805447Y-107294552D01*
X215871769Y-107338867D01*
X215871770Y-107338868D01*
X215930247Y-107350499D01*
X215930250Y-107350500D01*
X215930252Y-107350500D01*
X217669750Y-107350500D01*
X217669751Y-107350499D01*
X217684568Y-107347552D01*
X217728229Y-107338868D01*
X217728229Y-107338867D01*
X217728231Y-107338867D01*
X217794552Y-107294552D01*
X217838867Y-107228231D01*
X217838867Y-107228229D01*
X217838868Y-107228229D01*
X217850499Y-107169752D01*
X217850500Y-107169750D01*
X217850500Y-105430249D01*
X217850499Y-105430247D01*
X217838868Y-105371770D01*
X217838867Y-105371769D01*
X217794552Y-105305447D01*
X217728230Y-105261132D01*
X217728229Y-105261131D01*
X217669752Y-105249500D01*
X217669748Y-105249500D01*
X215930252Y-105249500D01*
X215930247Y-105249500D01*
X215871770Y-105261131D01*
X215871769Y-105261132D01*
X215805447Y-105305447D01*
X215761132Y-105371769D01*
X215761131Y-105371770D01*
X215749500Y-105430247D01*
X200453365Y-105430247D01*
X200365039Y-105306215D01*
X200342186Y-105240188D01*
X200358657Y-105172288D01*
X200378360Y-105146609D01*
X200488153Y-105036818D01*
X200549476Y-105003334D01*
X200575833Y-105000500D01*
X204339560Y-105000500D01*
X204339562Y-105000500D01*
X204415989Y-104980021D01*
X204484511Y-104940460D01*
X204540460Y-104884511D01*
X205479263Y-103945706D01*
X205540584Y-103912223D01*
X205541129Y-103912105D01*
X206998904Y-103603194D01*
X207024610Y-103600500D01*
X207211450Y-103600500D01*
X207211457Y-103600500D01*
X207432463Y-103571404D01*
X207647781Y-103513710D01*
X207853726Y-103428405D01*
X208046774Y-103316948D01*
X208223624Y-103181247D01*
X208381247Y-103023624D01*
X208516948Y-102846774D01*
X208628405Y-102653726D01*
X208713710Y-102447781D01*
X208771404Y-102232463D01*
X208800500Y-102011457D01*
X208800500Y-101788543D01*
X208771404Y-101567537D01*
X208713710Y-101352219D01*
X208628405Y-101146274D01*
X208516948Y-100953226D01*
X208381247Y-100776376D01*
X208381242Y-100776370D01*
X208223629Y-100618757D01*
X208223622Y-100618751D01*
X208046782Y-100483058D01*
X208046780Y-100483057D01*
X208046774Y-100483052D01*
X207853726Y-100371595D01*
X207853722Y-100371593D01*
X207647790Y-100286293D01*
X207647783Y-100286291D01*
X207647781Y-100286290D01*
X207432463Y-100228596D01*
X207432457Y-100228595D01*
X207432452Y-100228594D01*
X207211466Y-100199501D01*
X207211463Y-100199500D01*
X207211457Y-100199500D01*
X206988543Y-100199500D01*
X206988537Y-100199500D01*
X206988533Y-100199501D01*
X206767547Y-100228594D01*
X206767540Y-100228595D01*
X206767537Y-100228596D01*
X206730392Y-100238549D01*
X206552219Y-100286290D01*
X206552209Y-100286293D01*
X206346277Y-100371593D01*
X206346273Y-100371595D01*
X206153226Y-100483052D01*
X206153217Y-100483058D01*
X205976377Y-100618751D01*
X205976370Y-100618757D01*
X205818757Y-100776370D01*
X205818751Y-100776377D01*
X205683058Y-100953217D01*
X205683052Y-100953226D01*
X205571595Y-101146273D01*
X205571593Y-101146277D01*
X205486293Y-101352209D01*
X205486290Y-101352219D01*
X205453759Y-101473629D01*
X205428597Y-101567534D01*
X205428594Y-101567547D01*
X205399501Y-101788533D01*
X205399500Y-101788549D01*
X205399500Y-101975386D01*
X205396806Y-102001092D01*
X205087914Y-103458763D01*
X205054760Y-103520265D01*
X205054289Y-103520738D01*
X204211848Y-104363181D01*
X204150525Y-104396666D01*
X204124167Y-104399500D01*
X200360438Y-104399500D01*
X200322224Y-104409739D01*
X200284009Y-104419979D01*
X200284004Y-104419982D01*
X200215495Y-104459535D01*
X200215487Y-104459541D01*
X199786011Y-104889016D01*
X199762309Y-104906774D01*
X199762421Y-104906937D01*
X199758754Y-104909438D01*
X199757850Y-104910116D01*
X199757400Y-104910361D01*
X199757384Y-104910372D01*
X198908753Y-105620592D01*
X198844708Y-105648523D01*
X198829170Y-105649500D01*
X198780247Y-105649500D01*
X198721770Y-105661131D01*
X198721769Y-105661132D01*
X198655447Y-105705447D01*
X198611132Y-105771769D01*
X198611131Y-105771770D01*
X198599500Y-105830247D01*
X156687536Y-105830247D01*
X156672122Y-105772721D01*
X156671728Y-105771771D01*
X156586818Y-105566779D01*
X156586817Y-105566776D01*
X156475360Y-105373728D01*
X156339659Y-105196878D01*
X156339654Y-105196872D01*
X156182041Y-105039259D01*
X156182034Y-105039253D01*
X156005194Y-104903560D01*
X156005192Y-104903559D01*
X156005186Y-104903554D01*
X155812138Y-104792097D01*
X155812134Y-104792095D01*
X155606202Y-104706795D01*
X155606195Y-104706793D01*
X155606193Y-104706792D01*
X155390875Y-104649098D01*
X155390869Y-104649097D01*
X155390864Y-104649096D01*
X155169878Y-104620003D01*
X155169875Y-104620002D01*
X155169869Y-104620002D01*
X154946955Y-104620002D01*
X154946949Y-104620002D01*
X154946945Y-104620003D01*
X154725959Y-104649096D01*
X154725952Y-104649097D01*
X154725949Y-104649098D01*
X154510631Y-104706792D01*
X154510621Y-104706795D01*
X154304689Y-104792095D01*
X154304685Y-104792097D01*
X154111638Y-104903554D01*
X154111629Y-104903560D01*
X153934789Y-105039253D01*
X153934782Y-105039259D01*
X153777169Y-105196872D01*
X153777163Y-105196879D01*
X153641470Y-105373719D01*
X153641464Y-105373728D01*
X153530007Y-105566775D01*
X153530005Y-105566779D01*
X153444705Y-105772711D01*
X153444703Y-105772718D01*
X153444702Y-105772721D01*
X153387119Y-105987627D01*
X153387009Y-105988036D01*
X153387006Y-105988049D01*
X153357913Y-106209035D01*
X153357912Y-106209051D01*
X135260812Y-106209051D01*
X135264531Y-102805247D01*
X180749500Y-102805247D01*
X180749500Y-104544752D01*
X180761131Y-104603229D01*
X180761132Y-104603230D01*
X180805447Y-104669552D01*
X180871769Y-104713867D01*
X180871770Y-104713868D01*
X180930247Y-104725499D01*
X180930250Y-104725500D01*
X180930252Y-104725500D01*
X182669750Y-104725500D01*
X182669751Y-104725499D01*
X182684568Y-104722552D01*
X182728229Y-104713868D01*
X182728229Y-104713867D01*
X182728231Y-104713867D01*
X182794552Y-104669552D01*
X182838867Y-104603231D01*
X182838867Y-104603229D01*
X182838868Y-104603229D01*
X182850499Y-104544752D01*
X182850500Y-104544750D01*
X182850500Y-102805249D01*
X182850499Y-102805247D01*
X182838868Y-102746770D01*
X182838867Y-102746769D01*
X182794552Y-102680447D01*
X182728230Y-102636132D01*
X182728229Y-102636131D01*
X182669752Y-102624500D01*
X182669748Y-102624500D01*
X180930252Y-102624500D01*
X180930247Y-102624500D01*
X180871770Y-102636131D01*
X180871769Y-102636132D01*
X180805447Y-102680447D01*
X180761132Y-102746769D01*
X180761131Y-102746770D01*
X180749500Y-102805247D01*
X135264531Y-102805247D01*
X135267335Y-100238549D01*
X153349500Y-100238549D01*
X153349500Y-100461450D01*
X153349501Y-100461466D01*
X153378594Y-100682452D01*
X153378595Y-100682457D01*
X153378596Y-100682463D01*
X153417748Y-100828580D01*
X153436290Y-100897780D01*
X153436293Y-100897790D01*
X153510266Y-101076376D01*
X153521595Y-101103726D01*
X153633052Y-101296774D01*
X153633057Y-101296780D01*
X153633058Y-101296782D01*
X153768751Y-101473622D01*
X153768757Y-101473629D01*
X153926370Y-101631242D01*
X153926377Y-101631248D01*
X153953694Y-101652209D01*
X154103226Y-101766948D01*
X154296274Y-101878405D01*
X154502219Y-101963710D01*
X154717537Y-102021404D01*
X154938543Y-102050500D01*
X154938550Y-102050500D01*
X155161450Y-102050500D01*
X155161457Y-102050500D01*
X155382463Y-102021404D01*
X155597781Y-101963710D01*
X155803726Y-101878405D01*
X155996774Y-101766948D01*
X156173624Y-101631247D01*
X156331247Y-101473624D01*
X156466948Y-101296774D01*
X156578405Y-101103726D01*
X156608308Y-101031534D01*
X156608310Y-101031530D01*
X180749500Y-101031530D01*
X180749500Y-101238469D01*
X180789868Y-101441412D01*
X180789870Y-101441420D01*
X180869059Y-101632598D01*
X180926541Y-101718626D01*
X180984024Y-101804657D01*
X181130342Y-101950975D01*
X181130345Y-101950977D01*
X181302402Y-102065941D01*
X181493580Y-102145130D01*
X181696530Y-102185499D01*
X181696534Y-102185500D01*
X181696535Y-102185500D01*
X181903466Y-102185500D01*
X181903467Y-102185499D01*
X182106420Y-102145130D01*
X182297598Y-102065941D01*
X182469655Y-101950977D01*
X182615977Y-101804655D01*
X182730941Y-101632598D01*
X182810130Y-101441420D01*
X182850500Y-101238465D01*
X182850500Y-101031535D01*
X182810130Y-100828580D01*
X182730941Y-100637402D01*
X182615977Y-100465345D01*
X182615975Y-100465342D01*
X182469657Y-100319024D01*
X182349192Y-100238533D01*
X182297598Y-100204059D01*
X182106420Y-100124870D01*
X182106412Y-100124868D01*
X181903469Y-100084500D01*
X181903465Y-100084500D01*
X181696535Y-100084500D01*
X181696530Y-100084500D01*
X181493587Y-100124868D01*
X181493579Y-100124870D01*
X181302403Y-100204058D01*
X181130342Y-100319024D01*
X180984024Y-100465342D01*
X180869058Y-100637403D01*
X180789870Y-100828579D01*
X180789868Y-100828587D01*
X180749500Y-101031530D01*
X156608310Y-101031530D01*
X156630487Y-100977990D01*
X156630487Y-100977988D01*
X156663704Y-100897796D01*
X156663706Y-100897790D01*
X156663710Y-100897781D01*
X156721404Y-100682463D01*
X156750500Y-100461457D01*
X156750500Y-100238543D01*
X156721404Y-100017537D01*
X156663710Y-99802219D01*
X156578405Y-99596274D01*
X156466948Y-99403226D01*
X156331247Y-99226376D01*
X156331242Y-99226370D01*
X156173629Y-99068757D01*
X156173622Y-99068751D01*
X155996782Y-98933058D01*
X155996780Y-98933057D01*
X155996774Y-98933052D01*
X155803726Y-98821595D01*
X155803722Y-98821593D01*
X155597790Y-98736293D01*
X155597783Y-98736291D01*
X155597781Y-98736290D01*
X155382463Y-98678596D01*
X155382457Y-98678595D01*
X155382452Y-98678594D01*
X155161466Y-98649501D01*
X155161463Y-98649500D01*
X155161457Y-98649500D01*
X154938543Y-98649500D01*
X154938537Y-98649500D01*
X154938533Y-98649501D01*
X154717547Y-98678594D01*
X154717540Y-98678595D01*
X154717537Y-98678596D01*
X154502219Y-98736290D01*
X154502209Y-98736293D01*
X154296277Y-98821593D01*
X154296273Y-98821595D01*
X154103226Y-98933052D01*
X154103217Y-98933058D01*
X153926377Y-99068751D01*
X153926370Y-99068757D01*
X153768757Y-99226370D01*
X153768751Y-99226377D01*
X153633058Y-99403217D01*
X153633052Y-99403226D01*
X153521595Y-99596273D01*
X153521593Y-99596277D01*
X153436293Y-99802209D01*
X153436290Y-99802219D01*
X153378597Y-100017534D01*
X153378594Y-100017547D01*
X153349501Y-100238533D01*
X153349500Y-100238549D01*
X135267335Y-100238549D01*
X135273344Y-94738549D01*
X153349500Y-94738549D01*
X153349500Y-94961450D01*
X153349501Y-94961466D01*
X153378594Y-95182452D01*
X153378595Y-95182457D01*
X153378596Y-95182463D01*
X153436290Y-95397780D01*
X153436293Y-95397790D01*
X153520108Y-95600136D01*
X153521595Y-95603726D01*
X153633052Y-95796774D01*
X153633057Y-95796780D01*
X153633058Y-95796782D01*
X153768751Y-95973622D01*
X153768757Y-95973629D01*
X153926370Y-96131242D01*
X153926376Y-96131247D01*
X154103226Y-96266948D01*
X154296274Y-96378405D01*
X154502219Y-96463710D01*
X154717537Y-96521404D01*
X154938543Y-96550500D01*
X154938550Y-96550500D01*
X155161450Y-96550500D01*
X155161457Y-96550500D01*
X155382463Y-96521404D01*
X155597781Y-96463710D01*
X155803726Y-96378405D01*
X155996774Y-96266948D01*
X156173624Y-96131247D01*
X156216322Y-96088549D01*
X205399500Y-96088549D01*
X205399500Y-96311450D01*
X205399501Y-96311466D01*
X205428594Y-96532452D01*
X205428595Y-96532457D01*
X205428596Y-96532463D01*
X205433429Y-96550500D01*
X205486290Y-96747780D01*
X205486293Y-96747790D01*
X205571593Y-96953722D01*
X205571595Y-96953726D01*
X205683052Y-97146774D01*
X205683057Y-97146780D01*
X205683058Y-97146782D01*
X205818751Y-97323622D01*
X205818757Y-97323629D01*
X205976370Y-97481242D01*
X205976376Y-97481247D01*
X206153226Y-97616948D01*
X206346274Y-97728405D01*
X206552219Y-97813710D01*
X206767537Y-97871404D01*
X206988543Y-97900500D01*
X206988550Y-97900500D01*
X207211450Y-97900500D01*
X207211457Y-97900500D01*
X207432463Y-97871404D01*
X207647781Y-97813710D01*
X207853726Y-97728405D01*
X208046774Y-97616948D01*
X208223624Y-97481247D01*
X208381247Y-97323624D01*
X208516948Y-97146774D01*
X208628405Y-96953726D01*
X208713710Y-96747781D01*
X208771404Y-96532463D01*
X208800500Y-96311457D01*
X208800500Y-96088543D01*
X208771404Y-95867537D01*
X208713710Y-95652219D01*
X208628405Y-95446274D01*
X208516948Y-95253226D01*
X208470492Y-95192683D01*
X208381248Y-95076377D01*
X208381242Y-95076370D01*
X208223629Y-94918757D01*
X208223622Y-94918751D01*
X208046782Y-94783058D01*
X208046780Y-94783057D01*
X208046774Y-94783052D01*
X207853726Y-94671595D01*
X207853722Y-94671593D01*
X207647790Y-94586293D01*
X207647783Y-94586291D01*
X207647781Y-94586290D01*
X207432463Y-94528596D01*
X207432457Y-94528595D01*
X207432452Y-94528594D01*
X207211466Y-94499501D01*
X207211463Y-94499500D01*
X207211457Y-94499500D01*
X206988543Y-94499500D01*
X206988537Y-94499500D01*
X206988533Y-94499501D01*
X206767547Y-94528594D01*
X206767540Y-94528595D01*
X206767537Y-94528596D01*
X206644547Y-94561551D01*
X206552219Y-94586290D01*
X206552209Y-94586293D01*
X206346277Y-94671593D01*
X206346273Y-94671595D01*
X206153226Y-94783052D01*
X206153217Y-94783058D01*
X205976377Y-94918751D01*
X205976370Y-94918757D01*
X205818757Y-95076370D01*
X205818751Y-95076377D01*
X205683058Y-95253217D01*
X205683052Y-95253226D01*
X205571595Y-95446273D01*
X205571593Y-95446277D01*
X205486293Y-95652209D01*
X205486290Y-95652219D01*
X205446559Y-95800500D01*
X205428597Y-95867534D01*
X205428594Y-95867547D01*
X205399501Y-96088533D01*
X205399500Y-96088549D01*
X156216322Y-96088549D01*
X156331247Y-95973624D01*
X156466948Y-95796774D01*
X156578405Y-95603726D01*
X156648663Y-95434108D01*
X191199500Y-95434108D01*
X191199500Y-95565892D01*
X191216554Y-95629539D01*
X191233608Y-95693187D01*
X191260902Y-95740460D01*
X191299500Y-95807314D01*
X191392686Y-95900500D01*
X191506814Y-95966392D01*
X191634108Y-96000500D01*
X191634110Y-96000500D01*
X191765890Y-96000500D01*
X191765892Y-96000500D01*
X191819504Y-95986134D01*
X191841337Y-95982801D01*
X191867927Y-95973160D01*
X191893186Y-95966392D01*
X191894849Y-95965431D01*
X191914580Y-95956243D01*
X192323649Y-95807926D01*
X192365916Y-95800500D01*
X193156660Y-95800500D01*
X193156662Y-95800500D01*
X193233089Y-95780021D01*
X193301611Y-95740460D01*
X193357560Y-95684511D01*
X194954252Y-94087819D01*
X195015575Y-94054334D01*
X195041933Y-94051500D01*
X208275167Y-94051500D01*
X208342206Y-94071185D01*
X208362848Y-94087819D01*
X213805929Y-99530900D01*
X213839414Y-99592223D01*
X213834430Y-99661915D01*
X213822201Y-99686181D01*
X213017146Y-100924171D01*
X213000875Y-100944252D01*
X212868750Y-101076378D01*
X212733058Y-101253217D01*
X212733052Y-101253226D01*
X212621595Y-101446273D01*
X212621593Y-101446277D01*
X212536293Y-101652209D01*
X212536290Y-101652219D01*
X212479520Y-101864091D01*
X212478597Y-101867534D01*
X212478594Y-101867547D01*
X212449501Y-102088533D01*
X212449500Y-102088549D01*
X212449500Y-102311450D01*
X212449501Y-102311466D01*
X212478594Y-102532452D01*
X212478595Y-102532457D01*
X212478596Y-102532463D01*
X212536019Y-102746769D01*
X212536290Y-102747780D01*
X212536293Y-102747790D01*
X212577294Y-102846774D01*
X212621595Y-102953726D01*
X212733052Y-103146774D01*
X212733057Y-103146780D01*
X212733058Y-103146782D01*
X212868751Y-103323622D01*
X212868757Y-103323629D01*
X213026370Y-103481242D01*
X213026377Y-103481248D01*
X213077842Y-103520738D01*
X213203226Y-103616948D01*
X213396274Y-103728405D01*
X213602219Y-103813710D01*
X213817537Y-103871404D01*
X214038543Y-103900500D01*
X214038550Y-103900500D01*
X214261450Y-103900500D01*
X214261457Y-103900500D01*
X214482463Y-103871404D01*
X214697781Y-103813710D01*
X214903726Y-103728405D01*
X215096774Y-103616948D01*
X215273624Y-103481247D01*
X215431247Y-103323624D01*
X215566948Y-103146774D01*
X215678405Y-102953726D01*
X215763710Y-102747781D01*
X215821404Y-102532463D01*
X215850500Y-102311457D01*
X215850500Y-102088543D01*
X215821404Y-101867537D01*
X215820480Y-101864087D01*
X220242000Y-101864087D01*
X220242000Y-102235912D01*
X220274405Y-102606312D01*
X220316806Y-102846774D01*
X220335664Y-102953726D01*
X220338970Y-102972472D01*
X220338973Y-102972485D01*
X220435200Y-103331614D01*
X220435203Y-103331624D01*
X220435204Y-103331625D01*
X220562373Y-103681019D01*
X220562376Y-103681026D01*
X220562377Y-103681028D01*
X220719504Y-104017990D01*
X220719509Y-104017999D01*
X220905418Y-104340002D01*
X220905422Y-104340008D01*
X220905429Y-104340019D01*
X221118683Y-104644577D01*
X221186585Y-104725499D01*
X221357682Y-104929404D01*
X221620596Y-105192318D01*
X221702607Y-105261133D01*
X221905422Y-105431316D01*
X222209980Y-105644570D01*
X222209987Y-105644574D01*
X222209998Y-105644582D01*
X222472015Y-105795858D01*
X222531994Y-105830487D01*
X222532009Y-105830495D01*
X222587248Y-105856253D01*
X222868981Y-105987627D01*
X223218375Y-106114796D01*
X223218381Y-106114797D01*
X223218385Y-106114799D01*
X223316186Y-106141004D01*
X223577522Y-106211029D01*
X223943690Y-106275595D01*
X224314090Y-106307999D01*
X224314091Y-106308000D01*
X224314092Y-106308000D01*
X224685909Y-106308000D01*
X224685909Y-106307999D01*
X225056310Y-106275595D01*
X225422478Y-106211029D01*
X225781625Y-106114796D01*
X226131019Y-105987627D01*
X226467999Y-105830491D01*
X226790002Y-105644582D01*
X227094576Y-105431317D01*
X227379404Y-105192318D01*
X227642318Y-104929404D01*
X227881317Y-104644576D01*
X228094582Y-104340002D01*
X228280491Y-104017999D01*
X228437627Y-103681019D01*
X228564796Y-103331625D01*
X228661029Y-102972478D01*
X228725595Y-102606310D01*
X228758000Y-102235908D01*
X228758000Y-101864092D01*
X228725595Y-101493690D01*
X228661029Y-101127522D01*
X228566940Y-100776376D01*
X228564799Y-100768385D01*
X228564797Y-100768381D01*
X228564796Y-100768375D01*
X228437627Y-100418981D01*
X228348848Y-100228594D01*
X228280495Y-100082009D01*
X228280487Y-100081994D01*
X228118958Y-99802219D01*
X228094582Y-99759998D01*
X228094574Y-99759987D01*
X228094570Y-99759980D01*
X227881316Y-99455422D01*
X227642315Y-99170593D01*
X227379406Y-98907684D01*
X227094577Y-98668683D01*
X226790019Y-98455429D01*
X226790008Y-98455422D01*
X226790002Y-98455418D01*
X226694331Y-98400182D01*
X226468005Y-98269512D01*
X226467990Y-98269504D01*
X226131028Y-98112377D01*
X226131026Y-98112376D01*
X226131019Y-98112373D01*
X225781625Y-97985204D01*
X225781624Y-97985203D01*
X225781614Y-97985200D01*
X225422485Y-97888973D01*
X225422488Y-97888973D01*
X225422478Y-97888971D01*
X225370777Y-97879854D01*
X225056312Y-97824405D01*
X224685912Y-97792000D01*
X224685908Y-97792000D01*
X224314092Y-97792000D01*
X224314087Y-97792000D01*
X223943687Y-97824405D01*
X223577527Y-97888970D01*
X223577524Y-97888970D01*
X223577522Y-97888971D01*
X223577517Y-97888972D01*
X223577514Y-97888973D01*
X223218385Y-97985200D01*
X223043678Y-98048788D01*
X222868981Y-98112373D01*
X222868977Y-98112374D01*
X222868971Y-98112377D01*
X222532009Y-98269504D01*
X222531994Y-98269512D01*
X222210006Y-98455413D01*
X222209980Y-98455429D01*
X221905422Y-98668683D01*
X221620593Y-98907684D01*
X221357684Y-99170593D01*
X221118683Y-99455422D01*
X220905429Y-99759980D01*
X220905413Y-99760006D01*
X220719512Y-100081994D01*
X220719504Y-100082009D01*
X220562377Y-100418971D01*
X220435200Y-100768385D01*
X220338973Y-101127514D01*
X220338970Y-101127527D01*
X220274405Y-101493687D01*
X220242000Y-101864087D01*
X215820480Y-101864087D01*
X215763710Y-101652219D01*
X215678405Y-101446274D01*
X215566948Y-101253226D01*
X215484884Y-101146277D01*
X215431249Y-101076378D01*
X215386401Y-101031530D01*
X215299117Y-100944246D01*
X215282850Y-100924170D01*
X215265699Y-100897796D01*
X214814569Y-100204059D01*
X214470547Y-99675030D01*
X214450502Y-99608097D01*
X214450500Y-99607430D01*
X214450500Y-99410439D01*
X214450500Y-99410438D01*
X214430021Y-99334011D01*
X214430017Y-99334004D01*
X214390464Y-99265495D01*
X214390458Y-99265487D01*
X208987152Y-93862181D01*
X208953667Y-93800858D01*
X208958651Y-93731166D01*
X209000523Y-93675233D01*
X209065987Y-93650816D01*
X209074833Y-93650500D01*
X212524167Y-93650500D01*
X212591206Y-93670185D01*
X212611848Y-93686819D01*
X212952147Y-94027118D01*
X212985632Y-94088441D01*
X212983703Y-94148835D01*
X212640818Y-95350053D01*
X212628971Y-95378011D01*
X212619634Y-95394183D01*
X212619625Y-95394203D01*
X212534324Y-95600136D01*
X212534321Y-95600146D01*
X212476628Y-95815461D01*
X212476625Y-95815474D01*
X212447532Y-96036460D01*
X212447531Y-96036476D01*
X212447531Y-96259377D01*
X212447532Y-96259393D01*
X212476625Y-96480379D01*
X212476626Y-96480384D01*
X212476627Y-96480390D01*
X212495413Y-96550500D01*
X212534321Y-96695707D01*
X212534324Y-96695717D01*
X212619624Y-96901649D01*
X212619626Y-96901653D01*
X212731083Y-97094701D01*
X212731088Y-97094707D01*
X212731089Y-97094709D01*
X212866782Y-97271549D01*
X212866788Y-97271556D01*
X213024401Y-97429169D01*
X213024408Y-97429175D01*
X213150325Y-97525794D01*
X213201257Y-97564875D01*
X213394305Y-97676332D01*
X213600250Y-97761637D01*
X213815568Y-97819331D01*
X214036574Y-97848427D01*
X214036581Y-97848427D01*
X214259481Y-97848427D01*
X214259488Y-97848427D01*
X214480494Y-97819331D01*
X214695812Y-97761637D01*
X214901757Y-97676332D01*
X215094805Y-97564875D01*
X215271655Y-97429174D01*
X215429278Y-97271551D01*
X215564979Y-97094701D01*
X215676436Y-96901653D01*
X215761741Y-96695708D01*
X215819435Y-96480390D01*
X215848531Y-96259384D01*
X215848531Y-96036470D01*
X215819435Y-95815464D01*
X215761741Y-95600146D01*
X215676436Y-95394201D01*
X215564979Y-95201153D01*
X215486978Y-95099500D01*
X215429279Y-95024304D01*
X215429273Y-95024297D01*
X215271660Y-94866684D01*
X215271653Y-94866678D01*
X215094813Y-94730985D01*
X215094811Y-94730984D01*
X215094805Y-94730979D01*
X214901757Y-94619522D01*
X214901753Y-94619520D01*
X214788987Y-94572811D01*
X214767849Y-94561552D01*
X213496013Y-93717041D01*
X213496008Y-93717039D01*
X213494429Y-93715990D01*
X213475341Y-93700370D01*
X212884512Y-93109541D01*
X212884504Y-93109535D01*
X212815995Y-93069982D01*
X212815990Y-93069979D01*
X212790513Y-93063152D01*
X212739562Y-93049500D01*
X194660438Y-93049500D01*
X194622224Y-93059739D01*
X194584009Y-93069979D01*
X194584004Y-93069982D01*
X194515495Y-93109535D01*
X194515487Y-93109541D01*
X193153484Y-94471543D01*
X193138508Y-94479720D01*
X193126596Y-94491937D01*
X193108478Y-94496118D01*
X193092161Y-94505028D01*
X193074779Y-94503894D01*
X193058516Y-94507648D01*
X193023937Y-94500580D01*
X192863450Y-94443014D01*
X192843318Y-94433684D01*
X192843187Y-94433608D01*
X192824572Y-94428620D01*
X192814807Y-94425566D01*
X192801649Y-94420847D01*
X192790657Y-94416904D01*
X192790647Y-94416901D01*
X192790642Y-94416899D01*
X192776358Y-94412356D01*
X192774737Y-94411905D01*
X192771325Y-94410987D01*
X192764177Y-94409934D01*
X192764181Y-94409904D01*
X192743239Y-94406827D01*
X192715895Y-94399500D01*
X192715892Y-94399500D01*
X192584108Y-94399500D01*
X192456812Y-94433608D01*
X192342686Y-94499500D01*
X192342683Y-94499502D01*
X192249502Y-94592683D01*
X192249500Y-94592686D01*
X192183608Y-94706812D01*
X192149500Y-94834108D01*
X192149500Y-94952073D01*
X192141009Y-94980989D01*
X192134872Y-95010500D01*
X192131265Y-95014173D01*
X192129815Y-95019112D01*
X192107042Y-95038844D01*
X192085922Y-95060356D01*
X192080900Y-95061496D01*
X192077011Y-95064867D01*
X192047181Y-95069156D01*
X192017788Y-95075833D01*
X192010821Y-95074384D01*
X192007853Y-95074811D01*
X191983233Y-95068647D01*
X191914585Y-95043757D01*
X191894849Y-95034568D01*
X191893186Y-95033608D01*
X191893185Y-95033607D01*
X191873073Y-95028218D01*
X191862906Y-95025019D01*
X191841322Y-95017193D01*
X191826950Y-95012572D01*
X191825249Y-95012094D01*
X191821578Y-95011098D01*
X191814410Y-95010029D01*
X191814413Y-95010005D01*
X191793678Y-95006945D01*
X191765893Y-94999500D01*
X191765892Y-94999500D01*
X191634108Y-94999500D01*
X191506812Y-95033608D01*
X191392686Y-95099500D01*
X191392683Y-95099502D01*
X191299502Y-95192683D01*
X191299500Y-95192686D01*
X191233608Y-95306812D01*
X191214531Y-95378011D01*
X191199500Y-95434108D01*
X156648663Y-95434108D01*
X156663710Y-95397781D01*
X156721404Y-95182463D01*
X156750500Y-94961457D01*
X156750500Y-94738543D01*
X156721404Y-94517537D01*
X156663710Y-94302219D01*
X156578405Y-94096274D01*
X156466948Y-93903226D01*
X156388399Y-93800858D01*
X156331248Y-93726377D01*
X156331242Y-93726370D01*
X156173629Y-93568757D01*
X156173622Y-93568751D01*
X155996782Y-93433058D01*
X155996780Y-93433057D01*
X155996774Y-93433052D01*
X155803726Y-93321595D01*
X155803722Y-93321593D01*
X155597790Y-93236293D01*
X155597783Y-93236291D01*
X155597781Y-93236290D01*
X155382463Y-93178596D01*
X155382457Y-93178595D01*
X155382452Y-93178594D01*
X155161466Y-93149501D01*
X155161463Y-93149500D01*
X155161457Y-93149500D01*
X154938543Y-93149500D01*
X154938537Y-93149500D01*
X154938533Y-93149501D01*
X154717547Y-93178594D01*
X154717540Y-93178595D01*
X154717537Y-93178596D01*
X154502219Y-93236290D01*
X154502209Y-93236293D01*
X154296277Y-93321593D01*
X154296273Y-93321595D01*
X154103226Y-93433052D01*
X154103217Y-93433058D01*
X153926377Y-93568751D01*
X153926370Y-93568757D01*
X153768757Y-93726370D01*
X153768751Y-93726377D01*
X153633058Y-93903217D01*
X153633052Y-93903226D01*
X153521595Y-94096273D01*
X153521593Y-94096277D01*
X153436293Y-94302209D01*
X153436290Y-94302219D01*
X153383429Y-94499502D01*
X153378597Y-94517534D01*
X153378594Y-94517547D01*
X153349501Y-94738533D01*
X153349500Y-94738549D01*
X135273344Y-94738549D01*
X135279082Y-89485941D01*
X135283667Y-85289778D01*
X142879500Y-85289778D01*
X142879500Y-85510221D01*
X142913985Y-85727952D01*
X142982103Y-85937603D01*
X142982104Y-85937606D01*
X143082187Y-86134025D01*
X143211752Y-86312358D01*
X143211756Y-86312363D01*
X143367636Y-86468243D01*
X143367641Y-86468247D01*
X143523192Y-86581260D01*
X143545978Y-86597815D01*
X143674375Y-86663237D01*
X143742393Y-86697895D01*
X143742396Y-86697896D01*
X143847221Y-86731955D01*
X143952049Y-86766015D01*
X144169778Y-86800500D01*
X144169779Y-86800500D01*
X144390221Y-86800500D01*
X144390222Y-86800500D01*
X144607951Y-86766015D01*
X144817606Y-86697895D01*
X145014022Y-86597815D01*
X145192365Y-86468242D01*
X145348242Y-86312365D01*
X145477815Y-86134022D01*
X145577895Y-85937606D01*
X145646015Y-85727951D01*
X145680500Y-85510222D01*
X145680500Y-85289778D01*
X156349500Y-85289778D01*
X156349500Y-85510221D01*
X156383985Y-85727952D01*
X156452103Y-85937603D01*
X156452104Y-85937606D01*
X156552187Y-86134025D01*
X156681752Y-86312358D01*
X156681756Y-86312363D01*
X156837636Y-86468243D01*
X156837641Y-86468247D01*
X156993192Y-86581260D01*
X157015978Y-86597815D01*
X157144375Y-86663237D01*
X157212393Y-86697895D01*
X157212396Y-86697896D01*
X157317221Y-86731955D01*
X157422049Y-86766015D01*
X157639778Y-86800500D01*
X157639779Y-86800500D01*
X157860221Y-86800500D01*
X157860222Y-86800500D01*
X158077951Y-86766015D01*
X158287606Y-86697895D01*
X158484022Y-86597815D01*
X158662365Y-86468242D01*
X158818242Y-86312365D01*
X158947815Y-86134022D01*
X159047895Y-85937606D01*
X159116015Y-85727951D01*
X159150500Y-85510222D01*
X159150500Y-85289778D01*
X159116015Y-85072049D01*
X159063834Y-84911450D01*
X159047896Y-84862396D01*
X159047895Y-84862393D01*
X159013237Y-84794375D01*
X158947815Y-84665978D01*
X158913453Y-84618683D01*
X158818247Y-84487641D01*
X158818243Y-84487636D01*
X158662363Y-84331756D01*
X158662358Y-84331752D01*
X158484025Y-84202187D01*
X158484024Y-84202186D01*
X158484022Y-84202185D01*
X158421096Y-84170122D01*
X158287606Y-84102104D01*
X158287603Y-84102103D01*
X158077952Y-84033985D01*
X157969086Y-84016742D01*
X157860222Y-83999500D01*
X157639778Y-83999500D01*
X157567201Y-84010995D01*
X157422047Y-84033985D01*
X157212396Y-84102103D01*
X157212393Y-84102104D01*
X157015974Y-84202187D01*
X156837641Y-84331752D01*
X156837636Y-84331756D01*
X156681756Y-84487636D01*
X156681752Y-84487641D01*
X156552187Y-84665974D01*
X156452104Y-84862393D01*
X156452103Y-84862396D01*
X156383985Y-85072047D01*
X156349500Y-85289778D01*
X145680500Y-85289778D01*
X145646015Y-85072049D01*
X145593834Y-84911450D01*
X145577896Y-84862396D01*
X145577895Y-84862393D01*
X145543237Y-84794375D01*
X145477815Y-84665978D01*
X145443453Y-84618683D01*
X145348247Y-84487641D01*
X145348243Y-84487636D01*
X145192363Y-84331756D01*
X145192358Y-84331752D01*
X145014025Y-84202187D01*
X145014024Y-84202186D01*
X145014022Y-84202185D01*
X144951096Y-84170122D01*
X144817606Y-84102104D01*
X144817603Y-84102103D01*
X144607952Y-84033985D01*
X144499086Y-84016742D01*
X144390222Y-83999500D01*
X144169778Y-83999500D01*
X144097201Y-84010995D01*
X143952047Y-84033985D01*
X143742396Y-84102103D01*
X143742393Y-84102104D01*
X143545974Y-84202187D01*
X143367641Y-84331752D01*
X143367636Y-84331756D01*
X143211756Y-84487636D01*
X143211752Y-84487641D01*
X143082187Y-84665974D01*
X142982104Y-84862393D01*
X142982103Y-84862396D01*
X142913985Y-85072047D01*
X142879500Y-85289778D01*
X135283667Y-85289778D01*
X135283672Y-85284771D01*
X135286121Y-83043129D01*
X135287381Y-81889778D01*
X142879500Y-81889778D01*
X142879500Y-82110221D01*
X142913985Y-82327952D01*
X142982103Y-82537603D01*
X142982104Y-82537606D01*
X143082187Y-82734025D01*
X143211752Y-82912358D01*
X143211756Y-82912363D01*
X143367636Y-83068243D01*
X143367641Y-83068247D01*
X143476751Y-83147519D01*
X143545978Y-83197815D01*
X143674375Y-83263237D01*
X143742393Y-83297895D01*
X143742396Y-83297896D01*
X143821655Y-83323648D01*
X143952049Y-83366015D01*
X144169778Y-83400500D01*
X144169779Y-83400500D01*
X144390221Y-83400500D01*
X144390222Y-83400500D01*
X144607951Y-83366015D01*
X144817606Y-83297895D01*
X145014022Y-83197815D01*
X145192365Y-83068242D01*
X145348242Y-82912365D01*
X145477815Y-82734022D01*
X145577895Y-82537606D01*
X145646015Y-82327951D01*
X145680500Y-82110222D01*
X145680500Y-81889778D01*
X145646015Y-81672049D01*
X145584048Y-81481330D01*
X145577896Y-81462396D01*
X145577895Y-81462393D01*
X145543237Y-81394375D01*
X145477815Y-81265978D01*
X145456420Y-81236530D01*
X145348247Y-81087641D01*
X145348243Y-81087636D01*
X145192363Y-80931756D01*
X145192358Y-80931752D01*
X145014025Y-80802187D01*
X145014024Y-80802186D01*
X145014022Y-80802185D01*
X144951096Y-80770122D01*
X144817606Y-80702104D01*
X144817603Y-80702103D01*
X144607952Y-80633985D01*
X144499086Y-80616742D01*
X144390222Y-80599500D01*
X144169778Y-80599500D01*
X144097201Y-80610995D01*
X143952047Y-80633985D01*
X143742396Y-80702103D01*
X143742393Y-80702104D01*
X143545974Y-80802187D01*
X143367641Y-80931752D01*
X143367636Y-80931756D01*
X143211756Y-81087636D01*
X143211752Y-81087641D01*
X143082187Y-81265974D01*
X142982104Y-81462393D01*
X142982103Y-81462396D01*
X142913985Y-81672047D01*
X142879500Y-81889778D01*
X135287381Y-81889778D01*
X135298880Y-71364087D01*
X144642000Y-71364087D01*
X144642000Y-71735912D01*
X144674405Y-72106312D01*
X144738970Y-72472472D01*
X144738973Y-72472485D01*
X144835200Y-72831614D01*
X144835203Y-72831624D01*
X144835204Y-72831625D01*
X144962373Y-73181019D01*
X144962376Y-73181026D01*
X144962377Y-73181028D01*
X145119504Y-73517990D01*
X145119512Y-73518005D01*
X145168049Y-73602073D01*
X145305418Y-73840002D01*
X145305422Y-73840008D01*
X145305429Y-73840019D01*
X145518683Y-74144577D01*
X145666284Y-74320480D01*
X145757682Y-74429404D01*
X146020596Y-74692318D01*
X146139024Y-74791691D01*
X146305422Y-74931316D01*
X146609980Y-75144570D01*
X146609987Y-75144574D01*
X146609998Y-75144582D01*
X146717787Y-75206814D01*
X146931994Y-75330487D01*
X146932009Y-75330495D01*
X146972712Y-75349475D01*
X147268981Y-75487627D01*
X147618375Y-75614796D01*
X147618381Y-75614797D01*
X147618385Y-75614799D01*
X147716186Y-75641004D01*
X147977522Y-75711029D01*
X148343690Y-75775595D01*
X148714090Y-75807999D01*
X148714091Y-75808000D01*
X148714092Y-75808000D01*
X149085909Y-75808000D01*
X149085909Y-75807999D01*
X149456310Y-75775595D01*
X149822478Y-75711029D01*
X150181625Y-75614796D01*
X150531019Y-75487627D01*
X150867999Y-75330491D01*
X151190002Y-75144582D01*
X151494576Y-74931317D01*
X151779404Y-74692318D01*
X152042318Y-74429404D01*
X152281317Y-74144576D01*
X152494582Y-73840002D01*
X152680491Y-73517999D01*
X152837627Y-73181019D01*
X152964796Y-72831625D01*
X153061029Y-72472478D01*
X153125595Y-72106310D01*
X153158000Y-71735908D01*
X153158000Y-71364092D01*
X153125595Y-70993690D01*
X153061029Y-70627522D01*
X152964796Y-70268375D01*
X152837627Y-69918981D01*
X152680491Y-69582001D01*
X152494582Y-69259998D01*
X152494574Y-69259987D01*
X152494570Y-69259980D01*
X152281316Y-68955422D01*
X152141691Y-68789024D01*
X152042318Y-68670596D01*
X151779404Y-68407682D01*
X151580317Y-68240628D01*
X151494577Y-68168683D01*
X151190019Y-67955429D01*
X151190008Y-67955422D01*
X151190002Y-67955418D01*
X151094331Y-67900182D01*
X150868005Y-67769512D01*
X150867990Y-67769504D01*
X150531028Y-67612377D01*
X150531026Y-67612376D01*
X150531019Y-67612373D01*
X150181625Y-67485204D01*
X150181624Y-67485203D01*
X150181614Y-67485200D01*
X149822485Y-67388973D01*
X149822488Y-67388973D01*
X149822478Y-67388971D01*
X149770104Y-67379736D01*
X149456312Y-67324405D01*
X149085912Y-67292000D01*
X149085908Y-67292000D01*
X148714092Y-67292000D01*
X148714087Y-67292000D01*
X148343687Y-67324405D01*
X147977527Y-67388970D01*
X147977524Y-67388970D01*
X147977522Y-67388971D01*
X147977517Y-67388972D01*
X147977514Y-67388973D01*
X147618385Y-67485200D01*
X147449216Y-67546773D01*
X147268981Y-67612373D01*
X147268977Y-67612374D01*
X147268971Y-67612377D01*
X146932009Y-67769504D01*
X146931994Y-67769512D01*
X146610006Y-67955413D01*
X146609980Y-67955429D01*
X146305422Y-68168683D01*
X146020593Y-68407684D01*
X145757684Y-68670593D01*
X145518683Y-68955422D01*
X145305429Y-69259980D01*
X145305413Y-69260006D01*
X145119512Y-69581994D01*
X145119504Y-69582009D01*
X144962377Y-69918971D01*
X144962374Y-69918977D01*
X144962373Y-69918981D01*
X144903336Y-70081183D01*
X144835200Y-70268385D01*
X144738973Y-70627514D01*
X144738970Y-70627527D01*
X144674405Y-70993687D01*
X144642000Y-71364087D01*
X135298880Y-71364087D01*
X135303625Y-67020259D01*
X136613274Y-67020259D01*
X136613274Y-67379740D01*
X136653520Y-67736935D01*
X136653522Y-67736951D01*
X136733511Y-68087407D01*
X136733515Y-68087419D01*
X136852239Y-68426711D01*
X137008206Y-68750579D01*
X137008208Y-68750582D01*
X137199459Y-69054956D01*
X137423586Y-69336003D01*
X137677771Y-69590188D01*
X137958818Y-69814315D01*
X138263192Y-70005566D01*
X138587066Y-70161536D01*
X138841893Y-70250703D01*
X138926354Y-70280258D01*
X138926366Y-70280262D01*
X139276826Y-70360252D01*
X139634034Y-70400499D01*
X139634035Y-70400500D01*
X139634038Y-70400500D01*
X139993513Y-70400500D01*
X139993513Y-70400499D01*
X140350722Y-70360252D01*
X140701182Y-70280262D01*
X141040482Y-70161536D01*
X141364356Y-70005566D01*
X141668730Y-69814315D01*
X141949777Y-69590188D01*
X142203962Y-69336003D01*
X142428089Y-69054956D01*
X142619340Y-68750582D01*
X142775310Y-68426708D01*
X142894036Y-68087408D01*
X142974026Y-67736948D01*
X143014274Y-67379736D01*
X143014274Y-67020264D01*
X142974026Y-66663052D01*
X142963473Y-66616816D01*
X142939567Y-66512076D01*
X142934197Y-66488549D01*
X155599500Y-66488549D01*
X155599500Y-66711450D01*
X155599501Y-66711466D01*
X155628594Y-66932452D01*
X155628595Y-66932457D01*
X155628596Y-66932463D01*
X155652122Y-67020264D01*
X155686290Y-67147780D01*
X155686293Y-67147790D01*
X155771593Y-67353722D01*
X155771595Y-67353726D01*
X155883052Y-67546774D01*
X155883057Y-67546780D01*
X155883058Y-67546782D01*
X156018750Y-67723621D01*
X156018751Y-67723622D01*
X156018753Y-67723624D01*
X156150879Y-67855750D01*
X156167146Y-67875826D01*
X156869198Y-68955422D01*
X156979453Y-69124968D01*
X156999498Y-69191901D01*
X156999500Y-69192568D01*
X156999500Y-79819879D01*
X156992965Y-79859604D01*
X156877678Y-80200499D01*
X156450921Y-81462394D01*
X156450177Y-81464593D01*
X156448875Y-81469999D01*
X156448625Y-81469938D01*
X156445951Y-81481330D01*
X156383985Y-81672045D01*
X156349500Y-81889778D01*
X156349500Y-82110221D01*
X156383985Y-82327952D01*
X156452103Y-82537603D01*
X156452104Y-82537606D01*
X156552187Y-82734025D01*
X156681752Y-82912358D01*
X156681756Y-82912363D01*
X156837636Y-83068243D01*
X156837641Y-83068247D01*
X156946751Y-83147519D01*
X157015978Y-83197815D01*
X157144375Y-83263237D01*
X157212393Y-83297895D01*
X157212396Y-83297896D01*
X157291655Y-83323648D01*
X157422049Y-83366015D01*
X157639778Y-83400500D01*
X157639779Y-83400500D01*
X157860221Y-83400500D01*
X157860222Y-83400500D01*
X158077951Y-83366015D01*
X158287606Y-83297895D01*
X158484022Y-83197815D01*
X158662365Y-83068242D01*
X158818242Y-82912365D01*
X158947815Y-82734022D01*
X159047895Y-82537606D01*
X159116015Y-82327951D01*
X159150500Y-82110222D01*
X159150500Y-81889778D01*
X159116015Y-81672049D01*
X159054048Y-81481330D01*
X159047896Y-81462396D01*
X159047895Y-81462393D01*
X159013237Y-81394375D01*
X158947815Y-81265978D01*
X158926420Y-81236530D01*
X158818247Y-81087641D01*
X158818243Y-81087636D01*
X158662367Y-80931760D01*
X158658660Y-80928594D01*
X158658925Y-80928283D01*
X158647651Y-80918340D01*
X158538674Y-80802187D01*
X158212716Y-80454765D01*
X157634070Y-79838014D01*
X157602556Y-79775655D01*
X157600500Y-79753171D01*
X157600500Y-71093356D01*
X159431433Y-71093356D01*
X159431433Y-71316257D01*
X159431434Y-71316273D01*
X159460527Y-71537259D01*
X159460528Y-71537264D01*
X159460529Y-71537270D01*
X159460530Y-71537272D01*
X159518223Y-71752587D01*
X159518226Y-71752597D01*
X159603526Y-71958529D01*
X159603528Y-71958533D01*
X159714985Y-72151581D01*
X159714990Y-72151587D01*
X159714991Y-72151589D01*
X159850684Y-72328429D01*
X159850690Y-72328436D01*
X160008303Y-72486049D01*
X160008309Y-72486054D01*
X160185159Y-72621755D01*
X160378207Y-72733212D01*
X160451498Y-72763570D01*
X160538344Y-72799543D01*
X160584152Y-72818517D01*
X160799470Y-72876211D01*
X161020476Y-72905307D01*
X161020483Y-72905307D01*
X161243383Y-72905307D01*
X161243390Y-72905307D01*
X161464396Y-72876211D01*
X161679714Y-72818517D01*
X161885659Y-72733212D01*
X162078707Y-72621755D01*
X162255557Y-72486054D01*
X162413180Y-72328431D01*
X162548881Y-72151581D01*
X162660338Y-71958533D01*
X162745643Y-71752588D01*
X162803337Y-71537270D01*
X162832433Y-71316264D01*
X162832433Y-71093350D01*
X162803337Y-70872344D01*
X162745643Y-70657026D01*
X162660338Y-70451081D01*
X162548881Y-70258033D01*
X162413180Y-70081183D01*
X162413175Y-70081177D01*
X162255562Y-69923564D01*
X162255555Y-69923558D01*
X162078715Y-69787865D01*
X162078713Y-69787864D01*
X162078707Y-69787859D01*
X161885659Y-69676402D01*
X161885655Y-69676400D01*
X161679723Y-69591100D01*
X161679716Y-69591098D01*
X161679714Y-69591097D01*
X161464396Y-69533403D01*
X161464390Y-69533402D01*
X161464385Y-69533401D01*
X161243399Y-69504308D01*
X161243396Y-69504307D01*
X161243390Y-69504307D01*
X161020476Y-69504307D01*
X161020470Y-69504307D01*
X161020466Y-69504308D01*
X160799480Y-69533401D01*
X160799473Y-69533402D01*
X160799470Y-69533403D01*
X160618125Y-69581994D01*
X160584152Y-69591097D01*
X160584142Y-69591100D01*
X160378210Y-69676400D01*
X160378206Y-69676402D01*
X160185159Y-69787859D01*
X160185150Y-69787865D01*
X160008310Y-69923558D01*
X160008303Y-69923564D01*
X159850690Y-70081177D01*
X159850684Y-70081184D01*
X159714991Y-70258024D01*
X159714985Y-70258033D01*
X159603528Y-70451080D01*
X159603526Y-70451084D01*
X159518226Y-70657016D01*
X159518223Y-70657026D01*
X159460530Y-70872341D01*
X159460527Y-70872354D01*
X159431434Y-71093340D01*
X159431433Y-71093356D01*
X157600500Y-71093356D01*
X157600500Y-69192568D01*
X157620185Y-69125529D01*
X157620547Y-69124968D01*
X157666075Y-69054956D01*
X158432850Y-67875827D01*
X158449114Y-67855755D01*
X158581247Y-67723624D01*
X158716948Y-67546774D01*
X158828405Y-67353726D01*
X158913710Y-67147781D01*
X158971404Y-66932463D01*
X159000500Y-66711457D01*
X159000500Y-66488549D01*
X162699500Y-66488549D01*
X162699500Y-66711450D01*
X162699501Y-66711466D01*
X162728594Y-66932452D01*
X162728595Y-66932457D01*
X162728596Y-66932463D01*
X162752122Y-67020264D01*
X162786290Y-67147780D01*
X162786293Y-67147790D01*
X162871593Y-67353722D01*
X162871595Y-67353726D01*
X162983052Y-67546774D01*
X162983057Y-67546780D01*
X162983058Y-67546782D01*
X163118750Y-67723621D01*
X163118751Y-67723622D01*
X163118753Y-67723624D01*
X163197258Y-67802129D01*
X163216357Y-67826773D01*
X163394411Y-68128406D01*
X163941352Y-69054954D01*
X163981283Y-69122598D01*
X163998500Y-69185632D01*
X163998500Y-78638562D01*
X164018979Y-78714989D01*
X164025380Y-78726075D01*
X164025382Y-78726082D01*
X164025384Y-78726082D01*
X164058540Y-78783511D01*
X168256908Y-82981879D01*
X168312857Y-83037828D01*
X168312859Y-83037829D01*
X168312863Y-83037832D01*
X168381372Y-83077385D01*
X168381379Y-83077389D01*
X168457806Y-83097868D01*
X173264742Y-83097868D01*
X173287487Y-83099972D01*
X173293613Y-83101115D01*
X173293748Y-83101169D01*
X173457520Y-83131699D01*
X173489339Y-83147864D01*
X173519796Y-83163332D01*
X173519802Y-83163341D01*
X173519811Y-83163346D01*
X173519858Y-83163426D01*
X173551348Y-83211327D01*
X173592073Y-83323647D01*
X173592074Y-83323648D01*
X173599500Y-83365915D01*
X173599500Y-88066425D01*
X173596253Y-88089650D01*
X173597155Y-88089814D01*
X173505626Y-88593444D01*
X173505627Y-88593447D01*
X173505624Y-88593468D01*
X173505127Y-88599365D01*
X173504885Y-88599344D01*
X173501411Y-88626976D01*
X173499500Y-88634106D01*
X173499500Y-88765891D01*
X173533608Y-88893187D01*
X173550516Y-88922472D01*
X173599500Y-89007314D01*
X173692686Y-89100500D01*
X173806814Y-89166392D01*
X173934108Y-89200500D01*
X173934110Y-89200500D01*
X174065890Y-89200500D01*
X174065892Y-89200500D01*
X174193186Y-89166392D01*
X174307314Y-89100500D01*
X174400500Y-89007314D01*
X174466392Y-88893186D01*
X174500500Y-88765892D01*
X174500500Y-88634108D01*
X174466392Y-88506814D01*
X174466389Y-88506810D01*
X174466389Y-88506806D01*
X174434474Y-88451530D01*
X186409500Y-88451530D01*
X186409500Y-88658469D01*
X186449868Y-88861412D01*
X186449870Y-88861420D01*
X186529058Y-89052596D01*
X186644024Y-89224657D01*
X186790342Y-89370975D01*
X186790345Y-89370977D01*
X186962402Y-89485941D01*
X187153580Y-89565130D01*
X187356530Y-89605499D01*
X187356534Y-89605500D01*
X187356535Y-89605500D01*
X187563466Y-89605500D01*
X187563467Y-89605499D01*
X187766420Y-89565130D01*
X187957598Y-89485941D01*
X188129655Y-89370977D01*
X188275977Y-89224655D01*
X188390941Y-89052598D01*
X188470130Y-88861420D01*
X188510500Y-88658465D01*
X188510500Y-88451535D01*
X188508019Y-88439061D01*
X188500177Y-88399634D01*
X188496576Y-88381530D01*
X192809500Y-88381530D01*
X192809500Y-88588469D01*
X192849868Y-88791412D01*
X192849870Y-88791420D01*
X192929058Y-88982596D01*
X193044024Y-89154657D01*
X193190342Y-89300975D01*
X193190345Y-89300977D01*
X193362402Y-89415941D01*
X193553580Y-89495130D01*
X193756530Y-89535499D01*
X193756534Y-89535500D01*
X193756535Y-89535500D01*
X193963466Y-89535500D01*
X193963467Y-89535499D01*
X194166420Y-89495130D01*
X194357598Y-89415941D01*
X194529655Y-89300977D01*
X194675977Y-89154655D01*
X194790941Y-88982598D01*
X194870130Y-88791420D01*
X194910500Y-88588465D01*
X194910500Y-88381535D01*
X194870130Y-88178580D01*
X194790941Y-87987402D01*
X194790940Y-87987400D01*
X194790940Y-87987399D01*
X194719364Y-87880278D01*
X194719362Y-87880276D01*
X194675975Y-87815342D01*
X194674720Y-87814087D01*
X220242000Y-87814087D01*
X220242000Y-88185912D01*
X220274405Y-88556312D01*
X220338970Y-88922472D01*
X220338973Y-88922485D01*
X220435200Y-89281614D01*
X220435203Y-89281624D01*
X220435204Y-89281625D01*
X220562373Y-89631019D01*
X220562376Y-89631026D01*
X220562377Y-89631028D01*
X220719504Y-89967990D01*
X220719509Y-89967999D01*
X220905418Y-90290002D01*
X220905422Y-90290008D01*
X220905429Y-90290019D01*
X221118683Y-90594577D01*
X221291433Y-90800451D01*
X221357682Y-90879404D01*
X221620596Y-91142318D01*
X221739024Y-91241691D01*
X221905422Y-91381316D01*
X222209980Y-91594570D01*
X222209987Y-91594574D01*
X222209998Y-91594582D01*
X222511774Y-91768813D01*
X222531994Y-91780487D01*
X222532009Y-91780495D01*
X222681769Y-91850329D01*
X222868981Y-91937627D01*
X223218375Y-92064796D01*
X223218381Y-92064797D01*
X223218385Y-92064799D01*
X223316186Y-92091004D01*
X223577522Y-92161029D01*
X223943690Y-92225595D01*
X224314090Y-92257999D01*
X224314091Y-92258000D01*
X224314092Y-92258000D01*
X224685909Y-92258000D01*
X224685909Y-92257999D01*
X225056310Y-92225595D01*
X225422478Y-92161029D01*
X225781625Y-92064796D01*
X226131019Y-91937627D01*
X226467999Y-91780491D01*
X226790002Y-91594582D01*
X227094576Y-91381317D01*
X227379404Y-91142318D01*
X227642318Y-90879404D01*
X227881317Y-90594576D01*
X228094582Y-90290002D01*
X228280491Y-89967999D01*
X228437627Y-89631019D01*
X228564796Y-89281625D01*
X228661029Y-88922478D01*
X228725595Y-88556310D01*
X228758000Y-88185908D01*
X228758000Y-87814092D01*
X228725595Y-87443690D01*
X228661029Y-87077522D01*
X228564796Y-86718375D01*
X228437627Y-86368981D01*
X228350329Y-86181769D01*
X228280495Y-86032009D01*
X228280487Y-86031994D01*
X228115819Y-85746782D01*
X228094582Y-85709998D01*
X228094574Y-85709987D01*
X228094570Y-85709980D01*
X227881316Y-85405422D01*
X227741691Y-85239024D01*
X227642318Y-85120596D01*
X227379404Y-84857682D01*
X227300451Y-84791433D01*
X227094577Y-84618683D01*
X226790019Y-84405429D01*
X226790008Y-84405422D01*
X226790002Y-84405418D01*
X226694331Y-84350182D01*
X226468005Y-84219512D01*
X226467990Y-84219504D01*
X226131028Y-84062377D01*
X226131026Y-84062376D01*
X226131019Y-84062373D01*
X225781625Y-83935204D01*
X225781624Y-83935203D01*
X225781614Y-83935200D01*
X225422485Y-83838973D01*
X225422488Y-83838973D01*
X225422478Y-83838971D01*
X225370777Y-83829854D01*
X225056312Y-83774405D01*
X224685912Y-83742000D01*
X224685908Y-83742000D01*
X224314092Y-83742000D01*
X224314087Y-83742000D01*
X223943687Y-83774405D01*
X223577527Y-83838970D01*
X223577524Y-83838970D01*
X223577522Y-83838971D01*
X223577517Y-83838972D01*
X223577514Y-83838973D01*
X223218385Y-83935200D01*
X223043678Y-83998788D01*
X222868981Y-84062373D01*
X222868977Y-84062374D01*
X222868971Y-84062377D01*
X222532009Y-84219504D01*
X222531994Y-84219512D01*
X222210006Y-84405413D01*
X222209980Y-84405429D01*
X221905422Y-84618683D01*
X221620593Y-84857684D01*
X221357684Y-85120593D01*
X221118683Y-85405422D01*
X220905429Y-85709980D01*
X220905413Y-85710006D01*
X220719512Y-86031994D01*
X220719504Y-86032009D01*
X220562377Y-86368971D01*
X220562374Y-86368977D01*
X220562373Y-86368981D01*
X220546093Y-86413710D01*
X220435200Y-86718385D01*
X220338973Y-87077514D01*
X220338970Y-87077527D01*
X220274405Y-87443687D01*
X220242000Y-87814087D01*
X194674720Y-87814087D01*
X194529657Y-87669024D01*
X194443626Y-87611541D01*
X194357598Y-87554059D01*
X194166420Y-87474870D01*
X194166412Y-87474868D01*
X193963469Y-87434500D01*
X193963465Y-87434500D01*
X193756535Y-87434500D01*
X193756530Y-87434500D01*
X193553587Y-87474868D01*
X193553579Y-87474870D01*
X193362403Y-87554058D01*
X193190342Y-87669024D01*
X193044024Y-87815342D01*
X192929058Y-87987403D01*
X192849870Y-88178579D01*
X192849868Y-88178587D01*
X192809500Y-88381530D01*
X188496576Y-88381530D01*
X188470131Y-88248587D01*
X188470130Y-88248580D01*
X188390941Y-88057402D01*
X188275977Y-87885345D01*
X188275975Y-87885342D01*
X188129657Y-87739024D01*
X188024892Y-87669023D01*
X187957598Y-87624059D01*
X187766420Y-87544870D01*
X187766412Y-87544868D01*
X187563469Y-87504500D01*
X187563465Y-87504500D01*
X187356535Y-87504500D01*
X187356530Y-87504500D01*
X187153587Y-87544868D01*
X187153579Y-87544870D01*
X186962403Y-87624058D01*
X186790342Y-87739024D01*
X186644024Y-87885342D01*
X186529058Y-88057403D01*
X186449870Y-88248579D01*
X186449868Y-88248587D01*
X186409500Y-88451530D01*
X174434474Y-88451530D01*
X174432675Y-88448414D01*
X174423570Y-88428908D01*
X174419241Y-88417040D01*
X174389005Y-88367294D01*
X174218538Y-88086836D01*
X174200500Y-88022431D01*
X174200500Y-85145247D01*
X186409500Y-85145247D01*
X186409500Y-86884752D01*
X186421131Y-86943229D01*
X186421132Y-86943230D01*
X186465447Y-87009552D01*
X186531769Y-87053867D01*
X186531770Y-87053868D01*
X186590247Y-87065499D01*
X186590250Y-87065500D01*
X186590252Y-87065500D01*
X188329750Y-87065500D01*
X188329751Y-87065499D01*
X188344568Y-87062552D01*
X188388229Y-87053868D01*
X188388229Y-87053867D01*
X188388231Y-87053867D01*
X188454552Y-87009552D01*
X188498867Y-86943231D01*
X188498867Y-86943229D01*
X188498868Y-86943229D01*
X188510499Y-86884752D01*
X188510500Y-86884750D01*
X188510500Y-85145249D01*
X188510499Y-85145247D01*
X188500177Y-85093351D01*
X188498868Y-85086770D01*
X188498867Y-85086769D01*
X188491168Y-85075247D01*
X192809500Y-85075247D01*
X192809500Y-86814752D01*
X192821131Y-86873229D01*
X192821132Y-86873230D01*
X192865447Y-86939552D01*
X192931769Y-86983867D01*
X192931770Y-86983868D01*
X192990247Y-86995499D01*
X192990250Y-86995500D01*
X192990252Y-86995500D01*
X194729750Y-86995500D01*
X194729751Y-86995499D01*
X194744568Y-86992552D01*
X194788229Y-86983868D01*
X194788229Y-86983867D01*
X194788231Y-86983867D01*
X194854552Y-86939552D01*
X194898867Y-86873231D01*
X194898867Y-86873229D01*
X194898868Y-86873229D01*
X194910499Y-86814752D01*
X194910500Y-86814750D01*
X194910500Y-85075249D01*
X194910499Y-85075247D01*
X194898868Y-85016770D01*
X194898867Y-85016769D01*
X194854552Y-84950447D01*
X194788230Y-84906132D01*
X194788229Y-84906131D01*
X194729752Y-84894500D01*
X194729748Y-84894500D01*
X192990252Y-84894500D01*
X192990247Y-84894500D01*
X192931770Y-84906131D01*
X192931769Y-84906132D01*
X192865447Y-84950447D01*
X192821132Y-85016769D01*
X192821131Y-85016770D01*
X192809500Y-85075247D01*
X188491168Y-85075247D01*
X188454552Y-85020447D01*
X188388230Y-84976132D01*
X188388229Y-84976131D01*
X188329752Y-84964500D01*
X188329748Y-84964500D01*
X186590252Y-84964500D01*
X186590247Y-84964500D01*
X186531770Y-84976131D01*
X186531769Y-84976132D01*
X186465447Y-85020447D01*
X186421132Y-85086769D01*
X186421131Y-85086770D01*
X186409500Y-85145247D01*
X174200500Y-85145247D01*
X174200500Y-84688549D01*
X211849500Y-84688549D01*
X211849500Y-84911450D01*
X211849501Y-84911466D01*
X211878594Y-85132452D01*
X211878595Y-85132457D01*
X211878596Y-85132463D01*
X211936290Y-85347780D01*
X211936293Y-85347790D01*
X212003575Y-85510222D01*
X212021595Y-85553726D01*
X212133052Y-85746774D01*
X212133057Y-85746780D01*
X212133058Y-85746782D01*
X212268751Y-85923622D01*
X212268757Y-85923629D01*
X212426370Y-86081242D01*
X212426376Y-86081247D01*
X212603226Y-86216948D01*
X212796274Y-86328405D01*
X213002219Y-86413710D01*
X213217537Y-86471404D01*
X213438543Y-86500500D01*
X213438550Y-86500500D01*
X213661450Y-86500500D01*
X213661457Y-86500500D01*
X213882463Y-86471404D01*
X214097781Y-86413710D01*
X214303726Y-86328405D01*
X214496774Y-86216948D01*
X214673624Y-86081247D01*
X214831247Y-85923624D01*
X214966948Y-85746774D01*
X215078405Y-85553726D01*
X215163710Y-85347781D01*
X215221404Y-85132463D01*
X215250500Y-84911457D01*
X215250500Y-84688543D01*
X215221404Y-84467537D01*
X215163710Y-84252219D01*
X215078405Y-84046274D01*
X214966948Y-83853226D01*
X214854988Y-83707316D01*
X214831248Y-83676377D01*
X214831242Y-83676370D01*
X214673629Y-83518757D01*
X214673622Y-83518751D01*
X214496782Y-83383058D01*
X214496780Y-83383057D01*
X214496774Y-83383052D01*
X214303726Y-83271595D01*
X214303722Y-83271593D01*
X214097790Y-83186293D01*
X214097783Y-83186291D01*
X214097781Y-83186290D01*
X213882463Y-83128596D01*
X213882457Y-83128595D01*
X213882452Y-83128594D01*
X213661466Y-83099501D01*
X213661463Y-83099500D01*
X213661457Y-83099500D01*
X213438543Y-83099500D01*
X213438537Y-83099500D01*
X213438533Y-83099501D01*
X213217547Y-83128594D01*
X213217540Y-83128595D01*
X213217537Y-83128596D01*
X213087848Y-83163346D01*
X213002219Y-83186290D01*
X213002209Y-83186293D01*
X212796277Y-83271593D01*
X212796273Y-83271595D01*
X212603226Y-83383052D01*
X212603217Y-83383058D01*
X212426377Y-83518751D01*
X212426370Y-83518757D01*
X212268757Y-83676370D01*
X212268751Y-83676377D01*
X212133058Y-83853217D01*
X212133052Y-83853226D01*
X212021595Y-84046273D01*
X212021593Y-84046277D01*
X211936293Y-84252209D01*
X211936290Y-84252219D01*
X211878597Y-84467534D01*
X211878594Y-84467547D01*
X211849501Y-84688533D01*
X211849500Y-84688549D01*
X174200500Y-84688549D01*
X174200500Y-83365914D01*
X174207926Y-83323647D01*
X174217263Y-83297895D01*
X174359966Y-82904315D01*
X174366392Y-82893186D01*
X174373160Y-82867927D01*
X174382801Y-82841337D01*
X174387437Y-82826914D01*
X174387906Y-82825246D01*
X174388899Y-82821584D01*
X174388899Y-82821580D01*
X174389968Y-82814414D01*
X174389993Y-82814417D01*
X174393052Y-82793684D01*
X174400500Y-82765892D01*
X174400500Y-82634108D01*
X174366392Y-82506814D01*
X174300500Y-82392686D01*
X174207314Y-82299500D01*
X174150250Y-82266554D01*
X174093187Y-82233608D01*
X174029539Y-82216554D01*
X173965892Y-82199500D01*
X173834108Y-82199500D01*
X173706814Y-82233608D01*
X173706811Y-82233609D01*
X173649596Y-82266641D01*
X173629418Y-82275987D01*
X173618104Y-82280040D01*
X173618100Y-82280042D01*
X173618097Y-82280043D01*
X173618096Y-82280044D01*
X173286057Y-82479206D01*
X173222274Y-82496868D01*
X168673201Y-82496868D01*
X168606162Y-82477183D01*
X168585520Y-82460549D01*
X164635819Y-78510848D01*
X164602334Y-78449525D01*
X164599500Y-78423167D01*
X164599500Y-78108613D01*
X164619185Y-78041574D01*
X164671989Y-77995819D01*
X164741147Y-77985875D01*
X164776037Y-77996293D01*
X165123250Y-78158721D01*
X165158387Y-78183358D01*
X167115489Y-80140460D01*
X167184012Y-80180022D01*
X167260438Y-80200500D01*
X167339562Y-80200500D01*
X173924167Y-80200500D01*
X173991206Y-80220185D01*
X174011848Y-80236819D01*
X176696217Y-82921188D01*
X176729702Y-82982511D01*
X176727709Y-83043129D01*
X176661771Y-83272489D01*
X176659603Y-83280662D01*
X176659370Y-83281620D01*
X176659370Y-83281625D01*
X176659323Y-83283754D01*
X176655129Y-83313095D01*
X176649500Y-83334102D01*
X176649500Y-83465891D01*
X176683608Y-83593187D01*
X176716554Y-83650250D01*
X176749500Y-83707314D01*
X176842686Y-83800500D01*
X176956814Y-83866392D01*
X177084108Y-83900500D01*
X177084110Y-83900500D01*
X177215890Y-83900500D01*
X177215892Y-83900500D01*
X177343186Y-83866392D01*
X177457314Y-83800500D01*
X177550500Y-83707314D01*
X177616392Y-83593186D01*
X177650500Y-83465892D01*
X177650500Y-83334108D01*
X177616392Y-83206814D01*
X177576782Y-83138207D01*
X177568552Y-83116035D01*
X177465859Y-82949210D01*
X177465183Y-82948057D01*
X177464649Y-82945923D01*
X177452371Y-82917423D01*
X177450500Y-82910440D01*
X177450500Y-82910438D01*
X177430021Y-82834011D01*
X177422845Y-82821581D01*
X177390464Y-82765495D01*
X177390458Y-82765487D01*
X177288296Y-82663325D01*
X177287722Y-82662504D01*
X177286031Y-82660364D01*
X177278026Y-82650841D01*
X177270402Y-82645431D01*
X175861501Y-81236530D01*
X198349500Y-81236530D01*
X198349500Y-81443469D01*
X198389868Y-81646412D01*
X198389870Y-81646420D01*
X198469058Y-81837596D01*
X198584024Y-82009657D01*
X198730342Y-82155975D01*
X198730345Y-82155977D01*
X198902402Y-82270941D01*
X199093580Y-82350130D01*
X199296530Y-82390499D01*
X199296534Y-82390500D01*
X199296535Y-82390500D01*
X199503466Y-82390500D01*
X199503467Y-82390499D01*
X199706420Y-82350130D01*
X199897598Y-82270941D01*
X200069655Y-82155977D01*
X200215977Y-82009655D01*
X200330941Y-81837598D01*
X200410130Y-81646420D01*
X200450500Y-81443465D01*
X200450500Y-81236535D01*
X200410130Y-81033580D01*
X200330941Y-80842402D01*
X200215977Y-80670345D01*
X200215975Y-80670342D01*
X200069657Y-80524024D01*
X199983626Y-80466541D01*
X199897598Y-80409059D01*
X199706420Y-80329870D01*
X199706412Y-80329868D01*
X199503469Y-80289500D01*
X199503465Y-80289500D01*
X199296535Y-80289500D01*
X199296530Y-80289500D01*
X199093587Y-80329868D01*
X199093579Y-80329870D01*
X198902403Y-80409058D01*
X198730342Y-80524024D01*
X198584024Y-80670342D01*
X198469058Y-80842403D01*
X198389870Y-81033579D01*
X198389868Y-81033587D01*
X198349500Y-81236530D01*
X175861501Y-81236530D01*
X174284511Y-79659540D01*
X174284510Y-79659539D01*
X174284507Y-79659537D01*
X174275932Y-79654586D01*
X174275930Y-79654586D01*
X174242418Y-79635238D01*
X174215990Y-79619979D01*
X174190513Y-79613152D01*
X174139562Y-79599500D01*
X174139560Y-79599500D01*
X167475833Y-79599500D01*
X167446392Y-79590855D01*
X167416406Y-79584332D01*
X167411390Y-79580577D01*
X167408794Y-79579815D01*
X167388152Y-79563181D01*
X167259081Y-79434110D01*
X179199500Y-79434110D01*
X179199500Y-79565891D01*
X179233608Y-79693187D01*
X179253841Y-79728231D01*
X179299500Y-79807314D01*
X179392686Y-79900500D01*
X179506814Y-79966392D01*
X179634108Y-80000500D01*
X179634110Y-80000500D01*
X179765890Y-80000500D01*
X179765892Y-80000500D01*
X179893186Y-79966392D01*
X180007314Y-79900500D01*
X180100500Y-79807314D01*
X180166392Y-79693186D01*
X180200500Y-79565892D01*
X180200500Y-79434108D01*
X180187215Y-79384529D01*
X180184064Y-79361633D01*
X180170841Y-79323419D01*
X180166392Y-79306814D01*
X180166391Y-79306812D01*
X180163283Y-79299309D01*
X180163487Y-79299224D01*
X180159283Y-79290017D01*
X180155856Y-79280114D01*
X180016186Y-78876464D01*
X180009369Y-78835916D01*
X180009369Y-77930247D01*
X198349500Y-77930247D01*
X198349500Y-79669752D01*
X198361131Y-79728229D01*
X198361132Y-79728230D01*
X198405447Y-79794552D01*
X198471769Y-79838867D01*
X198471770Y-79838868D01*
X198530247Y-79850499D01*
X198530250Y-79850500D01*
X198530252Y-79850500D01*
X200269750Y-79850500D01*
X200269751Y-79850499D01*
X200284568Y-79847552D01*
X200328229Y-79838868D01*
X200328229Y-79838867D01*
X200328231Y-79838867D01*
X200394552Y-79794552D01*
X200438867Y-79728231D01*
X200438867Y-79728229D01*
X200438868Y-79728229D01*
X200450499Y-79669752D01*
X200450500Y-79669750D01*
X200450500Y-77930249D01*
X200450499Y-77930247D01*
X200438868Y-77871770D01*
X200438867Y-77871769D01*
X200394552Y-77805447D01*
X200328230Y-77761132D01*
X200328229Y-77761131D01*
X200269752Y-77749500D01*
X200269748Y-77749500D01*
X198530252Y-77749500D01*
X198530247Y-77749500D01*
X198471770Y-77761131D01*
X198471769Y-77761132D01*
X198405447Y-77805447D01*
X198361132Y-77871769D01*
X198361131Y-77871770D01*
X198349500Y-77930247D01*
X180009369Y-77930247D01*
X180009369Y-73297881D01*
X180029054Y-73230842D01*
X180081858Y-73185087D01*
X180106264Y-73176880D01*
X181305233Y-72908306D01*
X181332338Y-72905307D01*
X181411450Y-72905307D01*
X181411457Y-72905307D01*
X181632463Y-72876211D01*
X181847781Y-72818517D01*
X182053726Y-72733212D01*
X182246774Y-72621755D01*
X182423624Y-72486054D01*
X182581247Y-72328431D01*
X182716948Y-72151581D01*
X182828405Y-71958533D01*
X182913710Y-71752588D01*
X182971404Y-71537270D01*
X183000500Y-71316264D01*
X183000500Y-71093356D01*
X185999500Y-71093356D01*
X185999500Y-71316257D01*
X185999501Y-71316273D01*
X186028594Y-71537259D01*
X186028595Y-71537264D01*
X186028596Y-71537270D01*
X186028597Y-71537272D01*
X186086290Y-71752587D01*
X186086293Y-71752597D01*
X186171593Y-71958529D01*
X186171595Y-71958533D01*
X186283052Y-72151581D01*
X186283057Y-72151587D01*
X186283058Y-72151589D01*
X186418751Y-72328429D01*
X186418757Y-72328436D01*
X186576370Y-72486049D01*
X186576376Y-72486054D01*
X186753226Y-72621755D01*
X186946274Y-72733212D01*
X187019565Y-72763570D01*
X187106411Y-72799543D01*
X187152219Y-72818517D01*
X187367537Y-72876211D01*
X187588543Y-72905307D01*
X187588550Y-72905307D01*
X187811450Y-72905307D01*
X187811457Y-72905307D01*
X188032463Y-72876211D01*
X188247781Y-72818517D01*
X188453726Y-72733212D01*
X188646774Y-72621755D01*
X188823624Y-72486054D01*
X188981247Y-72328431D01*
X189116948Y-72151581D01*
X189228405Y-71958533D01*
X189313710Y-71752588D01*
X189371404Y-71537270D01*
X189390514Y-71392116D01*
X189394204Y-71364087D01*
X206052444Y-71364087D01*
X206052444Y-71735912D01*
X206084849Y-72106312D01*
X206149414Y-72472472D01*
X206149417Y-72472485D01*
X206245644Y-72831614D01*
X206245647Y-72831624D01*
X206245648Y-72831625D01*
X206372817Y-73181019D01*
X206372820Y-73181026D01*
X206372821Y-73181028D01*
X206529948Y-73517990D01*
X206529956Y-73518005D01*
X206578493Y-73602073D01*
X206715862Y-73840002D01*
X206715866Y-73840008D01*
X206715873Y-73840019D01*
X206929127Y-74144577D01*
X207076728Y-74320480D01*
X207168126Y-74429404D01*
X207431040Y-74692318D01*
X207549468Y-74791691D01*
X207715866Y-74931316D01*
X208020424Y-75144570D01*
X208020431Y-75144574D01*
X208020442Y-75144582D01*
X208128231Y-75206814D01*
X208342438Y-75330487D01*
X208342453Y-75330495D01*
X208383156Y-75349475D01*
X208679425Y-75487627D01*
X209028819Y-75614796D01*
X209028825Y-75614797D01*
X209028829Y-75614799D01*
X209126630Y-75641004D01*
X209387966Y-75711029D01*
X209754134Y-75775595D01*
X210124534Y-75807999D01*
X210124535Y-75808000D01*
X210124536Y-75808000D01*
X210496353Y-75808000D01*
X210496353Y-75807999D01*
X210866754Y-75775595D01*
X211232922Y-75711029D01*
X211592069Y-75614796D01*
X211941463Y-75487627D01*
X212278443Y-75330491D01*
X212600446Y-75144582D01*
X212905020Y-74931317D01*
X213189848Y-74692318D01*
X213452762Y-74429404D01*
X213691761Y-74144576D01*
X213905026Y-73840002D01*
X214090935Y-73517999D01*
X214248071Y-73181019D01*
X214375240Y-72831625D01*
X214471473Y-72472478D01*
X214536039Y-72106310D01*
X214568444Y-71735908D01*
X214568444Y-71364092D01*
X214536039Y-70993690D01*
X214471473Y-70627522D01*
X214375240Y-70268375D01*
X214248071Y-69918981D01*
X214090935Y-69582001D01*
X213905026Y-69259998D01*
X213905018Y-69259987D01*
X213905014Y-69259980D01*
X213691760Y-68955422D01*
X213552135Y-68789024D01*
X213452762Y-68670596D01*
X213189848Y-68407682D01*
X212990761Y-68240628D01*
X212905021Y-68168683D01*
X212600463Y-67955429D01*
X212600452Y-67955422D01*
X212600446Y-67955418D01*
X212504775Y-67900182D01*
X212278449Y-67769512D01*
X212278434Y-67769504D01*
X211941472Y-67612377D01*
X211941470Y-67612376D01*
X211941463Y-67612373D01*
X211592069Y-67485204D01*
X211592068Y-67485203D01*
X211592058Y-67485200D01*
X211232929Y-67388973D01*
X211232932Y-67388973D01*
X211232922Y-67388971D01*
X211180548Y-67379736D01*
X210866756Y-67324405D01*
X210496356Y-67292000D01*
X210496352Y-67292000D01*
X210124536Y-67292000D01*
X210124531Y-67292000D01*
X209754131Y-67324405D01*
X209387971Y-67388970D01*
X209387968Y-67388970D01*
X209387966Y-67388971D01*
X209387961Y-67388972D01*
X209387958Y-67388973D01*
X209028829Y-67485200D01*
X208859660Y-67546773D01*
X208679425Y-67612373D01*
X208679421Y-67612374D01*
X208679415Y-67612377D01*
X208342453Y-67769504D01*
X208342438Y-67769512D01*
X208020450Y-67955413D01*
X208020424Y-67955429D01*
X207715866Y-68168683D01*
X207431037Y-68407684D01*
X207168128Y-68670593D01*
X206929127Y-68955422D01*
X206715873Y-69259980D01*
X206715857Y-69260006D01*
X206529956Y-69581994D01*
X206529948Y-69582009D01*
X206372821Y-69918971D01*
X206372818Y-69918977D01*
X206372817Y-69918981D01*
X206313780Y-70081183D01*
X206245644Y-70268385D01*
X206149417Y-70627514D01*
X206149414Y-70627527D01*
X206084849Y-70993687D01*
X206052444Y-71364087D01*
X189394204Y-71364087D01*
X189396691Y-71345200D01*
X189396691Y-71345199D01*
X189400498Y-71316276D01*
X189400500Y-71316264D01*
X189400500Y-71093350D01*
X189371404Y-70872344D01*
X189313710Y-70657026D01*
X189228405Y-70451081D01*
X189116948Y-70258033D01*
X188981247Y-70081183D01*
X188981242Y-70081177D01*
X188823629Y-69923564D01*
X188823622Y-69923558D01*
X188646782Y-69787865D01*
X188646780Y-69787864D01*
X188646774Y-69787859D01*
X188453726Y-69676402D01*
X188453722Y-69676400D01*
X188247790Y-69591100D01*
X188247783Y-69591098D01*
X188247781Y-69591097D01*
X188032463Y-69533403D01*
X188032457Y-69533402D01*
X188032452Y-69533401D01*
X187811466Y-69504308D01*
X187811463Y-69504307D01*
X187811457Y-69504307D01*
X187588543Y-69504307D01*
X187588537Y-69504307D01*
X187588533Y-69504308D01*
X187367547Y-69533401D01*
X187367540Y-69533402D01*
X187367537Y-69533403D01*
X187186192Y-69581994D01*
X187152219Y-69591097D01*
X187152209Y-69591100D01*
X186946277Y-69676400D01*
X186946273Y-69676402D01*
X186753226Y-69787859D01*
X186753217Y-69787865D01*
X186576377Y-69923558D01*
X186576370Y-69923564D01*
X186418757Y-70081177D01*
X186418751Y-70081184D01*
X186283058Y-70258024D01*
X186283052Y-70258033D01*
X186171595Y-70451080D01*
X186171593Y-70451084D01*
X186086293Y-70657016D01*
X186086290Y-70657026D01*
X186028597Y-70872341D01*
X186028594Y-70872354D01*
X185999501Y-71093340D01*
X185999500Y-71093356D01*
X183000500Y-71093356D01*
X183000500Y-71093350D01*
X182971404Y-70872344D01*
X182913710Y-70657026D01*
X182828405Y-70451081D01*
X182716948Y-70258033D01*
X182581247Y-70081183D01*
X182581242Y-70081177D01*
X182423629Y-69923564D01*
X182423622Y-69923558D01*
X182246782Y-69787865D01*
X182246780Y-69787864D01*
X182246774Y-69787859D01*
X182053726Y-69676402D01*
X182053722Y-69676400D01*
X181847790Y-69591100D01*
X181847783Y-69591098D01*
X181847781Y-69591097D01*
X181632463Y-69533403D01*
X181632457Y-69533402D01*
X181632452Y-69533401D01*
X181411466Y-69504308D01*
X181411463Y-69504307D01*
X181411457Y-69504307D01*
X181188543Y-69504307D01*
X181188537Y-69504307D01*
X181188533Y-69504308D01*
X180967547Y-69533401D01*
X180967540Y-69533402D01*
X180967537Y-69533403D01*
X180786192Y-69581994D01*
X180752219Y-69591097D01*
X180752209Y-69591100D01*
X180546277Y-69676400D01*
X180546273Y-69676402D01*
X180353226Y-69787859D01*
X180353217Y-69787865D01*
X180176377Y-69923558D01*
X180176370Y-69923564D01*
X180018757Y-70081177D01*
X180018751Y-70081184D01*
X179883058Y-70258024D01*
X179883052Y-70258033D01*
X179771595Y-70451080D01*
X179771593Y-70451084D01*
X179686293Y-70657016D01*
X179686290Y-70657026D01*
X179628597Y-70872341D01*
X179628594Y-70872354D01*
X179612620Y-70993690D01*
X179599500Y-71093350D01*
X179599500Y-71316264D01*
X179599502Y-71316276D01*
X179605344Y-71360659D01*
X179605460Y-71392116D01*
X179453289Y-72618028D01*
X179437623Y-72664748D01*
X179428850Y-72679944D01*
X179428848Y-72679947D01*
X179415195Y-72730900D01*
X179408369Y-72756376D01*
X179408369Y-72979917D01*
X179406565Y-72994451D01*
X179405391Y-73007097D01*
X179405302Y-73008538D01*
X179405234Y-73009688D01*
X179408369Y-73028137D01*
X179408369Y-78832212D01*
X179400315Y-78876172D01*
X179247165Y-79280114D01*
X179238612Y-79298144D01*
X179233608Y-79306811D01*
X179233606Y-79306816D01*
X179226941Y-79331689D01*
X179223119Y-79343538D01*
X179218493Y-79355742D01*
X179213195Y-79371643D01*
X179212677Y-79373439D01*
X179211297Y-79378460D01*
X179210200Y-79385729D01*
X179210088Y-79385712D01*
X179207172Y-79405469D01*
X179199501Y-79434101D01*
X179199500Y-79434110D01*
X167259081Y-79434110D01*
X165583359Y-77758388D01*
X165558722Y-77723250D01*
X165551032Y-77706812D01*
X165374345Y-77329119D01*
X165366889Y-77308669D01*
X165366887Y-77308663D01*
X165366392Y-77306814D01*
X165355981Y-77288782D01*
X165351049Y-77279322D01*
X165341332Y-77258549D01*
X165334321Y-77244911D01*
X165333472Y-77243401D01*
X165331693Y-77240300D01*
X165331690Y-77240297D01*
X165327385Y-77234482D01*
X165327405Y-77234467D01*
X165314907Y-77217638D01*
X165300504Y-77192692D01*
X165300501Y-77192689D01*
X165300500Y-77192686D01*
X165207314Y-77099500D01*
X165150250Y-77066554D01*
X165093187Y-77033608D01*
X165029539Y-77016554D01*
X164965892Y-76999500D01*
X164834108Y-76999500D01*
X164755592Y-77020537D01*
X164685743Y-77018875D01*
X164627881Y-76979712D01*
X164600377Y-76915484D01*
X164599500Y-76900763D01*
X164599500Y-73934108D01*
X165399500Y-73934108D01*
X165399500Y-74065891D01*
X165433608Y-74193187D01*
X165460382Y-74239560D01*
X165499500Y-74307314D01*
X165592686Y-74400500D01*
X165706814Y-74466392D01*
X165834108Y-74500500D01*
X165834110Y-74500500D01*
X165965890Y-74500500D01*
X165965892Y-74500500D01*
X166093186Y-74466392D01*
X166207314Y-74400500D01*
X166300500Y-74307314D01*
X166366392Y-74193186D01*
X166400500Y-74065892D01*
X166400500Y-73934108D01*
X166366392Y-73806814D01*
X166300500Y-73692686D01*
X166236818Y-73629004D01*
X166222113Y-73602073D01*
X166205523Y-73576258D01*
X166204631Y-73570055D01*
X166203334Y-73567680D01*
X166200500Y-73541323D01*
X166200500Y-73304808D01*
X166220185Y-73237769D01*
X166272989Y-73192014D01*
X166298786Y-73183504D01*
X167598904Y-72908001D01*
X167624610Y-72905307D01*
X167811450Y-72905307D01*
X167811457Y-72905307D01*
X168032463Y-72876211D01*
X168247781Y-72818517D01*
X168453726Y-72733212D01*
X168646774Y-72621755D01*
X168823624Y-72486054D01*
X168981247Y-72328431D01*
X169116948Y-72151581D01*
X169228405Y-71958533D01*
X169313710Y-71752588D01*
X169371404Y-71537270D01*
X169400500Y-71316264D01*
X169400500Y-71093350D01*
X169371404Y-70872344D01*
X169313710Y-70657026D01*
X169228405Y-70451081D01*
X169116948Y-70258033D01*
X168981247Y-70081183D01*
X168981242Y-70081177D01*
X168823629Y-69923564D01*
X168823622Y-69923558D01*
X168646782Y-69787865D01*
X168646780Y-69787864D01*
X168646774Y-69787859D01*
X168453726Y-69676402D01*
X168453722Y-69676400D01*
X168247790Y-69591100D01*
X168247783Y-69591098D01*
X168247781Y-69591097D01*
X168032463Y-69533403D01*
X168032457Y-69533402D01*
X168032452Y-69533401D01*
X167811466Y-69504308D01*
X167811463Y-69504307D01*
X167811457Y-69504307D01*
X167588543Y-69504307D01*
X167588537Y-69504307D01*
X167588533Y-69504308D01*
X167367547Y-69533401D01*
X167367540Y-69533402D01*
X167367537Y-69533403D01*
X167186192Y-69581994D01*
X167152219Y-69591097D01*
X167152209Y-69591100D01*
X166946277Y-69676400D01*
X166946273Y-69676402D01*
X166753226Y-69787859D01*
X166753217Y-69787865D01*
X166576377Y-69923558D01*
X166576370Y-69923564D01*
X166418757Y-70081177D01*
X166418751Y-70081184D01*
X166283058Y-70258024D01*
X166283052Y-70258033D01*
X166171595Y-70451080D01*
X166171593Y-70451084D01*
X166086293Y-70657016D01*
X166086290Y-70657026D01*
X166028597Y-70872341D01*
X166028594Y-70872354D01*
X165999501Y-71093340D01*
X165999500Y-71093356D01*
X165999500Y-71280193D01*
X165996806Y-71305899D01*
X165687914Y-72763570D01*
X165661887Y-72811850D01*
X165664488Y-72813846D01*
X165659539Y-72820296D01*
X165619982Y-72888811D01*
X165619979Y-72888816D01*
X165599500Y-72965246D01*
X165599500Y-73541323D01*
X165579815Y-73608362D01*
X165563182Y-73629004D01*
X165499500Y-73692686D01*
X165433608Y-73806812D01*
X165399500Y-73934108D01*
X164599500Y-73934108D01*
X164599500Y-69199705D01*
X164619185Y-69132666D01*
X164622573Y-69127665D01*
X164780324Y-68906658D01*
X165487713Y-67915615D01*
X165513157Y-67889278D01*
X165523624Y-67881247D01*
X165681247Y-67723624D01*
X165816948Y-67546774D01*
X165928405Y-67353726D01*
X166013710Y-67147781D01*
X166071404Y-66932463D01*
X166100500Y-66711457D01*
X166100500Y-66488549D01*
X169499500Y-66488549D01*
X169499500Y-66711450D01*
X169499501Y-66711466D01*
X169528594Y-66932452D01*
X169528595Y-66932457D01*
X169528596Y-66932463D01*
X169552122Y-67020264D01*
X169586290Y-67147780D01*
X169586293Y-67147790D01*
X169671593Y-67353722D01*
X169671595Y-67353726D01*
X169783052Y-67546774D01*
X169783057Y-67546780D01*
X169783058Y-67546782D01*
X169918750Y-67723621D01*
X169918751Y-67723622D01*
X169918753Y-67723624D01*
X170050879Y-67855750D01*
X170067146Y-67875826D01*
X170769198Y-68955422D01*
X170879453Y-69124968D01*
X170899498Y-69191901D01*
X170899500Y-69192568D01*
X170899500Y-74239562D01*
X170919979Y-74315989D01*
X170922572Y-74320480D01*
X170922573Y-74320481D01*
X170922574Y-74320483D01*
X170959539Y-74384509D01*
X170959541Y-74384512D01*
X171863181Y-75288152D01*
X171896666Y-75349475D01*
X171899500Y-75375833D01*
X171899500Y-75465892D01*
X171905324Y-75487627D01*
X171933608Y-75593187D01*
X171946086Y-75614799D01*
X171999500Y-75707314D01*
X172092686Y-75800500D01*
X172206814Y-75866392D01*
X172334108Y-75900500D01*
X172334110Y-75900500D01*
X172465890Y-75900500D01*
X172465892Y-75900500D01*
X172593186Y-75866392D01*
X172707314Y-75800500D01*
X172800500Y-75707314D01*
X172866392Y-75593186D01*
X172900500Y-75465892D01*
X172900500Y-75334108D01*
X172866392Y-75206814D01*
X172800500Y-75092686D01*
X172707314Y-74999500D01*
X172650250Y-74966554D01*
X172593187Y-74933608D01*
X172529539Y-74916554D01*
X172465892Y-74899500D01*
X172375833Y-74899500D01*
X172308794Y-74879815D01*
X172288152Y-74863181D01*
X171536819Y-74111848D01*
X171503334Y-74050525D01*
X171500500Y-74024167D01*
X171500500Y-69192568D01*
X171520185Y-69125529D01*
X171520547Y-69124968D01*
X171566075Y-69054956D01*
X172332850Y-67875827D01*
X172349114Y-67855755D01*
X172481247Y-67723624D01*
X172616948Y-67546774D01*
X172728405Y-67353726D01*
X172813710Y-67147781D01*
X172871404Y-66932463D01*
X172900500Y-66711457D01*
X172900500Y-66488549D01*
X175499500Y-66488549D01*
X175499500Y-66711450D01*
X175499501Y-66711466D01*
X175528594Y-66932452D01*
X175528595Y-66932457D01*
X175528596Y-66932463D01*
X175552122Y-67020264D01*
X175586290Y-67147780D01*
X175586293Y-67147790D01*
X175671593Y-67353722D01*
X175671595Y-67353726D01*
X175783052Y-67546774D01*
X175783057Y-67546780D01*
X175783058Y-67546782D01*
X175918751Y-67723622D01*
X175918757Y-67723629D01*
X176076370Y-67881242D01*
X176076377Y-67881248D01*
X176173038Y-67955418D01*
X176253226Y-68016948D01*
X176446274Y-68128405D01*
X176652219Y-68213710D01*
X176718034Y-68231344D01*
X176742219Y-68240627D01*
X177760080Y-68759132D01*
X177832784Y-68796168D01*
X177883585Y-68844137D01*
X177900500Y-68906658D01*
X177900500Y-76423166D01*
X177880815Y-76490205D01*
X177864181Y-76510847D01*
X176879102Y-77495926D01*
X176817779Y-77529411D01*
X176748087Y-77524427D01*
X176714829Y-77503053D01*
X176713760Y-77504447D01*
X176707316Y-77499502D01*
X176707314Y-77499500D01*
X176650250Y-77466554D01*
X176593187Y-77433608D01*
X176529539Y-77416554D01*
X176465892Y-77399500D01*
X176334108Y-77399500D01*
X176206812Y-77433608D01*
X176092686Y-77499500D01*
X176092683Y-77499502D01*
X175999502Y-77592683D01*
X175999500Y-77592686D01*
X175933608Y-77706812D01*
X175907179Y-77805448D01*
X175899500Y-77834108D01*
X175899500Y-77965892D01*
X175916554Y-78029539D01*
X175933608Y-78093187D01*
X175960902Y-78140460D01*
X175999500Y-78207314D01*
X176092686Y-78300500D01*
X176206814Y-78366392D01*
X176334108Y-78400500D01*
X176334110Y-78400500D01*
X176465890Y-78400500D01*
X176465892Y-78400500D01*
X176593186Y-78366392D01*
X176707314Y-78300500D01*
X176770995Y-78236819D01*
X176832318Y-78203334D01*
X176858676Y-78200500D01*
X176939560Y-78200500D01*
X176939562Y-78200500D01*
X177015989Y-78180021D01*
X177084511Y-78140460D01*
X177140460Y-78084511D01*
X178441460Y-76783511D01*
X178481021Y-76714989D01*
X178501500Y-76638562D01*
X178501500Y-68759132D01*
X178504748Y-68736213D01*
X178503725Y-68736024D01*
X178504833Y-68730037D01*
X178504835Y-68730035D01*
X178782816Y-67229444D01*
X178786231Y-67215550D01*
X178787947Y-67209976D01*
X178813710Y-67147781D01*
X178847879Y-67020259D01*
X231906471Y-67020259D01*
X231906471Y-67379740D01*
X231946717Y-67736935D01*
X231946719Y-67736951D01*
X232026708Y-68087407D01*
X232026712Y-68087419D01*
X232145436Y-68426711D01*
X232301403Y-68750579D01*
X232301405Y-68750582D01*
X232492656Y-69054956D01*
X232716783Y-69336003D01*
X232970968Y-69590188D01*
X233252015Y-69814315D01*
X233556389Y-70005566D01*
X233880263Y-70161536D01*
X234135090Y-70250703D01*
X234219551Y-70280258D01*
X234219563Y-70280262D01*
X234570023Y-70360252D01*
X234927231Y-70400499D01*
X234927232Y-70400500D01*
X234927235Y-70400500D01*
X235286710Y-70400500D01*
X235286710Y-70400499D01*
X235643919Y-70360252D01*
X235994379Y-70280262D01*
X236333679Y-70161536D01*
X236657553Y-70005566D01*
X236961927Y-69814315D01*
X237242974Y-69590188D01*
X237497159Y-69336003D01*
X237721286Y-69054956D01*
X237912537Y-68750582D01*
X238068507Y-68426708D01*
X238187233Y-68087408D01*
X238267223Y-67736948D01*
X238307471Y-67379736D01*
X238307471Y-67020264D01*
X238267223Y-66663052D01*
X238187233Y-66312592D01*
X238068507Y-65973292D01*
X237912537Y-65649418D01*
X237721286Y-65345044D01*
X237497159Y-65063997D01*
X237242974Y-64809812D01*
X236961927Y-64585685D01*
X236657553Y-64394434D01*
X236657550Y-64394432D01*
X236333682Y-64238465D01*
X235994390Y-64119741D01*
X235994378Y-64119737D01*
X235643922Y-64039748D01*
X235643906Y-64039746D01*
X235286711Y-63999500D01*
X235286707Y-63999500D01*
X234927235Y-63999500D01*
X234927230Y-63999500D01*
X234570035Y-64039746D01*
X234570019Y-64039748D01*
X234219563Y-64119737D01*
X234219551Y-64119741D01*
X233880259Y-64238465D01*
X233556391Y-64394432D01*
X233252016Y-64585684D01*
X232970968Y-64809811D01*
X232716782Y-65063997D01*
X232492655Y-65345045D01*
X232301403Y-65649420D01*
X232145436Y-65973288D01*
X232026712Y-66312580D01*
X232026708Y-66312592D01*
X231946719Y-66663048D01*
X231946717Y-66663064D01*
X231906471Y-67020259D01*
X178847879Y-67020259D01*
X178871404Y-66932463D01*
X178900500Y-66711457D01*
X178900500Y-66488543D01*
X178871404Y-66267537D01*
X178813710Y-66052219D01*
X178728405Y-65846274D01*
X178616948Y-65653226D01*
X178481247Y-65476376D01*
X178481242Y-65476370D01*
X178323629Y-65318757D01*
X178323622Y-65318751D01*
X178146782Y-65183058D01*
X178146780Y-65183057D01*
X178146774Y-65183052D01*
X177953726Y-65071595D01*
X177953722Y-65071593D01*
X177747790Y-64986293D01*
X177747783Y-64986291D01*
X177747781Y-64986290D01*
X177532463Y-64928596D01*
X177532457Y-64928595D01*
X177532452Y-64928594D01*
X177311466Y-64899501D01*
X177311463Y-64899500D01*
X177311457Y-64899500D01*
X177088543Y-64899500D01*
X177088537Y-64899500D01*
X177088533Y-64899501D01*
X176867547Y-64928594D01*
X176867540Y-64928595D01*
X176867537Y-64928596D01*
X176660493Y-64984073D01*
X176652219Y-64986290D01*
X176652209Y-64986293D01*
X176446277Y-65071593D01*
X176446273Y-65071595D01*
X176253226Y-65183052D01*
X176253217Y-65183058D01*
X176076377Y-65318751D01*
X176076370Y-65318757D01*
X175918757Y-65476370D01*
X175918751Y-65476377D01*
X175783058Y-65653217D01*
X175783052Y-65653226D01*
X175671595Y-65846273D01*
X175671593Y-65846277D01*
X175586293Y-66052209D01*
X175586290Y-66052219D01*
X175573044Y-66101656D01*
X175528597Y-66267534D01*
X175528594Y-66267547D01*
X175499501Y-66488533D01*
X175499500Y-66488549D01*
X172900500Y-66488549D01*
X172900500Y-66488543D01*
X172871404Y-66267537D01*
X172813710Y-66052219D01*
X172728405Y-65846274D01*
X172616948Y-65653226D01*
X172481247Y-65476376D01*
X172481242Y-65476370D01*
X172323629Y-65318757D01*
X172323622Y-65318751D01*
X172146782Y-65183058D01*
X172146780Y-65183057D01*
X172146774Y-65183052D01*
X171953726Y-65071595D01*
X171953722Y-65071593D01*
X171747790Y-64986293D01*
X171747783Y-64986291D01*
X171747781Y-64986290D01*
X171532463Y-64928596D01*
X171532457Y-64928595D01*
X171532452Y-64928594D01*
X171311466Y-64899501D01*
X171311463Y-64899500D01*
X171311457Y-64899500D01*
X171088543Y-64899500D01*
X171088537Y-64899500D01*
X171088533Y-64899501D01*
X170867547Y-64928594D01*
X170867540Y-64928595D01*
X170867537Y-64928596D01*
X170660493Y-64984073D01*
X170652219Y-64986290D01*
X170652209Y-64986293D01*
X170446277Y-65071593D01*
X170446273Y-65071595D01*
X170253226Y-65183052D01*
X170253217Y-65183058D01*
X170076377Y-65318751D01*
X170076370Y-65318757D01*
X169918757Y-65476370D01*
X169918751Y-65476377D01*
X169783058Y-65653217D01*
X169783052Y-65653226D01*
X169671595Y-65846273D01*
X169671593Y-65846277D01*
X169586293Y-66052209D01*
X169586290Y-66052219D01*
X169573044Y-66101656D01*
X169528597Y-66267534D01*
X169528594Y-66267547D01*
X169499501Y-66488533D01*
X169499500Y-66488549D01*
X166100500Y-66488549D01*
X166100500Y-66488543D01*
X166071404Y-66267537D01*
X166013710Y-66052219D01*
X165928405Y-65846274D01*
X165816948Y-65653226D01*
X165681247Y-65476376D01*
X165681242Y-65476370D01*
X165523629Y-65318757D01*
X165523622Y-65318751D01*
X165346782Y-65183058D01*
X165346780Y-65183057D01*
X165346774Y-65183052D01*
X165153726Y-65071595D01*
X165153722Y-65071593D01*
X164947790Y-64986293D01*
X164947783Y-64986291D01*
X164947781Y-64986290D01*
X164732463Y-64928596D01*
X164732457Y-64928595D01*
X164732452Y-64928594D01*
X164511466Y-64899501D01*
X164511463Y-64899500D01*
X164511457Y-64899500D01*
X164288543Y-64899500D01*
X164288537Y-64899500D01*
X164288533Y-64899501D01*
X164067547Y-64928594D01*
X164067540Y-64928595D01*
X164067537Y-64928596D01*
X163860493Y-64984073D01*
X163852219Y-64986290D01*
X163852209Y-64986293D01*
X163646277Y-65071593D01*
X163646273Y-65071595D01*
X163453226Y-65183052D01*
X163453217Y-65183058D01*
X163276377Y-65318751D01*
X163276370Y-65318757D01*
X163118757Y-65476370D01*
X163118751Y-65476377D01*
X162983058Y-65653217D01*
X162983052Y-65653226D01*
X162871595Y-65846273D01*
X162871593Y-65846277D01*
X162786293Y-66052209D01*
X162786290Y-66052219D01*
X162773044Y-66101656D01*
X162728597Y-66267534D01*
X162728594Y-66267547D01*
X162699501Y-66488533D01*
X162699500Y-66488549D01*
X159000500Y-66488549D01*
X159000500Y-66488543D01*
X158971404Y-66267537D01*
X158913710Y-66052219D01*
X158828405Y-65846274D01*
X158716948Y-65653226D01*
X158581247Y-65476376D01*
X158581242Y-65476370D01*
X158423629Y-65318757D01*
X158423622Y-65318751D01*
X158246782Y-65183058D01*
X158246780Y-65183057D01*
X158246774Y-65183052D01*
X158053726Y-65071595D01*
X158053722Y-65071593D01*
X157847790Y-64986293D01*
X157847783Y-64986291D01*
X157847781Y-64986290D01*
X157632463Y-64928596D01*
X157632457Y-64928595D01*
X157632452Y-64928594D01*
X157411466Y-64899501D01*
X157411463Y-64899500D01*
X157411457Y-64899500D01*
X157188543Y-64899500D01*
X157188537Y-64899500D01*
X157188533Y-64899501D01*
X156967547Y-64928594D01*
X156967540Y-64928595D01*
X156967537Y-64928596D01*
X156760493Y-64984073D01*
X156752219Y-64986290D01*
X156752209Y-64986293D01*
X156546277Y-65071593D01*
X156546273Y-65071595D01*
X156353226Y-65183052D01*
X156353217Y-65183058D01*
X156176377Y-65318751D01*
X156176370Y-65318757D01*
X156018757Y-65476370D01*
X156018751Y-65476377D01*
X155883058Y-65653217D01*
X155883052Y-65653226D01*
X155771595Y-65846273D01*
X155771593Y-65846277D01*
X155686293Y-66052209D01*
X155686290Y-66052219D01*
X155673044Y-66101656D01*
X155628597Y-66267534D01*
X155628594Y-66267547D01*
X155599501Y-66488533D01*
X155599500Y-66488549D01*
X142934197Y-66488549D01*
X142894035Y-66312588D01*
X142894032Y-66312580D01*
X142825592Y-66116990D01*
X142775310Y-65973292D01*
X142619340Y-65649418D01*
X142428089Y-65345044D01*
X142203962Y-65063997D01*
X141949777Y-64809812D01*
X141668730Y-64585685D01*
X141364356Y-64394434D01*
X141364353Y-64394432D01*
X141040485Y-64238465D01*
X140701193Y-64119741D01*
X140701181Y-64119737D01*
X140350725Y-64039748D01*
X140350709Y-64039746D01*
X139993514Y-63999500D01*
X139993510Y-63999500D01*
X139634038Y-63999500D01*
X139634033Y-63999500D01*
X139276838Y-64039746D01*
X139276822Y-64039748D01*
X138926366Y-64119737D01*
X138926354Y-64119741D01*
X138587062Y-64238465D01*
X138263194Y-64394432D01*
X137958819Y-64585684D01*
X137677771Y-64809811D01*
X137423585Y-65063997D01*
X137199458Y-65345045D01*
X137008206Y-65649420D01*
X136852239Y-65973288D01*
X136733515Y-66312580D01*
X136733511Y-66312592D01*
X136653522Y-66663048D01*
X136653520Y-66663064D01*
X136613274Y-67020259D01*
X135303625Y-67020259D01*
X135304204Y-66490116D01*
X135306588Y-66466064D01*
X135376060Y-66116974D01*
X135378658Y-66106383D01*
X135488766Y-65730115D01*
X135492287Y-65719797D01*
X135635123Y-65354700D01*
X135639540Y-65344729D01*
X135813998Y-64993632D01*
X135819272Y-64984096D01*
X136023991Y-64649740D01*
X136030088Y-64640703D01*
X136263477Y-64325685D01*
X136270345Y-64317223D01*
X136530587Y-64023998D01*
X136538171Y-64016177D01*
X136823236Y-63747030D01*
X136831492Y-63739896D01*
X137139156Y-63496926D01*
X137148012Y-63490546D01*
X137475883Y-63275638D01*
X137485275Y-63270058D01*
X137830810Y-63084879D01*
X137840650Y-63080151D01*
X138201188Y-62926129D01*
X138211381Y-62922298D01*
X138584076Y-62800652D01*
X138594591Y-62797727D01*
X138976550Y-62709400D01*
X138987275Y-62707413D01*
X139375549Y-62653087D01*
X139386391Y-62652056D01*
X139779407Y-62632081D01*
X139785686Y-62631922D01*
X235395332Y-62643901D01*
G37*
%TD.AperFunction*%
%TD*%
%TA.AperFunction,Conductor*%
%TO.N,/5VBuck/CB*%
G36*
X213382337Y-93888237D02*
G01*
X214674579Y-94746298D01*
X214679576Y-94753729D01*
X214679037Y-94760220D01*
X214153366Y-96136516D01*
X214147213Y-96143022D01*
X214138261Y-96143271D01*
X214137160Y-96142784D01*
X212827050Y-95480901D01*
X212821211Y-95474112D01*
X212821075Y-95467247D01*
X213232111Y-94027277D01*
X213235086Y-94022220D01*
X213367595Y-93889711D01*
X213375867Y-93886285D01*
X213382337Y-93888237D01*
G37*
%TD.AperFunction*%
%TD*%
%TA.AperFunction,Conductor*%
%TO.N,/PowerProtection/gate*%
G36*
X174180930Y-82755835D02*
G01*
X174188358Y-82760834D01*
X174190077Y-82769622D01*
X174189608Y-82771290D01*
X174002796Y-83286524D01*
X173996755Y-83293134D01*
X173991797Y-83294236D01*
X173808203Y-83294236D01*
X173799930Y-83290809D01*
X173797204Y-83286524D01*
X173749544Y-83155078D01*
X173610391Y-82771288D01*
X173610792Y-82762344D01*
X173617402Y-82756303D01*
X173619056Y-82755837D01*
X173897682Y-82699469D01*
X173902318Y-82699469D01*
X174180930Y-82755835D01*
G37*
%TD.AperFunction*%
%TD*%
%TA.AperFunction,Conductor*%
%TO.N,/+V_out_5V_Buck*%
G36*
X207096236Y-101902945D02*
G01*
X207100068Y-101911038D01*
X207100068Y-101912196D01*
X207027492Y-103378168D01*
X207023660Y-103386261D01*
X207018231Y-103389035D01*
X205418227Y-103728087D01*
X205409424Y-103726449D01*
X205407529Y-103724914D01*
X205275085Y-103592470D01*
X205271658Y-103584197D01*
X205271911Y-103581780D01*
X205610965Y-101981765D01*
X205616032Y-101974385D01*
X205621829Y-101972507D01*
X207087805Y-101899931D01*
X207096236Y-101902945D01*
G37*
%TD.AperFunction*%
%TD*%
%TA.AperFunction,Conductor*%
%TO.N,/5VBuck/CB*%
G36*
X192721273Y-94610336D02*
G01*
X193143454Y-94761772D01*
X193147776Y-94764512D01*
X193276065Y-94892801D01*
X193279492Y-94901074D01*
X193276065Y-94909347D01*
X193273200Y-94911449D01*
X192825946Y-95144605D01*
X192817026Y-95145391D01*
X192810831Y-95140762D01*
X192652018Y-94904756D01*
X192650242Y-94895980D01*
X192705859Y-94619046D01*
X192710848Y-94611611D01*
X192719634Y-94609880D01*
X192721273Y-94610336D01*
G37*
%TD.AperFunction*%
%TD*%
%TA.AperFunction,Conductor*%
%TO.N,Net-(D10-K)*%
G36*
X171207854Y-66607757D02*
G01*
X171208672Y-66608575D01*
X172193951Y-67696493D01*
X172196965Y-67704926D01*
X172195087Y-67710725D01*
X171303461Y-69081845D01*
X171296078Y-69086913D01*
X171293653Y-69087167D01*
X171106347Y-69087167D01*
X171098074Y-69083740D01*
X171096539Y-69081845D01*
X170204912Y-67710725D01*
X170203274Y-67701922D01*
X170206046Y-67696495D01*
X171191328Y-66608574D01*
X171199421Y-66604743D01*
X171207854Y-66607757D01*
G37*
%TD.AperFunction*%
%TD*%
%TA.AperFunction,Conductor*%
%TO.N,/PowerProtection/gate*%
G36*
X173739527Y-82459780D02*
G01*
X173898272Y-82695942D01*
X173900043Y-82704720D01*
X173900030Y-82704789D01*
X173843757Y-82982942D01*
X173838757Y-82990371D01*
X173830145Y-82992124D01*
X173331409Y-82899149D01*
X173323904Y-82894264D01*
X173321853Y-82887647D01*
X173321853Y-82703992D01*
X173325280Y-82695719D01*
X173327530Y-82693962D01*
X173723801Y-82456273D01*
X173732656Y-82454957D01*
X173739527Y-82459780D01*
G37*
%TD.AperFunction*%
%TD*%
%TA.AperFunction,Conductor*%
%TO.N,/+V_out_5V_Buck*%
G36*
X199905057Y-105068662D02*
G01*
X200038217Y-105201822D01*
X200039474Y-105203308D01*
X200494258Y-105841938D01*
X200496266Y-105850665D01*
X200493001Y-105856998D01*
X199658444Y-106691555D01*
X199650171Y-106694982D01*
X199641898Y-106691555D01*
X199641121Y-106690697D01*
X198962138Y-105858951D01*
X198959562Y-105850377D01*
X198963693Y-105842583D01*
X199889278Y-105067962D01*
X199897819Y-105065281D01*
X199905057Y-105068662D01*
G37*
%TD.AperFunction*%
%TD*%
%TA.AperFunction,Conductor*%
%TO.N,/PowerProtection/gate*%
G36*
X164407466Y-66608092D02*
G01*
X164408262Y-66608959D01*
X165348387Y-67742095D01*
X165351033Y-67750651D01*
X165348906Y-67756363D01*
X164402500Y-69082264D01*
X164394904Y-69087007D01*
X164392977Y-69087167D01*
X164205681Y-69087167D01*
X164197408Y-69083740D01*
X164195605Y-69081415D01*
X163413427Y-67756363D01*
X163360707Y-67667052D01*
X163359454Y-67658187D01*
X163362445Y-67652899D01*
X164390921Y-66608221D01*
X164399167Y-66604730D01*
X164407466Y-66608092D01*
G37*
%TD.AperFunction*%
%TD*%
%TA.AperFunction,Conductor*%
%TO.N,/5VBuck/SW*%
G36*
X214251926Y-99716260D02*
G01*
X214253461Y-99718155D01*
X215145087Y-101089274D01*
X215146725Y-101098077D01*
X215143951Y-101103506D01*
X214158672Y-102191424D01*
X214150579Y-102195256D01*
X214142146Y-102192242D01*
X214141328Y-102191424D01*
X213156048Y-101103506D01*
X213153034Y-101095073D01*
X213154912Y-101089274D01*
X214046539Y-99718155D01*
X214053922Y-99713087D01*
X214056347Y-99712833D01*
X214243653Y-99712833D01*
X214251926Y-99716260D01*
G37*
%TD.AperFunction*%
%TD*%
%TA.AperFunction,Conductor*%
%TO.N,/+24V_Ext*%
G36*
X157403207Y-79892301D02*
G01*
X157403467Y-79892569D01*
X158585691Y-81152641D01*
X158588852Y-81161019D01*
X158585415Y-81168936D01*
X157755531Y-81995490D01*
X157747250Y-81998900D01*
X157742788Y-81998006D01*
X157350880Y-81835319D01*
X156651444Y-81544972D01*
X156645118Y-81538636D01*
X156644848Y-81530421D01*
X157197311Y-79896826D01*
X157203207Y-79890086D01*
X157208394Y-79888874D01*
X157394934Y-79888874D01*
X157403207Y-79892301D01*
G37*
%TD.AperFunction*%
%TD*%
%TA.AperFunction,Conductor*%
%TO.N,/5VBuck/SW*%
G36*
X191771282Y-95210389D02*
G01*
X192286525Y-95397204D01*
X192293134Y-95403244D01*
X192294236Y-95408202D01*
X192294236Y-95591797D01*
X192290809Y-95600070D01*
X192286524Y-95602796D01*
X191771290Y-95789608D01*
X191762344Y-95789207D01*
X191756303Y-95782597D01*
X191755837Y-95780939D01*
X191699469Y-95502318D01*
X191699469Y-95497680D01*
X191755835Y-95219067D01*
X191760834Y-95211641D01*
X191769622Y-95209922D01*
X191771282Y-95210389D01*
G37*
%TD.AperFunction*%
%TD*%
%TA.AperFunction,Conductor*%
%TO.N,Net-(IC1-EN{slash}UVLO)*%
G36*
X177124794Y-82787772D02*
G01*
X177126485Y-82789912D01*
X177393551Y-83223761D01*
X177394969Y-83232602D01*
X177390119Y-83239601D01*
X177154756Y-83397981D01*
X177145979Y-83399757D01*
X177145920Y-83399745D01*
X176868213Y-83343973D01*
X176860777Y-83338984D01*
X176859046Y-83330198D01*
X176859272Y-83329269D01*
X176976466Y-82921620D01*
X176979435Y-82916585D01*
X177108249Y-82787771D01*
X177116521Y-82784345D01*
X177124794Y-82787772D01*
G37*
%TD.AperFunction*%
%TD*%
%TA.AperFunction,Conductor*%
%TO.N,Net-(IC1-EN{slash}UVLO)*%
G36*
X165154344Y-77344116D02*
G01*
X165155193Y-77345626D01*
X165227080Y-77499293D01*
X165346791Y-77755193D01*
X165387422Y-77842046D01*
X165387823Y-77850992D01*
X165385097Y-77855277D01*
X165255277Y-77985097D01*
X165247004Y-77988524D01*
X165242047Y-77987422D01*
X165091428Y-77916961D01*
X164745626Y-77755193D01*
X164739585Y-77748583D01*
X164739986Y-77739637D01*
X164740835Y-77738127D01*
X164897985Y-77501263D01*
X164901263Y-77497985D01*
X165138127Y-77340834D01*
X165146915Y-77339116D01*
X165154344Y-77344116D01*
G37*
%TD.AperFunction*%
%TD*%
%TA.AperFunction,Conductor*%
%TO.N,/PowerProtection/gate*%
G36*
X174001693Y-88126370D02*
G01*
X174003418Y-88128566D01*
X174243635Y-88523777D01*
X174245004Y-88532627D01*
X174240164Y-88539564D01*
X174004057Y-88698272D01*
X173995279Y-88700043D01*
X173995210Y-88700030D01*
X173717006Y-88643747D01*
X173709577Y-88638747D01*
X173707815Y-88630187D01*
X173798254Y-88132551D01*
X173803104Y-88125024D01*
X173809765Y-88122943D01*
X173993420Y-88122943D01*
X174001693Y-88126370D01*
G37*
%TD.AperFunction*%
%TD*%
%TA.AperFunction,Conductor*%
%TO.N,/PowerProtection/source*%
G36*
X179808810Y-78909191D02*
G01*
X179811594Y-78913638D01*
X179989861Y-79428831D01*
X179989328Y-79437770D01*
X179982630Y-79443714D01*
X179981124Y-79444125D01*
X179702320Y-79500530D01*
X179697680Y-79500530D01*
X179419268Y-79444205D01*
X179411839Y-79439205D01*
X179410120Y-79430417D01*
X179410645Y-79428597D01*
X179606006Y-78913316D01*
X179612143Y-78906795D01*
X179616946Y-78905764D01*
X179800537Y-78905764D01*
X179808810Y-78909191D01*
G37*
%TD.AperFunction*%
%TD*%
%TA.AperFunction,Conductor*%
%TO.N,/+24V_Ext*%
G36*
X157307854Y-66607757D02*
G01*
X157308672Y-66608575D01*
X158293951Y-67696493D01*
X158296965Y-67704926D01*
X158295087Y-67710725D01*
X157403461Y-69081845D01*
X157396078Y-69086913D01*
X157393653Y-69087167D01*
X157206347Y-69087167D01*
X157198074Y-69083740D01*
X157196539Y-69081845D01*
X156304912Y-67710725D01*
X156303274Y-67701922D01*
X156306046Y-67696495D01*
X157291328Y-66608574D01*
X157299421Y-66604743D01*
X157307854Y-66607757D01*
G37*
%TD.AperFunction*%
%TD*%
%TA.AperFunction,Conductor*%
%TO.N,/PowerProtection/source*%
G36*
X181295755Y-71207791D02*
G01*
X181300182Y-71215575D01*
X181300269Y-71216784D01*
X181330661Y-72682405D01*
X181327407Y-72690748D01*
X181321521Y-72694065D01*
X179810132Y-73032623D01*
X179807575Y-73032906D01*
X179622111Y-73032906D01*
X179613838Y-73029479D01*
X179610411Y-73021206D01*
X179610500Y-73019765D01*
X179650929Y-72694065D01*
X179811711Y-71398786D01*
X179816130Y-71391001D01*
X179821868Y-71388620D01*
X181287121Y-71205417D01*
X181295755Y-71207791D01*
G37*
%TD.AperFunction*%
%TD*%
%TA.AperFunction,Conductor*%
%TO.N,Net-(IC1-OV)*%
G36*
X167696236Y-71207752D02*
G01*
X167700068Y-71215845D01*
X167700068Y-71217003D01*
X167627492Y-72682975D01*
X167623660Y-72691068D01*
X167618231Y-72693842D01*
X166018227Y-73032894D01*
X166009424Y-73031256D01*
X166007529Y-73029721D01*
X165875085Y-72897277D01*
X165871658Y-72889004D01*
X165871911Y-72886587D01*
X166210965Y-71286572D01*
X166216032Y-71279192D01*
X166221829Y-71277314D01*
X167687805Y-71204738D01*
X167696236Y-71207752D01*
G37*
%TD.AperFunction*%
%TD*%
%TA.AperFunction,Conductor*%
%TO.N,Net-(IC1-VCAP)*%
G36*
X177211981Y-66604019D02*
G01*
X177758396Y-66832907D01*
X178574566Y-67174794D01*
X178580873Y-67181151D01*
X178581550Y-67187716D01*
X178302773Y-68692603D01*
X178297897Y-68700114D01*
X178291269Y-68702172D01*
X178103808Y-68702172D01*
X178098497Y-68700897D01*
X176779778Y-68029133D01*
X176773962Y-68022325D01*
X176773885Y-68015340D01*
X177196258Y-66611437D01*
X177201922Y-66604504D01*
X177210832Y-66603606D01*
X177211981Y-66604019D01*
G37*
%TD.AperFunction*%
%TD*%
M02*
