M48
; DRILL file {KiCad 9.0.4} date 2026-05-31T00:20:27-0500
; FORMAT={-:-/ absolute / metric / decimal}
; #@! TF.CreationDate,2026-05-31T00:20:27-05:00
; #@! TF.GenerationSoftware,Kicad,Pcbnew,9.0.4
; #@! TF.FileFunction,Plated,1,2,PTH
FMAT,2
METRIC
; #@! TA.AperFunction,Plated,PTH,ViaDrill
T1C0.300
; #@! TA.AperFunction,Plated,PTH,ViaDrill
T2C0.400
; #@! TA.AperFunction,Plated,PTH,ComponentDrill
T3C1.000
; #@! TA.AperFunction,Plated,PTH,ComponentDrill
T4C1.500
; #@! TA.AperFunction,Plated,PTH,ComponentDrill
T5C1.600
; #@! TA.AperFunction,Plated,PTH,ComponentDrill
T6C3.000
; #@! TA.AperFunction,Plated,PTH,ComponentDrill
T7C5.410
%
G90
G05
T1
X158.1Y-75.6
X158.1Y-76.7
X158.7Y-74.7
X158.7Y-77.6
X159.2Y-75.6
X159.2Y-76.7
X160.1Y-77.6
X160.2Y-74.7
X162.3Y-73.6
X163.0Y-72.7
X163.4Y-73.6
X163.6Y-71.7
X164.9Y-77.5
X165.1Y-71.7
X165.1Y-72.7
X165.1Y-73.6
X165.9Y-74.0
X166.8Y-76.6
X167.6Y-75.7
X168.2Y-74.9
X168.2Y-76.5
X168.8Y-75.7
X169.5Y-74.9
X169.5Y-76.5
X170.1Y-75.7
X170.8Y-74.9
X171.75Y-91.45
X172.3Y-70.6
X172.4Y-75.4
X172.55Y-92.25
X172.9Y-69.8
X173.2Y-91.45
X173.5Y-70.6
X173.9Y-82.7
X174.0Y-88.7
X174.05Y-92.2
X174.1Y-69.8
X174.7Y-70.6
X174.75Y-91.45
X175.2Y-69.8
X175.5Y-92.2
X175.8Y-70.6
X176.25Y-91.4
X176.4Y-69.8
X176.4Y-71.5
X176.4Y-72.4
X176.4Y-73.3
X176.4Y-77.9
X177.0Y-70.6
X177.15Y-83.4
X177.5Y-71.5
X177.5Y-72.4
X177.5Y-73.3
X177.6Y-69.8
X179.4Y-91.4
X179.4Y-92.2
X179.7Y-79.5
X180.4Y-91.4
X180.4Y-92.2
X182.8Y-95.8
X183.7Y-88.812
X183.95Y-97.35
X184.45Y-96.3
X184.55Y-98.35
X185.15Y-97.35
X185.55Y-96.3
X185.85Y-98.3
X186.4Y-97.4
X186.6Y-96.3
X187.1Y-98.3
X187.7Y-97.4
X188.6Y-98.3
X189.2Y-97.4
X191.7Y-95.5
X192.65Y-94.9
X199.9Y-91.5
X200.7Y-92.4
X200.7Y-97.3
X200.8Y-95.3
X201.4Y-98.4
X201.5Y-94.5
X201.5Y-96.3
X201.6Y-91.5
X202.2Y-95.3
X202.2Y-97.3
X202.7Y-92.4
X202.9Y-94.5
X202.9Y-96.3
X202.9Y-98.4
X203.4Y-91.5
X203.6Y-95.3
X203.6Y-97.3
X204.2Y-92.4
X204.3Y-94.5
X204.3Y-96.2
X204.4Y-98.3
T2
X177.502Y-82.241
T3
X181.8Y-101.135
X181.8Y-103.675
X187.46Y-86.015
X187.46Y-88.555
X193.86Y-85.945
X193.86Y-88.485
X193.9Y-112.06
X193.9Y-114.6
X199.4Y-78.8
X199.4Y-81.34
X199.65Y-106.7
X202.19Y-106.7
X216.8Y-106.3
X216.8Y-108.84
T4
X155.05Y-94.85
X155.05Y-100.35
X155.05Y-113.25
X155.058Y-106.321
X157.3Y-66.6
X161.132Y-71.205
X161.18Y-121.451
X164.4Y-66.6
X167.7Y-71.205
X171.2Y-66.6
X177.2Y-66.6
X181.3Y-71.205
X187.2Y-66.6
X187.7Y-71.205
X197.0Y-121.4
X207.1Y-96.2
X207.1Y-101.9
X211.1Y-121.4
X213.55Y-84.8
X214.148Y-96.148
X214.15Y-102.2
X215.7Y-117.3
T5
X144.28Y-82.0
X144.28Y-85.4
X157.75Y-82.0
X157.75Y-85.4
T6
X139.814Y-67.2
X139.814Y-119.961
X235.103Y-119.961
X235.107Y-67.2
T7
X148.9Y-71.55
X170.2Y-115.75
X184.55Y-115.75
X197.0Y-71.55
X210.31Y-71.55
X224.5Y-88.0
X224.5Y-102.05
X224.5Y-115.75
M30
