%TF.GenerationSoftware,KiCad,Pcbnew,9.0.7*%
%TF.CreationDate,2026-05-31T22:43:53-05:00*%
%TF.ProjectId,48PinMCU_TestBoard,34385069-6e4d-4435-955f-54657374426f,rev?*%
%TF.SameCoordinates,PX4a62f80PY7088980*%
%TF.FileFunction,Paste,Top*%
%TF.FilePolarity,Positive*%
%FSLAX46Y46*%
G04 Gerber Fmt 4.6, Leading zero omitted, Abs format (unit mm)*
G04 Created by KiCad (PCBNEW 9.0.7) date 2026-05-31 22:43:53*
%MOMM*%
%LPD*%
G01*
G04 APERTURE LIST*
G04 Aperture macros list*
%AMRoundRect*
0 Rectangle with rounded corners*
0 $1 Rounding radius*
0 $2 $3 $4 $5 $6 $7 $8 $9 X,Y pos of 4 corners*
0 Add a 4 corners polygon primitive as box body*
4,1,4,$2,$3,$4,$5,$6,$7,$8,$9,$2,$3,0*
0 Add four circle primitives for the rounded corners*
1,1,$1+$1,$2,$3*
1,1,$1+$1,$4,$5*
1,1,$1+$1,$6,$7*
1,1,$1+$1,$8,$9*
0 Add four rect primitives between the rounded corners*
20,1,$1+$1,$2,$3,$4,$5,0*
20,1,$1+$1,$4,$5,$6,$7,0*
20,1,$1+$1,$6,$7,$8,$9,0*
20,1,$1+$1,$8,$9,$2,$3,0*%
%AMFreePoly0*
4,1,6,0.725000,-0.725000,-0.725000,-0.725000,-0.725000,0.125000,-0.125000,0.725000,0.725000,0.725000,0.725000,-0.725000,0.725000,-0.725000,$1*%
G04 Aperture macros list end*
%ADD10R,2.743200X0.990600*%
%ADD11R,0.700000X0.700000*%
%ADD12R,1.450000X1.450000*%
%ADD13FreePoly0,0.000000*%
%ADD14R,0.400000X0.800000*%
%ADD15R,0.800000X0.400000*%
%ADD16R,1.200000X2.500000*%
%ADD17RoundRect,0.237500X-0.250000X-0.237500X0.250000X-0.237500X0.250000X0.237500X-0.250000X0.237500X0*%
%ADD18RoundRect,0.150000X0.150000X0.425000X-0.150000X0.425000X-0.150000X-0.425000X0.150000X-0.425000X0*%
%ADD19RoundRect,0.075000X0.075000X0.500000X-0.075000X0.500000X-0.075000X-0.500000X0.075000X-0.500000X0*%
%ADD20O,1.000000X2.100000*%
%ADD21O,1.000000X1.800000*%
%ADD22RoundRect,0.225000X0.225000X0.375000X-0.225000X0.375000X-0.225000X-0.375000X0.225000X-0.375000X0*%
%ADD23RoundRect,0.250000X-0.475000X0.337500X-0.475000X-0.337500X0.475000X-0.337500X0.475000X0.337500X0*%
%ADD24RoundRect,0.237500X-0.300000X-0.237500X0.300000X-0.237500X0.300000X0.237500X-0.300000X0.237500X0*%
%ADD25RoundRect,0.237500X0.237500X-0.300000X0.237500X0.300000X-0.237500X0.300000X-0.237500X-0.300000X0*%
%ADD26RoundRect,0.237500X-0.237500X0.300000X-0.237500X-0.300000X0.237500X-0.300000X0.237500X0.300000X0*%
%ADD27RoundRect,0.218750X0.218750X0.256250X-0.218750X0.256250X-0.218750X-0.256250X0.218750X-0.256250X0*%
%ADD28RoundRect,0.237500X0.250000X0.237500X-0.250000X0.237500X-0.250000X-0.237500X0.250000X-0.237500X0*%
%ADD29R,0.875000X0.450000*%
%ADD30R,1.193800X0.304800*%
%ADD31R,0.304800X1.193800*%
%ADD32RoundRect,0.237500X0.237500X-0.250000X0.237500X0.250000X-0.237500X0.250000X-0.237500X-0.250000X0*%
%ADD33RoundRect,0.112500X0.187500X0.112500X-0.187500X0.112500X-0.187500X-0.112500X0.187500X-0.112500X0*%
%ADD34RoundRect,0.237500X0.300000X0.237500X-0.300000X0.237500X-0.300000X-0.237500X0.300000X-0.237500X0*%
%ADD35RoundRect,0.218750X0.256250X-0.218750X0.256250X0.218750X-0.256250X0.218750X-0.256250X-0.218750X0*%
%ADD36R,0.330000X0.360000*%
%ADD37RoundRect,0.250000X-0.250000X0.250000X-0.250000X-0.250000X0.250000X-0.250000X0.250000X0.250000X0*%
%ADD38RoundRect,0.250000X0.475000X-0.337500X0.475000X0.337500X-0.475000X0.337500X-0.475000X-0.337500X0*%
%ADD39R,1.250000X0.600000*%
%ADD40R,0.750000X1.000000*%
%ADD41RoundRect,0.237500X-0.237500X0.250000X-0.237500X-0.250000X0.237500X-0.250000X0.237500X0.250000X0*%
%ADD42RoundRect,0.250000X0.950000X-0.700000X0.950000X0.700000X-0.950000X0.700000X-0.950000X-0.700000X0*%
%ADD43R,0.475000X0.300000*%
%ADD44RoundRect,0.250000X0.337500X0.475000X-0.337500X0.475000X-0.337500X-0.475000X0.337500X-0.475000X0*%
%ADD45RoundRect,0.375000X-0.625000X-0.375000X0.625000X-0.375000X0.625000X0.375000X-0.625000X0.375000X0*%
%ADD46RoundRect,0.500000X-0.500000X-1.400000X0.500000X-1.400000X0.500000X1.400000X-0.500000X1.400000X0*%
%ADD47R,1.528000X0.650000*%
G04 APERTURE END LIST*
D10*
%TO.C,J5*%
X39474602Y53000001D03*
X43724601Y53000001D03*
X39474602Y50999999D03*
X43724601Y50999999D03*
%TD*%
D11*
%TO.C,U2*%
X85950000Y56950000D03*
X85950000Y47050000D03*
X97850000Y47050000D03*
X97850000Y56950000D03*
D12*
X93875000Y50025000D03*
X93875000Y52000000D03*
X93875000Y53975000D03*
X91900000Y50025000D03*
X91900000Y52000000D03*
X91900000Y53975000D03*
X89925000Y50025000D03*
X89925000Y52000000D03*
D13*
X89925000Y53975000D03*
D14*
X87100000Y56900000D03*
X87900000Y56900000D03*
X88700000Y56900000D03*
X89500000Y56900000D03*
X90300000Y56900000D03*
X91100000Y56900000D03*
X91900000Y56900000D03*
X92700000Y56900000D03*
X93500000Y56900000D03*
X94300000Y56900000D03*
X95100000Y56900000D03*
X95900000Y56900000D03*
X96700000Y56900000D03*
D15*
X97800000Y56000000D03*
X97800000Y55200000D03*
X97800000Y54400000D03*
X97800000Y53600000D03*
X97800000Y52800000D03*
X97800000Y52000000D03*
X97800000Y51200000D03*
X97800000Y50400000D03*
X97800000Y49600000D03*
X97800000Y48800000D03*
X97800000Y48000000D03*
D14*
X96700000Y47100000D03*
X95900000Y47100000D03*
X95100000Y47100000D03*
X94300000Y47100000D03*
X93500000Y47100000D03*
X92700000Y47100000D03*
X91900000Y47100000D03*
X91100000Y47100000D03*
X90300000Y47100000D03*
X89500000Y47100000D03*
X88700000Y47100000D03*
X87900000Y47100000D03*
X87100000Y47100000D03*
D15*
X86000000Y48000000D03*
X86000000Y48800000D03*
X86000000Y49600000D03*
X86000000Y50400000D03*
X86000000Y51200000D03*
X86000000Y52000000D03*
X86000000Y52800000D03*
X86000000Y53600000D03*
X86000000Y54400000D03*
X86000000Y55200000D03*
X86000000Y56000000D03*
%TD*%
D16*
%TO.C,SW3*%
X104050000Y31050000D03*
X106550000Y36550000D03*
X109050000Y31050000D03*
%TD*%
D17*
%TO.C,R28*%
X101600000Y44450000D03*
X103425000Y44450000D03*
%TD*%
%TO.C,R25*%
X102600000Y40200000D03*
X104425000Y40200000D03*
%TD*%
D18*
%TO.C,J6*%
X78400000Y50870000D03*
X77600000Y50870000D03*
D19*
X76450000Y50870000D03*
X75450000Y50870000D03*
X74950000Y50870000D03*
X73950000Y50870000D03*
D18*
X72800000Y50870000D03*
X72000000Y50870000D03*
X72000000Y50870000D03*
X72800000Y50870000D03*
D19*
X73450000Y50870000D03*
X74450000Y50870000D03*
X75950000Y50870000D03*
X76950000Y50870000D03*
D18*
X77600000Y50870000D03*
X78400000Y50870000D03*
D20*
X79520000Y51445000D03*
X70880000Y51445000D03*
D21*
X70880000Y55625000D03*
X79520000Y55625000D03*
%TD*%
D22*
%TO.C,D15*%
X79750000Y48000000D03*
X76450000Y48000000D03*
%TD*%
D23*
%TO.C,C31*%
X84100000Y52537500D03*
X84100000Y50462500D03*
%TD*%
D24*
%TO.C,C19*%
X94787500Y38750000D03*
X96512500Y38750000D03*
%TD*%
D25*
%TO.C,C17*%
X84350000Y54250000D03*
X84350000Y55975000D03*
%TD*%
D26*
%TO.C,C12*%
X35098299Y27060799D03*
X35098299Y25335799D03*
%TD*%
D25*
%TO.C,C9*%
X33998299Y40635799D03*
X33998299Y42360799D03*
%TD*%
D27*
%TO.C,D7*%
X57287500Y39100000D03*
X55712500Y39100000D03*
%TD*%
D28*
%TO.C,R4*%
X54437500Y48500000D03*
X52612500Y48500000D03*
%TD*%
D17*
%TO.C,R19*%
X101675000Y54500000D03*
X103500000Y54500000D03*
%TD*%
%TO.C,R14*%
X4187500Y38325000D03*
X6012500Y38325000D03*
%TD*%
D27*
%TO.C,D4*%
X14012500Y18100000D03*
X12437500Y18100000D03*
%TD*%
D18*
%TO.C,J1*%
X60365000Y50825000D03*
X59565000Y50825000D03*
D19*
X58415000Y50825000D03*
X57415000Y50825000D03*
X56915000Y50825000D03*
X55915000Y50825000D03*
D18*
X54765000Y50825000D03*
X53965000Y50825000D03*
X53965000Y50825000D03*
X54765000Y50825000D03*
D19*
X55415000Y50825000D03*
X56415000Y50825000D03*
X57915000Y50825000D03*
X58915000Y50825000D03*
D18*
X59565000Y50825000D03*
X60365000Y50825000D03*
D20*
X61485000Y51400000D03*
X52845000Y51400000D03*
D21*
X52845000Y55580000D03*
X61485000Y55580000D03*
%TD*%
D24*
%TO.C,C6*%
X4237500Y36575000D03*
X5962500Y36575000D03*
%TD*%
D17*
%TO.C,R10*%
X52175000Y41000000D03*
X54000000Y41000000D03*
%TD*%
D28*
%TO.C,R20*%
X72557167Y44193992D03*
X70732167Y44193992D03*
%TD*%
D17*
%TO.C,R21*%
X101575000Y46500000D03*
X103400000Y46500000D03*
%TD*%
D29*
%TO.C,IC1*%
X5812000Y12055000D03*
X5812000Y11405000D03*
X5812000Y10755000D03*
X7936000Y10755000D03*
X7936000Y11405000D03*
X7936000Y12055000D03*
%TD*%
D25*
%TO.C,C15*%
X35998299Y40635799D03*
X35998299Y42360799D03*
%TD*%
D17*
%TO.C,R24*%
X70612167Y48344992D03*
X72437167Y48344992D03*
%TD*%
D24*
%TO.C,C25*%
X60800000Y31300000D03*
X62525000Y31300000D03*
%TD*%
D25*
%TO.C,C7*%
X43198299Y40635799D03*
X43198299Y42360799D03*
%TD*%
D30*
%TO.C,U1*%
X34148300Y36748299D03*
X34148300Y36248300D03*
X34148300Y35748298D03*
X34148300Y35248299D03*
X34148300Y34748300D03*
X34148300Y34248299D03*
X34148300Y33748299D03*
X34148300Y33248298D03*
X34148300Y32748299D03*
X34148300Y32248300D03*
X34148300Y31748298D03*
X34148300Y31248299D03*
D31*
X35648299Y29748300D03*
X36148298Y29748300D03*
X36648300Y29748300D03*
X37148299Y29748300D03*
X37648298Y29748300D03*
X38148299Y29748300D03*
X38648299Y29748300D03*
X39148300Y29748300D03*
X39648299Y29748300D03*
X40148298Y29748300D03*
X40648300Y29748300D03*
X41148299Y29748300D03*
D30*
X42648298Y31248299D03*
X42648298Y31748298D03*
X42648298Y32248300D03*
X42648298Y32748299D03*
X42648298Y33248298D03*
X42648298Y33748299D03*
X42648298Y34248299D03*
X42648298Y34748300D03*
X42648298Y35248299D03*
X42648298Y35748298D03*
X42648298Y36248300D03*
X42648298Y36748299D03*
D31*
X41148299Y38248298D03*
X40648300Y38248298D03*
X40148298Y38248298D03*
X39648299Y38248298D03*
X39148300Y38248298D03*
X38648299Y38248298D03*
X38148299Y38248298D03*
X37648298Y38248298D03*
X37148299Y38248298D03*
X36648300Y38248298D03*
X36148298Y38248298D03*
X35648299Y38248298D03*
%TD*%
D32*
%TO.C,R2*%
X45198299Y31285799D03*
X45198299Y33110799D03*
%TD*%
D33*
%TO.C,D9*%
X16150000Y37575000D03*
X14050000Y37575000D03*
%TD*%
D17*
%TO.C,R29*%
X61274000Y29100000D03*
X63099000Y29100000D03*
%TD*%
D25*
%TO.C,C30*%
X9546500Y10852500D03*
X9546500Y12577500D03*
%TD*%
D27*
%TO.C,D10*%
X20137500Y39075000D03*
X18562500Y39075000D03*
%TD*%
D17*
%TO.C,R11*%
X52175000Y39100000D03*
X54000000Y39100000D03*
%TD*%
D32*
%TO.C,R9*%
X31998299Y40885799D03*
X31998299Y42710799D03*
%TD*%
D34*
%TO.C,C24*%
X15687500Y9600000D03*
X13962500Y9600000D03*
%TD*%
D35*
%TO.C,D5*%
X28898299Y41110799D03*
X28898299Y42685799D03*
%TD*%
D26*
%TO.C,C10*%
X33498299Y27060799D03*
X33498299Y25335799D03*
%TD*%
D17*
%TO.C,R30*%
X25662500Y12100000D03*
X27487500Y12100000D03*
%TD*%
D27*
%TO.C,D11*%
X108675000Y54500000D03*
X107100000Y54500000D03*
%TD*%
D34*
%TO.C,C22*%
X56125000Y32900000D03*
X54400000Y32900000D03*
%TD*%
D36*
%TO.C,D16*%
X74874667Y48704992D03*
X74174667Y48704992D03*
X74524667Y47544992D03*
%TD*%
D17*
%TO.C,R22*%
X101575000Y50500000D03*
X103400000Y50500000D03*
%TD*%
D24*
%TO.C,C27*%
X25712500Y7600000D03*
X27437500Y7600000D03*
%TD*%
D32*
%TO.C,R13*%
X4136000Y10755000D03*
X4136000Y12580000D03*
%TD*%
D24*
%TO.C,C2*%
X29835799Y38648299D03*
X31560799Y38648299D03*
%TD*%
D37*
%TO.C,D17*%
X79125000Y35500000D03*
X79125000Y33000000D03*
%TD*%
D27*
%TO.C,D8*%
X57287500Y37100000D03*
X55712500Y37100000D03*
%TD*%
D17*
%TO.C,R31*%
X25500000Y9100000D03*
X27325000Y9100000D03*
%TD*%
D27*
%TO.C,D12*%
X78832167Y43593992D03*
X77257167Y43593992D03*
%TD*%
D38*
%TO.C,C5*%
X45098299Y40160799D03*
X45098299Y42235799D03*
%TD*%
D26*
%TO.C,C16*%
X39948299Y27010799D03*
X39948299Y25285799D03*
%TD*%
D27*
%TO.C,D6*%
X57275000Y41000000D03*
X55700000Y41000000D03*
%TD*%
D39*
%TO.C,D18*%
X39786000Y8805000D03*
X39786000Y10705000D03*
X37786000Y9755000D03*
%TD*%
D40*
%TO.C,SW4*%
X95550000Y36400000D03*
X95550000Y31900000D03*
X97700000Y36400000D03*
X97700000Y31900000D03*
%TD*%
D32*
%TO.C,R15*%
X39998299Y40585799D03*
X39998299Y42410799D03*
%TD*%
D27*
%TO.C,D3*%
X14025000Y21200000D03*
X12450000Y21200000D03*
%TD*%
D26*
%TO.C,C13*%
X42948299Y27010799D03*
X42948299Y25285799D03*
%TD*%
D41*
%TO.C,R1*%
X45198299Y36710799D03*
X45198299Y34885799D03*
%TD*%
D28*
%TO.C,R6*%
X56211500Y29650000D03*
X54386500Y29650000D03*
%TD*%
D42*
%TO.C,Y1*%
X30198299Y32348299D03*
X30198299Y36448299D03*
%TD*%
D24*
%TO.C,C28*%
X60800000Y32900000D03*
X62525000Y32900000D03*
%TD*%
D43*
%TO.C,U4*%
X57586500Y32850000D03*
X57586500Y32350000D03*
X57586500Y31850000D03*
X57586500Y31350000D03*
X59262500Y31350000D03*
X59262500Y31850000D03*
X59262500Y32350000D03*
X59262500Y32850000D03*
%TD*%
D26*
%TO.C,C8*%
X38298299Y27060799D03*
X38298299Y25335799D03*
%TD*%
D44*
%TO.C,C18*%
X79562167Y45544992D03*
X77487167Y45544992D03*
%TD*%
D27*
%TO.C,D14*%
X108662500Y50500000D03*
X107087500Y50500000D03*
%TD*%
D26*
%TO.C,C11*%
X44548299Y27010799D03*
X44548299Y25285799D03*
%TD*%
D17*
%TO.C,R7*%
X9087500Y21200000D03*
X10912500Y21200000D03*
%TD*%
%TO.C,R12*%
X52175000Y37100000D03*
X54000000Y37100000D03*
%TD*%
D34*
%TO.C,C29*%
X27437500Y10600000D03*
X25712500Y10600000D03*
%TD*%
D45*
%TO.C,U3*%
X83775000Y34900000D03*
X83775000Y32600000D03*
D46*
X90075000Y32600000D03*
D45*
X83775000Y30300000D03*
%TD*%
D28*
%TO.C,R5*%
X59699000Y29650000D03*
X57874000Y29650000D03*
%TD*%
D47*
%TO.C,IC2*%
X17864000Y12005000D03*
X17864000Y10735000D03*
X17864000Y9465000D03*
X17864000Y8195000D03*
X23286000Y8195000D03*
X23286000Y9465000D03*
X23286000Y10735000D03*
X23286000Y12005000D03*
%TD*%
D26*
%TO.C,FB2*%
X41448299Y27010799D03*
X41448299Y25285799D03*
%TD*%
D40*
%TO.C,SW1*%
X5025000Y34075000D03*
X5025000Y29575000D03*
X7175000Y34075000D03*
X7175000Y29575000D03*
%TD*%
D34*
%TO.C,C3*%
X31560799Y30148299D03*
X29835799Y30148299D03*
%TD*%
D22*
%TO.C,D1*%
X61725000Y48100000D03*
X58425000Y48100000D03*
%TD*%
D28*
%TO.C,R3*%
X54475000Y46500000D03*
X52650000Y46500000D03*
%TD*%
D26*
%TO.C,C4*%
X36698299Y27060799D03*
X36698299Y25335799D03*
%TD*%
D34*
%TO.C,C26*%
X56125000Y31300000D03*
X54400000Y31300000D03*
%TD*%
D44*
%TO.C,C1*%
X61675000Y45900000D03*
X59600000Y45900000D03*
%TD*%
D23*
%TO.C,C21*%
X81325000Y31637500D03*
X81325000Y29562500D03*
%TD*%
D27*
%TO.C,D13*%
X108675000Y46500000D03*
X107100000Y46500000D03*
%TD*%
D17*
%TO.C,R8*%
X9087500Y18100000D03*
X10912500Y18100000D03*
%TD*%
D44*
%TO.C,C23*%
X15612500Y11600000D03*
X13537500Y11600000D03*
%TD*%
D25*
%TO.C,C14*%
X37598299Y40635799D03*
X37598299Y42360799D03*
%TD*%
D36*
%TO.C,D2*%
X56825000Y48880000D03*
X56125000Y48880000D03*
X56475000Y47720000D03*
%TD*%
D16*
%TO.C,SW2*%
X13050000Y28620000D03*
X15550000Y34120000D03*
X18050000Y28620000D03*
%TD*%
D17*
%TO.C,R18*%
X18437500Y37325000D03*
X20262500Y37325000D03*
%TD*%
D38*
%TO.C,C20*%
X81325000Y33362500D03*
X81325000Y35437500D03*
%TD*%
D28*
%TO.C,R23*%
X72524667Y46144992D03*
X70699667Y46144992D03*
%TD*%
D17*
%TO.C,R17*%
X10687500Y37325000D03*
X12512500Y37325000D03*
%TD*%
D32*
%TO.C,R16*%
X41598299Y40585799D03*
X41598299Y42410799D03*
%TD*%
D25*
%TO.C,FB1*%
X31898299Y25373299D03*
X31898299Y27098299D03*
%TD*%
D28*
%TO.C,R27*%
X96575000Y40300000D03*
X94750000Y40300000D03*
%TD*%
M02*
