M48
; DRILL file {KiCad 9.0.7} date 2026-05-31T22:44:31-0500
; FORMAT={-:-/ absolute / metric / decimal}
; #@! TF.CreationDate,2026-05-31T22:44:31-05:00
; #@! TF.GenerationSoftware,Kicad,Pcbnew,9.0.7
; #@! TF.FileFunction,Plated,1,2,PTH
FMAT,2
METRIC
; #@! TA.AperFunction,Plated,PTH,ViaDrill
T1C0.300
; #@! TA.AperFunction,Plated,PTH,ComponentDrill
T2C0.600
; #@! TA.AperFunction,Plated,PTH,ComponentDrill
T3C1.000
; #@! TA.AperFunction,Plated,PTH,ComponentDrill
T4C1.200
; #@! TA.AperFunction,Plated,PTH,ComponentDrill
T5C1.600
%
G90
G05
T1
X4.5Y33.0
X4.5Y25.5
X4.5Y23.0
X4.5Y20.5
X4.5Y18.0
X4.5Y15.5
X5.25Y10.25
X5.8Y13.155
X7.0Y23.0
X7.0Y20.5
X7.0Y18.0
X7.0Y15.5
X8.45Y12.675
X8.65Y10.2
X9.0Y19.8
X9.5Y33.0
X10.1Y9.45
X10.855Y11.1
X11.35Y9.45
X11.525Y30.475
X11.601Y12.69
X12.0Y15.5
X12.0Y5.5
X12.3Y11.6
X12.4Y9.45
X12.425Y30.37
X13.675Y30.4
X14.0Y35.6
X14.32Y28.83
X14.5Y23.0
X14.5Y15.5
X14.5Y5.5
X15.21Y26.509
X16.55Y10.5
X17.0Y38.0
X17.0Y35.5
X17.0Y15.5
X17.0Y5.5
X18.0Y20.675
X18.0Y19.174
X18.043Y14.757
X19.3Y11.2
X19.463Y13.55
X19.5Y30.5
X19.5Y28.0
X19.5Y25.5
X19.5Y23.0
X19.9Y2.825
X21.0Y12.0
X21.0Y11.0
X22.0Y30.5
X22.0Y28.0
X22.0Y25.5
X22.0Y15.5
X22.0Y5.5
X24.5Y38.0
X24.5Y35.5
X24.5Y30.5
X24.5Y28.0
X24.5Y23.0
X24.5Y20.5
X24.5Y5.5
X24.55Y9.755
X24.713Y8.35
X26.525Y33.525
X27.0Y38.0
X27.0Y35.5
X27.0Y23.0
X27.0Y20.5
X27.0Y5.5
X27.25Y27.7
X27.25Y26.125
X28.036Y27.851
X28.2Y29.65
X28.325Y8.35
X28.9Y56.2
X29.078Y28.022
X29.5Y23.0
X29.5Y20.5
X29.5Y18.0
X29.5Y15.5
X29.5Y5.5
X29.661Y7.76
X29.819Y24.906
X30.457Y25.543
X30.6Y56.1
X30.672Y30.898
X30.75Y34.9
X30.851Y28.424
X31.097Y26.183
X31.196Y34.229
X31.6Y14.125
X31.6Y7.3
X31.637Y21.937
X31.672Y28.537
X31.929Y33.196
X32.0Y20.5
X32.0Y18.0
X32.0Y15.5
X32.0Y5.5
X32.133Y31.076
X32.3Y37.15
X32.525Y27.43
X32.95Y38.4
X33.0Y39.4
X33.2Y56.1
X33.284Y29.797
X34.263Y27.965
X34.469Y24.3
X34.5Y46.0
X34.5Y18.0
X34.5Y15.5
X34.7Y37.85
X34.794Y19.594
X35.052Y28.098
X35.122Y18.822
X35.154Y33.188
X35.269Y24.298
X35.4Y36.075
X35.8Y46.2
X35.951Y27.9
X36.095Y24.393
X36.2Y9.8
X36.4Y32.4
X36.4Y31.2
X36.573Y36.95
X36.8Y14.125
X36.9Y24.298
X37.0Y35.5
X37.0Y34.4
X37.0Y8.0
X37.12Y28.573
X37.207Y32.394
X37.3Y46.2
X37.4Y50.6
X37.448Y26.148
X37.498Y27.843
X37.6Y14.125
X37.624Y22.761
X37.8Y31.8
X37.92Y28.549
X38.4Y14.125
X38.65Y24.3
X38.723Y31.665
X38.726Y8.23
X39.223Y32.4
X39.272Y23.797
X39.351Y14.155
X39.932Y24.248
X39.937Y14.7
X40.1Y8.005
X40.2Y48.9
X40.278Y17.903
X40.489Y13.334
X40.539Y23.727
X40.587Y17.165
X40.6Y31.4
X40.6Y6.601
X40.876Y32.376
X40.906Y8.435
X41.0Y36.5
X41.0Y35.3
X41.0Y34.05
X41.144Y24.25
X41.2Y9.179
X41.296Y28.048
X41.4Y52.5
X41.4Y7.0
X41.5Y53.6
X41.6Y51.4
X41.719Y23.689
X41.8Y20.6
X41.825Y18.425
X42.0Y9.179
X42.295Y24.355
X42.385Y7.166
X42.447Y26.017
X42.526Y16.912
X42.722Y29.334
X42.813Y9.179
X43.215Y24.248
X43.297Y28.623
X43.526Y6.026
X43.872Y27.93
X43.997Y24.079
X44.0Y38.55
X44.6Y20.6
X44.6Y18.0
X44.623Y28.205
X45.0Y8.55
X45.46Y3.975
X45.505Y24.591
X45.734Y38.465
X45.734Y26.113
X45.8Y50.1
X45.836Y25.32
X46.0Y29.1
X46.0Y22.4
X46.1Y3.4
X46.299Y37.899
X46.593Y26.261
X46.6Y34.45
X46.623Y27.761
X46.65Y2.65
X47.423Y27.761
X47.6Y26.2
X47.952Y20.008
X48.217Y27.859
X48.383Y4.105
X48.437Y17.269
X48.8Y9.9
X48.945Y19.345
X49.0Y3.526
X49.1Y39.958
X49.1Y38.9
X49.129Y27.761
X49.237Y16.337
X49.5Y53.0
X49.5Y50.5
X49.5Y48.0
X49.5Y45.5
X49.5Y43.0
X49.5Y38.0
X49.5Y35.5
X49.5Y33.0
X49.5Y30.5
X50.075Y10.7
X50.426Y8.542
X50.426Y7.742
X50.426Y6.942
X50.465Y16.367
X50.655Y6.175
X50.775Y19.3
X51.001Y12.177
X51.567Y12.743
X52.066Y20.107
X52.104Y19.308
X53.0Y34.5
X53.0Y33.0
X53.0Y31.5
X53.029Y21.258
X53.25Y29.875
X53.393Y19.593
X54.5Y43.0
X54.5Y35.5
X54.5Y8.0
X55.451Y30.426
X55.596Y49.579
X56.456Y48.228
X57.0Y45.5
X57.0Y43.0
X57.0Y35.5
X57.0Y8.0
X57.408Y49.472
X58.0Y33.5
X59.0Y33.5
X59.5Y43.0
X59.5Y40.5
X59.5Y38.0
X59.5Y23.0
X59.5Y8.0
X59.762Y33.0
X60.353Y30.504
X61.568Y32.111
X62.0Y23.0
X62.0Y8.0
X62.3Y29.55
X64.5Y55.5
X64.5Y53.0
X64.5Y50.5
X64.5Y48.0
X64.5Y45.5
X64.5Y43.0
X64.5Y40.5
X64.5Y38.0
X64.5Y32.0
X64.5Y23.0
X64.5Y8.0
X66.0Y32.0
X66.7Y10.9
X67.0Y55.5
X67.0Y53.0
X67.0Y50.5
X67.0Y48.0
X67.0Y45.5
X67.0Y43.0
X67.0Y40.5
X67.0Y38.0
X67.0Y23.0
X67.0Y8.0
X68.0Y32.0
X69.2Y10.75
X69.5Y43.0
X69.5Y40.5
X69.5Y38.0
X69.5Y23.0
X69.5Y8.0
X70.0Y32.0
X72.0Y43.0
X72.0Y40.5
X72.0Y38.0
X72.0Y23.0
X72.0Y8.0
X72.72Y45.17
X73.645Y46.194
X73.85Y10.147
X73.896Y49.569
X74.416Y9.581
X74.433Y8.467
X74.499Y48.051
X74.5Y43.0
X74.5Y40.5
X74.5Y38.0
X74.5Y23.0
X75.388Y8.609
X75.5Y3.526
X75.527Y49.437
X75.645Y46.994
X75.675Y4.307
X75.768Y6.289
X75.8Y7.2
X75.845Y45.194
X75.9Y7.994
X75.9Y5.5
X76.3Y10.825
X76.475Y4.3
X77.0Y40.5
X77.0Y38.0
X78.075Y44.35
X78.269Y9.811
X78.275Y8.968
X78.275Y8.168
X78.275Y7.368
X78.275Y6.568
X78.275Y5.768
X78.275Y4.968
X78.5Y19.2
X78.5Y4.2
X79.256Y3.526
X79.5Y38.0
X79.5Y29.15
X79.5Y23.0
X79.6Y30.5
X79.7Y41.85
X79.9Y43.418
X80.751Y15.728
X81.302Y27.4
X82.0Y40.5
X82.0Y38.0
X82.0Y25.5
X82.0Y23.0
X82.0Y8.0
X82.349Y15.026
X83.766Y28.699
X84.075Y41.917
X84.1Y43.418
X84.5Y25.5
X84.5Y23.0
X84.5Y8.0
X84.55Y15.8
X85.0Y46.0
X85.0Y45.0
X85.0Y44.0
X85.725Y29.166
X86.0Y46.0
X86.0Y45.0
X86.0Y44.0
X86.3Y29.849
X86.3Y27.55
X86.7Y30.6
X87.0Y53.0
X87.0Y52.0
X87.0Y51.0
X87.0Y46.0
X87.0Y45.0
X87.0Y44.0
X87.0Y8.0
X87.5Y56.0
X87.8Y5.281
X88.0Y53.0
X88.0Y52.0
X88.0Y51.0
X88.198Y6.758
X88.2Y14.2
X88.225Y15.0
X88.225Y5.959
X89.5Y38.0
X89.5Y28.0
X89.5Y25.5
X89.75Y8.0
X90.0Y56.0
X90.2Y1.674
X91.1Y4.579
X91.934Y15.0
X91.934Y14.2
X92.0Y56.0
X92.0Y38.0
X92.0Y35.5
X92.0Y28.0
X93.5Y56.0
X93.5Y8.0
X94.1Y48.0
X94.453Y46.2
X94.5Y30.5
X94.5Y28.0
X94.5Y25.5
X94.912Y3.877
X95.0Y56.0
X95.5Y52.5
X95.5Y51.5
X95.5Y50.5
X95.5Y49.5
X95.5Y48.5
X95.645Y10.8
X95.645Y6.158
X95.645Y5.358
X95.9Y4.6
X96.0Y56.0
X96.158Y53.813
X96.608Y3.877
X96.787Y54.308
X96.9Y55.1
X97.0Y28.0
X97.0Y25.5
X97.0Y8.0
X98.9Y56.9
X99.0Y48.0
X99.0Y47.0
X99.5Y35.5
X99.5Y30.5
X99.5Y13.0
X99.626Y53.943
X99.8Y51.5
X100.0Y47.0
X100.2Y54.5
X100.45Y48.85
X101.7Y45.475
X102.0Y30.6
X102.0Y25.5
X102.0Y23.0
X102.0Y13.0
X102.807Y29.393
X103.277Y45.449
X103.613Y11.375
X104.1Y4.228
X104.318Y11.882
X104.5Y25.5
X104.5Y23.0
X104.5Y20.5
X104.5Y18.0
X104.675Y10.612
X105.05Y14.0
X105.25Y12.0
X105.25Y11.187
X105.796Y17.899
X105.8Y4.2
X105.825Y17.1
X105.825Y16.3
X106.4Y3.575
X106.5Y2.425
X106.975Y17.1
X106.975Y16.3
X106.975Y12.0
X107.0Y43.0
X107.0Y33.0
X107.2Y3.575
X107.299Y2.396
X107.326Y5.166
X107.345Y13.127
X107.395Y4.369
X107.6Y20.15
X107.8Y15.05
X108.015Y17.685
X108.3Y3.7
X108.35Y5.8
X109.5Y43.0
X109.5Y40.5
X109.5Y35.5
X110.1Y9.908
X111.725Y6.627
X111.8Y24.5
X112.176Y18.7
X112.775Y19.9
X113.2Y7.0
T3
X25.0Y49.8
X27.54Y49.8
X30.08Y49.8
X32.62Y49.8
X33.575Y10.875
X33.575Y8.335
X54.43Y18.4
X54.43Y12.6
X56.97Y18.4
X56.97Y12.6
X59.51Y18.4
X59.51Y12.6
X62.05Y18.4
X62.05Y12.6
X64.59Y18.4
X64.59Y12.6
X67.13Y18.4
X67.13Y12.6
X69.67Y18.4
X69.67Y12.6
X72.21Y18.4
X72.21Y12.6
X72.95Y34.615
X72.95Y32.075
X72.95Y29.535
X74.75Y18.4
X74.75Y12.6
X77.29Y18.4
X77.29Y12.6
X79.83Y18.4
X79.83Y12.6
X82.37Y18.4
X82.37Y12.6
X84.91Y18.4
X84.91Y12.6
X87.45Y18.4
X87.45Y12.6
X89.99Y18.4
X89.99Y12.6
X92.53Y18.4
X92.53Y12.6
X95.07Y18.4
X95.07Y12.6
T4
X46.866Y11.355
X46.866Y8.855
T5
X3.8Y55.2
X25.7Y17.25
X91.0Y40.55
X99.75Y8.45
T2
G00X52.845Y55.18
M15
G01X52.845Y55.98
M16
G05
G00X52.845Y50.85
M15
G01X52.845Y51.95
M16
G05
G00X61.485Y55.18
M15
G01X61.485Y55.98
M16
G05
G00X61.485Y50.85
M15
G01X61.485Y51.95
M16
G05
G00X70.88Y55.225
M15
G01X70.88Y56.025
M16
G05
G00X70.88Y50.895
M15
G01X70.88Y51.995
M16
G05
G00X79.52Y55.225
M15
G01X79.52Y56.025
M16
G05
G00X79.52Y50.895
M15
G01X79.52Y51.995
M16
G05
M30
