%TF.GenerationSoftware,KiCad,Pcbnew,9.0.7*%
%TF.CreationDate,2026-05-31T22:43:53-05:00*%
%TF.ProjectId,48PinMCU_TestBoard,34385069-6e4d-4435-955f-54657374426f,rev?*%
%TF.SameCoordinates,PX4a62f80PY7088980*%
%TF.FileFunction,Soldermask,Bot*%
%TF.FilePolarity,Negative*%
%FSLAX46Y46*%
G04 Gerber Fmt 4.6, Leading zero omitted, Abs format (unit mm)*
G04 Created by KiCad (PCBNEW 9.0.7) date 2026-05-31 22:43:53*
%MOMM*%
%LPD*%
G01*
G04 APERTURE LIST*
G04 Aperture macros list*
%AMFreePoly0*
4,1,22,0.945671,0.830970,1.026777,0.776777,1.080970,0.695671,1.100000,0.600000,1.100000,-0.600000,1.080970,-0.695671,1.026777,-0.776777,0.945671,-0.830970,0.850000,-0.850000,-0.450000,-0.850000,-0.545671,-0.830970,-0.626777,-0.776777,-1.026777,-0.376777,-1.080970,-0.295671,-1.100000,-0.200000,-1.100000,0.600000,-1.080970,0.695671,-1.026777,0.776777,-0.945671,0.830970,-0.850000,0.850000,
0.850000,0.850000,0.945671,0.830970,0.945671,0.830970,$1*%
G04 Aperture macros list end*
%ADD10R,1.700000X1.700000*%
%ADD11C,1.700000*%
%ADD12C,0.650000*%
%ADD13O,1.000000X2.100000*%
%ADD14O,1.000000X1.800000*%
%ADD15C,2.800000*%
%ADD16C,1.300000*%
%ADD17FreePoly0,0.000000*%
%ADD18O,2.200000X1.700000*%
G04 APERTURE END LIST*
D10*
%TO.C,J4*%
X25000000Y49800000D03*
D11*
X27540000Y49800000D03*
X30080000Y49800000D03*
X32620000Y49800000D03*
%TD*%
D12*
%TO.C,J6*%
X78090000Y51945000D03*
X72310000Y51945000D03*
D13*
X79520000Y51445000D03*
X70880000Y51445000D03*
D14*
X70880000Y55625000D03*
X79520000Y55625000D03*
%TD*%
D10*
%TO.C,J3*%
X72950000Y29535000D03*
D11*
X72950000Y32075000D03*
X72950000Y34615000D03*
%TD*%
D12*
%TO.C,J1*%
X60055000Y51900000D03*
X54275000Y51900000D03*
D13*
X61485000Y51400000D03*
X52845000Y51400000D03*
D14*
X52845000Y55580000D03*
X61485000Y55580000D03*
%TD*%
D15*
%TO.C,TP4*%
X25700000Y17250000D03*
%TD*%
D10*
%TO.C,JP15*%
X33575000Y10875000D03*
D11*
X33575000Y8335000D03*
%TD*%
D15*
%TO.C,TP2*%
X99750000Y8450000D03*
%TD*%
D10*
%TO.C,J8*%
X95070000Y12600000D03*
D11*
X92530000Y12600000D03*
X89990000Y12600000D03*
X87450000Y12600000D03*
X84910000Y12600000D03*
X82370000Y12600000D03*
X79830000Y12600000D03*
X77290000Y12600000D03*
X74750000Y12600000D03*
X72210000Y12600000D03*
X69670000Y12600000D03*
X67130000Y12600000D03*
X64590000Y12600000D03*
X62050000Y12600000D03*
X59510000Y12600000D03*
X56970000Y12600000D03*
X54430000Y12600000D03*
%TD*%
D16*
%TO.C,J2*%
X45526000Y10105000D03*
D17*
X46866000Y11355000D03*
D18*
X46866000Y8855000D03*
%TD*%
D15*
%TO.C,TP3*%
X91000000Y40550000D03*
%TD*%
D10*
%TO.C,J7*%
X95070000Y18400000D03*
D11*
X92530000Y18400000D03*
X89990000Y18400000D03*
X87450000Y18400000D03*
X84910000Y18400000D03*
X82370000Y18400000D03*
X79830000Y18400000D03*
X77290000Y18400000D03*
X74750000Y18400000D03*
X72210000Y18400000D03*
X69670000Y18400000D03*
X67130000Y18400000D03*
X64590000Y18400000D03*
X62050000Y18400000D03*
X59510000Y18400000D03*
X56970000Y18400000D03*
X54430000Y18400000D03*
%TD*%
D15*
%TO.C,TP1*%
X3800000Y55200000D03*
%TD*%
M02*
