%TF.GenerationSoftware,KiCad,Pcbnew,9.0.7*%
%TF.CreationDate,2026-06-04T22:54:32-06:00*%
%TF.ProjectId,100PinMCU_ESP32_TestBoard,31303050-696e-44d4-9355-5f4553503332,rev?*%
%TF.SameCoordinates,Original*%
%TF.FileFunction,Soldermask,Top*%
%TF.FilePolarity,Negative*%
%FSLAX46Y46*%
G04 Gerber Fmt 4.6, Leading zero omitted, Abs format (unit mm)*
G04 Created by KiCad (PCBNEW 9.0.7) date 2026-06-04 22:54:32*
%MOMM*%
%LPD*%
G01*
G04 APERTURE LIST*
G04 Aperture macros list*
%AMRoundRect*
0 Rectangle with rounded corners*
0 $1 Rounding radius*
0 $2 $3 $4 $5 $6 $7 $8 $9 X,Y pos of 4 corners*
0 Add a 4 corners polygon primitive as box body*
4,1,4,$2,$3,$4,$5,$6,$7,$8,$9,$2,$3,0*
0 Add four circle primitives for the rounded corners*
1,1,$1+$1,$2,$3*
1,1,$1+$1,$4,$5*
1,1,$1+$1,$6,$7*
1,1,$1+$1,$8,$9*
0 Add four rect primitives between the rounded corners*
20,1,$1+$1,$2,$3,$4,$5,0*
20,1,$1+$1,$4,$5,$6,$7,0*
20,1,$1+$1,$6,$7,$8,$9,0*
20,1,$1+$1,$8,$9,$2,$3,0*%
%AMOutline5P*
0 Free polygon, 5 corners , with rotation*
0 The origin of the aperture is its center*
0 number of corners: always 5*
0 $1 to $10 corner X, Y*
0 $11 Rotation angle, in degrees counterclockwise*
0 create outline with 5 corners*
4,1,5,$1,$2,$3,$4,$5,$6,$7,$8,$9,$10,$1,$2,$11*%
%AMOutline6P*
0 Free polygon, 6 corners , with rotation*
0 The origin of the aperture is its center*
0 number of corners: always 6*
0 $1 to $12 corner X, Y*
0 $13 Rotation angle, in degrees counterclockwise*
0 create outline with 6 corners*
4,1,6,$1,$2,$3,$4,$5,$6,$7,$8,$9,$10,$11,$12,$1,$2,$13*%
%AMOutline7P*
0 Free polygon, 7 corners , with rotation*
0 The origin of the aperture is its center*
0 number of corners: always 7*
0 $1 to $14 corner X, Y*
0 $15 Rotation angle, in degrees counterclockwise*
0 create outline with 7 corners*
4,1,7,$1,$2,$3,$4,$5,$6,$7,$8,$9,$10,$11,$12,$13,$14,$1,$2,$15*%
%AMOutline8P*
0 Free polygon, 8 corners , with rotation*
0 The origin of the aperture is its center*
0 number of corners: always 8*
0 $1 to $16 corner X, Y*
0 $17 Rotation angle, in degrees counterclockwise*
0 create outline with 8 corners*
4,1,8,$1,$2,$3,$4,$5,$6,$7,$8,$9,$10,$11,$12,$13,$14,$15,$16,$1,$2,$17*%
%AMFreePoly0*
4,1,6,1.000000,0.000000,0.500000,-0.750000,-0.500000,-0.750000,-0.500000,0.750000,0.500000,0.750000,1.000000,0.000000,1.000000,0.000000,$1*%
%AMFreePoly1*
4,1,6,0.500000,-0.750000,-0.650000,-0.750000,-0.150000,0.000000,-0.650000,0.750000,0.500000,0.750000,0.500000,-0.750000,0.500000,-0.750000,$1*%
G04 Aperture macros list end*
%ADD10C,0.010000*%
%ADD11RoundRect,0.237500X0.300000X0.237500X-0.300000X0.237500X-0.300000X-0.237500X0.300000X-0.237500X0*%
%ADD12RoundRect,0.250000X0.475000X-0.250000X0.475000X0.250000X-0.475000X0.250000X-0.475000X-0.250000X0*%
%ADD13RoundRect,0.250000X0.950000X-0.700000X0.950000X0.700000X-0.950000X0.700000X-0.950000X-0.700000X0*%
%ADD14RoundRect,0.237500X0.237500X-0.300000X0.237500X0.300000X-0.237500X0.300000X-0.237500X-0.300000X0*%
%ADD15RoundRect,0.237500X-0.237500X0.300000X-0.237500X-0.300000X0.237500X-0.300000X0.237500X0.300000X0*%
%ADD16RoundRect,0.250000X0.337500X0.475000X-0.337500X0.475000X-0.337500X-0.475000X0.337500X-0.475000X0*%
%ADD17RoundRect,0.250000X-0.250000X-0.475000X0.250000X-0.475000X0.250000X0.475000X-0.250000X0.475000X0*%
%ADD18R,0.330000X0.360000*%
%ADD19RoundRect,0.237500X-0.300000X-0.237500X0.300000X-0.237500X0.300000X0.237500X-0.300000X0.237500X0*%
%ADD20RoundRect,0.237500X0.237500X-0.250000X0.237500X0.250000X-0.237500X0.250000X-0.237500X-0.250000X0*%
%ADD21RoundRect,0.237500X-0.237500X0.250000X-0.237500X-0.250000X0.237500X-0.250000X0.237500X0.250000X0*%
%ADD22RoundRect,0.237500X0.250000X0.237500X-0.250000X0.237500X-0.250000X-0.237500X0.250000X-0.237500X0*%
%ADD23C,2.000000*%
%ADD24RoundRect,0.237500X-0.237500X0.287500X-0.237500X-0.287500X0.237500X-0.287500X0.237500X0.287500X0*%
%ADD25RoundRect,0.375000X-0.625000X-0.375000X0.625000X-0.375000X0.625000X0.375000X-0.625000X0.375000X0*%
%ADD26RoundRect,0.500000X-0.500000X-1.400000X0.500000X-1.400000X0.500000X1.400000X-0.500000X1.400000X0*%
%ADD27RoundRect,0.250000X-0.250000X-0.250000X0.250000X-0.250000X0.250000X0.250000X-0.250000X0.250000X0*%
%ADD28RoundRect,0.237500X0.287500X0.237500X-0.287500X0.237500X-0.287500X-0.237500X0.287500X-0.237500X0*%
%ADD29RoundRect,0.250000X0.475000X-0.337500X0.475000X0.337500X-0.475000X0.337500X-0.475000X-0.337500X0*%
%ADD30R,1.000000X0.750000*%
%ADD31RoundRect,0.250000X-0.475000X0.337500X-0.475000X-0.337500X0.475000X-0.337500X0.475000X0.337500X0*%
%ADD32R,1.528000X0.650000*%
%ADD33C,3.600000*%
%ADD34C,6.400000*%
%ADD35R,1.250000X0.600000*%
%ADD36RoundRect,0.237500X0.237500X-0.287500X0.237500X0.287500X-0.237500X0.287500X-0.237500X-0.287500X0*%
%ADD37R,1.700000X1.700000*%
%ADD38C,1.700000*%
%ADD39FreePoly0,90.000000*%
%ADD40FreePoly1,90.000000*%
%ADD41C,1.524000*%
%ADD42R,2.500000X1.200000*%
%ADD43O,1.000000X1.800000*%
%ADD44O,1.000000X2.100000*%
%ADD45RoundRect,0.150000X0.150000X0.425000X-0.150000X0.425000X-0.150000X-0.425000X0.150000X-0.425000X0*%
%ADD46RoundRect,0.075000X0.075000X0.500000X-0.075000X0.500000X-0.075000X-0.500000X0.075000X-0.500000X0*%
%ADD47RoundRect,0.225000X0.225000X0.375000X-0.225000X0.375000X-0.225000X-0.375000X0.225000X-0.375000X0*%
%ADD48RoundRect,0.237500X-0.250000X-0.237500X0.250000X-0.237500X0.250000X0.237500X-0.250000X0.237500X0*%
%ADD49R,1.358900X0.279400*%
%ADD50R,0.279400X1.358900*%
%ADD51R,0.400000X0.800000*%
%ADD52R,0.800000X0.400000*%
%ADD53Outline5P,-0.725000X0.130500X-0.130500X0.725000X0.725000X0.725000X0.725000X-0.725000X-0.725000X-0.725000X270.000000*%
%ADD54R,1.450000X1.450000*%
%ADD55R,0.700000X0.700000*%
%ADD56FreePoly0,180.000000*%
%ADD57FreePoly1,180.000000*%
%ADD58RoundRect,0.112500X0.112500X-0.187500X0.112500X0.187500X-0.112500X0.187500X-0.112500X-0.187500X0*%
%ADD59R,0.990600X2.743200*%
G04 APERTURE END LIST*
%TO.C,JP5*%
G36*
X150650000Y-105550000D02*
G01*
X152150000Y-105550000D01*
X152150000Y-103100000D01*
X150650000Y-103100000D01*
X150650000Y-105550000D01*
G37*
D10*
%TO.C,U4*%
X177972500Y-91110000D02*
X177212500Y-91110000D01*
X177212500Y-90690000D01*
X177972500Y-90690000D01*
X177972500Y-91110000D01*
G36*
X177972500Y-91110000D02*
G01*
X177212500Y-91110000D01*
X177212500Y-90690000D01*
X177972500Y-90690000D01*
X177972500Y-91110000D01*
G37*
X177972500Y-91610000D02*
X177212500Y-91610000D01*
X177212500Y-91190000D01*
X177972500Y-91190000D01*
X177972500Y-91610000D01*
G36*
X177972500Y-91610000D02*
G01*
X177212500Y-91610000D01*
X177212500Y-91190000D01*
X177972500Y-91190000D01*
X177972500Y-91610000D01*
G37*
X177972500Y-92110000D02*
X177212500Y-92110000D01*
X177212500Y-91690000D01*
X177972500Y-91690000D01*
X177972500Y-92110000D01*
G36*
X177972500Y-92110000D02*
G01*
X177212500Y-92110000D01*
X177212500Y-91690000D01*
X177972500Y-91690000D01*
X177972500Y-92110000D01*
G37*
X177972500Y-92610000D02*
X177212500Y-92610000D01*
X177212500Y-92190000D01*
X177972500Y-92190000D01*
X177972500Y-92610000D01*
G36*
X177972500Y-92610000D02*
G01*
X177212500Y-92610000D01*
X177212500Y-92190000D01*
X177972500Y-92190000D01*
X177972500Y-92610000D01*
G37*
X179442500Y-91110000D02*
X178682500Y-91110000D01*
X178682500Y-90690000D01*
X179442500Y-90690000D01*
X179442500Y-91110000D01*
G36*
X179442500Y-91110000D02*
G01*
X178682500Y-91110000D01*
X178682500Y-90690000D01*
X179442500Y-90690000D01*
X179442500Y-91110000D01*
G37*
X179442500Y-91610000D02*
X178682500Y-91610000D01*
X178682500Y-91190000D01*
X179442500Y-91190000D01*
X179442500Y-91610000D01*
G36*
X179442500Y-91610000D02*
G01*
X178682500Y-91610000D01*
X178682500Y-91190000D01*
X179442500Y-91190000D01*
X179442500Y-91610000D01*
G37*
X179442500Y-92110000D02*
X178682500Y-92110000D01*
X178682500Y-91690000D01*
X179442500Y-91690000D01*
X179442500Y-92110000D01*
G36*
X179442500Y-92110000D02*
G01*
X178682500Y-92110000D01*
X178682500Y-91690000D01*
X179442500Y-91690000D01*
X179442500Y-92110000D01*
G37*
X179442500Y-92610000D02*
X178682500Y-92610000D01*
X178682500Y-92190000D01*
X179442500Y-92190000D01*
X179442500Y-92610000D01*
G36*
X179442500Y-92610000D02*
G01*
X178682500Y-92610000D01*
X178682500Y-92190000D01*
X179442500Y-92190000D01*
X179442500Y-92610000D01*
G37*
%TO.C,JP1*%
G36*
X198500000Y-81450000D02*
G01*
X196050000Y-81450000D01*
X196050000Y-79950000D01*
X198500000Y-79950000D01*
X198500000Y-81450000D01*
G37*
%TD*%
D11*
%TO.C,C8*%
X106387500Y-74046754D03*
X108112500Y-74046754D03*
%TD*%
D12*
%TO.C,C18*%
X121433399Y-92625000D03*
X121433399Y-94525000D03*
%TD*%
D13*
%TO.C,Y1*%
X120183399Y-96775000D03*
X120183399Y-100875000D03*
%TD*%
D14*
%TO.C,C16*%
X117183399Y-96212500D03*
X117183399Y-97937500D03*
%TD*%
D15*
%TO.C,C15*%
X117183399Y-101437500D03*
X117183399Y-99712500D03*
%TD*%
D16*
%TO.C,C1*%
X183912500Y-81000000D03*
X185987500Y-81000000D03*
%TD*%
D17*
%TO.C,C29*%
X166600000Y-82750000D03*
X168500000Y-82750000D03*
%TD*%
D18*
%TO.C,D16*%
X161950000Y-79780000D03*
X162650000Y-79780000D03*
X162300000Y-78620000D03*
%TD*%
D19*
%TO.C,C26*%
X124820899Y-88325000D03*
X126545899Y-88325000D03*
%TD*%
D20*
%TO.C,R5*%
X154300000Y-104725000D03*
X154300000Y-102900000D03*
%TD*%
D15*
%TO.C,C3*%
X198950000Y-92075000D03*
X198950000Y-93800000D03*
%TD*%
%TO.C,C24*%
X141200000Y-98737500D03*
X141200000Y-100462500D03*
%TD*%
D21*
%TO.C,R26*%
X99000000Y-88487500D03*
X99000000Y-90312500D03*
%TD*%
D22*
%TO.C,R2*%
X175600000Y-94200000D03*
X173775000Y-94200000D03*
%TD*%
D23*
%TO.C,TP3*%
X191200000Y-78300000D03*
%TD*%
D21*
%TO.C,R7*%
X191400000Y-92050000D03*
X191400000Y-93875000D03*
%TD*%
D24*
%TO.C,D2*%
X154300000Y-99512500D03*
X154300000Y-101262500D03*
%TD*%
D25*
%TO.C,U2*%
X161900000Y-102375000D03*
X161900000Y-104675000D03*
D26*
X168200000Y-104675000D03*
D25*
X161900000Y-106975000D03*
%TD*%
D27*
%TO.C,D12*%
X161450000Y-99800000D03*
X163950000Y-99800000D03*
%TD*%
D22*
%TO.C,R10*%
X155823750Y-113600000D03*
X153998750Y-113600000D03*
%TD*%
D20*
%TO.C,R13*%
X187087500Y-106300000D03*
X187087500Y-104475000D03*
%TD*%
D28*
%TO.C,D9*%
X169994584Y-115400000D03*
X168244584Y-115400000D03*
%TD*%
%TO.C,D1*%
X136437500Y-115225000D03*
X134687500Y-115225000D03*
%TD*%
D29*
%TO.C,C9*%
X158600000Y-103412500D03*
X158600000Y-101337500D03*
%TD*%
D18*
%TO.C,D7*%
X179500000Y-79780000D03*
X180200000Y-79780000D03*
X179850000Y-78620000D03*
%TD*%
D30*
%TO.C,SW2*%
X194950000Y-89075000D03*
X199450000Y-89075000D03*
X194950000Y-86925000D03*
X199450000Y-86925000D03*
%TD*%
D15*
%TO.C,C4*%
X193100000Y-92100000D03*
X193100000Y-93825000D03*
%TD*%
D31*
%TO.C,C2*%
X197050000Y-92100000D03*
X197050000Y-94175000D03*
%TD*%
D20*
%TO.C,R14*%
X194750000Y-93862500D03*
X194750000Y-92037500D03*
%TD*%
D32*
%TO.C,IC1*%
X95039000Y-74891754D03*
X95039000Y-76161754D03*
X95039000Y-77431754D03*
X95039000Y-78701754D03*
X100461000Y-78701754D03*
X100461000Y-77431754D03*
X100461000Y-76161754D03*
X100461000Y-74891754D03*
%TD*%
D33*
%TO.C,H4*%
X198300000Y-116400000D03*
D34*
X198300000Y-116400000D03*
%TD*%
D28*
%TO.C,D8*%
X163552500Y-115400000D03*
X161802500Y-115400000D03*
%TD*%
D22*
%TO.C,R17*%
X170054584Y-113700000D03*
X168229584Y-113700000D03*
%TD*%
D14*
%TO.C,C20*%
X141100000Y-91862500D03*
X141100000Y-90137500D03*
%TD*%
%TO.C,C13*%
X131377000Y-77787500D03*
X131377000Y-76062500D03*
%TD*%
D11*
%TO.C,C33*%
X175525000Y-90000000D03*
X173800000Y-90000000D03*
%TD*%
D16*
%TO.C,C11*%
X138964500Y-81075000D03*
X136889500Y-81075000D03*
%TD*%
D35*
%TO.C,D11*%
X102750000Y-75846754D03*
X102750000Y-77746754D03*
X104750000Y-76796754D03*
%TD*%
D21*
%TO.C,R8*%
X92000000Y-111487500D03*
X92000000Y-113312500D03*
%TD*%
D15*
%TO.C,C6*%
X92950000Y-79540504D03*
X92950000Y-81265504D03*
%TD*%
D23*
%TO.C,TP2*%
X172600000Y-99775000D03*
%TD*%
D36*
%TO.C,D14*%
X99000000Y-93975000D03*
X99000000Y-92225000D03*
%TD*%
D37*
%TO.C,JP4*%
X183660000Y-117300000D03*
D38*
X186200000Y-117300000D03*
%TD*%
D22*
%TO.C,R9*%
X149381667Y-113525000D03*
X147556667Y-113525000D03*
%TD*%
D39*
%TO.C,JP5*%
X151400000Y-105050000D03*
D40*
X151400000Y-103600000D03*
%TD*%
D11*
%TO.C,C27*%
X137545899Y-108325000D03*
X135820899Y-108325000D03*
%TD*%
D15*
%TO.C,C17*%
X88500000Y-102037500D03*
X88500000Y-103762500D03*
%TD*%
D28*
%TO.C,D3*%
X142879583Y-115225000D03*
X141129583Y-115225000D03*
%TD*%
D30*
%TO.C,Reset1*%
X95500000Y-102750000D03*
X91000000Y-102750000D03*
X95500000Y-104900000D03*
X91000000Y-104900000D03*
%TD*%
D19*
%TO.C,C31*%
X181162500Y-90500000D03*
X182887500Y-90500000D03*
%TD*%
D32*
%TO.C,IC2*%
X133426000Y-74960000D03*
X133426000Y-76230000D03*
X133426000Y-77500000D03*
X133426000Y-78770000D03*
X138848000Y-78770000D03*
X138848000Y-77500000D03*
X138848000Y-76230000D03*
X138848000Y-74960000D03*
%TD*%
D21*
%TO.C,R25*%
X98000000Y-101987500D03*
X98000000Y-103812500D03*
%TD*%
D31*
%TO.C,C10*%
X158600000Y-105337500D03*
X158600000Y-107412500D03*
%TD*%
D41*
%TO.C,J5*%
X107760000Y-116140000D03*
X107760000Y-113600000D03*
X105220000Y-116140000D03*
X105220000Y-113600000D03*
X102680000Y-116140000D03*
X102680000Y-113600000D03*
X100140000Y-116140000D03*
X100140000Y-113600000D03*
X97600000Y-116140000D03*
X97600000Y-113600000D03*
%TD*%
D20*
%TO.C,R24*%
X103700000Y-107149999D03*
X103700000Y-105324999D03*
%TD*%
D42*
%TO.C,S1*%
X95100000Y-95700000D03*
X89600000Y-93200000D03*
X95100000Y-90700000D03*
%TD*%
D35*
%TO.C,D13*%
X141127000Y-75975000D03*
X141127000Y-77875000D03*
X143127000Y-76925000D03*
%TD*%
D11*
%TO.C,C19*%
X130921250Y-108075000D03*
X129196250Y-108075000D03*
%TD*%
%TO.C,C32*%
X175487500Y-92100000D03*
X173762500Y-92100000D03*
%TD*%
D43*
%TO.C,J7*%
X184655000Y-70920000D03*
X176015000Y-70920000D03*
D44*
X176015000Y-75100000D03*
X184655000Y-75100000D03*
D45*
X183535000Y-75675000D03*
X182735000Y-75675000D03*
D46*
X182085000Y-75675000D03*
X181085000Y-75675000D03*
X179585000Y-75675000D03*
X178585000Y-75675000D03*
D45*
X177935000Y-75675000D03*
X177135000Y-75675000D03*
X177135000Y-75675000D03*
X177935000Y-75675000D03*
D46*
X179085000Y-75675000D03*
X180085000Y-75675000D03*
X180585000Y-75675000D03*
X181585000Y-75675000D03*
D45*
X182735000Y-75675000D03*
X183535000Y-75675000D03*
%TD*%
D37*
%TO.C,J1*%
X129540000Y-115900000D03*
D38*
X127000000Y-115900000D03*
X124460000Y-115900000D03*
X121920000Y-115900000D03*
X119380000Y-115900000D03*
X116840000Y-115900000D03*
%TD*%
D45*
%TO.C,J9*%
X166000000Y-75655000D03*
X165200000Y-75655000D03*
D46*
X164050000Y-75655000D03*
X163050000Y-75655000D03*
X162550000Y-75655000D03*
X161550000Y-75655000D03*
D45*
X160400000Y-75655000D03*
X159600000Y-75655000D03*
X159600000Y-75655000D03*
X160400000Y-75655000D03*
D46*
X161050000Y-75655000D03*
X162050000Y-75655000D03*
X163550000Y-75655000D03*
X164550000Y-75655000D03*
D45*
X165200000Y-75655000D03*
X166000000Y-75655000D03*
D44*
X167120000Y-75080000D03*
X158480000Y-75080000D03*
D43*
X158480000Y-70900000D03*
X167120000Y-70900000D03*
%TD*%
D22*
%TO.C,R1*%
X179375000Y-94200000D03*
X177550000Y-94200000D03*
%TD*%
D41*
%TO.C,J2*%
X154040000Y-90585000D03*
X154040000Y-93125000D03*
X156580000Y-90585000D03*
X156580000Y-93125000D03*
X159120000Y-90585000D03*
X159120000Y-93125000D03*
X161660000Y-90585000D03*
X161660000Y-93125000D03*
X164200000Y-90585000D03*
X164200000Y-93125000D03*
%TD*%
D23*
%TO.C,TP_3.3V1*%
X172800000Y-105600000D03*
%TD*%
D47*
%TO.C,D6*%
X186100000Y-78300000D03*
X182800000Y-78300000D03*
%TD*%
D33*
%TO.C,H3*%
X198300000Y-72600000D03*
D34*
X198300000Y-72600000D03*
%TD*%
D22*
%TO.C,R6*%
X142939583Y-113525000D03*
X141114583Y-113525000D03*
%TD*%
%TO.C,R18*%
X176496667Y-113700000D03*
X174671667Y-113700000D03*
%TD*%
D14*
%TO.C,C7*%
X93000000Y-77659254D03*
X93000000Y-75934254D03*
%TD*%
D37*
%TO.C,JP6*%
X127400000Y-75000000D03*
D38*
X127400000Y-72460000D03*
%TD*%
D15*
%TO.C,C12*%
X131412000Y-79536250D03*
X131412000Y-81261250D03*
%TD*%
D22*
%TO.C,R16*%
X163612500Y-113700000D03*
X161787500Y-113700000D03*
%TD*%
D19*
%TO.C,C30*%
X181100000Y-92300000D03*
X182825000Y-92300000D03*
%TD*%
D16*
%TO.C,C5*%
X100250000Y-80946754D03*
X98175000Y-80946754D03*
%TD*%
D48*
%TO.C,R21*%
X140964500Y-74175000D03*
X142789500Y-74175000D03*
%TD*%
D21*
%TO.C,R22*%
X145127000Y-76012500D03*
X145127000Y-77837500D03*
%TD*%
D49*
%TO.C,U3*%
X123621250Y-92323488D03*
X123621250Y-92823614D03*
X123621250Y-93323740D03*
X123621250Y-93823866D03*
X123621250Y-94323992D03*
X123621250Y-94824118D03*
X123621250Y-95324244D03*
X123621250Y-95824370D03*
X123621250Y-96324496D03*
X123621250Y-96824622D03*
X123621250Y-97324748D03*
X123621250Y-97824874D03*
X123621250Y-98325000D03*
X123621250Y-98825126D03*
X123621250Y-99325252D03*
X123621250Y-99825378D03*
X123621250Y-100325504D03*
X123621250Y-100825630D03*
X123621250Y-101325756D03*
X123621250Y-101825882D03*
X123621250Y-102326008D03*
X123621250Y-102826134D03*
X123621250Y-103326260D03*
X123621250Y-103826386D03*
X123621250Y-104326512D03*
D50*
X125398488Y-106103750D03*
X125898614Y-106103750D03*
X126398740Y-106103750D03*
X126898866Y-106103750D03*
X127398992Y-106103750D03*
X127899118Y-106103750D03*
X128399244Y-106103750D03*
X128899370Y-106103750D03*
X129399496Y-106103750D03*
X129899622Y-106103750D03*
X130399748Y-106103750D03*
X130899874Y-106103750D03*
X131400000Y-106103750D03*
X131900126Y-106103750D03*
X132400252Y-106103750D03*
X132900378Y-106103750D03*
X133400504Y-106103750D03*
X133900630Y-106103750D03*
X134400756Y-106103750D03*
X134900882Y-106103750D03*
X135401008Y-106103750D03*
X135901134Y-106103750D03*
X136401260Y-106103750D03*
X136901386Y-106103750D03*
X137401512Y-106103750D03*
D49*
X139178750Y-104326512D03*
X139178750Y-103826386D03*
X139178750Y-103326260D03*
X139178750Y-102826134D03*
X139178750Y-102326008D03*
X139178750Y-101825882D03*
X139178750Y-101325756D03*
X139178750Y-100825630D03*
X139178750Y-100325504D03*
X139178750Y-99825378D03*
X139178750Y-99325252D03*
X139178750Y-98825126D03*
X139178750Y-98325000D03*
X139178750Y-97824874D03*
X139178750Y-97324748D03*
X139178750Y-96824622D03*
X139178750Y-96324496D03*
X139178750Y-95824370D03*
X139178750Y-95324244D03*
X139178750Y-94824118D03*
X139178750Y-94323992D03*
X139178750Y-93823866D03*
X139178750Y-93323740D03*
X139178750Y-92823614D03*
X139178750Y-92323488D03*
D50*
X137401512Y-90546250D03*
X136901386Y-90546250D03*
X136401260Y-90546250D03*
X135901134Y-90546250D03*
X135401008Y-90546250D03*
X134900882Y-90546250D03*
X134400756Y-90546250D03*
X133900630Y-90546250D03*
X133400504Y-90546250D03*
X132900378Y-90546250D03*
X132400252Y-90546250D03*
X131900126Y-90546250D03*
X131400000Y-90546250D03*
X130899874Y-90546250D03*
X130399748Y-90546250D03*
X129899622Y-90546250D03*
X129399496Y-90546250D03*
X128899370Y-90546250D03*
X128399244Y-90546250D03*
X127899118Y-90546250D03*
X127398992Y-90546250D03*
X126898866Y-90546250D03*
X126398740Y-90546250D03*
X125898614Y-90546250D03*
X125398488Y-90546250D03*
%TD*%
D37*
%TO.C,J3*%
X111834128Y-76400000D03*
D38*
X111834128Y-78940000D03*
%TD*%
D37*
%TO.C,J4*%
X150126000Y-76600000D03*
D38*
X150126000Y-79140000D03*
%TD*%
D37*
%TO.C,J10*%
X107700000Y-88960000D03*
D38*
X107700000Y-91500000D03*
X107700000Y-94040000D03*
X107700000Y-96580000D03*
%TD*%
D28*
%TO.C,D4*%
X149321667Y-115225000D03*
X147571667Y-115225000D03*
%TD*%
D33*
%TO.C,H2*%
X87600000Y-72600000D03*
D34*
X87600000Y-72600000D03*
%TD*%
D22*
%TO.C,R30*%
X182937500Y-88700000D03*
X181112500Y-88700000D03*
%TD*%
D37*
%TO.C,JP2*%
X191300000Y-86300000D03*
D38*
X191300000Y-88840000D03*
%TD*%
D28*
%TO.C,D5*%
X155763750Y-115300000D03*
X154013750Y-115300000D03*
%TD*%
D37*
%TO.C,JP9*%
X144627000Y-80925000D03*
D38*
X142087000Y-80925000D03*
%TD*%
D11*
%TO.C,C14*%
X146489500Y-74175000D03*
X144764500Y-74175000D03*
%TD*%
D47*
%TO.C,D17*%
X165200000Y-80050000D03*
X168500000Y-80050000D03*
%TD*%
D48*
%TO.C,R4*%
X87887500Y-110900000D03*
X89712500Y-110900000D03*
%TD*%
D21*
%TO.C,R20*%
X106750000Y-75884254D03*
X106750000Y-77709254D03*
%TD*%
D23*
%TO.C,TP1*%
X147600000Y-99900000D03*
%TD*%
D51*
%TO.C,U1*%
X200100000Y-98675000D03*
X199300000Y-98675000D03*
X198500000Y-98675000D03*
X197700000Y-98675000D03*
X196900000Y-98675000D03*
X196100000Y-98675000D03*
X195300000Y-98675000D03*
X194500000Y-98675000D03*
X193700000Y-98675000D03*
X192900000Y-98675000D03*
X192100000Y-98675000D03*
D52*
X191200000Y-99775000D03*
X191200000Y-100575000D03*
X191200000Y-101375000D03*
X191200000Y-102175000D03*
X191200000Y-102975000D03*
X191200000Y-103775000D03*
X191200000Y-104575000D03*
X191200000Y-105375000D03*
X191200000Y-106175000D03*
X191200000Y-106975000D03*
X191200000Y-107775000D03*
X191200000Y-108575000D03*
X191200000Y-109375000D03*
D51*
X192100000Y-110475000D03*
X192900000Y-110475000D03*
X193700000Y-110475000D03*
X194500000Y-110475000D03*
X195300000Y-110475000D03*
X196100000Y-110475000D03*
X196900000Y-110475000D03*
X197700000Y-110475000D03*
X198500000Y-110475000D03*
X199300000Y-110475000D03*
X200100000Y-110475000D03*
D52*
X201000000Y-109375000D03*
X201000000Y-108575000D03*
X201000000Y-107775000D03*
X201000000Y-106975000D03*
X201000000Y-106175000D03*
X201000000Y-105375000D03*
X201000000Y-104575000D03*
X201000000Y-103775000D03*
X201000000Y-102975000D03*
X201000000Y-102175000D03*
X201000000Y-101375000D03*
X201000000Y-100575000D03*
X201000000Y-99775000D03*
D53*
X198075000Y-102600000D03*
D54*
X196100000Y-102600000D03*
X194125000Y-102600000D03*
X198075000Y-104575000D03*
X196100000Y-104575000D03*
X194125000Y-104575000D03*
X198075000Y-106550000D03*
X196100000Y-106550000D03*
X194125000Y-106550000D03*
D55*
X201050000Y-110525000D03*
X191150000Y-110525000D03*
X191150000Y-98625000D03*
X201050000Y-98625000D03*
%TD*%
D37*
%TO.C,JP7*%
X127400000Y-81300000D03*
D38*
X127400000Y-78760000D03*
%TD*%
D14*
%TO.C,C22*%
X121683399Y-105187500D03*
X121683399Y-103462500D03*
%TD*%
D20*
%TO.C,R15*%
X187087500Y-102812500D03*
X187087500Y-100987500D03*
%TD*%
D37*
%TO.C,JP8*%
X106250000Y-80796754D03*
D38*
X103710000Y-80796754D03*
%TD*%
D37*
%TO.C,JP3*%
X183660000Y-113100000D03*
D38*
X186200000Y-113100000D03*
%TD*%
D21*
%TO.C,R23*%
X103700000Y-101137499D03*
X103700000Y-102962499D03*
%TD*%
D48*
%TO.C,R19*%
X102587500Y-74046754D03*
X104412500Y-74046754D03*
%TD*%
D56*
%TO.C,JP1*%
X198000000Y-80700000D03*
D57*
X196550000Y-80700000D03*
%TD*%
D21*
%TO.C,R27*%
X99000000Y-96087500D03*
X99000000Y-97912500D03*
%TD*%
D22*
%TO.C,R3*%
X136525000Y-113525000D03*
X134700000Y-113525000D03*
%TD*%
D28*
%TO.C,D10*%
X176436667Y-115400000D03*
X174686667Y-115400000D03*
%TD*%
D37*
%TO.C,J6*%
X117800000Y-80145000D03*
D38*
X117800000Y-77605000D03*
X117800000Y-75065000D03*
X117800000Y-72525000D03*
%TD*%
D42*
%TO.C,SW1*%
X183850000Y-104800000D03*
X178350000Y-102300000D03*
X183850000Y-99800000D03*
%TD*%
D58*
%TO.C,D15*%
X102500000Y-98050000D03*
X102500000Y-95950000D03*
%TD*%
D59*
%TO.C,J8*%
X110300002Y-101800000D03*
X110300002Y-106049999D03*
X108300000Y-101800000D03*
X108300000Y-106049999D03*
%TD*%
D33*
%TO.C,H1*%
X87600000Y-116400000D03*
D34*
X87600000Y-116400000D03*
%TD*%
M02*
