M48
; DRILL file {KiCad 9.0.7} date 2026-06-04T22:54:32-0600
; FORMAT={-:-/ absolute / inch / decimal}
; #@! TF.CreationDate,2026-06-04T22:54:32-06:00
; #@! TF.GenerationSoftware,Kicad,Pcbnew,9.0.7
; #@! TF.FileFunction,Plated,1,4,PTH
FMAT,2
INCH
; #@! TA.AperFunction,Plated,PTH,ViaDrill
T1C0.0118
; #@! TA.AperFunction,Plated,PTH,ViaDrill
T2C0.0197
; #@! TA.AperFunction,Plated,PTH,ComponentDrill
T3C0.0236
; #@! TA.AperFunction,Plated,PTH,ComponentDrill
T4C0.0394
; #@! TA.AperFunction,Plated,PTH,ComponentDrill
T5C0.0400
; #@! TA.AperFunction,Plated,PTH,ComponentDrill
T6C0.1260
%
G90
G05
T1
X3.3799Y-3.2618
X3.3957Y-3.5374
X3.3957Y-3.7953
X3.3976Y-3.0669
X3.4114Y-4.0315
X3.4429Y-4.2362
X3.4606Y-4.3228
X3.5118Y-3.3484
X3.5138Y-3.1516
X3.6024Y-3.1181
X3.622Y-4.3425
X3.6772Y-4.2717
X3.6831Y-2.8012
X3.7417Y-3.159
X3.7461Y-3.5181
X3.8031Y-2.9488
X3.8169Y-2.8012
X3.8583Y-4.1535
X3.9094Y-4.0118
X3.9272Y-4.2303
X3.9331Y-3.9429
X3.9508Y-2.8012
X3.9646Y-3.2598
X3.9884Y-4.4016
X4.0Y-3.4528
X4.0197Y-4.374
X4.0728Y-3.5276
X4.0846Y-2.8012
X4.0947Y-4.3388
X4.1063Y-2.9764
X4.122Y-3.6929
X4.1378Y-4.2165
X4.1417Y-3.3465
X4.1417Y-3.9803
X4.1496Y-2.9567
X4.1496Y-4.3189
X4.2185Y-2.8012
X4.2972Y-3.3445
X4.3425Y-3.9311
X4.3524Y-2.8012
X4.4173Y-3.2835
X4.4217Y-4.4995
X4.4449Y-4.4409
X4.4862Y-2.8012
X4.4961Y-3.3406
X4.5138Y-3.5039
X4.5157Y-3.6043
X4.5276Y-4.2185
X4.5556Y-3.8917
X4.5984Y-3.687
X4.624Y-4.2638
X4.6555Y-3.5079
X4.6555Y-3.6063
X4.689Y-4.311
X4.7047Y-4.3425
X4.7146Y-4.2146
X4.7205Y-4.374
X4.7402Y-4.4016
X4.7421Y-3.2657
X4.7559Y-4.4331
X4.7756Y-4.4685
X4.7854Y-3.3327
X4.7894Y-3.5197
X4.8661Y-3.5709
X4.8937Y-3.5276
X4.9055Y-4.1378
X4.9331Y-3.7244
X4.9853Y-3.9223
X4.9862Y-3.8346
X4.9902Y-3.7539
X5.0157Y-3.6417
X5.0217Y-3.3031
X5.0265Y-4.005
X5.0345Y-4.0443
X5.0472Y-3.5079
X5.0689Y-3.7283
X5.0748Y-3.9016
X5.0846Y-3.8563
X5.0866Y-4.3002
X5.1135Y-4.1289
X5.122Y-3.4291
X5.1299Y-3.1457
X5.1358Y-3.6398
X5.1529Y-4.1289
X5.1535Y-4.3002
X5.189Y-4.2835
X5.2038Y-3.4528
X5.2087Y-4.1299
X5.2165Y-3.4961
X5.2382Y-2.8012
X5.2402Y-3.8898
X5.2402Y-3.9665
X5.2441Y-3.815
X5.252Y-4.2362
X5.2559Y-3.1909
X5.2559Y-3.2854
X5.2559Y-3.6811
X5.2835Y-3.6112
X5.2835Y-4.126
X5.3031Y-3.0529
X5.3071Y-3.4666
X5.3248Y-4.0177
X5.3307Y-3.0079
X5.3346Y-4.1284
X5.3524Y-3.998
X5.3543Y-3.4291
X5.376Y-4.4114
X5.378Y-3.8976
X5.3957Y-3.6949
X5.3976Y-3.4449
X5.3976Y-3.4961
X5.3996Y-3.8051
X5.4055Y-3.2756
X5.4173Y-3.9843
X5.4252Y-4.3071
X5.4291Y-3.4764
X5.4803Y-3.3327
X5.4803Y-4.1496
X5.5197Y-2.7992
X5.5256Y-4.2028
X5.5413Y-4.315
X5.5748Y-3.7372
X5.6009Y-3.6166
X5.6088Y-3.8873
X5.6102Y-4.4291
X5.6181Y-3.7175
X5.622Y-2.9921
X5.624Y-4.128
X5.6339Y-4.25
X5.6476Y-3.3484
X5.6594Y-3.5689
X5.6614Y-3.998
X5.6752Y-3.7559
X5.7579Y-3.5748
X5.7717Y-3.7539
X5.7795Y-4.315
X5.7874Y-4.1437
X5.8012Y-3.3465
X5.8228Y-3.6181
X5.8366Y-2.7953
X5.8583Y-4.4173
X5.8642Y-3.7559
X5.9232Y-4.315
X5.9587Y-3.2756
X6.0059Y-2.8465
X6.0413Y-4.3091
X6.1122Y-4.4075
X6.1339Y-3.3071
X6.1358Y-3.8406
X6.1417Y-3.4449
X6.1476Y-2.8898
X6.1516Y-2.7894
X6.1516Y-3.1201
X6.1614Y-3.939
X6.2035Y-3.4461
X6.2185Y-3.2343
X6.2323Y-4.3091
X6.2854Y-3.8465
X6.2933Y-3.3484
X6.3169Y-3.0394
X6.3543Y-3.2795
X6.3721Y-2.933
X6.3898Y-3.0551
X6.3996Y-2.7977
X6.437Y-2.9331
X6.4547Y-3.3406
X6.4547Y-4.3091
X6.5039Y-3.4055
X6.6063Y-3.8366
X6.6575Y-4.3169
X6.6732Y-2.9173
X6.6732Y-3.0217
X6.6732Y-3.8957
X6.6752Y-2.8189
X6.6811Y-3.2559
X6.7894Y-3.7697
X6.8268Y-3.0787
X6.8268Y-3.1988
X6.8307Y-2.939
X6.8327Y-2.8406
X6.8327Y-3.3071
X6.8543Y-4.315
X6.8602Y-3.4055
X6.8819Y-4.0
X6.9055Y-4.0256
X6.9559Y-3.62
X6.9921Y-3.9508
X6.9961Y-3.7677
X6.9961Y-4.2244
X7.0059Y-3.0354
X7.0059Y-3.2343
X7.0177Y-3.3248
X7.0315Y-2.9291
X7.0787Y-3.6575
X7.0807Y-3.0551
X7.0807Y-3.5354
X7.1142Y-4.0197
X7.1398Y-3.2913
X7.1496Y-2.9311
X7.2264Y-4.3346
X7.2539Y-4.2087
X7.2776Y-3.7362
X7.2815Y-3.8386
X7.315Y-4.0945
X7.3169Y-3.2559
X7.3799Y-2.8071
X7.3839Y-2.9173
X7.3839Y-4.2343
X7.4291Y-3.8228
X7.4449Y-4.1378
X7.4665Y-4.5256
X7.4724Y-4.1772
X7.4921Y-2.8012
X7.5098Y-2.9055
X7.5157Y-4.6437
X7.5256Y-4.3514
X7.5591Y-4.3976
X7.6083Y-2.8937
X7.6102Y-2.7972
X7.6181Y-4.5177
X7.6201Y-4.6496
X7.6457Y-3.7598
X7.6732Y-3.0236
X7.685Y-3.1772
X7.8543Y-3.0335
T2
X6.1378Y-4.124
X6.5039Y-3.061
X7.1943Y-3.0295
X7.2165Y-3.4469
X7.3661Y-3.9173
X7.6969Y-3.7992
X7.7953Y-3.2717
X7.7953Y-3.5512
T4
X4.0831Y-3.181
X4.1831Y-3.181
X4.2402Y-3.5024
X4.2402Y-3.6024
X4.2402Y-3.7024
X4.2402Y-3.8024
X4.4029Y-3.0079
X4.4029Y-3.1079
X4.6Y-4.563
X4.6378Y-2.8553
X4.6378Y-2.9553
X4.6378Y-3.0553
X4.6378Y-3.1553
X4.7Y-4.563
X4.8Y-4.563
X4.9Y-4.563
X5.0Y-4.563
X5.0157Y-2.8528
X5.0157Y-2.9528
X5.0157Y-3.1008
X5.0157Y-3.2008
X5.1Y-4.563
X5.594Y-3.186
X5.694Y-3.186
X5.811Y-3.9331
X5.9105Y-3.0157
X5.9105Y-3.1157
X6.7953Y-3.9281
X6.8031Y-4.1575
X7.2307Y-4.4528
X7.2307Y-4.6181
X7.3307Y-4.4528
X7.3307Y-4.6181
X7.5276Y-3.0827
X7.5315Y-3.3976
X7.5315Y-3.4976
T5
X3.8425Y-4.4724
X3.8425Y-4.5724
X3.9425Y-4.4724
X3.9425Y-4.5724
X4.0425Y-4.4724
X4.0425Y-4.5724
X4.1425Y-4.4724
X4.1425Y-4.5724
X4.2425Y-4.4724
X4.2425Y-4.5724
X6.0646Y-3.5663
X6.0646Y-3.6663
X6.1646Y-3.5663
X6.1646Y-3.6663
X6.2646Y-3.5663
X6.2646Y-3.6663
X6.3646Y-3.5663
X6.3646Y-3.6663
X6.4646Y-3.5663
X6.4646Y-3.6663
T6
X3.4488Y-2.8583
X3.4488Y-4.5827
X7.8071Y-2.8583
X7.8071Y-4.5827
T3
G00X6.2394Y-2.8071
M15
G01X6.2394Y-2.7756
M16
G05
G00X6.2394Y-2.9776
M15
G01X6.2394Y-2.9343
M16
G05
G00X6.5795Y-2.8071
M15
G01X6.5795Y-2.7756
M16
G05
G00X6.5795Y-2.9776
M15
G01X6.5795Y-2.9343
M16
G05
G00X6.9297Y-2.8079
M15
G01X6.9297Y-2.7764
M16
G05
G00X6.9297Y-2.9783
M15
G01X6.9297Y-2.935
M16
G05
G00X7.2699Y-2.8079
M15
G01X7.2699Y-2.7764
M16
G05
G00X7.2699Y-2.9783
M15
G01X7.2699Y-2.935
M16
G05
M30
